<svg width="60" height="60" viewBox="0 0 60 60" fill="none" xmlns="http://www.w3.org/2000/svg">
<g opacity="0.5">
<path d="M29.9912 31.4772C35.1942 31.4772 39.4121 27.2594 39.4121 22.0564C39.4121 16.8534 35.1942 12.6355 29.9912 12.6355C24.7882 12.6355 20.5703 16.8534 20.5703 22.0564C20.5703 27.2594 24.7882 31.4772 29.9912 31.4772Z" stroke="#8A938F" stroke-width="3" stroke-linecap="round" stroke-linejoin="round"/>
<path d="M50.9885 48.7396C45.8414 54.5371 38.3716 58.1605 30.0099 58.1605C21.6482 58.1605 14.1784 54.5371 9.03125 48.7396C12.9334 41.1397 20.8863 35.9369 30.0099 35.9369C39.1334 35.9369 47.0864 41.1397 50.9885 48.7396Z" stroke="#8A938F" stroke-width="3" stroke-linecap="round" stroke-linejoin="round"/>
<path d="M55.9494 19.0833C57.3617 22.4466 58.1421 26.1257 58.1421 30.0093C58.1421 45.5435 45.5437 58.1604 29.9909 58.1604C14.4381 58.1604 1.8584 45.5435 1.8584 30.0093C1.8584 14.4751 14.4567 1.85815 30.0095 1.85815" stroke="#8A938F" stroke-width="3" stroke-linecap="round" stroke-linejoin="round"/>
<path d="M48.2383 8.56604C49.0001 9.2164 49.7248 9.90392 50.4123 10.61" stroke="#8A938F" stroke-width="3" stroke-linecap="round" stroke-linejoin="round"/>
</g>
</svg>
