<svg width="123" height="86" viewBox="0 0 123 86" fill="none" xmlns="http://www.w3.org/2000/svg">
<g clip-path="url(#clip0_441_340375)">
<path d="M110.25 35.1601C111.68 38.5701 112.48 42.3101 112.48 46.2401C112.48 62.0101 99.6899 74.8001 83.9199 74.8001C68.1499 74.8001 55.3599 62.0101 55.3599 46.2401C55.3599 30.4701 68.1499 17.6801 83.9199 17.6801" stroke="white" stroke-width="3" stroke-linecap="round" stroke-linejoin="round"/>
<path d="M102.41 24.48C103.18 25.13 103.91 25.83 104.61 26.56" stroke="white" stroke-width="3" stroke-linecap="round" stroke-linejoin="round"/>
<path d="M83.9201 51.35C86.7422 51.35 89.0301 49.0622 89.0301 46.24C89.0301 43.4178 86.7422 41.13 83.9201 41.13C81.0979 41.13 78.8101 43.4178 78.8101 46.24C78.8101 49.0622 81.0979 51.35 83.9201 51.35Z" stroke="white" stroke-width="3" stroke-linecap="round" stroke-linejoin="round"/>
<path d="M53.0598 23.9301H37.0698" stroke="white" stroke-width="3" stroke-linecap="round" stroke-linejoin="round"/>
<path d="M47.4199 35.39H13.6699" stroke="white" stroke-width="3" stroke-linecap="round" stroke-linejoin="round"/>
<path d="M8.67 35.39H1" stroke="white" stroke-width="3" stroke-linecap="round" stroke-linejoin="round"/>
<path d="M45.8399 46.24H30.8799" stroke="white" stroke-width="3" stroke-linecap="round" stroke-linejoin="round"/>
<path d="M47.4199 57.74H18.3599" stroke="white" stroke-width="3" stroke-linecap="round" stroke-linejoin="round"/>
<path d="M13.36 57.74H12.75" stroke="white" stroke-width="3" stroke-linecap="round" stroke-linejoin="round"/>
<path d="M74.4102 36.66L80.3401 42.59" stroke="white" stroke-width="3" stroke-linecap="round" stroke-linejoin="round"/>
<path d="M99.04 31.58L88.04 42.59" stroke="white" stroke-width="3" stroke-linecap="round" stroke-linejoin="round"/>
<path d="M83.9199 70V65.87" stroke="white" stroke-width="3" stroke-linecap="round" stroke-linejoin="round"/>
<path d="M83.9199 26.59V22.46" stroke="white" stroke-width="3" stroke-linecap="round" stroke-linejoin="round"/>
<path d="M60.1499 46.23H64.2799" stroke="white" stroke-width="3" stroke-linecap="round" stroke-linejoin="round"/>
<path d="M103.56 46.23H107.69" stroke="white" stroke-width="3" stroke-linecap="round" stroke-linejoin="round"/>
<path d="M96.9998 1H70.8398C68.8626 1 67.2598 2.60282 67.2598 4.58C67.2598 6.55718 68.8626 8.16 70.8398 8.16H96.9998C98.9769 8.16 100.58 6.55718 100.58 4.58C100.58 2.60282 98.9769 1 96.9998 1Z" stroke="white" stroke-width="3" stroke-linecap="round" stroke-linejoin="round"/>
<path d="M83.9201 84.31C104.946 84.31 121.99 67.2655 121.99 46.24C121.99 25.2146 104.946 8.17004 83.9201 8.17004C62.8946 8.17004 45.8501 25.2146 45.8501 46.24C45.8501 67.2655 62.8946 84.31 83.9201 84.31Z" stroke="white" stroke-width="3" stroke-linecap="round" stroke-linejoin="round"/>
</g>
<defs>
<clipPath id="clip0_441_340375">
<rect width="122.99" height="85.31" fill="white"/>
</clipPath>
</defs>
</svg>
