<svg width="49" height="48" viewBox="0 0 49 48" fill="none" xmlns="http://www.w3.org/2000/svg">
<g clip-path="url(#clip0_1249_1919)">
<path d="M31.8254 37.8651C29.6354 39.0251 27.1454 39.6751 24.4954 39.6751C20.0754 39.6751 16.0754 37.8451 13.2354 34.9051C10.4954 32.0751 8.81543 28.2351 8.81543 23.9951C8.81543 21.1551 9.56543 18.4951 10.8854 16.1951" stroke="white" stroke-width="1.5" stroke-linecap="round" stroke-linejoin="round"/>
<path d="M35.5053 35.1753C35.1753 35.4953 34.8454 35.8053 34.4854 36.0953" stroke="white" stroke-width="1.5" stroke-linecap="round" stroke-linejoin="round"/>
<path d="M16.8457 10.3052C19.1057 9.03519 21.7157 8.31519 24.4957 8.31519C29.6157 8.31519 34.1657 10.7652 37.0257 14.5652C39.0057 17.1952 40.1757 20.4552 40.1757 23.9952C40.1757 27.2352 39.1957 30.2352 37.5157 32.7352" stroke="white" stroke-width="1.5" stroke-linecap="round" stroke-linejoin="round"/>
<path d="M24.675 23.9952C22.415 23.9952 20.585 22.1652 20.585 19.9052C20.585 17.6452 22.415 15.8152 24.675 15.8152C26.935 15.8152 28.765 17.6452 28.765 19.9052" stroke="white" stroke-width="1.5" stroke-linecap="round" stroke-linejoin="round"/>
<path d="M24.675 23.9951C26.935 23.9951 28.765 25.8251 28.765 28.0851C28.765 30.3451 26.935 32.1751 24.675 32.1751C22.415 32.1751 20.585 30.3451 20.585 28.0851" stroke="white" stroke-width="1.5" stroke-linecap="round" stroke-linejoin="round"/>
<path d="M24.6748 13.7551V15.8251" stroke="white" stroke-width="1.5" stroke-linecap="round" stroke-linejoin="round"/>
<path d="M24.6748 32.175V34.245" stroke="white" stroke-width="1.5" stroke-linecap="round" stroke-linejoin="round"/>
<path d="M2.21512 18.2651C1.74512 20.0951 1.49512 22.0151 1.49512 23.9951C1.49512 36.6951 11.7951 46.9951 24.4951 46.9951C37.1951 46.9951 47.4951 36.6951 47.4951 23.9951C47.4951 11.2951 37.2051 0.995117 24.4951 0.995117C16.5851 0.995117 9.59512 4.99512 5.45512 11.0851" stroke="white" stroke-width="1.5" stroke-linecap="round" stroke-linejoin="round"/>
<path d="M4.55469 3.71509L5.45469 11.0851L12.8347 10.1751" stroke="white" stroke-width="1.5" stroke-linecap="round" stroke-linejoin="round"/>
</g>
<defs>
<clipPath id="clip0_1249_1919">
<rect width="47.51" height="47.51" fill="white" transform="translate(0.745117 0.245117)"/>
</clipPath>
</defs>
</svg>
