<svg width="17" height="20" viewBox="0 0 17 20" fill="none" xmlns="http://www.w3.org/2000/svg">
<path d="M6 4.5V2.5C6 1.94772 6.44772 1.5 7 1.5H10.5858C10.851 1.5 11.1054 1.60536 11.2929 1.79289L15.2071 5.70711C15.3946 5.89464 15.5 6.149 15.5 6.41421V13C15.5 13.5523 15.0523 14 14.5 14H12" stroke="#629A48" stroke-width="1.5" stroke-linejoin="round"/>
<path d="M1 7V17.5C1 18.0523 1.44772 18.5 2 18.5H9.5C10.0523 18.5 10.5 18.0523 10.5 17.5V10.9142C10.5 10.649 10.3946 10.3946 10.2071 10.2071L6.29289 6.29289C6.10536 6.10536 5.851 6 5.58579 6H2C1.44772 6 1 6.44772 1 7Z" stroke="#629A48" stroke-width="1.5" stroke-linejoin="round"/>
</svg>
