<svg width="21" height="25" viewBox="0 0 21 25" fill="none" xmlns="http://www.w3.org/2000/svg">
<path d="M7.62012 5.46499V2.81711C7.62012 2.08591 8.21287 1.49316 8.94406 1.49316H13.6914C14.0426 1.49316 14.3793 1.63265 14.6276 1.88094L19.8098 7.06314C20.0581 7.31142 20.1976 7.64817 20.1976 7.99931V16.7185C20.1976 17.4497 19.6048 18.0425 18.8736 18.0425H15.5638" stroke="#3C6132" stroke-width="1.5" stroke-linejoin="round"/>
<path d="M1 8.77463V22.676C1 23.4072 1.59275 24 2.32394 24H12.2535C12.9847 24 13.5775 23.4072 13.5775 22.676V13.9568C13.5775 13.6057 13.438 13.2689 13.1897 13.0207L8.00749 7.83846C7.75921 7.59017 7.42245 7.45068 7.07132 7.45068H2.32394C1.59275 7.45068 1 8.04343 1 8.77463Z" stroke="#3C6132" stroke-width="1.5" stroke-linejoin="round"/>
</svg>
