<svg width="18" height="18" viewBox="0 0 18 18" fill="none" xmlns="http://www.w3.org/2000/svg">
<path d="M1.34022 16.655C1.53553 16.8438 1.76014 16.9675 2.01404 17.0261C2.27446 17.0912 2.52837 17.0912 2.77576 17.0261C3.02967 16.9675 3.24777 16.8503 3.43006 16.6745L9.00623 11.0983L14.5726 16.6647C14.7549 16.8535 14.973 16.9772 15.2269 17.0358C15.4808 17.0944 15.7347 17.0912 15.9887 17.0261C16.2426 16.9675 16.4639 16.8438 16.6527 16.655C16.8415 16.4662 16.9652 16.2448 17.0238 15.9909C17.0889 15.737 17.0922 15.4831 17.0336 15.2292C16.975 14.9753 16.8545 14.7572 16.6722 14.5749L11.1058 8.99872L16.6722 3.43231C16.8545 3.24351 16.975 3.02541 17.0336 2.77801C17.0987 2.52411 17.0987 2.2702 17.0336 2.0163C16.9685 1.76239 16.8415 1.54104 16.6527 1.35223C16.4574 1.16343 16.2328 1.03648 15.9789 0.971375C15.7315 0.90627 15.4808 0.90627 15.2269 0.971375C14.973 1.02997 14.7549 1.15041 14.5726 1.3327L9.00623 6.89911L3.43006 1.3327C3.24777 1.15041 3.02967 1.02997 2.77576 0.971375C2.52186 0.912781 2.2647 0.912781 2.00428 0.971375C1.75037 1.02997 1.52902 1.15692 1.34022 1.35223C1.15792 1.54104 1.03423 1.76239 0.969123 2.0163C0.910529 2.2702 0.910529 2.52411 0.969123 2.77801C1.03423 3.03192 1.15467 3.24676 1.33045 3.42255L6.90662 8.99872L1.33045 14.5847C1.15467 14.7604 1.03423 14.9753 0.969123 15.2292C0.904018 15.4766 0.900763 15.7305 0.959357 15.9909C1.02446 16.2448 1.15141 16.4662 1.34022 16.655Z" fill="white"/>
</svg>
