<svg width="32" height="33" viewBox="0 0 32 33" fill="none" xmlns="http://www.w3.org/2000/svg">
<path fill-rule="evenodd" clip-rule="evenodd" d="M0 5.36893C0 2.6075 2.23858 0.368927 5 0.368927H27C29.7614 0.368927 32 2.6075 32 5.36893V27.3689C32 30.1304 29.7614 32.3689 27 32.3689H5C2.23858 32.3689 0 30.1304 0 27.3689V5.36893ZM16 8.36893C20.4 8.36893 24 11.9689 24 16.3689C24 20.3689 21.1 23.7689 17.1 24.3689V18.6689H19L19.4 16.3689H17.2V14.8689C17.2 14.2689 17.5 13.6689 18.5 13.6689H19.5V11.6689C19.5 11.6689 18.6 11.4689 17.7 11.4689C15.9 11.4689 14.7 12.5689 14.7 14.5689V16.3689H12.7V18.6689H14.7V24.2689C10.9 23.6689 8 20.3689 8 16.3689C8 11.9689 11.6 8.36893 16 8.36893Z" fill="#629A48"/>
</svg>
