<svg width="38" height="52" viewBox="0 0 38 52" fill="none" xmlns="http://www.w3.org/2000/svg">
<g clip-path="url(#clip0_1249_1632)">
<path d="M10.3646 36.71C10.2346 36.62 10.1146 36.53 9.99465 36.45C6.36465 33.73 4.01465 29.37 4.01465 24.47C4.01465 20.37 5.74465 16.37 8.01465 12.83C8.23465 13.89 8.72465 14.81 9.23465 15.52C10.0246 16.62 10.8546 17.28 10.8546 17.28C10.8246 17.07 10.7646 16.88 10.7646 16.68C9.47465 8.64 18.9846 1 18.9846 1C18.9846 1 19.8646 1.69 21.1846 2.95C21.2746 3.01 21.3646 3.1 21.4746 3.19C22.1646 3.84 22.9746 4.62 23.8446 5.51" stroke="white" stroke-width="1.5" stroke-linecap="round" stroke-linejoin="round"/>
<path d="M28.0245 10.3501C31.1845 14.4801 33.9645 19.5201 33.9645 24.4701C33.9645 29.4201 31.4845 34.0101 27.6445 36.7101" stroke="white" stroke-width="1.5" stroke-linecap="round" stroke-linejoin="round"/>
<path d="M25.9248 7.78003C26.0048 7.87003 26.0748 7.95003 26.1548 8.04003" stroke="white" stroke-width="1.5" stroke-linecap="round" stroke-linejoin="round"/>
<path d="M24.4951 24.9199C26.0051 27.1099 27.2451 29.4499 27.2451 31.2099C27.2451 33.3299 26.4551 35.2499 25.1251 36.7099" stroke="white" stroke-width="1.5" stroke-linecap="round" stroke-linejoin="round"/>
<path d="M12.8549 36.71C11.5449 35.26 10.7549 33.33 10.7549 31.21C10.7549 26.65 18.9949 18.29 18.9949 18.29C18.9949 18.29 20.5049 19.83 22.2449 21.96" stroke="white" stroke-width="1.5" stroke-linecap="round" stroke-linejoin="round"/>
<path d="M37.0643 36.71C35.4843 39 33.4743 40.98 31.1643 42.53C30.1543 43.21 29.0843 43.8 27.9643 44.3C25.7543 45.29 23.3543 45.92 20.8343 46.13C20.2343 46.18 19.6243 46.21 19.0043 46.21C18.3843 46.21 17.7743 46.19 17.1743 46.13C14.6543 45.92 12.2543 45.29 10.0443 44.3C8.92434 43.8 7.85434 43.21 6.84434 42.53C4.52434 40.98 2.52434 39.01 0.944336 36.71H37.0643Z" stroke="white" stroke-width="1.5" stroke-linecap="round" stroke-linejoin="round"/>
<path d="M10.0443 44.29L6.5643 50.11C6.2243 50.68 5.6143 51 4.9943 51C4.6743 51 4.3543 50.92 4.0543 50.74C3.1843 50.22 2.9043 49.1 3.4243 48.23L6.8443 42.52C7.8543 43.2 8.9243 43.79 10.0443 44.29V44.29Z" stroke="white" stroke-width="1.5" stroke-linecap="round" stroke-linejoin="round"/>
<path d="M33.9441 50.74C33.6541 50.92 33.3241 51 33.0041 51C32.3841 51 31.7741 50.68 31.4341 50.11L27.9541 44.29C29.0741 43.79 30.1441 43.2 31.1541 42.52L34.5741 48.23C35.0941 49.1 34.8141 50.22 33.9441 50.74V50.74Z" stroke="white" stroke-width="1.5" stroke-linecap="round" stroke-linejoin="round"/>
</g>
<defs>
<clipPath id="clip0_1249_1632">
<rect width="37.63" height="51.5" fill="white" transform="translate(0.18457 0.25)"/>
</clipPath>
</defs>
</svg>
