<svg width="41" height="39" viewBox="0 0 41 39" fill="none" xmlns="http://www.w3.org/2000/svg">
<g clip-path="url(#clip0_1216_50)">
<path d="M40.4992 21.0658C40.4272 21.6833 40.3646 22.3017 40.2817 22.9177C39.9161 25.6357 38.9863 28.1552 37.5288 30.4722C35.9078 33.0495 33.8454 35.2063 31.2624 36.8495C29.9059 37.7117 28.4603 38.3871 26.9418 38.9062C26.0659 39.2056 25.4805 38.771 25.4773 37.8345C25.4719 36.1053 25.4812 34.3753 25.4734 32.6462C25.4687 31.5846 25.3607 30.5387 24.7791 29.6092C24.6093 29.3387 24.3948 29.0956 24.196 28.833C24.9803 28.6868 25.7646 28.5836 26.5254 28.3905C28.5659 27.8714 30.3912 26.9701 31.6326 25.1886C32.5445 23.88 33.0039 22.3814 33.1307 20.8125C33.2215 19.6931 33.2309 18.5486 33.1049 17.4347C32.9523 16.08 32.3206 14.8863 31.4158 13.856C31.2624 13.6817 31.2084 13.5378 31.2906 13.3064C31.8729 11.6648 31.6538 10.0568 31.0464 8.47462C31.008 8.37535 30.8515 8.27528 30.7372 8.25731C30.0414 8.14943 29.3831 8.34799 28.7726 8.63253C27.7738 9.09765 26.8001 9.61984 25.8303 10.1452C25.5822 10.2796 25.3748 10.3203 25.1001 10.2507C22.0373 9.47679 18.9698 9.47444 15.9078 10.2483C15.5955 10.3273 15.3662 10.2757 15.111 10.1069C13.8884 9.29699 12.5727 8.681 11.1489 8.32063C10.1267 8.06188 9.9623 8.17523 9.67661 9.17739C9.27429 10.5868 9.21481 11.9892 9.71027 13.3932C9.74706 13.4972 9.7087 13.6793 9.63513 13.763C7.94367 15.6774 7.56406 17.9444 7.80044 20.3935C7.93663 21.8053 8.27163 23.1553 8.90329 24.4272C9.80185 26.2361 11.3266 27.3367 13.1683 27.984C14.3236 28.3897 15.5478 28.6016 16.6725 28.883C16.4299 29.3223 16.1286 29.8429 15.8546 30.3776C15.756 30.5699 15.6863 30.7951 15.673 31.0093C15.6487 31.3923 15.4593 31.5807 15.104 31.6792C13.8266 32.0333 12.5586 32.2655 11.3313 31.5189C10.6934 31.1312 10.219 30.5863 9.84411 29.9492C9.26803 28.9698 8.46183 28.2514 7.36916 27.9238C6.97545 27.8058 6.52774 27.8261 6.1082 27.848C5.80294 27.8644 5.70041 28.0825 5.90939 28.3389C6.08785 28.5586 6.27101 28.8032 6.50817 28.9408C7.55623 29.5498 8.14405 30.5152 8.62151 31.569C8.90642 32.1967 9.15845 32.8322 9.69227 33.3122C10.5313 34.0673 11.5457 34.3535 12.6314 34.4027C13.5738 34.4457 14.5201 34.4113 15.518 34.4113C15.518 34.6083 15.5157 34.9038 15.518 35.1993C15.5266 36.0701 15.5454 36.9417 15.547 37.8126C15.5486 38.7655 14.92 39.204 14.0097 38.8929C11.6209 38.0752 9.4418 36.8776 7.53118 35.2259C5.37088 33.3568 3.65595 31.1359 2.41064 28.5601C0.949311 25.5341 0.3701 22.3306 0.52273 18.9903C0.698058 15.1552 1.89718 11.6586 4.11619 8.52153C6.82752 4.68954 10.4554 2.12315 14.9545 0.78641C16.3814 0.362718 17.8451 0.134456 19.333 0.0625376C19.513 0.0539387 19.6923 0.0218882 19.8715 0C20.2879 0 20.7051 0 21.1215 0C21.2749 0.0203247 21.4275 0.0531569 21.581 0.0594107C23.4783 0.139928 25.3278 0.483884 27.1124 1.12568C31.2139 2.59922 34.5318 5.1101 37.0044 8.70445C38.6387 11.0801 39.733 13.6824 40.1948 16.5365C40.3122 17.2635 40.3983 17.9952 40.4992 18.7253V21.0658Z" fill="white"/>
</g>
<defs>
<clipPath id="clip0_1216_50">
<rect width="40" height="39" fill="white" transform="translate(0.5)"/>
</clipPath>
</defs>
</svg>
