<svg width="32" height="33" viewBox="0 0 32 33" fill="none" xmlns="http://www.w3.org/2000/svg">
<path fill-rule="evenodd" clip-rule="evenodd" d="M0 5.36893C0 2.6075 2.23858 0.368927 5 0.368927H27C29.7614 0.368927 32 2.6075 32 5.36893V27.3689C32 30.1304 29.7614 32.3689 27 32.3689H5C2.23858 32.3689 0 30.1304 0 27.3689V5.36893ZM8.2 13.6689V24.3689H11.6V13.6689H8.2ZM8 10.2689C8 11.3689 8.8 12.1689 9.9 12.1689C11 12.1689 11.8 11.3689 11.8 10.2689C11.8 9.16893 11 8.36893 9.9 8.36893C8.9 8.36893 8 9.16893 8 10.2689ZM20.6 24.3689H23.8V17.7689C23.8 14.4689 21.8 13.3689 19.9 13.3689C18.2 13.3689 17 14.4689 16.7 15.1689V13.6689H13.5V24.3689H16.9V18.6689C16.9 17.1689 17.9 16.3689 18.9 16.3689C19.9 16.3689 20.6 16.8689 20.6 18.5689V24.3689Z" fill="#629A48"/>
</svg>
