<svg width="43" height="50" viewBox="0 0 43 50" fill="none" xmlns="http://www.w3.org/2000/svg">
<g clip-path="url(#clip0_1259_136)">
<path d="M1.81465 38.9648C1.61465 38.0348 1.51465 37.0048 1.51465 35.9048C1.51465 27.9248 6.73465 17.5248 13.9146 13.0948C16.1046 13.7748 18.3346 14.1048 20.5746 14.1048C22.8146 14.1048 25.0146 13.7748 27.1646 13.1048C27.3146 13.0648 27.4646 13.0148 27.5946 12.9248" stroke="#629A48" stroke-width="1.5" stroke-linecap="round" stroke-linejoin="round"/>
<path d="M34.9848 20.6548C37.9148 25.3948 39.6648 31.0948 39.6648 35.9048C39.6648 37.0448 39.5648 38.0848 39.3748 39.0448C39.1848 40.0048 39.4148 41.0248 40.1048 41.7248C41.2648 42.9048 41.7748 44.2348 41.2948 45.2348C40.6548 46.5648 38.4848 46.9048 36.1148 46.1548C35.4048 45.9348 34.6248 45.9748 33.9648 46.3248C30.6248 48.0948 26.0548 48.6348 20.9248 48.6348C15.7948 48.6348 10.9148 48.0648 7.38477 46.2348" stroke="#629A48" stroke-width="1.5" stroke-linecap="round" stroke-linejoin="round"/>
<path d="M32.165 16.835C32.475 17.185 32.775 17.545 33.065 17.915" stroke="#629A48" stroke-width="1.5" stroke-linecap="round" stroke-linejoin="round"/>
<path d="M28.5249 11.385C28.5249 12.065 28.1549 12.645 27.6049 12.935C27.4749 13.015 27.3249 13.075 27.1749 13.115C25.0249 13.785 22.8149 14.115 20.5849 14.115C18.3549 14.115 16.1049 13.775 13.9249 13.105C12.9849 12.805 12.4549 11.805 12.7549 10.865C12.9549 10.225 13.4949 9.76504 14.1249 9.64504C14.4049 9.58504 14.7049 9.59504 14.9949 9.69504C18.6649 10.835 22.5449 10.835 26.2049 9.69504L26.4649 9.61504H26.7349C26.8249 9.61504 26.9149 9.61504 26.9949 9.64504C27.8649 9.76504 28.5349 10.515 28.5349 11.405L28.5249 11.385Z" stroke="#629A48" stroke-width="1.5" stroke-linecap="round" stroke-linejoin="round"/>
<path d="M20.5843 31.0349C18.2943 31.0349 16.4443 29.1749 16.4443 26.8949C16.4443 24.6149 18.3043 22.7549 20.5843 22.7549C22.8643 22.7549 24.7243 24.6149 24.7243 26.8949" stroke="#629A48" stroke-width="1.5" stroke-linecap="round" stroke-linejoin="round"/>
<path d="M20.5843 31.0347C22.8743 31.0347 24.7243 32.8947 24.7243 35.1747C24.7243 37.4547 22.8643 39.3147 20.5843 39.3147C18.3043 39.3147 16.4443 37.4547 16.4443 35.1747" stroke="#629A48" stroke-width="1.5" stroke-linecap="round" stroke-linejoin="round"/>
<path d="M20.584 20.6548V22.7448" stroke="#629A48" stroke-width="1.5" stroke-linecap="round" stroke-linejoin="round"/>
<path d="M20.584 39.3247V41.4147" stroke="#629A48" stroke-width="1.5" stroke-linecap="round" stroke-linejoin="round"/>
<path d="M26.9746 9.63498C26.9746 9.63498 29.8646 6.47498 30.8646 4.55498C32.0646 2.25498 31.0746 1.35498 29.7946 1.35498C27.4846 1.35498 27.4846 3.21498 25.1646 3.21498C22.8446 3.21498 22.8446 1.35498 20.5346 1.35498C18.2146 1.35498 18.2146 3.21498 15.9046 3.21498C13.5946 3.21498 13.5946 1.35498 11.2746 1.35498C9.9946 1.35498 9.0046 2.25498 10.2046 4.55498C10.5146 5.13498 10.9946 5.84498 11.5146 6.53498" stroke="#629A48" stroke-width="1.5" stroke-linecap="round" stroke-linejoin="round"/>
</g>
<defs>
<clipPath id="clip0_1259_136">
<rect width="41.47" height="48.79" fill="white" transform="translate(0.764648 0.60498)"/>
</clipPath>
</defs>
</svg>
