<svg width="43" height="50" viewBox="0 0 43 50" fill="none" xmlns="http://www.w3.org/2000/svg">
<g clip-path="url(#clip0_1249_2199)">
<path d="M1.81465 38.965C1.61465 38.035 1.51465 37.005 1.51465 35.905C1.51465 27.925 6.73465 17.525 13.9146 13.095C16.1046 13.775 18.3346 14.105 20.5746 14.105C22.8146 14.105 25.0146 13.775 27.1646 13.105C27.3146 13.065 27.4646 13.015 27.5946 12.925" stroke="white" stroke-width="1.5" stroke-linecap="round" stroke-linejoin="round"/>
<path d="M34.9848 20.655C37.9148 25.395 39.6648 31.095 39.6648 35.905C39.6648 37.045 39.5648 38.085 39.3748 39.045C39.1848 40.005 39.4148 41.025 40.1048 41.725C41.2648 42.905 41.7748 44.235 41.2948 45.235C40.6548 46.565 38.4848 46.905 36.1148 46.155C35.4048 45.935 34.6248 45.975 33.9648 46.325C30.6248 48.095 26.0548 48.635 20.9248 48.635C15.7948 48.635 10.9148 48.065 7.38477 46.235" stroke="white" stroke-width="1.5" stroke-linecap="round" stroke-linejoin="round"/>
<path d="M32.165 16.835C32.475 17.185 32.775 17.545 33.065 17.915" stroke="white" stroke-width="1.5" stroke-linecap="round" stroke-linejoin="round"/>
<path d="M28.5249 11.385C28.5249 12.065 28.1549 12.645 27.6049 12.935C27.4749 13.015 27.3249 13.075 27.1749 13.115C25.0249 13.785 22.8149 14.115 20.5849 14.115C18.3549 14.115 16.1049 13.775 13.9249 13.105C12.9849 12.805 12.4549 11.805 12.7549 10.865C12.9549 10.225 13.4949 9.76504 14.1249 9.64504C14.4049 9.58504 14.7049 9.59504 14.9949 9.69504C18.6649 10.835 22.5449 10.835 26.2049 9.69504L26.4649 9.61504H26.7349C26.8249 9.61504 26.9149 9.61504 26.9949 9.64504C27.8649 9.76504 28.5349 10.515 28.5349 11.405L28.5249 11.385Z" stroke="white" stroke-width="1.5" stroke-linecap="round" stroke-linejoin="round"/>
<path d="M20.5843 31.0351C18.2943 31.0351 16.4443 29.1751 16.4443 26.8951C16.4443 24.6151 18.3043 22.7551 20.5843 22.7551C22.8643 22.7551 24.7243 24.6151 24.7243 26.8951" stroke="white" stroke-width="1.5" stroke-linecap="round" stroke-linejoin="round"/>
<path d="M20.5843 31.0349C22.8743 31.0349 24.7243 32.8949 24.7243 35.1749C24.7243 37.4549 22.8643 39.3149 20.5843 39.3149C18.3043 39.3149 16.4443 37.4549 16.4443 35.1749" stroke="white" stroke-width="1.5" stroke-linecap="round" stroke-linejoin="round"/>
<path d="M20.584 20.655V22.745" stroke="white" stroke-width="1.5" stroke-linecap="round" stroke-linejoin="round"/>
<path d="M20.584 39.325V41.415" stroke="white" stroke-width="1.5" stroke-linecap="round" stroke-linejoin="round"/>
<path d="M26.9746 9.63498C26.9746 9.63498 29.8646 6.47498 30.8646 4.55498C32.0646 2.25498 31.0746 1.35498 29.7946 1.35498C27.4846 1.35498 27.4846 3.21498 25.1646 3.21498C22.8446 3.21498 22.8446 1.35498 20.5346 1.35498C18.2146 1.35498 18.2146 3.21498 15.9046 3.21498C13.5946 3.21498 13.5946 1.35498 11.2746 1.35498C9.9946 1.35498 9.0046 2.25498 10.2046 4.55498C10.5146 5.13498 10.9946 5.84498 11.5146 6.53498" stroke="white" stroke-width="1.5" stroke-linecap="round" stroke-linejoin="round"/>
</g>
<defs>
<clipPath id="clip0_1249_2199">
<rect width="41.47" height="48.79" fill="white" transform="translate(0.764648 0.60498)"/>
</clipPath>
</defs>
</svg>
