<svg width="32" height="33" viewBox="0 0 32 33" fill="none" xmlns="http://www.w3.org/2000/svg">
<path fill-rule="evenodd" clip-rule="evenodd" d="M0 5.36893C0 2.6075 2.23858 0.368927 5 0.368927H27C29.7614 0.368927 32 2.6075 32 5.36893V27.3689C32 30.1304 29.7614 32.3689 27 32.3689H5C2.23858 32.3689 0 30.1304 0 27.3689V5.36893ZM22.1 11.8689C22.8 11.7689 23.4 11.6689 24 11.3689C23.6 12.0689 23 12.6689 22.3 13.0689C22.5 17.7689 19.1 22.8689 13 22.8689C11.2 22.8689 9.5 22.2689 8 21.3689C9.7 21.5689 11.5 21.0689 12.7 20.1689C11.2 20.1689 10 19.1689 9.6 17.8689C10.1 17.9689 10.6 17.8689 11.1 17.7689C9.6 17.3689 8.5 15.9689 8.5 14.4689C9 14.6689 9.5 14.8689 10 14.8689C8.6 13.8689 8.1 11.9689 9 10.4689C10.7 12.4689 13.1 13.7689 15.8 13.8689C15.3 11.8689 16.9 9.86893 19 9.86893C19.9 9.86893 20.8 10.2689 21.4 10.8689C22.2 10.6689 22.9 10.4689 23.5 10.0689C23.3 10.8689 22.8 11.4689 22.1 11.8689Z" fill="#629A48"/>
</svg>
