<svg width="28" height="25" viewBox="0 0 28 25" fill="none" xmlns="http://www.w3.org/2000/svg">
<g clip-path="url(#clip0_432_254500)">
<path d="M25.61 16.92V20.57C25.61 22.31 24.2 23.72 22.46 23.72H4.15C2.41 23.72 1 22.31 1 20.57V6.9C1 5.16 2.41 3.75 4.15 3.75H13.1" stroke="white" stroke-linecap="round" stroke-linejoin="round"/>
<path d="M19.7 3.75H22.46C24.2 3.75 25.61 5.16 25.61 6.9V10.55" stroke="white" stroke-linecap="round" stroke-linejoin="round"/>
<path d="M19.65 10.55H27.39V16.92H19.65C18.59 16.92 17.73 16.06 17.73 15V12.48C17.73 11.42 18.59 10.56 19.65 10.56V10.55Z" stroke="white" stroke-linecap="round" stroke-linejoin="round"/>
<path d="M25.61 7.84009H3.15997" stroke="white" stroke-linecap="round" stroke-linejoin="round"/>
<path d="M6.17999 7.84004L16.94 1.47004C17.51 1.13004 18.26 1.32004 18.6 1.90004L22.12 7.84004" stroke="white" stroke-linecap="round" stroke-linejoin="round"/>
</g>
<defs>
<clipPath id="clip0_432_254500">
<rect width="27.39" height="23.43" fill="white" transform="translate(0.5 0.800049)"/>
</clipPath>
</defs>
</svg>
