<svg width="32" height="33" viewBox="0 0 32 33" fill="none" xmlns="http://www.w3.org/2000/svg">
<path d="M18.6 16.3689L14.4 13.9689V18.7689L18.6 16.3689Z" fill="#629A48"/>
<path fill-rule="evenodd" clip-rule="evenodd" d="M0 5.36893C0 2.6075 2.23858 0.368927 5 0.368927H27C29.7614 0.368927 32 2.6075 32 5.36893V27.3689C32 30.1304 29.7614 32.3689 27 32.3689H5C2.23858 32.3689 0 30.1304 0 27.3689V5.36893ZM22.2 11.0689C22.9 11.2689 23.4 11.7689 23.6 12.4689C24 13.7689 24 16.3689 24 16.3689C24 16.3689 24 18.9689 23.7 20.2689C23.5 20.9689 23 21.4689 22.3 21.6689C21 21.9689 16 21.9689 16 21.9689C16 21.9689 10.9 21.9689 9.7 21.6689C9 21.4689 8.5 20.9689 8.3 20.2689C8 18.9689 8 16.3689 8 16.3689C8 16.3689 8 13.7689 8.2 12.4689C8.4 11.7689 8.90001 11.2689 9.60001 11.0689C10.9 10.7689 15.9 10.7689 15.9 10.7689C15.9 10.7689 21 10.7689 22.2 11.0689Z" fill="#629A48"/>
</svg>
