<svg width="148" height="147" viewBox="0 0 148 147" fill="none" xmlns="http://www.w3.org/2000/svg">
<g clip-path="url(#clip0_1_24)">
<rect x="0.463989" y="-0.0358276" width="147" height="147" fill="url(#paint0_linear_1_24)"/>
<g opacity="0.04">
<circle cx="6" cy="-1.5" r="2.5" fill="#D9D9D9"/>
<circle cx="15" cy="-1.5" r="2.5" fill="#D9D9D9"/>
<circle cx="24" cy="-1.5" r="2.5" fill="#D9D9D9"/>
<circle cx="33" cy="-1.5" r="2.5" fill="#D9D9D9"/>
<circle cx="42" cy="-1.5" r="2.5" fill="#D9D9D9"/>
<circle cx="51" cy="-1.5" r="2.5" fill="#D9D9D9"/>
<circle cx="60" cy="-1.5" r="2.5" fill="#D9D9D9"/>
<circle cx="69" cy="-1.5" r="2.5" fill="#D9D9D9"/>
<circle cx="78" cy="-1.5" r="2.5" fill="#D9D9D9"/>
<circle cx="87" cy="-1.5" r="2.5" fill="#D9D9D9"/>
<circle cx="96" cy="-1.5" r="2.5" fill="#D9D9D9"/>
<circle cx="105" cy="-1.5" r="2.5" fill="#D9D9D9"/>
<circle cx="114" cy="-1.5" r="2.5" fill="#D9D9D9"/>
<circle cx="123" cy="-1.5" r="2.5" fill="#D9D9D9"/>
<circle cx="132" cy="-1.5" r="2.5" fill="#D9D9D9"/>
<circle cx="141" cy="-1.5" r="2.5" fill="#D9D9D9"/>
<circle cx="150" cy="-1.5" r="2.5" fill="#D9D9D9"/>
<circle cx="6" cy="6.5" r="2.5" fill="#D9D9D9"/>
<circle cx="15" cy="6.5" r="2.5" fill="#D9D9D9"/>
<circle cx="24" cy="6.5" r="2.5" fill="#D9D9D9"/>
<circle cx="33" cy="6.5" r="2.5" fill="#D9D9D9"/>
<circle cx="42" cy="6.5" r="2.5" fill="#D9D9D9"/>
<circle cx="51" cy="6.5" r="2.5" fill="#D9D9D9"/>
<circle cx="60" cy="6.5" r="2.5" fill="#D9D9D9"/>
<circle cx="69" cy="6.5" r="2.5" fill="#D9D9D9"/>
<circle cx="78" cy="6.5" r="2.5" fill="#D9D9D9"/>
<circle cx="87" cy="6.5" r="2.5" fill="#D9D9D9"/>
<circle cx="96" cy="6.5" r="2.5" fill="#D9D9D9"/>
<circle cx="105" cy="6.5" r="2.5" fill="#D9D9D9"/>
<circle cx="114" cy="6.5" r="2.5" fill="#D9D9D9"/>
<circle cx="123" cy="6.5" r="2.5" fill="#D9D9D9"/>
<circle cx="132" cy="6.5" r="2.5" fill="#D9D9D9"/>
<circle cx="141" cy="6.5" r="2.5" fill="#D9D9D9"/>
<circle cx="150" cy="6.5" r="2.5" fill="#D9D9D9"/>
<circle cx="6" cy="14.5" r="2.5" fill="#D9D9D9"/>
<circle cx="15" cy="14.5" r="2.5" fill="#D9D9D9"/>
<circle cx="24" cy="14.5" r="2.5" fill="#D9D9D9"/>
<circle cx="33" cy="14.5" r="2.5" fill="#D9D9D9"/>
<circle cx="42" cy="14.5" r="2.5" fill="#D9D9D9"/>
<circle cx="51" cy="14.5" r="2.5" fill="#D9D9D9"/>
<circle cx="60" cy="14.5" r="2.5" fill="#D9D9D9"/>
<circle cx="69" cy="14.5" r="2.5" fill="#D9D9D9"/>
<circle cx="78" cy="14.5" r="2.5" fill="#D9D9D9"/>
<circle cx="87" cy="14.5" r="2.5" fill="#D9D9D9"/>
<circle cx="96" cy="14.5" r="2.5" fill="#D9D9D9"/>
<circle cx="105" cy="14.5" r="2.5" fill="#D9D9D9"/>
<circle cx="114" cy="14.5" r="2.5" fill="#D9D9D9"/>
<circle cx="123" cy="14.5" r="2.5" fill="#D9D9D9"/>
<circle cx="132" cy="14.5" r="2.5" fill="#D9D9D9"/>
<circle cx="141" cy="14.5" r="2.5" fill="#D9D9D9"/>
<circle cx="150" cy="14.5" r="2.5" fill="#D9D9D9"/>
<circle cx="6" cy="22.5" r="2.5" fill="#D9D9D9"/>
<circle cx="15" cy="22.5" r="2.5" fill="#D9D9D9"/>
<circle cx="24" cy="22.5" r="2.5" fill="#D9D9D9"/>
<circle cx="33" cy="22.5" r="2.5" fill="#D9D9D9"/>
<circle cx="42" cy="22.5" r="2.5" fill="#D9D9D9"/>
<circle cx="51" cy="22.5" r="2.5" fill="#D9D9D9"/>
<circle cx="60" cy="22.5" r="2.5" fill="#D9D9D9"/>
<circle cx="69" cy="22.5" r="2.5" fill="#D9D9D9"/>
<circle cx="78" cy="22.5" r="2.5" fill="#D9D9D9"/>
<circle cx="87" cy="22.5" r="2.5" fill="#D9D9D9"/>
<circle cx="96" cy="22.5" r="2.5" fill="#D9D9D9"/>
<circle cx="105" cy="22.5" r="2.5" fill="#D9D9D9"/>
<circle cx="114" cy="22.5" r="2.5" fill="#D9D9D9"/>
<circle cx="123" cy="22.5" r="2.5" fill="#D9D9D9"/>
<circle cx="132" cy="22.5" r="2.5" fill="#D9D9D9"/>
<circle cx="141" cy="22.5" r="2.5" fill="#D9D9D9"/>
<circle cx="150" cy="22.5" r="2.5" fill="#D9D9D9"/>
<circle cx="1.5" cy="30.5" r="2.5" fill="#D9D9D9"/>
<circle cx="10.5" cy="30.5" r="2.5" fill="#D9D9D9"/>
<circle cx="19.5" cy="30.5" r="2.5" fill="#D9D9D9"/>
<circle cx="28.5" cy="30.5" r="2.5" fill="#D9D9D9"/>
<circle cx="37.5" cy="30.5" r="2.5" fill="#D9D9D9"/>
<circle cx="46.5" cy="30.5" r="2.5" fill="#D9D9D9"/>
<circle cx="55.5" cy="30.5" r="2.5" fill="#D9D9D9"/>
<circle cx="64.5" cy="30.5" r="2.5" fill="#D9D9D9"/>
<circle cx="73.5" cy="30.5" r="2.5" fill="#D9D9D9"/>
<circle cx="82.5" cy="30.5" r="2.5" fill="#D9D9D9"/>
<circle cx="91.5" cy="30.5" r="2.5" fill="#D9D9D9"/>
<circle cx="100.5" cy="30.5" r="2.5" fill="#D9D9D9"/>
<circle cx="109.5" cy="30.5" r="2.5" fill="#D9D9D9"/>
<circle cx="118.5" cy="30.5" r="2.5" fill="#D9D9D9"/>
<circle cx="127.5" cy="30.5" r="2.5" fill="#D9D9D9"/>
<circle cx="136.5" cy="30.5" r="2.5" fill="#D9D9D9"/>
<circle cx="145.5" cy="30.5" r="2.5" fill="#D9D9D9"/>
<circle cx="1.5" cy="38.5" r="2.5" fill="#D9D9D9"/>
<circle cx="10.5" cy="38.5" r="2.5" fill="#D9D9D9"/>
<circle cx="19.5" cy="38.5" r="2.5" fill="#D9D9D9"/>
<circle cx="28.5" cy="38.5" r="2.5" fill="#D9D9D9"/>
<circle cx="37.5" cy="38.5" r="2.5" fill="#D9D9D9"/>
<circle cx="46.5" cy="38.5" r="2.5" fill="#D9D9D9"/>
<circle cx="55.5" cy="38.5" r="2.5" fill="#D9D9D9"/>
<circle cx="64.5" cy="38.5" r="2.5" fill="#D9D9D9"/>
<circle cx="73.5" cy="38.5" r="2.5" fill="#D9D9D9"/>
<circle cx="82.5" cy="38.5" r="2.5" fill="#D9D9D9"/>
<circle cx="91.5" cy="38.5" r="2.5" fill="#D9D9D9"/>
<circle cx="100.5" cy="38.5" r="2.5" fill="#D9D9D9"/>
<circle cx="109.5" cy="38.5" r="2.5" fill="#D9D9D9"/>
<circle cx="118.5" cy="38.5" r="2.5" fill="#D9D9D9"/>
<circle cx="127.5" cy="38.5" r="2.5" fill="#D9D9D9"/>
<circle cx="136.5" cy="38.5" r="2.5" fill="#D9D9D9"/>
<circle cx="145.5" cy="38.5" r="2.5" fill="#D9D9D9"/>
<circle cx="6" cy="46.5" r="2.5" fill="#D9D9D9"/>
<circle cx="15" cy="46.5" r="2.5" fill="#D9D9D9"/>
<circle cx="24" cy="46.5" r="2.5" fill="#D9D9D9"/>
<circle cx="33" cy="46.5" r="2.5" fill="#D9D9D9"/>
<circle cx="42" cy="46.5" r="2.5" fill="#D9D9D9"/>
<circle cx="51" cy="46.5" r="2.5" fill="#D9D9D9"/>
<circle cx="60" cy="46.5" r="2.5" fill="#D9D9D9"/>
<circle cx="69" cy="46.5" r="2.5" fill="#D9D9D9"/>
<circle cx="78" cy="46.5" r="2.5" fill="#D9D9D9"/>
<circle cx="87" cy="46.5" r="2.5" fill="#D9D9D9"/>
<circle cx="96" cy="46.5" r="2.5" fill="#D9D9D9"/>
<circle cx="105" cy="46.5" r="2.5" fill="#D9D9D9"/>
<circle cx="114" cy="46.5" r="2.5" fill="#D9D9D9"/>
<circle cx="123" cy="46.5" r="2.5" fill="#D9D9D9"/>
<circle cx="132" cy="46.5" r="2.5" fill="#D9D9D9"/>
<circle cx="141" cy="46.5" r="2.5" fill="#D9D9D9"/>
<circle cx="150" cy="46.5" r="2.5" fill="#D9D9D9"/>
<circle cx="6" cy="54.5" r="2.5" fill="#D9D9D9"/>
<circle cx="15" cy="54.5" r="2.5" fill="#D9D9D9"/>
<circle cx="24" cy="54.5" r="2.5" fill="#D9D9D9"/>
<circle cx="33" cy="54.5" r="2.5" fill="#D9D9D9"/>
<circle cx="42" cy="54.5" r="2.5" fill="#D9D9D9"/>
<circle cx="51" cy="54.5" r="2.5" fill="#D9D9D9"/>
<circle cx="60" cy="54.5" r="2.5" fill="#D9D9D9"/>
<circle cx="69" cy="54.5" r="2.5" fill="#D9D9D9"/>
<circle cx="78" cy="54.5" r="2.5" fill="#D9D9D9"/>
<circle cx="87" cy="54.5" r="2.5" fill="#D9D9D9"/>
<circle cx="96" cy="54.5" r="2.5" fill="#D9D9D9"/>
<circle cx="105" cy="54.5" r="2.5" fill="#D9D9D9"/>
<circle cx="114" cy="54.5" r="2.5" fill="#D9D9D9"/>
<circle cx="123" cy="54.5" r="2.5" fill="#D9D9D9"/>
<circle cx="132" cy="54.5" r="2.5" fill="#D9D9D9"/>
<circle cx="141" cy="54.5" r="2.5" fill="#D9D9D9"/>
<circle cx="150" cy="54.5" r="2.5" fill="#D9D9D9"/>
<circle cx="6" cy="62.5" r="2.5" fill="#D9D9D9"/>
<circle cx="15" cy="62.5" r="2.5" fill="#D9D9D9"/>
<circle cx="24" cy="62.5" r="2.5" fill="#D9D9D9"/>
<circle cx="33" cy="62.5" r="2.5" fill="#D9D9D9"/>
<circle cx="42" cy="62.5" r="2.5" fill="#D9D9D9"/>
<circle cx="51" cy="62.5" r="2.5" fill="#D9D9D9"/>
<circle cx="60" cy="62.5" r="2.5" fill="#D9D9D9"/>
<circle cx="69" cy="62.5" r="2.5" fill="#D9D9D9"/>
<circle cx="78" cy="62.5" r="2.5" fill="#D9D9D9"/>
<circle cx="87" cy="62.5" r="2.5" fill="#D9D9D9"/>
<circle cx="96" cy="62.5" r="2.5" fill="#D9D9D9"/>
<circle cx="105" cy="62.5" r="2.5" fill="#D9D9D9"/>
<circle cx="114" cy="62.5" r="2.5" fill="#D9D9D9"/>
<circle cx="123" cy="62.5" r="2.5" fill="#D9D9D9"/>
<circle cx="132" cy="62.5" r="2.5" fill="#D9D9D9"/>
<circle cx="141" cy="62.5" r="2.5" fill="#D9D9D9"/>
<circle cx="150" cy="62.5" r="2.5" fill="#D9D9D9"/>
<circle cx="6" cy="70.5" r="2.5" fill="#D9D9D9"/>
<circle cx="15" cy="70.5" r="2.5" fill="#D9D9D9"/>
<circle cx="24" cy="70.5" r="2.5" fill="#D9D9D9"/>
<circle cx="33" cy="70.5" r="2.5" fill="#D9D9D9"/>
<circle cx="42" cy="70.5" r="2.5" fill="#D9D9D9"/>
<circle cx="51" cy="70.5" r="2.5" fill="#D9D9D9"/>
<circle cx="60" cy="70.5" r="2.5" fill="#D9D9D9"/>
<circle cx="69" cy="70.5" r="2.5" fill="#D9D9D9"/>
<circle cx="78" cy="70.5" r="2.5" fill="#D9D9D9"/>
<circle cx="87" cy="70.5" r="2.5" fill="#D9D9D9"/>
<circle cx="96" cy="70.5" r="2.5" fill="#D9D9D9"/>
<circle cx="105" cy="70.5" r="2.5" fill="#D9D9D9"/>
<circle cx="114" cy="70.5" r="2.5" fill="#D9D9D9"/>
<circle cx="123" cy="70.5" r="2.5" fill="#D9D9D9"/>
<circle cx="132" cy="70.5" r="2.5" fill="#D9D9D9"/>
<circle cx="141" cy="70.5" r="2.5" fill="#D9D9D9"/>
<circle cx="150" cy="70.5" r="2.5" fill="#D9D9D9"/>
<circle cx="6" cy="78.5" r="2.5" fill="#D9D9D9"/>
<circle cx="15" cy="78.5" r="2.5" fill="#D9D9D9"/>
<circle cx="24" cy="78.5" r="2.5" fill="#D9D9D9"/>
<circle cx="33" cy="78.5" r="2.5" fill="#D9D9D9"/>
<circle cx="42" cy="78.5" r="2.5" fill="#D9D9D9"/>
<circle cx="51" cy="78.5" r="2.5" fill="#D9D9D9"/>
<circle cx="60" cy="78.5" r="2.5" fill="#D9D9D9"/>
<circle cx="69" cy="78.5" r="2.5" fill="#D9D9D9"/>
<circle cx="78" cy="78.5" r="2.5" fill="#D9D9D9"/>
<circle cx="87" cy="78.5" r="2.5" fill="#D9D9D9"/>
<circle cx="96" cy="78.5" r="2.5" fill="#D9D9D9"/>
<circle cx="105" cy="78.5" r="2.5" fill="#D9D9D9"/>
<circle cx="114" cy="78.5" r="2.5" fill="#D9D9D9"/>
<circle cx="123" cy="78.5" r="2.5" fill="#D9D9D9"/>
<circle cx="132" cy="78.5" r="2.5" fill="#D9D9D9"/>
<circle cx="141" cy="78.5" r="2.5" fill="#D9D9D9"/>
<circle cx="150" cy="78.5" r="2.5" fill="#D9D9D9"/>
<circle cx="6" cy="86.5" r="2.5" fill="#D9D9D9"/>
<circle cx="15" cy="86.5" r="2.5" fill="#D9D9D9"/>
<circle cx="24" cy="86.5" r="2.5" fill="#D9D9D9"/>
<circle cx="33" cy="86.5" r="2.5" fill="#D9D9D9"/>
<circle cx="42" cy="86.5" r="2.5" fill="#D9D9D9"/>
<circle cx="51" cy="86.5" r="2.5" fill="#D9D9D9"/>
<circle cx="60" cy="86.5" r="2.5" fill="#D9D9D9"/>
<circle cx="69" cy="86.5" r="2.5" fill="#D9D9D9"/>
<circle cx="78" cy="86.5" r="2.5" fill="#D9D9D9"/>
<circle cx="87" cy="86.5" r="2.5" fill="#D9D9D9"/>
<circle cx="96" cy="86.5" r="2.5" fill="#D9D9D9"/>
<circle cx="105" cy="86.5" r="2.5" fill="#D9D9D9"/>
<circle cx="114" cy="86.5" r="2.5" fill="#D9D9D9"/>
<circle cx="123" cy="86.5" r="2.5" fill="#D9D9D9"/>
<circle cx="132" cy="86.5" r="2.5" fill="#D9D9D9"/>
<circle cx="141" cy="86.5" r="2.5" fill="#D9D9D9"/>
<circle cx="150" cy="86.5" r="2.5" fill="#D9D9D9"/>
<circle cx="6" cy="94.5" r="2.5" fill="#D9D9D9"/>
<circle cx="15" cy="94.5" r="2.5" fill="#D9D9D9"/>
<circle cx="24" cy="94.5" r="2.5" fill="#D9D9D9"/>
<circle cx="33" cy="94.5" r="2.5" fill="#D9D9D9"/>
<circle cx="42" cy="94.5" r="2.5" fill="#D9D9D9"/>
<circle cx="51" cy="94.5" r="2.5" fill="#D9D9D9"/>
<circle cx="60" cy="94.5" r="2.5" fill="#D9D9D9"/>
<circle cx="69" cy="94.5" r="2.5" fill="#D9D9D9"/>
<circle cx="78" cy="94.5" r="2.5" fill="#D9D9D9"/>
<circle cx="87" cy="94.5" r="2.5" fill="#D9D9D9"/>
<circle cx="96" cy="94.5" r="2.5" fill="#D9D9D9"/>
<circle cx="105" cy="94.5" r="2.5" fill="#D9D9D9"/>
<circle cx="114" cy="94.5" r="2.5" fill="#D9D9D9"/>
<circle cx="123" cy="94.5" r="2.5" fill="#D9D9D9"/>
<circle cx="132" cy="94.5" r="2.5" fill="#D9D9D9"/>
<circle cx="141" cy="94.5" r="2.5" fill="#D9D9D9"/>
<circle cx="150" cy="94.5" r="2.5" fill="#D9D9D9"/>
<circle cx="6" cy="102.5" r="2.5" fill="#D9D9D9"/>
<circle cx="15" cy="102.5" r="2.5" fill="#D9D9D9"/>
<circle cx="24" cy="102.5" r="2.5" fill="#D9D9D9"/>
<circle cx="33" cy="102.5" r="2.5" fill="#D9D9D9"/>
<circle cx="42" cy="102.5" r="2.5" fill="#D9D9D9"/>
<circle cx="51" cy="102.5" r="2.5" fill="#D9D9D9"/>
<circle cx="60" cy="102.5" r="2.5" fill="#D9D9D9"/>
<circle cx="69" cy="102.5" r="2.5" fill="#D9D9D9"/>
<circle cx="78" cy="102.5" r="2.5" fill="#D9D9D9"/>
<circle cx="87" cy="102.5" r="2.5" fill="#D9D9D9"/>
<circle cx="96" cy="102.5" r="2.5" fill="#D9D9D9"/>
<circle cx="105" cy="102.5" r="2.5" fill="#D9D9D9"/>
<circle cx="114" cy="102.5" r="2.5" fill="#D9D9D9"/>
<circle cx="123" cy="102.5" r="2.5" fill="#D9D9D9"/>
<circle cx="132" cy="102.5" r="2.5" fill="#D9D9D9"/>
<circle cx="141" cy="102.5" r="2.5" fill="#D9D9D9"/>
<circle cx="150" cy="102.5" r="2.5" fill="#D9D9D9"/>
<circle cx="6" cy="110.5" r="2.5" fill="#D9D9D9"/>
<circle cx="15" cy="110.5" r="2.5" fill="#D9D9D9"/>
<circle cx="24" cy="110.5" r="2.5" fill="#D9D9D9"/>
<circle cx="33" cy="110.5" r="2.5" fill="#D9D9D9"/>
<circle cx="42" cy="110.5" r="2.5" fill="#D9D9D9"/>
<circle cx="51" cy="110.5" r="2.5" fill="#D9D9D9"/>
<circle cx="60" cy="110.5" r="2.5" fill="#D9D9D9"/>
<circle cx="69" cy="110.5" r="2.5" fill="#D9D9D9"/>
<circle cx="78" cy="110.5" r="2.5" fill="#D9D9D9"/>
<circle cx="87" cy="110.5" r="2.5" fill="#D9D9D9"/>
<circle cx="96" cy="110.5" r="2.5" fill="#D9D9D9"/>
<circle cx="105" cy="110.5" r="2.5" fill="#D9D9D9"/>
<circle cx="114" cy="110.5" r="2.5" fill="#D9D9D9"/>
<circle cx="123" cy="110.5" r="2.5" fill="#D9D9D9"/>
<circle cx="132" cy="110.5" r="2.5" fill="#D9D9D9"/>
<circle cx="141" cy="110.5" r="2.5" fill="#D9D9D9"/>
<circle cx="150" cy="110.5" r="2.5" fill="#D9D9D9"/>
<circle cx="6" cy="118.5" r="2.5" fill="#D9D9D9"/>
<circle cx="15" cy="118.5" r="2.5" fill="#D9D9D9"/>
<circle cx="24" cy="118.5" r="2.5" fill="#D9D9D9"/>
<circle cx="33" cy="118.5" r="2.5" fill="#D9D9D9"/>
<circle cx="42" cy="118.5" r="2.5" fill="#D9D9D9"/>
<circle cx="51" cy="118.5" r="2.5" fill="#D9D9D9"/>
<circle cx="60" cy="118.5" r="2.5" fill="#D9D9D9"/>
<circle cx="69" cy="118.5" r="2.5" fill="#D9D9D9"/>
<circle cx="78" cy="118.5" r="2.5" fill="#D9D9D9"/>
<circle cx="87" cy="118.5" r="2.5" fill="#D9D9D9"/>
<circle cx="96" cy="118.5" r="2.5" fill="#D9D9D9"/>
<circle cx="105" cy="118.5" r="2.5" fill="#D9D9D9"/>
<circle cx="114" cy="118.5" r="2.5" fill="#D9D9D9"/>
<circle cx="123" cy="118.5" r="2.5" fill="#D9D9D9"/>
<circle cx="132" cy="118.5" r="2.5" fill="#D9D9D9"/>
<circle cx="141" cy="118.5" r="2.5" fill="#D9D9D9"/>
<circle cx="150" cy="118.5" r="2.5" fill="#D9D9D9"/>
<circle cx="6" cy="126.5" r="2.5" fill="#D9D9D9"/>
<circle cx="15" cy="126.5" r="2.5" fill="#D9D9D9"/>
<circle cx="24" cy="126.5" r="2.5" fill="#D9D9D9"/>
<circle cx="33" cy="126.5" r="2.5" fill="#D9D9D9"/>
<circle cx="42" cy="126.5" r="2.5" fill="#D9D9D9"/>
<circle cx="51" cy="126.5" r="2.5" fill="#D9D9D9"/>
<circle cx="60" cy="126.5" r="2.5" fill="#D9D9D9"/>
<circle cx="69" cy="126.5" r="2.5" fill="#D9D9D9"/>
<circle cx="78" cy="126.5" r="2.5" fill="#D9D9D9"/>
<circle cx="87" cy="126.5" r="2.5" fill="#D9D9D9"/>
<circle cx="96" cy="126.5" r="2.5" fill="#D9D9D9"/>
<circle cx="105" cy="126.5" r="2.5" fill="#D9D9D9"/>
<circle cx="114" cy="126.5" r="2.5" fill="#D9D9D9"/>
<circle cx="123" cy="126.5" r="2.5" fill="#D9D9D9"/>
<circle cx="132" cy="126.5" r="2.5" fill="#D9D9D9"/>
<circle cx="141" cy="126.5" r="2.5" fill="#D9D9D9"/>
<circle cx="150" cy="126.5" r="2.5" fill="#D9D9D9"/>
<circle cx="6" cy="134.5" r="2.5" fill="#D9D9D9"/>
<circle cx="15" cy="134.5" r="2.5" fill="#D9D9D9"/>
<circle cx="24" cy="134.5" r="2.5" fill="#D9D9D9"/>
<circle cx="33" cy="134.5" r="2.5" fill="#D9D9D9"/>
<circle cx="42" cy="134.5" r="2.5" fill="#D9D9D9"/>
<circle cx="51" cy="134.5" r="2.5" fill="#D9D9D9"/>
<circle cx="60" cy="134.5" r="2.5" fill="#D9D9D9"/>
<circle cx="69" cy="134.5" r="2.5" fill="#D9D9D9"/>
<circle cx="78" cy="134.5" r="2.5" fill="#D9D9D9"/>
<circle cx="87" cy="134.5" r="2.5" fill="#D9D9D9"/>
<circle cx="96" cy="134.5" r="2.5" fill="#D9D9D9"/>
<circle cx="105" cy="134.5" r="2.5" fill="#D9D9D9"/>
<circle cx="114" cy="134.5" r="2.5" fill="#D9D9D9"/>
<circle cx="123" cy="134.5" r="2.5" fill="#D9D9D9"/>
<circle cx="132" cy="134.5" r="2.5" fill="#D9D9D9"/>
<circle cx="141" cy="134.5" r="2.5" fill="#D9D9D9"/>
<circle cx="150" cy="134.5" r="2.5" fill="#D9D9D9"/>
<circle cx="6" cy="142.5" r="2.5" fill="#D9D9D9"/>
<circle cx="15" cy="142.5" r="2.5" fill="#D9D9D9"/>
<circle cx="24" cy="142.5" r="2.5" fill="#D9D9D9"/>
<circle cx="33" cy="142.5" r="2.5" fill="#D9D9D9"/>
<circle cx="42" cy="142.5" r="2.5" fill="#D9D9D9"/>
<circle cx="51" cy="142.5" r="2.5" fill="#D9D9D9"/>
<circle cx="60" cy="142.5" r="2.5" fill="#D9D9D9"/>
<circle cx="69" cy="142.5" r="2.5" fill="#D9D9D9"/>
<circle cx="78" cy="142.5" r="2.5" fill="#D9D9D9"/>
<circle cx="87" cy="142.5" r="2.5" fill="#D9D9D9"/>
<circle cx="96" cy="142.5" r="2.5" fill="#D9D9D9"/>
<circle cx="105" cy="142.5" r="2.5" fill="#D9D9D9"/>
<circle cx="114" cy="142.5" r="2.5" fill="#D9D9D9"/>
<circle cx="123" cy="142.5" r="2.5" fill="#D9D9D9"/>
<circle cx="132" cy="142.5" r="2.5" fill="#D9D9D9"/>
<circle cx="141" cy="142.5" r="2.5" fill="#D9D9D9"/>
<circle cx="150" cy="142.5" r="2.5" fill="#D9D9D9"/>
</g>
<path d="M97.6 38.6552H107.26C113.38 38.6552 118.35 43.6152 118.35 49.7452V62.7552" stroke="white" stroke-width="2.5" stroke-linecap="round" stroke-linejoin="round"/>
<path d="M31.24 70.1452V49.7352C31.24 43.6052 36.22 38.6552 42.32 38.6552H74.07" stroke="white" stroke-width="2.5" stroke-linecap="round" stroke-linejoin="round"/>
<path d="M118.35 85.3052V98.3152C118.35 104.445 113.37 109.395 107.27 109.395H49.64" stroke="white" stroke-width="2.5" stroke-linecap="round" stroke-linejoin="round"/>
<path d="M101.72 62.7652H124.66V85.3052H101.72C95.5 85.3052 90.45 80.2552 90.45 74.0352C90.45 67.8152 95.5 62.7652 101.72 62.7652Z" stroke="white" stroke-width="2.5" stroke-linecap="round" stroke-linejoin="round"/>
<path d="M118.35 53.1452H38.88" stroke="white" stroke-width="2.5" stroke-linecap="round" stroke-linejoin="round"/>
<path d="M49.59 53.1452L87.69 30.5952C89.73 29.3952 92.35 30.0652 93.55 32.1052L106 53.1452" stroke="white" stroke-width="2.5" stroke-linecap="round" stroke-linejoin="round"/>
<path d="M34.77 104.105C40.9942 104.105 46.04 99.0595 46.04 92.8352C46.04 86.611 40.9942 81.5652 34.77 81.5652C28.5457 81.5652 23.5 86.611 23.5 92.8352C23.5 99.0595 28.5457 104.105 34.77 104.105Z" stroke="white" stroke-width="2.5" stroke-linecap="round" stroke-linejoin="round"/>
<path d="M34.77 88.8552V96.8252" stroke="white" stroke-width="2.5" stroke-linecap="round" stroke-linejoin="round"/>
<path d="M38.76 92.8353H30.78" stroke="white" stroke-width="2.5" stroke-linecap="round" stroke-linejoin="round"/>
</g>
<defs>
<linearGradient id="paint0_linear_1_24" x1="142.288" y1="2.65572" x2="5.433" y2="146.964" gradientUnits="userSpaceOnUse">
<stop stop-color="#629A48"/>
<stop offset="1" stop-color="#20311F"/>
</linearGradient>
<clipPath id="clip0_1_24">
<rect x="0.5" width="147" height="147" rx="24" fill="white"/>
</clipPath>
</defs>
</svg>
