<svg width="368" height="368" viewBox="0 0 368 368" fill="none" xmlns="http://www.w3.org/2000/svg">
<path d="M354.038 101.986C354.163 98.4077 356.151 95.3352 359.041 93.6651C362.493 91.6743 364.536 87.8933 364.676 83.9057L367.173 12.3893L12.3892 0L9.89175 71.5164C9.7525 75.504 11.517 79.4179 14.8313 81.645C17.5978 83.5127 19.3671 86.7164 19.2421 90.2942C19.1172 93.872 17.1287 96.9445 14.2387 98.6146C10.7871 100.605 8.74391 104.386 8.60466 108.374L-0.000160761 354.784L354.784 367.173L363.388 120.763C363.528 116.776 361.763 112.862 358.449 110.635C355.682 108.767 353.913 105.563 354.038 101.986Z" fill="url(#paint0_linear_0_1)"/>
<path d="M98.1676 49.4261L98.091 51.622L100.589 51.7093L100.523 53.6124L100.212 53.8556C99.99 54.0433 99.6225 54.2161 99.1085 54.3838C98.5847 54.5512 98.0156 54.6193 97.391 54.5975C96.0832 54.5518 95.0054 54.0744 94.1577 53.1654C93.31 52.2563 92.909 51.1479 92.9547 49.8401C93.0004 48.5323 93.4777 47.4546 94.3868 46.6069C95.2958 45.7592 96.4042 45.3582 97.712 45.4038C98.1805 45.4202 98.6462 45.5146 99.0998 45.6771C99.5437 45.8391 99.9091 46.0082 100.186 46.1938C100.453 46.379 100.71 46.5834 100.936 46.8161C101.162 47.0585 101.313 47.2201 101.378 47.3201C101.443 47.42 101.499 47.4904 101.536 47.5406L103.506 45.7039L103.292 45.4033C103.152 45.2127 102.926 44.9703 102.603 44.6854C102.281 44.4006 101.92 44.1144 101.5 43.8261C101.08 43.5378 100.551 43.2946 99.8942 43.0762C99.2374 42.8579 98.5381 42.7357 97.8061 42.7102C95.6687 42.6355 93.8383 43.2849 92.3246 44.6587C90.8109 46.0325 90.0189 47.7247 89.9487 49.7352C89.8785 51.7457 90.5502 53.4987 91.9644 54.9747C93.3786 56.4507 95.1592 57.2263 97.2966 57.3009C98.0383 57.3268 98.7542 57.2541 99.4637 57.0834C100.173 56.9128 100.747 56.7178 101.184 56.4986C101.622 56.2793 102.041 56.0204 102.443 55.7217C102.844 55.423 103.096 55.2168 103.217 55.0941C103.339 54.9713 103.42 54.8764 103.481 54.8101L103.662 49.618L98.1676 49.4261ZM115.522 53.6281L115.658 52.5384C115.706 51.1428 115.278 49.965 114.384 48.9957C113.48 48.026 112.335 47.517 110.939 47.4683C109.534 47.4192 108.316 47.8848 107.285 48.8455C106.245 49.8059 105.706 50.989 105.657 52.3846C105.608 53.79 106.073 55.0081 107.054 56.0391C108.034 57.07 109.236 57.6104 110.681 57.6608C111.188 57.6785 111.678 57.637 112.161 57.5366C112.643 57.4362 113.038 57.3229 113.346 57.1773C113.644 57.0314 113.933 56.8656 114.213 56.68C114.484 56.494 114.664 56.3635 114.745 56.2881L114.937 56.1092L113.604 54.2646L113.31 54.5573C113.127 54.7561 112.808 54.9502 112.372 55.1304C111.936 55.3106 111.464 55.3918 110.956 55.3741C110.253 55.3495 109.674 55.1534 109.228 54.7665C108.773 54.3793 108.505 53.9205 108.427 53.3803L115.522 53.6281ZM110.859 49.7716C111.425 49.7913 111.907 49.984 112.285 50.3295C112.664 50.6847 112.903 51.123 112.992 51.644L108.493 51.4869C108.667 50.9653 108.966 50.536 109.377 50.2182C109.789 49.9003 110.283 49.7515 110.859 49.7716ZM119.071 46.8533C119.057 47.2437 118.939 47.5522 118.716 47.779C118.493 48.0154 118.225 48.1234 117.923 48.1128L117.025 48.0814L116.941 50.4823L118.639 50.5416L118.5 54.5333C118.421 56.7976 119.406 57.9655 121.475 58.0377C122.138 58.0707 122.747 57.9942 123.291 57.808L123.371 55.5047L123.253 55.5397C123.164 55.5756 123.035 55.6102 122.868 55.6435C122.701 55.6767 122.535 55.6807 122.359 55.6746C122.007 55.6623 121.728 55.5451 121.511 55.3225C121.294 55.0999 121.196 54.8424 121.207 54.5301L121.343 50.636L123.334 50.7056L123.417 48.3047L121.426 48.2351L121.535 45.1413L119.134 45.0575L119.071 46.8533ZM131.962 58.8046C131.615 59.5351 131.036 59.8764 130.226 59.8481C129.826 59.8342 129.496 59.764 129.237 59.6182L129.154 62.0093L129.346 62.0844C129.481 62.1478 129.684 62.2037 129.975 62.2627C130.256 62.3312 130.548 62.3609 130.841 62.3712C132.481 62.4284 133.782 61.2719 134.764 58.9024L139.021 48.6443L136.229 48.5469L133.699 54.9664L131.633 48.3863L128.831 48.2885L132.289 58.1222L131.962 58.8046ZM142.441 53.6789C142.466 52.9469 142.722 52.3402 143.218 51.8494C143.704 51.368 144.279 51.1341 144.933 51.1569C145.577 51.1794 146.134 51.4529 146.595 51.9673C147.046 52.4912 147.268 53.1146 147.242 53.8466C147.217 54.5785 146.951 55.1849 146.466 55.6663C145.97 56.1473 145.395 56.3715 144.751 56.349C144.097 56.3262 143.54 56.0624 143.089 55.5483C142.628 55.0339 142.415 54.4109 142.441 53.6789ZM150.034 53.9343C150.081 52.5777 149.606 51.3689 148.607 50.3178C147.608 49.2667 146.415 48.7169 145.02 48.6682C143.614 48.6191 142.386 49.0843 141.316 50.0632C140.246 51.0421 139.687 52.2147 139.64 53.5713C139.592 54.9377 140.068 56.1464 141.067 57.1975C142.066 58.2487 143.259 58.7984 144.664 58.8475C146.06 58.8962 147.288 58.431 148.358 57.4521C149.428 56.4732 149.986 55.3006 150.034 53.9343ZM158.461 59.1339L161.155 59.228L161.497 49.4292L158.803 49.3352L158.622 54.5371C158.596 55.2788 158.391 55.8384 158.016 56.2162C157.641 56.6037 157.146 56.7819 156.541 56.7607C155.994 56.7417 155.542 56.55 155.193 56.1762C154.845 55.8123 154.685 55.3474 154.704 54.8009L154.9 49.1989L152.206 49.1048L152.001 54.9704C151.957 56.2196 152.274 57.2371 152.95 58.0131C153.627 58.7892 154.531 59.1921 155.653 59.2313C156.18 59.2497 156.692 59.16 157.187 58.9624C157.683 58.7647 158.001 58.5999 158.152 58.4684C158.294 58.3365 158.415 58.2333 158.496 58.1384L158.461 59.1339ZM170.089 49.6316L169.689 49.6176C169.152 49.5988 168.64 49.708 168.144 49.9252C167.648 50.1521 167.328 50.3364 167.177 50.4777C167.035 50.6193 166.914 50.7324 166.833 50.8175L166.875 49.617L164.181 49.523L163.839 59.3217L166.533 59.4157L166.696 54.7213C166.726 53.882 166.963 53.2454 167.389 52.8107C167.814 52.3761 168.388 52.1714 169.091 52.1959C169.491 52.2197 169.792 52.2693 169.985 52.3444L170.089 49.6316ZM176.926 48.8736C176.913 49.264 176.794 49.5726 176.572 49.7993C176.348 50.0358 176.081 50.1437 175.778 50.1331L174.88 50.1018L174.796 52.5027L176.495 52.562L176.355 56.5537C176.276 58.8179 177.261 59.9858 179.33 60.0581C179.994 60.091 180.602 60.0146 181.146 59.8283L181.227 57.5251L181.108 57.56C181.019 57.596 180.891 57.6306 180.723 57.6638C180.556 57.6971 180.39 57.701 180.214 57.6949C179.863 57.6826 179.584 57.5654 179.367 57.3429C179.15 57.1203 179.051 56.8628 179.062 56.5505L179.198 52.6564L181.189 52.7259L181.273 50.325L179.282 50.2555L179.39 47.1617L176.989 47.0778L176.926 48.8736ZM186.589 50.3055L183.886 50.2111L183.544 60.0098L186.247 60.1042L186.589 50.3055ZM186.882 47.521C186.898 47.0721 186.764 46.6961 186.491 46.4129C186.207 46.1295 185.822 45.9792 185.334 45.9621C184.885 45.9465 184.519 46.0705 184.236 46.3342C183.953 46.5979 183.804 46.964 183.788 47.413C183.772 47.8619 183.887 48.2275 184.15 48.5103C184.414 48.7931 184.77 48.9423 185.229 48.9584C185.717 48.9754 186.112 48.8524 186.415 48.5894C186.707 48.326 186.866 47.97 186.882 47.521ZM188.516 55.2781C188.469 56.6445 188.944 57.8532 189.963 58.905C190.972 59.9565 192.194 60.5073 193.628 60.5574C194.136 60.5751 194.626 60.5238 195.09 60.3935C195.554 60.2631 195.93 60.1199 196.219 59.9541C196.518 59.7886 196.789 59.6026 197.04 59.3867C197.302 59.1711 197.464 59.0204 197.535 58.9252C197.607 58.83 197.658 58.7633 197.699 58.7061L196.158 56.9521L195.883 57.2747C195.7 57.4833 195.399 57.6878 194.992 57.8885C194.584 58.0892 194.161 58.1819 193.712 58.1663C193.009 58.1417 192.413 57.8571 191.914 57.312C191.425 56.7673 191.184 56.1237 191.21 55.3819C191.236 54.6402 191.522 54.0053 192.048 53.496C192.574 52.9867 193.198 52.7446 193.9 52.7692C194.349 52.7848 194.764 52.9264 195.156 53.1746C195.548 53.4228 195.805 53.6272 195.917 53.7777C196.029 53.9379 196.113 54.0581 196.158 54.1476L197.916 52.5087L197.776 52.2987C197.684 52.1586 197.524 51.9772 197.296 51.7738C197.079 51.5708 196.822 51.3761 196.536 51.1707C196.25 50.9653 195.885 50.7864 195.431 50.6338C194.977 50.4811 194.492 50.386 193.984 50.3683C192.549 50.3182 191.292 50.7922 190.202 51.7704C189.123 52.7489 188.564 53.9215 188.516 55.2781ZM203.576 56.9082L206.049 60.7957L209.046 60.9003L205.347 55.1721L209.183 51.0945L206.089 50.9864L202.455 54.8659L202.742 46.6678L200.038 46.5733L199.55 60.5687L202.253 60.6631L202.337 58.2622L203.576 56.9082ZM219.775 57.2687L219.91 56.179C219.959 54.7833 219.531 53.6056 218.637 52.6363C217.733 51.6666 216.588 51.1576 215.192 51.1089C213.787 51.0598 212.568 51.5254 211.538 52.4861C210.498 53.4465 209.958 54.6295 209.91 56.0252C209.861 57.4306 210.326 58.6487 211.306 59.6797C212.287 60.7106 213.489 61.2509 214.934 61.3014C215.441 61.3191 215.931 61.2776 216.414 61.1772C216.896 61.0768 217.291 60.9635 217.599 60.8179C217.897 60.672 218.186 60.5062 218.466 60.3206C218.736 60.1346 218.917 60.0041 218.998 59.9287L219.19 59.7497L217.857 57.9052L217.563 58.1979C217.38 58.3967 217.061 58.5908 216.625 58.771C216.188 58.9512 215.716 59.0324 215.209 59.0147C214.506 58.9901 213.927 58.794 213.481 58.4071C213.026 58.0199 212.758 57.5611 212.679 57.0209L219.775 57.2687ZM215.111 53.4122C215.678 53.4319 216.159 53.6246 216.538 53.9701C216.917 54.3253 217.155 54.7636 217.245 55.2846L212.745 55.1275C212.92 54.6059 213.218 54.1766 213.63 53.8588C214.042 53.5409 214.536 53.392 215.111 53.4122ZM223.324 50.4939C223.31 50.8842 223.192 51.1928 222.969 51.4195C222.746 51.656 222.478 51.764 222.176 51.7534L221.278 51.722L221.194 54.1229L222.892 54.1822L222.753 58.1739C222.674 60.4382 223.659 61.6061 225.728 61.6783C226.391 61.7113 227 61.6348 227.544 61.4486L227.624 59.1453L227.506 59.1803C227.416 59.2162 227.288 59.2508 227.121 59.2841C226.954 59.3173 226.787 59.3213 226.612 59.3152C226.26 59.3029 225.981 59.1856 225.764 58.9631C225.547 58.7405 225.449 58.483 225.46 58.1707L225.596 54.2766L227.586 54.3461L227.67 51.9453L225.679 51.8757L225.787 48.7819L223.387 48.6981L223.324 50.4939ZM236.523 53.3586L236.195 52.966C235.978 52.724 235.587 52.4562 235.03 52.1827C234.473 51.9092 233.852 51.7605 233.179 51.737C232.105 51.6995 231.196 51.9902 230.442 52.599C229.688 53.2176 229.302 53.9175 229.274 54.6982C229.253 55.3033 229.382 55.816 229.681 56.2172C229.969 56.628 230.33 56.9337 230.763 57.1345C231.195 57.345 231.638 57.5168 232.083 57.6691C232.527 57.8215 232.892 57.9906 233.198 58.1771C233.495 58.3634 233.643 58.5933 233.634 58.8568C233.624 59.1301 233.5 59.3407 233.279 59.4991C233.059 59.6575 232.734 59.7244 232.305 59.7094C231.914 59.6957 231.537 59.5849 231.183 59.3673C230.819 59.1494 230.591 58.9753 230.478 58.8541C230.365 58.7329 230.29 58.6228 230.244 58.543L228.689 59.9838L228.819 60.1935C228.912 60.314 229.063 60.4659 229.272 60.649C229.48 60.8322 229.738 61.0073 230.025 61.1932C230.311 61.3791 230.687 61.5486 231.151 61.682C231.615 61.8253 232.101 61.9009 232.628 61.9193C233.838 61.9615 234.795 61.7018 235.509 61.1307C236.222 60.5693 236.599 59.8398 236.63 58.9614C236.651 58.3563 236.513 57.8336 236.225 57.4132C235.927 56.9923 235.567 56.6768 235.124 56.4757C234.682 56.2746 234.238 56.1028 233.804 55.9508C233.369 55.7988 233.004 55.6395 232.707 55.4533C232.401 55.2764 232.262 55.0566 232.271 54.8029C232.278 54.5979 232.392 54.4162 232.612 54.2676C232.832 54.1189 233.128 54.0413 233.499 54.0543C233.791 54.0645 234.072 54.1524 234.35 54.3087C234.618 54.4647 234.799 54.5882 234.884 54.6792C234.968 54.7798 235.034 54.8505 235.072 54.9007L236.523 53.3586ZM245.665 52.3684L242.971 52.2744L242.629 62.0731L245.322 62.1671L245.5 57.0726C245.526 56.3406 245.721 55.7807 246.096 55.3932C246.471 55.0056 246.967 54.8177 247.581 54.8392C248.138 54.8586 248.59 55.0601 248.928 55.4432C249.267 55.8263 249.426 56.3107 249.405 56.906L249.216 62.3031L251.91 62.3972L252.109 56.6975C252.155 55.3898 251.84 54.3332 251.165 53.5279C250.489 52.7323 249.585 52.3099 248.463 52.2707C247.936 52.2523 247.423 52.3712 246.926 52.6079C246.429 52.8544 246.11 53.0485 245.958 53.1995C245.816 53.3509 245.694 53.4737 245.613 53.5783L245.665 52.3684ZM256.883 57.6753C256.908 56.9433 257.164 56.3366 257.66 55.8458C258.146 55.3644 258.721 55.1305 259.375 55.1533C260.019 55.1758 260.576 55.4493 261.037 55.9637C261.487 56.4876 261.71 57.111 261.684 57.843C261.659 58.5749 261.393 59.1813 260.908 59.6627C260.412 60.1437 259.837 60.3679 259.193 60.3454C258.539 60.3226 257.982 60.0588 257.531 59.5447C257.07 59.0303 256.857 58.4073 256.883 57.6753ZM264.476 57.9307C264.523 56.5741 264.048 55.3653 263.049 54.3142C262.05 53.2631 260.857 52.7133 259.461 52.6646C258.056 52.6155 256.828 53.0807 255.758 54.0596C254.688 55.0385 254.129 56.2111 254.082 57.5677C254.034 58.9341 254.51 60.1428 255.509 61.1939C256.508 62.2451 257.701 62.7948 259.106 62.8439C260.502 62.8926 261.73 62.4274 262.8 61.4485C263.869 60.4696 264.428 59.297 264.476 57.9307ZM272.045 53.2897L269.936 59.1278L268.248 53.1571L265.447 53.0593L268.443 62.9745L270.805 63.057L272.894 57.5308L274.601 63.1896L276.953 63.2717L280.633 53.5896L277.842 53.4921L275.733 59.3302L274.046 53.3595L272.045 53.2897ZM285.028 59.5473L285.875 49.5708L282.673 49.459L282.822 59.4703L285.028 59.5473ZM282.23 62.1564C282.216 62.5565 282.36 62.9133 282.662 63.217C282.964 63.5305 283.329 63.6898 283.778 63.7055C284.218 63.7208 284.603 63.5877 284.926 63.2961C285.249 63.0142 285.417 62.6683 285.431 62.2682C285.445 61.868 285.301 61.5112 285 61.1978C284.697 60.8941 284.322 60.7246 283.883 60.7093C283.434 60.6936 283.058 60.8368 282.735 61.1187C282.412 61.4103 282.244 61.7562 282.23 62.1564Z" fill="white"/>
<path d="M144.872 205.944L142.169 205.85L141.827 215.649L144.53 215.743L144.872 205.944ZM145.165 203.16C145.181 202.711 145.047 202.335 144.774 202.052C144.491 201.768 144.105 201.618 143.617 201.601C143.168 201.585 142.802 201.709 142.519 201.973C142.236 202.237 142.087 202.603 142.071 203.052C142.056 203.501 142.17 203.866 142.434 204.149C142.697 204.432 143.054 204.581 143.512 204.597C144 204.614 144.395 204.491 144.698 204.228C144.99 203.965 145.149 203.609 145.165 203.16ZM150.269 206.133L147.576 206.039L147.234 215.837L149.927 215.932L150.105 210.837C150.131 210.105 150.326 209.545 150.701 209.158C151.076 208.77 151.571 208.582 152.186 208.604C152.743 208.623 153.195 208.824 153.533 209.208C153.872 209.591 154.031 210.075 154.01 210.67L153.821 216.068L156.515 216.162L156.714 210.462C156.76 209.154 156.445 208.098 155.769 207.292C155.094 206.497 154.19 206.074 153.068 206.035C152.541 206.017 152.028 206.136 151.531 206.372C151.034 206.619 150.715 206.813 150.563 206.964C150.421 207.115 150.299 207.238 150.217 207.343L150.269 206.133ZM168.805 216.786C170.074 216.831 171.184 216.381 172.156 215.428C173.127 214.475 173.638 213.281 173.688 211.856C173.737 210.431 173.311 209.214 172.408 208.196C171.506 207.177 170.43 206.641 169.161 206.597C168.8 206.584 168.457 206.631 168.121 206.717C167.786 206.803 167.509 206.911 167.299 207.03C167.08 207.15 166.88 207.289 166.699 207.439C166.518 207.589 166.397 207.693 166.336 207.749C166.276 207.806 166.235 207.853 166.214 207.892L166.256 206.691L163.562 206.597L163.073 220.592L165.767 220.686L165.956 215.289L166.245 215.661C166.432 215.902 166.766 216.138 167.246 216.39C167.726 216.641 168.239 216.766 168.805 216.786ZM168.58 208.981C169.243 209.004 169.801 209.277 170.251 209.801C170.702 210.325 170.914 210.977 170.886 211.768C170.859 212.549 170.602 213.194 170.116 213.686C169.629 214.177 169.055 214.411 168.391 214.387C167.727 214.364 167.17 214.091 166.719 213.567C166.269 213.043 166.057 212.381 166.084 211.6C166.112 210.81 166.369 210.174 166.855 209.683C167.341 209.191 167.916 208.957 168.58 208.981ZM181.758 207.135L181.357 207.121C180.821 207.102 180.309 207.211 179.813 207.428C179.316 207.655 178.997 207.84 178.845 207.981C178.704 208.122 178.582 208.235 178.501 208.321L178.543 207.12L175.85 207.026L175.507 216.825L178.201 216.919L178.365 212.224C178.394 211.385 178.632 210.749 179.057 210.314C179.483 209.879 180.057 209.675 180.759 209.699C181.159 209.723 181.46 209.772 181.653 209.848L181.758 207.135ZM186.058 207.383L183.355 207.288L183.013 217.087L185.716 217.181L186.058 207.383ZM186.351 204.598C186.367 204.149 186.233 203.773 185.96 203.49C185.676 203.207 185.291 203.056 184.803 203.039C184.354 203.024 183.988 203.148 183.705 203.411C183.422 203.675 183.273 204.041 183.257 204.49C183.241 204.939 183.356 205.305 183.619 205.587C183.883 205.87 184.239 206.019 184.698 206.035C185.186 206.053 185.581 205.93 185.884 205.666C186.176 205.403 186.335 205.047 186.351 204.598ZM196.452 207.746L188.459 207.466L188.375 209.867L192.972 210.028L188.006 214.857L187.922 217.258L196.315 217.551L196.399 215.151L191.402 214.976L196.368 210.146L196.452 207.746ZM207.844 213.948L207.98 212.858C208.029 211.462 207.601 210.285 206.706 209.315C205.802 208.346 204.657 207.837 203.262 207.788C201.856 207.739 200.638 208.204 199.608 209.165C198.568 210.126 198.028 211.309 197.979 212.704C197.93 214.11 198.396 215.328 199.376 216.359C200.356 217.39 201.559 217.93 203.003 217.98C203.511 217.998 204.001 217.957 204.483 217.856C204.965 217.756 205.36 217.643 205.668 217.497C205.967 217.351 206.256 217.185 206.536 217C206.806 216.814 206.987 216.683 207.067 216.608L207.259 216.429L205.926 214.584L205.633 214.877C205.45 215.076 205.13 215.27 204.694 215.45C204.258 215.63 203.786 215.711 203.279 215.694C202.576 215.669 201.996 215.473 201.551 215.086C201.095 214.699 200.828 214.24 200.749 213.7L207.844 213.948ZM203.181 210.091C203.747 210.111 204.229 210.304 204.608 210.649C204.986 211.004 205.225 211.443 205.314 211.964L200.815 211.807C200.99 211.285 201.288 210.856 201.7 210.538C202.112 210.22 202.605 210.071 203.181 210.091ZM216.902 209.769L216.574 209.377C216.357 209.134 215.966 208.867 215.409 208.593C214.852 208.32 214.231 208.171 213.558 208.147C212.484 208.11 211.575 208.401 210.821 209.01C210.067 209.628 209.681 210.328 209.653 211.109C209.632 211.714 209.761 212.226 210.06 212.628C210.348 213.038 210.709 213.344 211.142 213.545C211.574 213.755 212.017 213.927 212.462 214.08C212.906 214.232 213.271 214.401 213.577 214.588C213.874 214.774 214.022 215.004 214.013 215.267C214.003 215.541 213.879 215.751 213.658 215.91C213.438 216.068 213.113 216.135 212.684 216.12C212.293 216.106 211.916 215.995 211.562 215.778C211.198 215.56 210.97 215.386 210.857 215.265C210.744 215.143 210.669 215.033 210.623 214.954L209.068 216.394L209.198 216.604C209.291 216.724 209.442 216.876 209.651 217.06C209.859 217.243 210.117 217.418 210.404 217.604C210.69 217.79 211.066 217.959 211.53 218.093C211.994 218.236 212.48 218.311 213.007 218.33C214.217 218.372 215.174 218.112 215.888 217.541C216.601 216.98 216.978 216.25 217.009 215.372C217.03 214.767 216.892 214.244 216.604 213.824C216.306 213.403 215.946 213.087 215.503 212.886C215.061 212.685 214.617 212.513 214.183 212.361C213.748 212.209 213.383 212.05 213.086 211.864C212.78 211.687 212.641 211.467 212.65 211.213C212.657 211.008 212.771 210.827 212.991 210.678C213.211 210.529 213.507 210.452 213.878 210.465C214.171 210.475 214.451 210.563 214.729 210.719C214.997 210.875 215.178 210.999 215.263 211.09C215.347 211.19 215.413 211.261 215.451 211.311L216.902 209.769ZM222.25 214.451L223.096 204.474L219.895 204.362L220.044 214.374L222.25 214.451ZM219.452 217.06C219.438 217.46 219.582 217.817 219.884 218.12C220.185 218.434 220.551 218.593 221 218.609C221.439 218.624 221.825 218.491 222.148 218.199C222.471 217.918 222.639 217.572 222.653 217.172C222.667 216.771 222.523 216.415 222.221 216.101C221.919 215.797 221.544 215.628 221.105 215.613C220.656 215.597 220.28 215.74 219.957 216.022C219.634 216.314 219.466 216.66 219.452 217.06Z" fill="white"/>
<path d="M3.33313 256.84L359.116 269.265L356.115 355.212C355.884 361.836 350.327 367.017 343.703 366.786L11.9057 355.2C5.28229 354.968 0.10048 349.411 0.331774 342.788L3.33313 256.84Z" fill="white"/>
<defs>
<linearGradient id="paint0_linear_0_1" x1="367.173" y1="12.3893" x2="-49.6461" y2="401.079" gradientUnits="userSpaceOnUse">
<stop offset="0.300897" stop-color="#629A48"/>
<stop offset="1" stop-color="#20311F"/>
</linearGradient>
</defs>
</svg>
