<svg xmlns="http://www.w3.org/2000/svg" width="159" height="48" viewBox="0 0 159 48" fill="none">
<path d="M80.2325 16.5559H77.7018V14.7418C77.7018 14.3387 77.825 14.0028 78.0937 13.734C78.3513 13.4765 78.676 13.3421 79.0679 13.3421C79.4598 13.3533 79.8406 13.4317 80.2213 13.5773V11.5056L80.0085 11.4608C79.8966 11.4161 79.695 11.3825 79.4263 11.3377C79.1575 11.3041 78.8888 11.2817 78.6088 11.2817C76.4812 11.2817 75.4062 12.4351 75.4062 14.7194V16.5559H73.7937V18.6163H75.4062V27.5634H77.6906V18.6163H80.2213L80.2325 16.5559Z" fill="#3C6132"/>


<path d="M105.451 27.5634H107.747V21.147C107.747 19.5793 107.377 18.3812 106.638 17.5525C105.899 16.7351 104.891 16.3207 103.603 16.3207C103.133 16.3207 102.685 16.3879 102.249 16.5223C101.812 16.6567 101.453 16.8023 101.185 16.959C100.916 17.1158 100.67 17.3062 100.434 17.5189C100.199 17.7429 100.043 17.8884 99.9753 17.9668C99.9081 18.0564 99.8522 18.1124 99.8186 18.1572L99.7066 17.978C99.6394 17.8661 99.5162 17.7093 99.337 17.5189C99.1579 17.3398 98.9563 17.1494 98.71 16.9702C98.4748 16.7911 98.1613 16.6343 97.7581 16.5111C97.355 16.3879 96.9407 16.3207 96.4928 16.3207C95.9441 16.3207 95.4178 16.4551 94.9027 16.7015C94.3876 16.959 94.0516 17.1606 93.8949 17.3174C93.7381 17.4741 93.6037 17.5973 93.5141 17.6981V16.5559H91.2186V27.5634H93.5141V21.6062C93.5141 20.6095 93.7605 19.8257 94.242 19.2546C94.7235 18.6835 95.317 18.3924 96.0337 18.3924C96.7391 18.3924 97.299 18.6275 97.7133 19.0978C98.1277 19.5681 98.3292 20.2512 98.3292 21.147V27.5634H100.625V21.6062C100.625 20.6095 100.871 19.8257 101.353 19.2546C101.834 18.6835 102.428 18.3924 103.144 18.3924C103.85 18.3924 104.41 18.6275 104.824 19.0978C105.238 19.5681 105.44 20.2512 105.44 21.147L105.451 27.5634Z" fill="#3C6132"/>
<path d="M118.99 22.0653C118.99 23.0955 118.643 23.9577 117.971 24.6632C117.288 25.3799 116.482 25.727 115.552 25.727C114.611 25.727 113.805 25.3799 113.122 24.6632C112.439 23.9577 112.103 23.0955 112.103 22.0653C112.103 21.0351 112.439 20.1728 113.122 19.4562C113.805 18.7507 114.611 18.3924 115.552 18.3924C116.482 18.3924 117.288 18.7507 117.971 19.4562C118.643 20.1728 118.99 21.0351 118.99 22.0653ZM109.819 22.0653C109.819 23.6106 110.379 24.9431 111.521 26.0853C112.663 27.2275 114.007 27.7986 115.552 27.7986C117.097 27.7986 118.43 27.2275 119.572 26.0853C120.714 24.9431 121.285 23.6106 121.285 22.0653C121.285 20.52 120.714 19.1762 119.572 18.034C118.43 16.8918 117.097 16.3207 115.552 16.3207C114.007 16.3207 112.663 16.8918 111.521 18.034C110.379 19.1762 109.819 20.52 109.819 22.0653Z" fill="#3C6132"/>
<path d="M125.642 16.5559H123.346V27.5634H125.642V21.6062C125.642 20.5983 125.899 19.8033 126.415 19.2434C126.93 18.6835 127.635 18.3924 128.509 18.3924C129.248 18.3924 129.875 18.6611 130.379 19.1762C130.882 19.7025 131.14 20.3632 131.14 21.1582V27.5746H133.436V21.1582C133.436 19.6801 133.021 18.5155 132.193 17.6421C131.364 16.7687 130.289 16.3319 128.956 16.3319C128.576 16.3319 128.206 16.3767 127.825 16.4775C127.445 16.5783 127.142 16.6903 126.896 16.8134C126.65 16.9366 126.426 17.071 126.202 17.2278C125.989 17.3845 125.843 17.4965 125.776 17.5637L125.631 17.7093L125.642 16.5559Z" fill="#3C6132"/>
<path d="M146.392 22.8603L146.515 21.7181C146.515 20.1728 146 18.8963 144.97 17.8661C143.94 16.8358 142.663 16.3207 141.118 16.3207C139.573 16.3207 138.251 16.8806 137.154 17.978C136.056 19.0754 135.496 20.3968 135.496 21.9421C135.496 23.5546 136.068 24.9319 137.199 26.0741C138.33 27.2163 139.673 27.7874 141.23 27.7874C141.812 27.7874 142.383 27.709 142.932 27.5411C143.481 27.3731 143.928 27.1939 144.264 26.9924C144.612 26.7908 144.936 26.5668 145.239 26.3093C145.552 26.0517 145.754 25.8726 145.843 25.7606C145.933 25.6486 146 25.5702 146.045 25.503L144.556 24.0137L144.208 24.4392C143.984 24.7192 143.593 24.9991 143.033 25.2903C142.473 25.5814 141.879 25.727 141.23 25.727C140.345 25.727 139.584 25.447 138.934 24.8759C138.285 24.3161 137.904 23.6442 137.781 22.8603H146.392ZM141.107 18.2804C141.958 18.2804 142.652 18.5267 143.212 19.0194C143.772 19.5121 144.119 20.1392 144.253 20.9119H137.882C138.083 20.1392 138.464 19.5121 139.024 19.0194C139.584 18.5267 140.278 18.2804 141.107 18.2804Z" fill="#3C6132"/>
<path d="M151.208 28.7056C150.782 29.7806 150.133 30.3181 149.259 30.3181C148.867 30.3181 148.486 30.2398 148.106 30.083V32.1546L148.263 32.1994C148.386 32.2442 148.587 32.289 148.856 32.3226C149.125 32.3674 149.405 32.3786 149.718 32.3786C150.547 32.3786 151.241 32.1098 151.801 31.5611C152.361 31.0236 152.921 30.0718 153.492 28.7056L158.43 16.5559H156.023L152.809 24.5848L149.595 16.5559H147.188L151.667 27.5634L151.208 28.7056Z" fill="#3C6132"/>
<path d="M58.7685 10.0729C56.0086 8.87485 53.8266 7.35543 52.2082 5.52921C52.0637 5.3685 52.0492 5.13474 52.1504 4.94481C52.8874 3.65915 53.2631 2.92866 53.292 2.6949L53.3498 2.28583C53.5087 1.27775 52.9885 0.649533 51.7891 0.444995L49.4482 0.0651407C47.9743 -0.168616 41.3995 0.225849 29.7238 1.26314L15.1726 2.31505C13.6409 2.43193 10.2885 2.89944 10.1873 2.91405C5.25984 3.38156 2.16751 7.51614 0.953706 15.3178L0.765855 16.4866C0.549104 17.8307 0.419053 18.9994 0.346802 19.9783C-0.346802 31.3593 0 39.3363 1.38721 43.9091C1.95076 46.1737 2.94782 47.3132 4.14718 47.0795L36.053 40.7388C45.0843 39.2778 49.8239 37.5539 50.2719 35.5962C50.2863 35.5377 50.2863 35.4647 50.2719 35.4062C50.1707 34.8072 49.6505 33.6969 48.7113 32.046C48.5812 31.7976 48.5379 31.5054 48.6246 31.2425C48.6968 31.0233 48.8558 30.8334 49.0581 30.7019C51.9914 28.9195 53.5954 27.4147 53.87 26.1875L54 25.3985C54.2168 24.0544 52.8585 23.0317 49.954 22.3597C48.9569 22.0675 48.1766 21.8191 48.2489 21.3078C48.35 20.6503 49.4771 19.6715 51.6302 18.2836C51.6302 18.2836 51.6591 18.2689 51.6735 18.2543C56.8611 15.61 59.5488 13.6669 59.7367 12.4543L59.7945 12.0452L59.7367 11.4608C59.6789 10.8472 59.3032 10.3212 58.7541 10.0729H58.7685Z" fill="#629A48"/>
<path d="M31.4145 11.0371L31.6312 11.0809C31.6312 11.0809 32.0358 11.0663 32.6861 11.0371C32.7439 11.0371 32.7728 11.0517 32.7728 11.0809L33.0762 11.0371H36.5876C36.5876 11.0371 36.7177 11.0517 36.761 11.0809C36.8188 11.0517 36.8622 11.0371 36.8911 11.0371C37.8592 11.0809 38.3361 11.1248 38.3361 11.1686C38.365 11.1686 38.3794 11.154 38.3794 11.1248C39.3476 11.2124 39.8244 11.3293 39.8244 11.4754V11.5192C39.7088 11.6946 39.5932 11.7822 39.4776 11.7822V11.8699C40.5903 12.2497 41.6018 12.5273 42.4977 12.6734L42.5844 12.8049V12.9802C42.5844 13.1117 41.6018 13.3016 39.651 13.55C39.073 13.6961 38.7696 13.7984 38.7696 13.8568C38.8274 13.9299 39.5065 14.0613 40.8359 14.2513C41.0093 14.3681 41.096 14.4558 41.096 14.5142C41.096 14.7188 40.5325 14.9087 39.3909 15.084L39.3476 15.1717C39.3476 15.1717 39.6221 15.3908 40.1423 15.6538V15.7415C40.1423 15.9314 38.4372 16.0775 35.0126 16.1798C31.7468 16.3843 28.9724 16.6327 26.6749 16.9395H26.5448C26.5448 16.9395 26.4581 16.9833 26.4581 17.0271C26.8916 17.2755 27.1228 17.6992 27.1228 18.3128C27.1228 18.7657 26.8194 19.7299 26.198 21.1909H26.2413C30.0417 20.8695 32.1948 20.7088 32.6861 20.7088H33.4808C33.8855 20.7088 34.0878 20.7672 34.0878 20.8841V20.9279C34.0878 20.9279 33.9866 21.0594 33.7843 21.2348C34.4924 21.4393 35.4316 21.5854 36.5876 21.673L36.7177 21.8484V21.8922C36.7177 22.0383 35.9229 22.3013 34.3479 22.6957C33.6976 22.8857 33.3797 23.0172 33.3797 23.0902C33.3797 23.1486 33.5675 23.1925 33.9433 23.2217C33.9722 23.2217 33.9866 23.2071 33.9866 23.1779C34.9837 23.2071 35.475 23.2947 35.475 23.4408V23.5285C35.4461 23.6746 34.9692 23.8791 34.0299 24.1421L33.9866 24.2298C34.4635 24.4343 34.7236 24.5658 34.7814 24.6242C34.7814 24.858 33.3074 25.1356 30.3452 25.4716L24.1605 26.3628C22.0797 31.6954 20.8948 34.6758 20.6058 35.3186C20.2879 36.0053 20.0712 36.3851 19.9411 36.4728H19.8544C19.8544 36.4728 19.7388 36.3413 19.681 36.0783H19.6377C19.1753 36.6627 18.6695 37.4078 18.1059 38.299C18.0481 38.3282 17.9903 38.3428 17.9325 38.3428C17.8603 38.3428 17.8169 38.2844 17.8025 38.1675C17.8603 37.7292 18.0337 36.765 18.3227 35.2894L18.2793 35.2017L18.3227 35.1141C18.3227 35.1141 18.2793 34.9972 18.2793 34.9387H18.1926C17.6869 35.9614 17.3401 36.5312 17.1811 36.6189H17.0511C17.0511 36.6189 16.9355 36.5458 16.921 36.3997C16.921 36.0783 16.9788 35.6692 17.0944 35.1579C17.0655 35.0702 17.0366 35.0264 17.0077 35.0264C16.632 35.3478 16.4153 35.5085 16.343 35.5085L16.2997 35.4209V35.3332C16.2997 34.8803 17.2245 31.9291 19.0597 26.4651C18.366 25.9829 17.8314 25.0917 17.4846 23.8061C17.4557 23.6892 17.4412 23.5577 17.4412 23.4116V23.2801C17.4412 22.3889 18.2504 21.863 19.8544 21.7315C20.3746 21.7315 20.6492 21.7023 20.6492 21.6438C21.3861 19.4377 21.8196 18.1667 21.9641 17.8307C21.993 17.8307 22.0364 17.7576 22.0942 17.6115H21.9208C21.9208 17.6115 21.7763 17.6407 21.574 17.6992H21.4006C20.2012 17.6992 19.1753 16.6034 18.3371 14.412C18.2793 14.1198 18.2504 13.8568 18.2504 13.6084C18.2504 12.7319 18.9007 12.1621 20.1868 11.8845C23.8715 11.4462 27.6286 11.1394 31.4145 10.9933" fill="white"/>
</svg>