<svg width="19" height="19" viewBox="0 0 19 19" fill="none" xmlns="http://www.w3.org/2000/svg">
<path d="M7.03906 18.2935C7.70963 18.2935 8.22396 18.0298 8.58203 17.5024L17.6738 3.58643C17.7975 3.39111 17.8887 3.20231 17.9473 3.02002C18.0059 2.83773 18.0352 2.66195 18.0352 2.49268C18.0352 2.03695 17.8822 1.65934 17.5762 1.35986C17.2702 1.06038 16.8828 0.910645 16.4141 0.910645C16.0951 0.910645 15.8249 0.975749 15.6035 1.10596C15.3887 1.22965 15.1803 1.4445 14.9785 1.75049L7 14.3579L2.9375 9.32861C2.59245 8.90544 2.1595 8.69385 1.63867 8.69385C1.16992 8.69385 0.779297 8.84684 0.466797 9.15283C0.160807 9.45231 0.0078125 9.83317 0.0078125 10.2954C0.0078125 10.4972 0.0436198 10.6925 0.115234 10.8813C0.186849 11.0701 0.310547 11.2655 0.486328 11.4673L5.52539 17.5708C5.92904 18.0526 6.43359 18.2935 7.03906 18.2935Z" fill="white"/>
</svg>
