<svg width="54" height="54" viewBox="0 0 54 54" fill="none" xmlns="http://www.w3.org/2000/svg">
<path fill-rule="evenodd" clip-rule="evenodd" d="M39.4393 16.5607C40.0251 15.9749 40.0251 15.0251 39.4393 14.4393C38.8536 13.8536 37.9038 13.8536 37.318 14.4393L27.3787 24.3787L17.4393 14.4393C16.8536 13.8536 15.9038 13.8536 15.318 14.4393C14.7322 15.0251 14.7322 15.9749 15.318 16.5607L25.2574 26.5L14.4393 37.318C13.8536 37.9038 13.8536 38.8536 14.4393 39.4393C15.0251 40.0251 15.9749 40.0251 16.5607 39.4393L27.3787 28.6213L38.1967 39.4393C38.7825 40.0251 39.7322 40.0251 40.318 39.4393C40.9038 38.8536 40.9038 37.9038 40.318 37.318L29.5 26.5L39.4393 16.5607Z" fill="black" fill-opacity="0.1"/>
</svg>
