<svg width="17" height="18" viewBox="0 0 17 18" fill="none" xmlns="http://www.w3.org/2000/svg">
<path d="M8.07031 17.0703C9.17448 17.0703 10.2135 16.8594 11.1875 16.4375C12.1615 16.0208 13.0208 15.4401 13.7656 14.6953C14.5104 13.9505 15.0938 13.0911 15.5156 12.1172C15.9375 11.1432 16.1484 10.1042 16.1484 9C16.1484 7.89583 15.9375 6.85677 15.5156 5.88281C15.0938 4.90885 14.5104 4.05208 13.7656 3.3125C13.0208 2.56771 12.1615 1.98438 11.1875 1.5625C10.2135 1.14062 9.17188 0.929688 8.0625 0.929688C6.95833 0.929688 5.91927 1.14062 4.94531 1.5625C3.97656 1.98438 3.11979 2.56771 2.375 3.3125C1.63542 4.05208 1.05469 4.90885 0.632812 5.88281C0.210938 6.85677 0 7.89583 0 9C0 10.1042 0.210938 11.1432 0.632812 12.1172C1.05469 13.0911 1.63542 13.9505 2.375 14.6953C3.11979 15.4401 3.97917 16.0208 4.95312 16.4375C5.92708 16.8594 6.96615 17.0703 8.07031 17.0703ZM8.07031 15.4766C7.17448 15.4766 6.33333 15.3099 5.54688 14.9766C4.76562 14.6432 4.07812 14.1797 3.48438 13.5859C2.89583 12.9922 2.4349 12.3047 2.10156 11.5234C1.76823 10.7422 1.60156 9.90104 1.60156 9C1.60156 8.10417 1.76823 7.26562 2.10156 6.48438C2.4349 5.69792 2.89583 5.00781 3.48438 4.41406C4.07292 3.82031 4.75781 3.35677 5.53906 3.02344C6.32552 2.6901 7.16667 2.52344 8.0625 2.52344C8.96354 2.52344 9.80469 2.6901 10.5859 3.02344C11.3672 3.35677 12.0547 3.82031 12.6484 4.41406C13.2474 5.00781 13.7135 5.69792 14.0469 6.48438C14.3802 7.26562 14.5469 8.10417 14.5469 9C14.5469 9.90104 14.3802 10.7422 14.0469 11.5234C13.7135 12.3047 13.25 12.9922 12.6562 13.5859C12.0677 14.1797 11.3802 14.6432 10.5938 14.9766C9.8125 15.3099 8.97135 15.4766 8.07031 15.4766ZM7.22656 12.7109C7.51823 12.7109 7.7474 12.5781 7.91406 12.3125L11.4062 6.85156C11.4583 6.77344 11.5026 6.6901 11.5391 6.60156C11.5807 6.50781 11.6016 6.41667 11.6016 6.32812C11.6016 6.13542 11.5286 5.97917 11.3828 5.85938C11.237 5.73958 11.0729 5.67969 10.8906 5.67969C10.6458 5.67969 10.4427 5.8125 10.2812 6.07812L7.19531 11.0234L5.74219 9.17969C5.64844 9.05469 5.55208 8.96875 5.45312 8.92188C5.35938 8.86979 5.2526 8.84375 5.13281 8.84375C4.94531 8.84375 4.78385 8.91406 4.64844 9.05469C4.51823 9.1901 4.45312 9.35417 4.45312 9.54688C4.45312 9.72396 4.52083 9.89844 4.65625 10.0703L6.5 12.3203C6.60938 12.4505 6.72135 12.5495 6.83594 12.6172C6.95052 12.6797 7.08073 12.7109 7.22656 12.7109Z" fill="white"/>
</svg>
