<svg width="60" height="60" viewBox="0 0 60 60" fill="none" xmlns="http://www.w3.org/2000/svg">
<path d="M55.949 19.0833C57.3612 22.4466 58.1416 26.1257 58.1416 30.0093C58.1416 45.5435 45.5433 58.1604 29.9905 58.1604C14.4377 58.1604 1.85791 45.5435 1.85791 30.0093C1.85791 14.4751 14.4562 1.85815 30.009 1.85815" stroke="#D38500" stroke-width="3" stroke-linecap="round" stroke-linejoin="round"/>
<path d="M48.2378 8.56628C48.9996 9.21664 49.7243 9.90416 50.4118 10.6103" stroke="#D38500" stroke-width="3" stroke-linecap="round" stroke-linejoin="round"/>
<path d="M39.4301 30.0095C39.4301 24.8066 35.2121 20.5886 30.0093 20.5886C24.8064 20.5886 20.5884 24.8066 20.5884 30.0095C20.5884 33.986 23.0597 37.3678 26.5345 38.7429L30.0278 49.6317L33.5212 38.7429C36.9959 37.3492 39.4487 33.9674 39.4487 30.0095H39.4301Z" stroke="#D38500" stroke-width="3" stroke-linecap="round" stroke-linejoin="round"/>
<path d="M16.3515 16.3519C8.80733 23.8961 8.80733 36.1228 16.3515 43.6669" stroke="#D38500" stroke-width="3" stroke-linecap="round" stroke-linejoin="round"/>
</svg>
