<svg width="24" height="23" viewBox="0 0 24 23" fill="none" xmlns="http://www.w3.org/2000/svg">
<g clip-path="url(#clip0_1_9013)">
<path d="M20.3303 4.78975C19.5603 5.26975 18.7403 5.66975 17.8903 6.00975C17.8003 6.04975 17.7003 6.07975 17.6103 6.11975C15.8103 6.80975 13.8503 7.18975 11.8103 7.18975C9.77028 7.18975 7.81028 6.80975 6.01028 6.11975C5.92028 6.07975 5.82028 6.04975 5.73028 6.00975C4.88028 5.66975 4.06028 5.26975 3.29028 4.78975C4.50028 3.27975 6.09028 2.09975 7.93028 1.39975C9.14028 0.929749 10.4403 0.679749 11.8103 0.679749C13.1803 0.679749 14.4803 0.929749 15.6903 1.39975C17.5303 2.09975 19.1203 3.27975 20.3303 4.78975V4.78975Z" stroke="#20311F" stroke-linecap="round" stroke-linejoin="round"/>
<path d="M20.3103 18.3097C20.1903 18.4797 20.0603 18.6397 19.9203 18.7897C18.7703 20.0897 17.3203 21.0997 15.6703 21.7197C14.4703 22.1797 13.1703 22.4297 11.8103 22.4297C10.4503 22.4297 9.1503 22.1797 7.9503 21.7197C6.3003 21.0997 4.8503 20.0897 3.7003 18.7897C3.5603 18.6397 3.4303 18.4797 3.3103 18.3097C4.0803 17.8497 4.8903 17.4397 5.7403 17.1097C5.8203 17.0697 5.9003 17.0397 5.9803 17.0097C7.8003 16.2997 9.7503 15.9197 11.8103 15.9197C13.8703 15.9197 15.8203 16.2997 17.6403 17.0097C17.7203 17.0397 17.8003 17.0697 17.8803 17.1097C18.7303 17.4397 19.5403 17.8497 20.3103 18.3097Z" stroke="#20311F" stroke-linecap="round" stroke-linejoin="round"/>
<path d="M22.6903 11.5597C22.6903 14.3397 21.6403 16.8797 19.9203 18.7897C18.4503 20.4397 16.4903 21.6397 14.2703 22.1497C13.4803 22.3297 12.6603 22.4297 11.8103 22.4297C10.9603 22.4297 10.1403 22.3297 9.3503 22.1497C7.1303 21.6397 5.1703 20.4397 3.7003 18.7897C1.9803 16.8797 0.930298 14.3397 0.930298 11.5597C0.930298 6.38975 4.5303 2.06975 9.3603 0.959749C10.1503 0.779748 10.9703 0.679749 11.8103 0.679749C12.6503 0.679749 13.4703 0.779748 14.2603 0.959749C19.0903 2.06975 22.6903 6.38975 22.6903 11.5597V11.5597Z" stroke="#20311F" stroke-linecap="round" stroke-linejoin="round"/>
<path d="M22.6903 11.5597C22.6903 14.3397 21.6403 16.8797 19.9203 18.7897C18.4503 20.4397 16.4903 21.6397 14.2703 22.1497C13.4803 22.3297 12.6603 22.4297 11.8103 22.4297C10.9603 22.4297 10.1403 22.3297 9.3503 22.1497C7.7603 18.9597 6.8703 15.3697 6.8703 11.5697C6.8703 7.76975 7.7603 4.15975 9.3603 0.959749C10.1503 0.779748 10.9703 0.679749 11.8103 0.679749C12.6503 0.679749 13.4703 0.779748 14.2603 0.959749C19.0903 2.06975 22.6903 6.38975 22.6903 11.5597V11.5597Z" stroke="#20311F" stroke-linecap="round" stroke-linejoin="round"/>
<path d="M16.7503 11.5697C16.7503 15.3697 15.8603 18.9597 14.2703 22.1497C13.4803 22.3297 12.6603 22.4297 11.8103 22.4297C10.9603 22.4297 10.1403 22.3297 9.3503 22.1497C7.1303 21.6397 5.1703 20.4397 3.7003 18.7897C1.9803 16.8797 0.930298 14.3397 0.930298 11.5597C0.930298 6.38975 4.5303 2.06975 9.3603 0.959749C10.1503 0.779748 10.9703 0.679749 11.8103 0.679749C12.6503 0.679749 13.4703 0.779748 14.2603 0.959749C15.8603 4.15975 16.7503 7.75975 16.7503 11.5697V11.5697Z" stroke="#20311F" stroke-linecap="round" stroke-linejoin="round"/>
</g>
<defs>
<clipPath id="clip0_1_9013">
<rect width="22.76" height="22.75" fill="white" transform="translate(0.430298 0.179749)"/>
</clipPath>
</defs>
</svg>
