<svg width="83" height="77" viewBox="0 0 83 77" fill="none" xmlns="http://www.w3.org/2000/svg">
<path d="M77.9369 1L46.3369 24.4438L52.2057 10.6125L77.9369 1Z" fill="#E17726" stroke="#E17726" stroke-width="0.712817" stroke-linecap="round" stroke-linejoin="round"/>
<path d="M5.0625 1L36.375 24.6656L30.7938 10.6125L5.0625 1Z" fill="#E27625" stroke="#E27625" stroke-width="0.712817" stroke-linecap="round" stroke-linejoin="round"/>
<path d="M66.5781 55.3469L58.1719 68.2281L76.1594 73.175L81.3 55.6313L66.5781 55.3469Z" fill="#E27625" stroke="#E27625" stroke-width="0.712817" stroke-linecap="round" stroke-linejoin="round"/>
<path d="M1.73145 55.6313L6.84082 73.175L24.8283 68.2281L16.4533 55.3469L1.73145 55.6313Z" fill="#E27625" stroke="#E27625" stroke-width="0.712817" stroke-linecap="round" stroke-linejoin="round"/>
<path d="M23.8436 33.5812L18.8311 41.1656L36.6623 41.9594L36.0592 22.7625L23.8436 33.5812Z" fill="#E27625" stroke="#E27625" stroke-width="0.712817" stroke-linecap="round" stroke-linejoin="round"/>
<path d="M59.1557 33.5812L46.7494 22.5406L46.3369 41.9594L64.1682 41.1656L59.1557 33.5812Z" fill="#E27625" stroke="#E27625" stroke-width="0.712817" stroke-linecap="round" stroke-linejoin="round"/>
<path d="M24.8281 68.2281L35.5844 62.9906L26.3188 55.7594L24.8281 68.2281Z" fill="#E27625" stroke="#E27625" stroke-width="0.712817" stroke-linecap="round" stroke-linejoin="round"/>
<path d="M47.415 62.9906L58.1713 68.2281L56.6807 55.7594L47.415 62.9906Z" fill="#E27625" stroke="#E27625" stroke-width="0.712817" stroke-linecap="round" stroke-linejoin="round"/>
<path d="M58.1713 68.2281L47.415 62.9906L48.2713 70.0031L48.1775 72.9531L58.1713 68.2281Z" fill="#D5BFB2" stroke="#D5BFB2" stroke-width="0.712817" stroke-linecap="round" stroke-linejoin="round"/>
<path d="M24.8281 68.2281L34.8219 72.9531L34.7594 70.0031L35.5844 62.9906L24.8281 68.2281Z" fill="#D5BFB2" stroke="#D5BFB2" stroke-width="0.712817" stroke-linecap="round" stroke-linejoin="round"/>
<path d="M35.0123 51.125L26.0654 48.4938L32.3779 45.6063L35.0123 51.125Z" fill="#233447" stroke="#233447" stroke-width="0.712817" stroke-linecap="round" stroke-linejoin="round"/>
<path d="M47.9873 51.125L50.6217 45.6063L56.9654 48.4938L47.9873 51.125Z" fill="#233447" stroke="#233447" stroke-width="0.712817" stroke-linecap="round" stroke-linejoin="round"/>
<path d="M24.8281 68.2281L26.3812 55.3469L16.4531 55.6313L24.8281 68.2281Z" fill="#CC6228" stroke="#CC6228" stroke-width="0.712817" stroke-linecap="round" stroke-linejoin="round"/>
<path d="M56.6187 55.3469L58.1718 68.2281L66.578 55.6313L56.6187 55.3469Z" fill="#CC6228" stroke="#CC6228" stroke-width="0.712817" stroke-linecap="round" stroke-linejoin="round"/>
<path d="M64.1682 41.1656L46.3369 41.9594L47.9869 51.125L50.6213 45.6063L56.965 48.4938L64.1682 41.1656Z" fill="#CC6228" stroke="#CC6228" stroke-width="0.712817" stroke-linecap="round" stroke-linejoin="round"/>
<path d="M26.0654 48.4938L32.3779 45.6063L35.0123 51.125L36.6623 41.9594L18.8311 41.1656L26.0654 48.4938Z" fill="#CC6228" stroke="#CC6228" stroke-width="0.712817" stroke-linecap="round" stroke-linejoin="round"/>
<path d="M18.8311 41.1656L26.3186 55.7594L26.0654 48.4938L18.8311 41.1656Z" fill="#E27525" stroke="#E27525" stroke-width="0.712817" stroke-linecap="round" stroke-linejoin="round"/>
<path d="M56.9655 48.4938L56.6812 55.7594L64.1687 41.1656L56.9655 48.4938Z" fill="#E27525" stroke="#E27525" stroke-width="0.712817" stroke-linecap="round" stroke-linejoin="round"/>
<path d="M36.6627 41.9594L35.0127 51.125L37.1064 61.9438L37.5502 47.7L36.6627 41.9594Z" fill="#E27525" stroke="#E27525" stroke-width="0.712817" stroke-linecap="round" stroke-linejoin="round"/>
<path d="M46.3372 41.9594L45.481 47.6688L45.8934 61.9438L47.9872 51.125L46.3372 41.9594Z" fill="#E27525" stroke="#E27525" stroke-width="0.712817" stroke-linecap="round" stroke-linejoin="round"/>
<path d="M47.9873 51.125L45.8936 61.9438L47.4154 62.9906L56.6811 55.7594L56.9654 48.4938L47.9873 51.125Z" fill="#F5841F" stroke="#F5841F" stroke-width="0.712817" stroke-linecap="round" stroke-linejoin="round"/>
<path d="M26.0654 48.4938L26.3186 55.7594L35.5842 62.9906L37.1061 61.9438L35.0123 51.125L26.0654 48.4938Z" fill="#F5841F" stroke="#F5841F" stroke-width="0.712817" stroke-linecap="round" stroke-linejoin="round"/>
<path d="M48.1781 72.9531L48.2719 70.0031L47.4813 69.3063H35.5188L34.7594 70.0031L34.8219 72.9531L24.8281 68.2281L28.3188 71.0813L35.425 76H47.575L54.6812 71.0813L58.1719 68.2281L48.1781 72.9531Z" fill="#C0AC9D" stroke="#C0AC9D" stroke-width="0.712817" stroke-linecap="round" stroke-linejoin="round"/>
<path d="M47.415 62.9906L45.8932 61.9438H37.1057L35.5838 62.9906L34.7588 70.0031L35.5182 69.3063H47.4807L48.2713 70.0031L47.415 62.9906Z" fill="#161616" stroke="#161616" stroke-width="0.712817" stroke-linecap="round" stroke-linejoin="round"/>
<path d="M79.2682 25.9688L81.9338 13.025L77.9369 1L47.415 23.6531L59.1557 33.5813L75.7463 38.4375L79.3963 34.1531L77.8088 33.0125L80.3463 30.6938L78.4119 29.1719L80.9494 27.2375L79.2682 25.9688Z" fill="#763E1A" stroke="#763E1A" stroke-width="0.712817" stroke-linecap="round" stroke-linejoin="round"/>
<path d="M1.06543 13.025L3.76231 25.9688L2.04981 27.2375L4.58731 29.1719L2.65293 30.6938L5.19043 33.0125L3.60293 34.1531L7.25293 38.4375L23.8436 33.5813L35.5842 23.6531L5.06231 1L1.06543 13.025Z" fill="#763E1A" stroke="#763E1A" stroke-width="0.712817" stroke-linecap="round" stroke-linejoin="round"/>
<path d="M75.7468 38.4375L59.1561 33.5812L64.1687 41.1656L56.6812 55.7594L66.578 55.6312H81.2999L75.7468 38.4375Z" fill="#F5841F" stroke="#F5841F" stroke-width="0.712817" stroke-linecap="round" stroke-linejoin="round"/>
<path d="M23.8439 33.5812L7.25332 38.4375L1.73145 55.6312H16.4533L26.319 55.7594L18.8314 41.1656L23.8439 33.5812Z" fill="#F5841F" stroke="#F5841F" stroke-width="0.712817" stroke-linecap="round" stroke-linejoin="round"/>
<path d="M46.3377 41.9594L47.4158 23.6531L52.2064 10.6125H30.7939L35.5846 23.6531L36.6627 41.9594L37.0752 47.7313L37.1064 61.9438H45.8939L45.9252 47.7313L46.3377 41.9594Z" fill="#F5841F" stroke="#F5841F" stroke-width="0.712817" stroke-linecap="round" stroke-linejoin="round"/>
</svg>
