<svg width="20" height="20" viewBox="0 0 20 20" fill="none" xmlns="http://www.w3.org/2000/svg">
<path d="M9.96094 19.9609C11.3216 19.9609 12.6009 19.7005 13.7988 19.1797C15.0033 18.6589 16.0645 17.9395 16.9824 17.0215C17.9004 16.1035 18.6198 15.0456 19.1406 13.8477C19.6615 12.6432 19.9219 11.3607 19.9219 10C19.9219 8.63932 19.6615 7.36003 19.1406 6.16211C18.6198 4.95768 17.9004 3.89648 16.9824 2.97852C16.0645 2.06055 15.0033 1.34115 13.7988 0.820312C12.5944 0.299479 11.3118 0.0390625 9.95117 0.0390625C8.5905 0.0390625 7.30794 0.299479 6.10352 0.820312C4.9056 1.34115 3.84766 2.06055 2.92969 2.97852C2.01823 3.89648 1.30208 4.95768 0.78125 6.16211C0.260417 7.36003 0 8.63932 0 10C0 11.3607 0.260417 12.6432 0.78125 13.8477C1.30208 15.0456 2.02148 16.1035 2.93945 17.0215C3.85742 17.9395 4.91536 18.6589 6.11328 19.1797C7.31771 19.7005 8.60026 19.9609 9.96094 19.9609ZM9.96094 18.3008C8.80859 18.3008 7.73112 18.0859 6.72852 17.6562C5.72591 17.2266 4.84375 16.6341 4.08203 15.8789C3.32682 15.1172 2.73438 14.235 2.30469 13.2324C1.88151 12.2298 1.66992 11.1523 1.66992 10C1.66992 8.84766 1.88151 7.77018 2.30469 6.76758C2.73438 5.76497 3.32682 4.88281 4.08203 4.12109C4.83724 3.35938 5.71615 2.76693 6.71875 2.34375C7.72135 1.91406 8.79883 1.69922 9.95117 1.69922C11.1035 1.69922 12.181 1.91406 13.1836 2.34375C14.1862 2.76693 15.0684 3.35938 15.8301 4.12109C16.5918 4.88281 17.1875 5.76497 17.6172 6.76758C18.0469 7.77018 18.2617 8.84766 18.2617 10C18.2617 11.1523 18.0469 12.2298 17.6172 13.2324C17.194 14.235 16.6016 15.1172 15.8398 15.8789C15.0846 16.6341 14.2025 17.2266 13.1934 17.6562C12.1908 18.0859 11.1133 18.3008 9.96094 18.3008ZM9.76562 12.0215C10.0065 12.0215 10.1953 11.9531 10.332 11.8164C10.4753 11.6797 10.5469 11.5169 10.5469 11.3281C10.5469 11.3086 10.5469 11.2891 10.5469 11.2695C10.5469 11.2435 10.5469 11.224 10.5469 11.2109C10.5469 10.9375 10.6283 10.7031 10.791 10.5078C10.9538 10.306 11.2077 10.0911 11.5527 9.86328C12.0215 9.55078 12.4089 9.22526 12.7148 8.88672C13.0208 8.54818 13.1738 8.08594 13.1738 7.5C13.1738 6.95964 13.0273 6.50391 12.7344 6.13281C12.4479 5.76172 12.0703 5.48177 11.6016 5.29297C11.1328 5.09766 10.6217 5 10.0684 5C9.22852 5 8.54167 5.17253 8.00781 5.51758C7.48047 5.85612 7.14844 6.25 7.01172 6.69922C6.98568 6.77734 6.96615 6.85547 6.95312 6.93359C6.9401 7.01172 6.93359 7.0931 6.93359 7.17773C6.93359 7.39909 7.00521 7.56836 7.14844 7.68555C7.29167 7.79622 7.44466 7.85156 7.60742 7.85156C7.77018 7.85156 7.9069 7.81576 8.01758 7.74414C8.13477 7.67253 8.23568 7.57812 8.32031 7.46094L8.49609 7.22656C8.61328 7.03776 8.74675 6.87826 8.89648 6.74805C9.04622 6.61133 9.21224 6.50716 9.39453 6.43555C9.58333 6.36393 9.78516 6.32812 10 6.32812C10.4492 6.32812 10.8073 6.44531 11.0742 6.67969C11.3411 6.90755 11.4746 7.20703 11.4746 7.57812C11.4746 7.91016 11.3704 8.18359 11.1621 8.39844C10.9538 8.60677 10.6348 8.86068 10.2051 9.16016C9.85352 9.40104 9.56055 9.66797 9.32617 9.96094C9.09831 10.2539 8.98438 10.6413 8.98438 11.123C8.98438 11.1426 8.98438 11.1654 8.98438 11.1914C8.98438 11.2109 8.98438 11.2305 8.98438 11.25C8.98438 11.7643 9.24479 12.0215 9.76562 12.0215ZM9.73633 14.9316C10.0228 14.9316 10.2702 14.834 10.4785 14.6387C10.6868 14.4434 10.791 14.2025 10.791 13.916C10.791 13.6296 10.6868 13.3887 10.4785 13.1934C10.2702 12.998 10.0228 12.9004 9.73633 12.9004C9.44987 12.9004 9.20247 13.0013 8.99414 13.2031C8.79232 13.3984 8.69141 13.6361 8.69141 13.916C8.69141 14.196 8.79557 14.4368 9.00391 14.6387C9.21224 14.834 9.45638 14.9316 9.73633 14.9316Z" fill="#9CA3AF"/>
</svg>
