<svg width="32" height="33" viewBox="0 0 32 33" fill="none" xmlns="http://www.w3.org/2000/svg">
<path fill-rule="evenodd" clip-rule="evenodd" d="M5 0.368927H27C29.7614 0.368927 32 2.6075 32 5.36893V27.3689C32 30.1304 29.7614 32.3689 27 32.3689H5C2.23858 32.3689 0 30.1304 0 27.3689V5.36893C0 2.6075 2.23858 0.368927 5 0.368927ZM16.6919 12.3763C15.2589 12.9723 12.3949 14.206 8.09992 16.0772C7.40248 16.3546 7.03714 16.6259 7.00388 16.8912C6.94767 17.3396 7.50915 17.5161 8.27374 17.7565C8.37774 17.7892 8.4855 17.8231 8.59598 17.859C9.34822 18.1036 10.3601 18.3896 10.8862 18.401C11.3633 18.4113 11.8959 18.2146 12.4839 17.8108C16.4968 15.102 18.5683 13.7328 18.6983 13.7033C18.7901 13.6825 18.9172 13.6563 19.0034 13.7329C19.0895 13.8094 19.0811 13.9544 19.0719 13.9933C19.0163 14.2305 16.8123 16.2795 15.6717 17.3399C15.3161 17.6705 15.0639 17.905 15.0124 17.9585C14.8969 18.0785 14.7791 18.192 14.666 18.301C13.9672 18.9747 13.4431 19.4799 14.695 20.3049C15.2967 20.7014 15.7781 21.0292 16.2584 21.3563C16.7829 21.7135 17.306 22.0698 17.9829 22.5135C18.1554 22.6265 18.3201 22.744 18.4805 22.8583C19.0909 23.2935 19.6393 23.6845 20.3168 23.6221C20.7105 23.5859 21.1172 23.2157 21.3237 22.1116C21.8118 19.5024 22.7712 13.849 22.9929 11.5194C23.0123 11.3153 22.9879 11.0541 22.9683 10.9394C22.9486 10.8247 22.9076 10.6614 22.7586 10.5404C22.582 10.3972 22.3095 10.367 22.1877 10.369C21.6335 10.3789 20.7834 10.6745 16.6919 12.3763Z" fill="#629A48"/>
</svg>
