<svg width="352" height="352" viewBox="0 0 352 352" fill="none" xmlns="http://www.w3.org/2000/svg">
<path d="M342.085 89.2394C342.085 85.6897 343.949 82.5762 346.755 80.8212C350.106 78.729 352 74.9115 352 70.9553V0H0V70.9553C0 74.9115 1.88394 78.729 5.2453 80.8212C8.05138 82.5762 9.91549 85.6897 9.91549 89.2394C9.91549 92.7892 8.05138 95.9026 5.2453 97.6577C1.89386 99.7499 0 103.567 0 107.524V352H352V107.524C352 103.567 350.116 99.7499 346.755 97.6577C343.949 95.9026 342.085 92.7892 342.085 89.2394Z" fill="url(#paint0_linear_167_1772)"/>
<defs>
<linearGradient id="paint0_linear_167_1772" x1="352" y1="1.19088e-05" x2="-47.5944" y2="399.594" gradientUnits="userSpaceOnUse">
<stop offset="0.300897" stop-color="#629A48"/>
<stop offset="1" stop-color="#20311F"/>
</linearGradient>
</defs>
</svg>
