<svg width="1072" height="708" viewBox="0 0 1072 708" fill="none" xmlns="http://www.w3.org/2000/svg">
<g filter="url(#filter0_d_1101_569)">
<rect x="66" y="40" width="832" height="468" rx="32" fill="#F5F5FF"/>
<g clip-path="url(#clip0_1101_569)">
<path d="M465.935 307.001C452.19 306.388 438.432 305.988 424.707 305.091C414.042 304.394 409.165 299.991 407.732 289.516C405.454 272.837 405.278 256.094 408.078 239.428C409.569 230.566 414.849 225.763 423.945 225.357C438.992 224.679 454.053 224.04 469.106 224.001C481.881 223.969 494.676 224.589 507.431 225.331C517.881 225.938 522.66 230.243 524.177 240.744C526.613 257.63 526.736 274.586 523.819 291.452C522.374 299.817 517.152 304.516 508.512 305.033C496.616 305.743 484.7 306.039 472.792 306.485C470.519 306.569 468.24 306.498 465.961 306.498C465.955 306.666 465.948 306.833 465.942 307.001H465.935ZM454.079 247.309V283.119C464.731 277.045 474.856 271.268 485.508 265.188C474.732 259.056 464.633 253.312 454.079 247.309Z" fill="#EA3223"/>
<path d="M454.078 247.308C464.633 253.31 474.731 259.061 485.507 265.187C474.855 271.261 464.73 277.038 454.078 283.118V247.308Z" fill="white"/>
</g>
</g>
<defs>
<filter id="filter0_d_1101_569" x="0" y="0" width="1072" height="708" filterUnits="userSpaceOnUse" color-interpolation-filters="sRGB">
<feFlood flood-opacity="0" result="BackgroundImageFix"/>
<feColorMatrix in="SourceAlpha" type="matrix" values="0 0 0 0 0 0 0 0 0 0 0 0 0 0 0 0 0 0 127 0" result="hardAlpha"/>
<feOffset dx="54" dy="80"/>
<feGaussianBlur stdDeviation="60"/>
<feComposite in2="hardAlpha" operator="out"/>
<feColorMatrix type="matrix" values="0 0 0 0 0.294118 0 0 0 0 0.305882 0 0 0 0 0.988235 0 0 0 0.15 0"/>
<feBlend mode="normal" in2="BackgroundImageFix" result="effect1_dropShadow_1101_569"/>
<feBlend mode="normal" in="SourceGraphic" in2="effect1_dropShadow_1101_569" result="shape"/>
</filter>
<clipPath id="clip0_1101_569">
<rect width="120" height="83" fill="white" transform="translate(406 224)"/>
</clipPath>
</defs>
</svg>
