<svg width="71" height="48" viewBox="0 0 71 48" fill="none" xmlns="http://www.w3.org/2000/svg">
<path d="M11.32 5.5556L12.141 4.16697L12.4695 4.16697L11.6484 5.5556C11.4431 5.5556 11.3611 5.5556 11.32 5.5556Z" fill="#B45500"/>
<path d="M11.6482 5.59753L12.4693 4.20889L13.4545 4.61731L12.6335 6.00598C12.3171 5.8428 11.9875 5.70616 11.6482 5.59753Z" fill="#C36E00"/>
<path d="M12.6328 6.00611L13.4538 4.61745L14.7263 5.23009L13.9053 6.61871L12.6328 6.00611Z" fill="#CF8400"/>
<path d="M13.9055 6.62022L14.7264 5.23161L16.3275 6.04843L15.5064 7.43707L13.9055 6.62022Z" fill="#DD9200"/>
<path d="M15.5076 7.43591L16.3287 6.04726L18.258 7.06832L17.437 8.45697L15.5076 7.43591Z" fill="#E8A600"/>
<path d="M16.205 7.59847L14.6862 8.57867C10.7876 6.56234 7.16025 4.06487 3.88991 1.14537L5.73722 0.369361C8.92717 3.18209 12.4409 5.60873 16.205 7.59847Z" fill="#B45500"/>
<path d="M66.7385 46.8083L64.8501 47.5435L66.7385 46.8083Z" fill="#C36E00"/>
<path d="M66.6965 46.8083L64.8493 47.5435C64.8493 47.5435 64.562 47.5435 64.2336 47.5435L66.0808 46.8083C66.4092 46.8083 66.6144 46.8083 66.6965 46.8083Z" fill="#CF8400"/>
<path d="M66.0813 46.6444L64.2751 47.2162C63.8757 47.0934 63.4905 46.9291 63.1257 46.7261L64.9319 45.9909L66.1223 46.481" fill="#DD9200"/>
<path d="M64.8898 46.1537L63.0836 46.8889L61.4827 46.1129L63.2478 45.3368L64.8898 46.1537Z" fill="#E8A600"/>
<path d="M63.2477 45.3378L61.4826 46.1138L59.389 45.0519L61.1131 44.235L63.2477 45.3378Z" fill="#F1B700"/>
<path d="M61.1136 44.2351L59.3895 45.052L56.7213 43.6225L58.3222 42.7648L61.1136 44.2351Z" fill="#F9C900"/>
<path d="M58.3228 42.7646L56.7219 43.6223L56.3935 43.6223L53.1505 41.866L54.6694 40.9266L57.9944 42.7646L58.3228 42.7646Z" fill="#FFD400"/>
<path d="M70.5549 40.3954L66.7372 46.8077L66.3677 46.8077L70.1443 40.3954C70.3906 40.3954 70.5138 40.3954 70.5549 40.3954Z" fill="#B45500"/>
<path d="M19.9111 11.0451C9.36117 4.46947 8.66332 3.32588 18.3101 8.5537C27.9569 13.7815 44.2949 23.3386 54.8448 29.9551C65.3947 36.5715 66.0925 37.6743 56.4457 32.4873C46.7989 27.3003 30.4609 17.6615 19.9111 11.0451Z" fill="#A84300"/>
<path d="M17.6111 8.18474L18.4321 6.79609L19.0889 7.16368L20.813 8.10304L19.992 9.4917L18.3089 8.55231L17.6111 8.18474Z" fill="#F1B700"/>
<path d="M19.993 9.49409L20.814 8.10543L23.6054 9.65747L22.7844 11.0052L19.993 9.49409Z" fill="#F9C900"/>
<path d="M22.784 11.0035L23.6049 9.65571L26.0679 11.0443L25.2469 12.433L22.784 11.0035Z" fill="#FFD400"/>
<path d="M25.2465 12.4322L26.0675 11.0436L28.038 12.1463L27.2169 13.4941L25.2465 12.4322Z" fill="#FFE100"/>
<path d="M27.217 13.4958L28.0381 12.1481L29.6801 13.0874L28.8591 14.4761L27.217 13.4958Z" fill="#FFE900"/>
<path d="M28.8596 14.2708L29.6806 12.8821L31.2816 13.8215L30.4606 15.1693L28.8596 14.2708Z" fill="#FFEE00"/>
<path d="M30.4604 15.3733L31.2814 14.0256L33.2929 15.1691L32.4719 16.5577L30.4604 15.3733Z" fill="#FFEE00"/>
<path d="M32.4714 16.5578L33.2924 15.1692L37.3974 17.4972L36.5764 18.845L32.4714 16.5578Z" fill="#FFEE00"/>
<path d="M36.4537 18.8444L37.2748 17.4966L39.2042 18.5993L38.3831 19.988L36.4537 18.8444Z" fill="#FFEE00"/>
<path d="M38.3832 19.9899L39.2042 18.6012L40.641 19.4589L39.82 20.8476L38.3832 19.9899Z" fill="#FFEE00"/>
<path d="M39.8197 20.8468L40.6407 19.4581L42.0775 20.3158L41.2565 21.7045L39.8197 20.8468Z" fill="#FFE900"/>
<path d="M41.2557 21.7057L42.0767 20.3171L43.5545 21.2156L42.7335 22.5634L41.2557 21.7057Z" fill="#FFE100"/>
<path d="M42.7348 22.4398L43.5558 21.0921L45.2388 22.0723L44.4178 23.4609L42.7348 22.4398Z" fill="#FFD400"/>
<path d="M44.417 23.5825L45.238 22.1939L47.3726 23.5008L46.5516 24.8486L44.417 23.5825Z" fill="#F9C900"/>
<path d="M46.5522 24.8481L47.3732 23.5003L49.8773 25.0114L49.0563 26.4001L46.5522 24.8481Z" fill="#F1B700"/>
<path d="M49.0564 26.5227L49.8774 25.1341L52.5457 26.7678L51.7246 28.1564C50.8626 27.6255 50.0006 27.0537 49.0564 26.5227Z" fill="#E8A600"/>
<path d="M51.7244 28.0346L52.5455 26.6459L55.1316 28.2388L54.3106 29.6274L51.7244 28.0346Z" fill="#DD9200"/>
<path d="M54.3109 29.6293L55.1319 28.2407L55.6655 28.5674L57.6359 29.8335L56.8149 31.2222L54.8446 29.956L54.3109 29.6293Z" fill="#CF8400"/>
<path d="M56.8152 31.2193L57.6362 29.8307L60.1403 31.4235L59.3193 32.8121L56.8152 31.2193Z" fill="#C36E00"/>
<path d="M59.3188 32.8137L60.1398 31.4251C62.808 33.2221 64.2448 34.2023 64.2448 34.3657L63.4238 35.7135C63.4238 35.7135 62.2334 34.5699 59.524 32.8137" fill="#B45500"/>
<path d="M15.1895 18.8052L16.0105 17.4574L13.9991 16.1913L13.178 17.5799L15.1895 18.8052Z" fill="#CF8400"/>
<path d="M13.3016 17.5798L14.1227 16.1912L11.6596 14.5983L10.8386 15.9461L13.3016 17.5798Z" fill="#C36E00"/>
<path d="M10.8376 15.9456L11.6586 14.5978C10.1515 13.8252 8.76802 12.8342 7.5536 11.6571L6.7326 13.0457C7.94299 14.2165 9.3276 15.1946 10.8376 15.9456Z" fill="#B45500"/>
<path d="M19.9104 11.0458L20.7315 9.69803L18.761 8.43192L17.9401 9.82058L19.9104 11.0458Z" fill="#CF8400"/>
<path d="M17.9397 9.8205L18.7607 8.43183L16.2566 6.83898L15.4356 8.18679L17.9397 9.8205Z" fill="#C36E00"/>
<path d="M15.436 8.18616L16.257 6.83835C14.7498 6.0658 13.3664 5.07477 12.152 3.8977L11.331 5.28635C12.5414 6.45716 13.926 7.43525 15.436 8.18616Z" fill="#B45500"/>
<path d="M70.484 38.0824L70.7303 40.0837C70.7303 40.4921 67.8978 39.1443 61.9866 35.9994L61.494 35.7544L61.494 33.9165L61.9455 34.1615C64.5673 35.9199 67.4289 37.2953 70.443 38.2458" fill="#B45500"/>
<path d="M61.5357 33.8337L61.5357 35.6716C51.7247 30.3213 36.9056 21.6627 24.2622 14.1069L25.4937 12.9225C37.5624 20.2333 52.0531 28.6468 61.5768 33.8337" fill="#C36E00"/>
<path d="M25.4514 12.9244L24.2199 14.1088C20.8538 12.0667 17.693 10.0246 14.8605 8.30924L16.3793 7.32903C19.1297 9.08525 22.2085 10.964 25.4514 12.9244Z" fill="#B45500"/>
<path d="M16.3795 7.32734C3.24347 -0.841108 2.34041 -2.31144 14.3681 4.22332C26.3958 10.7581 46.8388 22.684 59.9748 30.9342C73.1109 39.1843 74.055 40.5729 61.9863 34.079C49.9175 27.5851 29.5566 15.5775 16.3795 7.32734ZM20.7309 9.69617C31.2808 16.3126 47.6187 26.0331 57.2655 31.0975C66.9123 36.162 66.1734 35.1818 55.6646 28.5653C45.1557 21.9489 28.7356 12.2284 19.0889 7.16397C9.44206 2.09953 10.181 3.07972 20.7309 9.69617Z" fill="#A84300"/>
<path d="M11.0848 14.7184L11.0848 16.4746L9.03234 15.1677L9.03234 13.3706L11.1259 14.7184" fill="#E8A600"/>
<path d="M8.9499 13.3722L8.9499 15.1693L6.24063 13.4539L6.24063 11.5752C7.06163 12.147 8.00576 12.7188 9.03201 13.3722" fill="#DD9200"/>
<path d="M6.15832 11.5747L6.15832 13.4535L3.73637 11.8198L3.73637 9.9002L6.28146 11.5747" fill="#CF8400"/>
<path d="M3.61327 9.90202L3.61327 11.8216C2.71017 11.2498 2.01237 10.7189 1.47872 10.3513L1.47872 8.39085L3.65436 9.90202" fill="#C36E00"/>
<path d="M1.43674 8.38944L1.43674 10.3499C0.697836 9.77811 0.28734 9.41052 0.28734 9.28799L2.20831e-05 7.2867C2.20831e-05 7.2867 0.451585 7.7768 1.23154 8.38944" fill="#B45500"/>
<path d="M54.8441 40.491L53.3252 41.4304L48.3992 38.6531L49.7539 37.632L54.8441 40.491Z" fill="#FFE100"/>
<path d="M49.7539 37.6331L48.3992 38.6541L39.7787 33.7122L40.8049 32.5278L49.7539 37.6331Z" fill="#FFE900"/>
<path d="M40.805 32.5272L39.7787 33.7117L35.2632 31.0978L36.1663 29.8316L40.805 32.5272Z" fill="#FFEE00"/>
<path d="M36.1665 29.8309L35.2634 31.097C32.7593 29.6676 30.2553 28.1564 27.7923 26.6861L28.449 25.2974L36.1665 29.8309Z" fill="#FFE900"/>
<path d="M28.4488 25.2982L27.7921 26.6868L23.1122 23.9096L23.3996 22.4393L28.2436 25.339" fill="#FFE100"/>
<path d="M23.4002 22.4407L22.9076 23.9518L18.8026 21.4196L19.131 19.8268L23.4002 22.4407Z" fill="#FFD400"/>
<path d="M19.295 19.785L18.9666 21.3778L15.2311 19.1315L15.4774 17.457L19.295 19.785Z" fill="#F9C900"/>
<path d="M15.4772 17.4579L15.2309 19.1324L11.9469 17.0903L11.9469 15.3341L15.354 17.4579" fill="#F1B700"/>
<path d="M12.0695 15.3331L12.0695 17.0894L11.0844 16.4767L11.0844 14.7205L12.1106 15.3331" fill="#E8A600"/>
<path d="M14.8611 8.30662L11.0435 14.7189L8.49837 13.0852L12.275 6.71376L14.8611 8.30662Z" fill="#CF8400"/>
<path d="M12.2746 6.71417L8.49797 13.0856L5.29608 11.0026L9.07267 4.6312L12.2746 6.71417Z" fill="#C36E00"/>
<path d="M9.0726 4.63386L5.29597 11.0052C3.42203 10.0097 1.7067 8.74347 0.205747 7.24776L4.02341 0.876374C4.02341 0.876374 5.58331 2.34669 9.0726 4.63386Z" fill="#B45500"/>
<path d="M70.3198 40.0823L66.5432 46.4946L65.2706 45.9636L69.0472 39.5922L70.3198 40.0823Z" fill="#C36E00"/>
<path d="M69.0483 39.5936L65.2717 45.965L63.5886 45.1482L67.4063 38.7768L69.0483 39.5936Z" fill="#CF8400"/>
<path d="M67.4052 38.7767L63.5875 45.148L61.535 44.127L65.3527 37.7147L67.4052 38.7767Z" fill="#DD9200"/>
<path d="M65.3526 37.716L61.5349 44.1282L59.0308 42.7804L62.8485 36.409L65.3526 37.716Z" fill="#E8A600"/>
<path d="M62.8489 36.4088L59.0312 42.7803L58.1692 42.331L55.9524 41.1057L59.7701 34.6935L61.9868 35.8779L62.8489 36.368" fill="#F1B700"/>
<path d="M59.7703 34.6904L55.9526 41.0618L52.3812 39.0605L56.2399 32.7299L59.8113 34.7312" fill="#F9C900"/>
<path d="M56.24 32.7311L52.4224 39.1025L49.2204 37.3463L53.0381 30.9341L56.24 32.7311Z" fill="#FFD400"/>
<path d="M52.9971 30.9346L49.1795 37.3468L46.6754 35.9173L50.4931 29.5051L52.9971 30.9346Z" fill="#FFE100"/>
<path d="M50.4931 29.5062L46.6754 35.9185L44.5408 34.6932L48.3585 28.281C49.0563 28.7302 49.7953 29.1386 50.4931 29.5062Z" fill="#FFE900"/>
<path d="M48.3586 28.2814L44.5409 34.6937L42.4884 33.5092L46.2651 27.097L48.3586 28.2814Z" fill="#FFEE00"/>
<path d="M46.2645 27.0951L42.4878 33.5074L39.9017 31.9962L43.6783 25.6248L46.2645 27.0951Z" fill="#FFEE00"/>
<path d="M43.679 25.6245L39.9023 31.9958L34.7711 29.0144L38.5887 22.4388L43.679 25.4203" fill="#FFEE00"/>
<path d="M38.588 22.4397L34.7704 28.8111L32.2663 27.3408L36.084 20.9694L38.588 22.4397Z" fill="#FFEE00"/>
<path d="M36.0847 21.173L32.2671 27.5444L30.4198 26.4416L34.1964 20.0703L36.0847 21.173Z" fill="#FFEE00"/>
<path d="M34.1961 20.0693L30.4195 26.4407L28.5722 25.3788L32.3488 18.9666L34.1961 20.0693Z" fill="#FFE900"/>
<path d="M32.3491 18.9679L28.5725 25.3802L26.6431 24.2366L30.4608 17.8243L32.3491 18.9679Z" fill="#FFE100"/>
<path d="M30.4612 17.8236L26.6435 24.2359L24.4678 22.9289L28.2855 16.5167L30.4612 17.8236Z" fill="#FFD400"/>
<path d="M28.2855 16.517L24.4678 22.9293L21.7585 21.2956L25.5351 14.8833L28.2855 16.517Z" fill="#F9C900"/>
<path d="M25.535 14.8844L21.7584 21.2966L18.4744 19.2954L22.292 12.9239L25.535 14.8844Z" fill="#F1B700"/>
<path d="M22.2914 12.9234L18.4738 19.2948L15.0666 17.2118L18.8432 10.7996L22.2914 12.9234Z" fill="#E8A600"/>
<path d="M18.8429 10.7982L15.0663 17.2104L11.7412 15.1274L15.5178 8.75605L18.8429 10.7982Z" fill="#DD9200"/>
<path d="M15.5178 8.75732L11.7412 15.1287L11.0434 14.7203L14.861 8.30805L15.5178 8.75732Z" fill="#CF8400"/>
</svg>
