<svg width="98" height="75" viewBox="0 0 98 75" fill="none" xmlns="http://www.w3.org/2000/svg">
<path d="M15.5575 57.5537L14.9007 56.0425C17.1174 61.1887 22.7002 64.8645 31.3207 65.9672C34.2271 66.2754 37.1581 66.2754 40.0644 65.9672L40.7213 67.5192C37.8139 67.8075 34.8849 67.8075 31.9776 67.5192C23.5212 66.4573 17.9384 62.7407 15.5575 57.5945" fill="#9B3800"/>
<path d="M40.5568 67.6434L39.9 66.0914C41.9397 65.9398 43.9685 65.667 45.9754 65.2746L46.6323 66.7857C44.626 67.1915 42.5973 67.4779 40.5568 67.6434Z" fill="#A34300"/>
<path d="M46.6325 66.8254L45.9757 65.3143C47.7503 64.9937 49.5047 64.5709 51.2301 64.0482L51.887 65.6002C50.1628 66.0903 48.3977 66.4987 46.6325 66.8254Z" fill="#AF4D00"/>
<path d="M51.8872 65.6L51.2303 64.048C52.9134 63.5987 54.5965 63.0269 56.2384 62.4143L56.8953 63.9663C55.2533 64.5789 53.5702 65.1099 51.8872 65.6Z" fill="#B55C00"/>
<path d="M56.8951 63.9657L56.2382 62.4137C57.9213 61.801 59.5633 61.0659 61.2053 60.3307L61.8621 61.8419C60.2612 62.6179 58.5781 63.3122 56.8951 63.9657Z" fill="#C06300"/>
<path d="M61.8631 61.8424L61.2063 60.3312C63.0316 59.4815 64.8127 58.541 66.5429 57.5131L67.1997 59.0243C65.4695 60.0521 63.6884 60.9927 61.8631 61.8424Z" fill="#C56C00"/>
<path d="M67.1988 59.0232L66.542 57.512C68.9096 56.1396 71.1734 54.5971 73.3153 52.8969L73.972 54.4489C71.8265 56.1319 69.563 57.6605 67.1988 59.0232Z" fill="#C97D00"/>
<path d="M73.9717 54.45L73.3149 52.898C76.3884 50.5323 79.1472 47.7875 81.5249 44.7295C82.2638 43.7493 82.9206 42.81 83.4953 41.8706L84.1521 43.3818C83.5774 44.3211 82.9206 45.3013 82.2228 46.2407C79.83 49.2854 77.073 52.0285 74.0127 54.4092" fill="#D38500"/>
<path d="M84.1935 43.4613L83.5367 41.9502C84.6386 40.1987 85.5209 38.3196 86.1639 36.3548L86.8207 37.8659C86.1937 39.837 85.3105 41.718 84.1935 43.4613Z" fill="#C97D00"/>
<path d="M86.657 37.8666L86.0002 36.3554C86.408 35.0261 86.6695 33.6567 86.7802 32.2712L87.4369 33.8232C87.3277 35.1287 87.066 36.4171 86.657 37.6624" fill="#C56C00"/>
<path d="M87.4364 34.0269L86.7797 32.4748C86.9234 31.3904 86.9234 30.2919 86.7797 29.2075L87.4775 30.7595C87.6006 31.8452 87.6006 32.9412 87.4775 34.0269" fill="#C06300"/>
<path d="M87.4369 30.8834L86.7391 29.3314C86.6134 28.3157 86.3795 27.3162 86.0412 26.3499L86.698 27.861C87.0309 28.8456 87.2781 29.8567 87.4369 30.8834Z" fill="#B55C00"/>
<path d="M86.6986 27.7392L86.0418 26.228C85.9635 26.003 85.8674 25.7845 85.7545 25.5746L86.4113 27.0857L86.6986 27.7392Z" fill="#AF4D00"/>
<path d="M19.2519 36.8065C25.3577 29.5887 33.0923 23.9097 41.8245 20.233C50.5567 16.5562 60.0389 14.9859 69.4974 15.6502C86.6974 17.8557 91.9929 30.8843 81.4019 44.8116C75.2962 52.0293 67.5615 57.7083 58.8294 61.3851C50.0972 65.0618 40.6149 66.6321 31.1565 65.9679C13.9565 63.5582 8.66097 50.6928 19.2519 36.8065Z" fill="#EBB400"/>
<path style="mix-blend-mode:screen" d="M19.2519 36.8058C25.3577 29.588 33.0923 23.909 41.8245 20.2323C50.5567 16.5555 60.0389 14.9852 69.4974 15.6495C86.6974 17.855 91.9929 30.8836 81.4019 44.8109C75.2962 52.0286 67.5615 57.7076 58.8294 61.3844C50.0972 65.0611 40.6149 66.6314 31.1565 65.9672C13.9565 63.5575 8.66097 50.6921 19.2519 36.8058Z" fill="url(#paint0_linear_1_8045)"/>
<path d="M12.1914 37.336C25.4096 20.0189 53.4879 8.17465 74.9571 10.9111C96.4264 13.6475 103.035 29.9844 89.8173 47.3016C76.5991 64.6187 48.4798 76.5038 27.0516 73.7265C5.62339 70.9492 -1.06776 54.694 12.1914 37.336ZM19.9088 38.3571C9.31789 52.2435 14.6544 65.2721 31.8134 67.4776C41.2775 68.1386 50.7647 66.5669 59.5029 62.8906C68.2412 59.2143 75.9835 53.5372 82.0999 46.3213C92.6908 32.435 87.3543 19.3654 70.1543 17.1599C60.6917 16.4939 51.2052 18.0676 42.4717 21.752C33.7382 25.4364 26.0061 31.1268 19.9088 38.3571Z" fill="#EBB400"/>
<path style="mix-blend-mode:screen" d="M12.1914 37.3374C25.4096 20.0203 53.4879 8.17599 74.9571 10.9124C96.4264 13.6489 103.035 29.9858 89.8173 47.3029C76.5991 64.62 48.4798 76.5051 27.0516 73.7279C5.62339 70.9506 -1.06776 54.6954 12.1914 37.3374ZM19.9088 38.3584C9.31789 52.2448 14.6544 65.2735 31.8134 67.479C41.2775 68.1399 50.7647 66.5683 59.5029 62.892C68.2412 59.2157 75.9835 53.5385 82.0999 46.3227C92.6908 32.4363 87.3543 19.3668 70.1543 17.1613C60.6917 16.4953 51.2052 18.0689 42.4717 21.7533C33.7382 25.4378 26.0061 31.1282 19.9088 38.3584Z" fill="url(#paint1_linear_1_8045)"/>
<path d="M10.303 35.6611L12.2734 37.3357L11.5755 38.2342L9.60517 36.6005C9.85147 36.2738 10.0567 35.947 10.303 35.6611Z" fill="#FFE000"/>
<path d="M9.52287 36.6026L11.4933 38.2363L10.2207 40.115L8.20931 38.5222C8.61981 37.8687 9.07132 37.2152 9.52287 36.6026Z" fill="#FFDF00"/>
<path d="M8.20902 38.5215L10.2204 40.1143C9.64573 41.0129 9.15317 41.8706 8.66057 42.7283L6.60808 41.2171C7.10068 40.3186 7.63432 39.42 8.20902 38.5215Z" fill="#FFD800"/>
<path d="M6.608 41.2168L8.66052 42.7279C8.06679 43.8707 7.53243 45.0431 7.05956 46.2404L4.92492 44.8109C5.41753 43.6265 5.9512 42.442 6.608 41.2168Z" fill="#FFD100"/>
<path d="M4.92471 44.8116L7.05936 46.2411C6.58277 47.4634 6.19851 48.7194 5.90988 49.9986L3.73421 48.6916C4.03963 47.3055 4.43736 45.9411 4.92471 44.6074" fill="#F9C800"/>
<path d="M3.73432 48.6896L5.90997 49.9966C5.66839 51.1003 5.50381 52.2193 5.41739 53.3456L3.24173 52.1612C3.33095 50.9947 3.49547 49.8351 3.73432 48.6896Z" fill="#F6C100"/>
<path d="M3.243 52.1609L5.41864 53.3453C5.3362 54.3375 5.3362 55.3347 5.41864 56.3268L3.243 55.2241C3.16028 54.2047 3.16028 53.1803 3.243 52.1609Z" fill="#EFBC00"/>
<path d="M3.28276 55.3891L5.45848 56.4919C5.54553 57.3729 5.69638 58.2464 5.90997 59.1058L3.7754 58.1664C3.52835 57.2571 3.36345 56.3276 3.28276 55.3891Z" fill="#ECAF00"/>
<path d="M3.77597 58.0034L5.91053 58.9428C6.12967 59.7686 6.41806 60.5746 6.77261 61.3525L4.63799 60.454C4.27797 59.6642 3.98951 58.8441 3.77597 58.0034Z" fill="#E6AA00"/>
<path d="M4.63734 60.4532L6.77194 61.3517C7.10607 62.1112 7.49002 62.8479 7.92133 63.5572L5.82782 62.6995C5.36663 61.9863 4.9683 61.2347 4.63734 60.4532Z" fill="#E3A000"/>
<path d="M5.82906 62.7008L7.9226 63.5585C8.35107 64.2702 8.84585 64.9403 9.40042 65.5598L7.3479 64.7838C6.78269 64.1339 6.27456 63.4371 5.82906 62.7008Z" fill="#DE9800"/>
<path d="M7.34707 64.7827L9.39959 65.5588C9.96979 66.2016 10.5727 66.815 11.2058 67.3966L9.23541 66.6615C8.55575 66.0873 7.92419 65.459 7.34707 64.7827Z" fill="#D88D00"/>
<path d="M9.23545 66.6624L11.2058 67.3976C11.8879 67.9968 12.6152 68.543 13.3815 69.0312L11.4521 68.4186C10.6722 67.8468 9.9333 67.275 9.23545 66.6624Z" fill="#D38500"/>
<path d="M11.4515 68.417L13.3809 69.0296C14.2047 69.5954 15.0691 70.1005 15.967 70.5408L14.1608 69.969C13.1756 69.4789 12.3135 68.9479 11.4515 68.417Z" fill="#C97D00"/>
<path d="M14.1615 69.9711L15.9677 70.5429C16.9821 71.0485 18.0236 71.4985 19.0875 71.8907L17.3634 71.3189C16.2698 70.9343 15.2005 70.4842 14.1615 69.9711Z" fill="#C56C00"/>
<path d="M17.3632 71.3172L19.0873 71.889L20.1956 72.2566L18.5126 71.7256L17.3632 71.3172Z" fill="#C06300"/>
<path d="M94.7434 39.0517L94.0045 40.6446C98.1095 32.4761 97.3296 24.7978 92.6909 19.3249L93.3887 17.0377C98.1916 22.7148 98.8484 30.5565 94.7434 39.0517Z" fill="#9B3800"/>
<path d="M93.3884 16.9563L92.6906 19.2435C91.3384 17.6322 89.7298 16.2525 87.9288 15.1592L88.5035 12.7087C90.3358 13.8084 91.9841 15.1865 93.3884 16.7929" fill="#A34300"/>
<path d="M88.2969 12.75L87.7222 15.2005C86.3227 14.3189 84.8373 13.58 83.2888 12.995L83.6993 10.5036C85.2972 11.1119 86.8361 11.8638 88.2969 12.75Z" fill="#AF4D00"/>
<path d="M83.9061 10.4638L83.4957 12.9551C82.1595 12.4362 80.7876 12.013 79.3906 11.689L79.678 9.11594C81.1589 9.46114 82.6132 9.91157 84.0294 10.4638" fill="#B55C00"/>
<path d="M79.5546 9.15594L79.2672 11.729C77.9176 11.3805 76.5463 11.1213 75.1622 10.953L75.1622 8.37994C76.6114 8.56477 78.0501 8.82377 79.4725 9.15594" fill="#C06300"/>
<path d="M75.2441 8.37955L75.2441 10.9526C73.9305 10.9526 72.6579 10.7076 71.1391 10.6259L71.1391 8.0528C72.5348 8.0528 73.8895 8.05281 75.2441 8.37955Z" fill="#C56C00"/>
<path d="M71.0158 8.01241L71.0158 10.463C69.7433 10.463 68.4297 10.463 67.1161 10.463L67.1161 7.88987C68.4708 7.88987 69.8254 7.88987 71.2211 7.88987" fill="#C97D00"/>
<path d="M66.993 7.97103L66.993 10.5441C65.7204 10.5441 64.4889 10.5441 63.2164 10.5441L62.929 7.97103C64.2426 7.97103 65.5562 7.97103 67.0341 7.97103" fill="#D38500"/>
<path d="M63.0521 8.17468L63.3394 10.7477L59.768 11.1562L59.3986 8.62394C60.6301 8.62394 61.8616 8.2972 63.0521 8.17468Z" fill="#D88D00"/>
<path d="M59.5631 8.62524L59.9325 11.1575L56.6895 11.6884L56.1969 9.15619C57.3463 9.15619 58.4547 8.74776 59.5631 8.62524Z" fill="#DE9800"/>
<path d="M56.0323 9.15495L56.5249 11.6872L53.6925 12.2998L53.1177 9.76759L56.0323 9.15495Z" fill="#E3A000"/>
<path d="M53.1178 9.76972L53.6925 12.302L51.2295 12.9146L50.5726 10.4232L53.1178 9.76972Z" fill="#E6AA00"/>
<path d="M50.5729 10.4624L51.3528 12.9129L49.3825 13.4847L48.6846 10.9933L50.696 10.4215" fill="#ECAF00"/>
<path d="M48.5622 10.993L49.26 13.4844L47.3716 14.0562L46.5917 11.5648L48.5622 10.993Z" fill="#EFBC00"/>
<path d="M46.5915 11.5657L47.3714 14.0571L45.8936 14.5472L45.0316 12.0966L46.5915 11.5657Z" fill="#F6C100"/>
<path d="M45.031 12.0952L45.893 14.5458L44.4152 15.0767L43.5121 12.6262L45.031 12.0952Z" fill="#F9C800"/>
<path d="M43.5125 12.6287L44.4156 15.0792L43.102 15.5285L42.1989 13.1188L43.5125 12.6287Z" fill="#FFD100"/>
<path d="M42.1988 13.1184L43.1019 15.5281L41.9114 16.0182L40.9262 13.6085L42.1988 13.1184Z" fill="#FFD800"/>
<path d="M40.9264 13.608L41.9116 16.0177L40.6801 16.5078L39.6949 14.139L40.9264 13.608Z" fill="#FFDF00"/>
<path d="M39.6938 14.1381L40.679 16.5069L39.6117 16.9562L38.5855 14.5873L39.6938 14.1381Z" fill="#FFE000"/>
<path d="M38.5859 14.5477L39.6121 16.9165L38.5448 17.4066L37.4775 15.0378L38.5859 14.5477Z" fill="#FFE100"/>
<path d="M37.4772 15.0772L38.5446 17.446L37.5183 17.9362L36.3689 15.5673L37.4772 15.0772Z" fill="#FFE200"/>
<path d="M36.3695 15.5675L37.519 17.9364L36.4516 18.4265L35.3022 16.0985C35.6699 15.9462 36.0265 15.7688 36.3695 15.5675Z" fill="#FFE605"/>
<path d="M35.3034 16.0998L36.4528 18.4278L35.3855 18.9587L34.2361 16.6307L35.3034 16.0998Z" fill="#FFE812"/>
<path d="M34.2351 16.6307L35.3845 18.9587L34.3583 19.4897L33.1268 17.2025L34.2351 16.6307Z" fill="#FFE522"/>
<path d="M33.1264 17.2008L34.3579 19.488L33.2085 20.0598L31.977 17.8134L33.1264 17.2008Z" fill="#FFE830"/>
<path d="M31.9773 17.815L33.2088 20.0613L31.9773 20.7557L30.8279 18.6319L32.1005 17.9376" fill="#FFE738"/>
<path d="M30.8285 18.6327L32.101 20.879L30.9106 21.5733L29.556 19.3678L30.8285 18.6327Z" fill="#FFEB48"/>
<path d="M29.4323 19.2442L30.787 21.4496L28.8576 22.5932L27.4619 20.4286L29.4323 19.2442Z" fill="#FFEB52"/>
<path d="M27.4617 20.4271L28.8575 22.5918C26.6818 23.9804 24.5472 25.4507 22.5357 27.0027L20.9348 24.9606C23.0146 23.3542 25.1903 21.843 27.4617 20.4271Z" fill="#FFEC5C"/>
<path d="M20.9348 24.9607L22.6179 26.7986L20.9759 28.1464L19.3338 26.1451L21.0169 24.7565" fill="#FFEB52"/>
<path d="M19.2509 26.3502L20.8929 28.3515L19.7024 29.3725L17.9783 27.4529L19.2509 26.3502Z" fill="#FFEB48"/>
<path d="M17.9799 27.4531L19.704 29.3727C19.2935 29.6994 18.9651 30.067 18.5957 30.3938L16.8304 28.4333L17.9799 27.4531Z" fill="#FFE738"/>
<path d="M16.8307 28.4336L18.5959 30.3941L17.6106 31.2926L15.8455 29.4138L16.8307 28.4336Z" fill="#FFE830"/>
<path d="M15.844 29.4125L17.6091 31.2912C17.2807 31.5771 16.9934 31.9039 16.665 32.2306L14.8587 30.3519L15.844 29.4125Z" fill="#FFE522"/>
<path d="M14.8591 30.3537L16.6653 32.2324L15.7212 33.2126L13.8739 31.3747L14.8591 30.3537Z" fill="#FFE812"/>
<path d="M13.8735 31.3735L15.7209 33.2114L14.7767 34.2325L12.8884 32.4354L13.8735 31.3735Z" fill="#FFE605"/>
<path d="M12.8888 32.4362L14.7771 34.2332C14.4076 34.6008 14.0792 35.0092 13.7508 35.3768L11.8625 33.6206L12.8888 32.4362Z" fill="#FFE200"/>
<path d="M11.8622 33.6209L13.7504 35.3772L12.6831 36.6841L10.7538 34.9687L11.8622 33.6209Z" fill="#FFE100"/>
<path d="M10.7549 34.9672L12.6842 36.6826L12.1916 37.3361L10.2212 35.6615L10.7549 34.9672Z" fill="#FFE000"/>
<path d="M7.14173 28.5161L10.3026 35.6635C9.39823 36.8403 8.56217 38.0676 7.79855 39.3393L4.67875 32.1919C5.4568 30.9199 6.30651 29.6926 7.22385 28.5161" fill="#D38500"/>
<path d="M4.59694 32.1905L7.71674 39.3379C6.29314 41.597 5.16218 44.0259 4.35064 46.567L1.23078 39.4196C2.04231 36.8785 3.17334 34.4496 4.59694 32.1905Z" fill="#C97D00"/>
<path d="M1.23054 39.4188L4.3504 46.5662C3.80787 48.168 3.44977 49.8259 3.28306 51.5081L0.204284 44.3607C0.376249 42.6829 0.720121 41.027 1.23054 39.4188Z" fill="#C56C00"/>
<path d="M0.204088 44.362L3.28287 51.3052C3.1497 52.6634 3.1497 54.0313 3.28287 55.3895L0.204087 48.2421C0.0515766 46.8849 0.0515768 45.515 0.204088 44.1578" fill="#C06300"/>
<path d="M0.245379 48.6102L3.32412 55.7576C3.51333 57.0647 3.82951 58.3504 4.26825 59.5968L1.18951 52.4494C0.726106 51.2104 0.409274 49.922 0.245379 48.6102Z" fill="#B55C00"/>
<path d="M1.19067 52.45L4.26942 59.4749L4.63885 60.3326L1.51908 53.1852C1.39176 52.9064 1.28208 52.6199 1.19067 52.3275" fill="#AF4D00"/>
<path d="M92.9368 14.0161L96.0156 21.1635C93.1421 14.5471 85.9582 9.76852 75.0799 8.33904C71.3135 7.9484 67.5165 7.9484 63.7501 8.33904L60.6714 1.19164C64.4326 0.882552 68.216 0.964689 71.9602 1.4367C82.8795 2.82534 90.0633 7.60387 92.9368 14.2203" fill="#9B3800"/>
<path d="M60.6714 0.986932L63.6681 8.13433C61.0354 8.33031 58.4171 8.68492 55.8275 9.19623L52.7487 2.04882C55.3416 1.55746 57.9588 1.203 60.5893 0.986932" fill="#A34300"/>
<path d="M52.8304 2.0507L55.9091 9.19809C53.6514 9.60652 51.3936 10.1783 49.1359 10.791L46.0571 3.68439C48.3149 3.03092 50.5726 2.49996 52.8304 2.0507Z" fill="#AF4D00"/>
<path d="M46.0578 3.68421L49.1366 10.7908C47.002 11.4034 44.8263 12.1386 42.7327 12.9146L39.6129 5.76717C41.7475 4.99116 43.718 4.29685 46.0578 3.68421Z" fill="#B55C00"/>
<path d="M39.6132 5.76707L42.733 12.9145C40.5573 13.7313 38.3817 14.6299 36.2881 15.6509L33.2093 8.50351C35.3029 7.5233 37.3144 6.58392 39.6132 5.76707Z" fill="#C06300"/>
<path d="M33.209 8.50195L36.2877 15.6493C33.9479 16.7521 31.608 17.9365 29.3913 19.2435L26.3125 12.0961C28.5292 10.83 30.8281 9.60469 33.209 8.50195Z" fill="#C56C00"/>
<path d="M26.3123 12.0954L29.3911 19.2428C26.3574 21.0315 23.4499 23.0238 20.6885 25.2058L17.5687 18.0584C20.344 15.8758 23.2652 13.8835 26.3123 12.0954Z" fill="#C97D00"/>
<path d="M17.5692 18.0585L20.689 25.2059C16.8001 28.244 13.3108 31.7567 10.3033 35.6615L7.22458 28.5141C10.2535 24.6144 13.7556 21.1026 17.6513 18.0585" fill="#D38500"/>
<path d="M7.14122 28.5152C20.8109 10.4629 49.8334 -1.78981 71.8774 1.23253C74.2863 1.51747 76.6637 2.02333 78.979 2.74369L77.296 2.21273C75.0622 1.51006 72.767 1.01779 70.4406 0.742408C49.0124 -2.03487 20.893 9.8094 7.67489 27.1674C6.08257 29.2708 4.70728 31.5286 3.56987 33.9064L2.78991 35.4992C4.00262 33.0326 5.46031 30.693 7.14122 28.5152Z" fill="#9B3800"/>
<path d="M67.486 48.4865L66.9113 47.0979L72.4121 49.7118L73.0278 51.1412L67.486 48.4865Z" fill="#9F3E00"/>
<path d="M46.3442 54.7771L45.7695 53.3477L46.8779 52.8984L47.4936 54.3279L46.3442 54.7771Z" fill="#C47300"/>
<path d="M47.4945 54.3284L46.8787 52.8989C48.1102 52.4088 49.3006 51.9187 50.4911 51.3469L51.0658 52.7355L47.4945 54.3284Z" fill="#CA7900"/>
<path d="M51.0651 52.7336L50.4904 51.345L53.1997 49.9972L54.4722 49.2621L55.088 50.6915L53.7744 51.3859L51.0651 52.7336Z" fill="#CF8200"/>
<path d="M55.0881 50.6915L54.4723 49.262C55.451 48.7487 56.3969 48.1758 57.3048 47.5467L57.9206 48.9762L55.0881 50.6915Z" fill="#D58A00"/>
<path d="M57.9206 48.9778L57.3048 47.5483L58.7416 46.4864C59.4704 45.9444 60.0843 45.2642 60.5478 44.4851L61.1635 45.8738C60.6981 46.6756 60.0688 47.3713 59.3162 47.9159L57.9206 48.9778Z" fill="#D89200"/>
<path d="M61.1635 45.8729L60.5478 44.4843L61.1635 45.9138" fill="#D58A00"/>
<path d="M61.2874 45.5871L60.6716 44.1577L61.2463 45.5463C61.2463 45.5463 61.2463 45.5463 61.2463 45.7914" fill="#CF8200"/>
<path d="M61.3275 45.3426L60.7528 43.954L61.3275 45.3426Z" fill="#CA7900"/>
<path d="M61.3275 45.1801L60.7528 43.7914L61.3275 45.2209" fill="#C47300"/>
<path d="M61.3275 45.0552L60.7528 43.6257L61.3275 45.0552Z" fill="#BF6900"/>
<path d="M61.3275 44.9335L60.7117 43.504L60.7117 43.4632L61.2864 44.8926L61.3275 44.9335Z" fill="#B96300"/>
<path d="M39.6951 44.1999L39.1204 42.8113C39.1869 42.9611 39.2829 43.0961 39.4028 43.2083C39.5226 43.3206 39.6639 43.4078 39.8182 43.4647C40.2343 43.6363 40.6816 43.7197 41.1318 43.7098L41.7065 45.1393C41.2697 45.1484 40.8359 45.0648 40.434 44.8942C40.1148 44.7541 39.8539 44.5089 39.6951 44.1999Z" fill="#A64900"/>
<path d="M41.7064 45.14L41.1317 43.7105L41.5422 43.7105L42.1169 45.14L41.7064 45.14Z" fill="#AC5200"/>
<path d="M42.1172 45.0994L41.5425 43.6699L41.9119 43.6699L42.5277 45.0994L42.1172 45.0994Z" fill="#B25900"/>
<path d="M42.5284 45.0588L41.9127 43.6293L42.1589 43.6293L42.3642 43.6293L42.98 45.0588L42.7747 45.0588L42.5284 45.0588Z" fill="#B96300"/>
<path d="M43.1436 44.9337L42.5278 43.5042L43.1436 43.1366L43.7183 44.5661L43.0615 44.5661" fill="#BF6900"/>
<path d="M43.636 44.7318L43.1434 43.1389L43.8823 42.8939L44.4571 44.2825L43.7181 44.5684" fill="#C47300"/>
<path d="M44.3743 44.4444L43.7996 43.0557L44.6616 42.6473L45.2774 44.0768L44.3743 44.4444Z" fill="#CA7900"/>
<path d="M45.2774 44.0768L44.6616 42.6473L45.1131 42.4431L47.9046 40.9319L48.4793 42.3614L45.7289 43.8726L45.2774 43.8726" fill="#CF8200"/>
<path d="M48.4799 42.3613L47.9052 40.9319L49.3009 40.115L49.9987 39.7474L50.6145 41.1361L49.9166 41.5445L48.4799 42.3613Z" fill="#D58A00"/>
<path d="M50.6141 41.1362L49.9983 39.7476C52.174 38.5223 54.1034 37.5421 55.7043 36.7661L56.3201 38.1547C54.6781 38.9716 52.7488 39.9518 50.6141 41.1362Z" fill="#CF8200"/>
<path d="M56.3207 38.154L55.7049 36.7654L56.1975 36.5203L57.2648 36.0711L57.8395 37.5005L56.7722 37.9498L56.3207 38.154Z" fill="#CA7900"/>
<path d="M57.8392 37.5017L57.2645 36.0722L58.4549 35.623L59.0707 37.0524L57.8392 37.5017Z" fill="#C47300"/>
<path d="M59.0704 37.053L58.4546 35.6235L59.6861 35.2559L60.3018 36.6854L59.0704 37.053Z" fill="#BF6900"/>
<path d="M60.3022 36.6844L59.6865 35.2549L61.0411 34.9282L61.6158 36.3577L60.3022 36.6844Z" fill="#B96300"/>
<path d="M61.6156 36.358L61.0409 34.9286L62.1903 34.9286L62.4366 34.9286L63.0524 36.3172L62.765 36.3172L61.6156 36.5214" fill="#B25900"/>
<path d="M63.0527 36.1133L62.4369 34.7246L63.5453 34.7246L64.12 36.1133L63.0527 36.1133Z" fill="#AC5200"/>
<path d="M64.1198 36.033L63.5451 34.6444C65.0768 34.6043 66.5962 34.9262 67.9785 35.5837C69.1639 36.0523 70.1204 36.96 70.6468 38.116L71.2626 39.5046C70.7044 38.3663 69.7377 37.4774 68.5532 37.0132C67.1739 36.3431 65.6547 36.0072 64.1198 36.033Z" fill="#A64900"/>
<path d="M29.5148 49.5496L28.9401 48.1201L29.5558 49.5496" fill="#B96300"/>
<path d="M29.4743 49.3873L28.8586 47.9578C28.8586 47.9578 28.8586 47.5494 28.8586 47.3452L29.4743 48.7746C29.4557 48.9784 29.4557 49.1835 29.4743 49.3873Z" fill="#BF6900"/>
<path d="M29.3099 48.7729L28.6941 47.3434C28.6737 47.126 28.6737 46.9072 28.6941 46.6899L29.2688 48.0785C29.2463 48.3094 29.2463 48.542 29.2688 48.7729" fill="#C47300"/>
<path d="M29.227 48.0803L28.6523 46.6917C28.6113 46.4209 28.6113 46.1456 28.6523 45.8748L29.227 47.3043C29.2077 47.5626 29.2077 47.822 29.227 48.0803Z" fill="#CA7900"/>
<path d="M29.269 47.2224L28.6943 45.7929C28.7521 45.474 28.8345 45.1599 28.9406 44.8536L29.5153 46.2422C29.4268 46.5644 29.3583 46.8918 29.3101 47.2224" fill="#CF8200"/>
<path d="M29.5158 46.1998L28.9411 44.8112C29.0785 44.3018 29.2712 43.8088 29.5158 43.3409L30.1316 44.7704C29.8992 45.2349 29.6936 45.7121 29.5158 46.1998Z" fill="#D58A00"/>
<path d="M30.1311 44.7711L29.5153 43.3416C30.449 41.5982 31.6544 40.0129 33.0867 38.6448L33.7024 40.0334C32.2682 41.4153 31.0629 43.0143 30.1311 44.7711Z" fill="#D89200"/>
<path d="M55.1301 28.0251L54.5554 26.5956L56.9363 31.8643L57.552 33.2938L55.1301 28.0251Z" fill="#9F3E00"/>
<path d="M39.6546 35.2128L39.0799 33.7833C40.2704 32.9665 41.5019 32.2313 42.7745 31.4962L43.1439 32.9257C41.8714 33.6608 40.6399 34.396 39.4494 35.2128" fill="#D58A00"/>
<path d="M43.1438 32.9252L42.5691 31.4957C43.7595 30.8423 44.95 30.2296 46.1815 29.6578L46.7562 31.0873C45.5247 31.6591 44.3342 32.2717 43.1438 32.9252Z" fill="#CF8200"/>
<path d="M46.96 30.8838L46.3853 29.4543L46.6727 29.4543C47.6168 29.005 48.5199 28.5966 49.4641 28.229L50.0388 29.6585L47.2474 30.8838L46.96 30.8838Z" fill="#CA7900"/>
<path d="M50.0395 29.7388L49.4648 28.3093C50.3268 27.9417 51.2299 27.615 52.092 27.3291L52.7078 28.7585C51.8047 29.0444 50.9426 29.3712 50.0395 29.7388Z" fill="#C47300"/>
<path d="M52.7075 28.7605L52.0917 27.331L54.5138 26.5959L55.1295 28.0253C54.3085 28.2295 53.5285 28.4746 52.7075 28.7605Z" fill="#BF6900"/>
<path d="M33.8655 32.4355L33.2908 31.0061L39.0789 33.7833L39.6946 35.2128L33.8655 32.4355Z" fill="#9F3E00"/>
<path d="M27.9552 37.2955L27.3805 35.8661L33.2918 31.0058L33.8665 32.4353L27.9552 37.2955Z" fill="#E5A800"/>
<path d="M67.0738 56.0021L61.6141 53.3881C59.6311 54.8054 57.5455 56.0749 55.3745 57.1865C53.312 58.2804 51.1717 59.2223 48.9707 60.0046L46.3435 54.7768C48.8905 53.8062 51.3723 52.6739 53.7735 51.3869C55.7261 50.4051 57.5815 49.2428 59.3153 47.9153C60.1138 47.3304 60.7727 46.5774 61.2447 45.7098C61.3114 45.583 61.3494 45.4432 61.3559 45.3002C61.3625 45.1572 61.3375 45.0145 61.2827 44.8822C61.2279 44.7498 61.1447 44.631 61.0389 44.5341C60.933 44.4372 60.8071 44.3645 60.67 44.3212C59.9424 44.0484 59.1398 44.0484 58.4122 44.3212C57.4291 44.5621 56.4782 44.9186 55.5797 45.3831C54.5945 45.8732 53.1578 46.6083 51.4747 47.6294C48.7244 49.1405 46.4256 50.3658 44.4552 51.2644C42.5038 52.1563 40.4276 52.7485 38.2977 53.0206C36.2854 53.3242 34.2277 53.0256 32.3864 52.1629C31.3794 51.8426 30.524 51.1685 29.9801 50.2666C29.4362 49.3647 29.241 48.2965 29.4308 47.2618C30.1254 44.4883 31.6585 41.9936 33.8231 40.1144L28.0761 37.378L33.9874 32.5177L39.7754 35.295C42.1545 33.6456 44.6515 32.1713 47.2466 30.884C49.7872 29.6988 52.4237 28.7287 55.1282 27.9843L57.5091 33.2529C54.5506 34.0126 51.6764 35.0662 48.9296 36.3978C46.484 37.4973 44.1706 38.8674 42.0332 40.482C41.0823 41.1791 40.309 42.0884 39.7754 43.1367C39.6871 43.2859 39.6341 43.453 39.6202 43.6255C39.6063 43.798 39.6319 43.9714 39.6952 44.1327C39.7584 44.2939 39.8576 44.4388 39.9853 44.5563C40.113 44.6738 40.2658 44.761 40.4322 44.8113C41.1877 45.0861 42.0166 45.0861 42.7721 44.8113C43.7921 44.5435 44.7823 44.1741 45.7277 43.7085L49.8327 41.3805C52.46 39.8694 54.7588 38.6849 56.6881 37.7864C58.5916 36.9114 60.609 36.3065 62.6814 35.9893C64.6536 35.6854 66.672 35.9845 68.4695 36.847C69.4167 37.1666 70.2259 37.7982 70.7633 38.6373C71.3007 39.4765 71.5342 40.4731 71.4251 41.4622C70.8477 44.1345 69.4058 46.5447 67.3201 48.3237L72.985 51.3052L67.0738 56.0021Z" fill="#F7C900"/>
<g style="mix-blend-mode:screen">
<path style="mix-blend-mode:screen" d="M67.076 56.002L61.6164 53.3881C59.6333 54.8053 57.5477 56.0749 55.3767 57.1864C53.3142 58.2804 51.1739 59.2223 48.9729 60.0046L46.3457 54.7768C48.8928 53.8062 51.3745 52.6739 53.7758 51.3869C55.7283 50.4051 57.5838 49.2427 59.3176 47.9152C60.1161 47.3304 60.7749 46.5773 61.2469 45.7098C61.3136 45.583 61.3516 45.4431 61.3582 45.3002C61.3647 45.1572 61.3397 45.0145 61.2849 44.8821C61.2302 44.7498 61.147 44.631 61.0411 44.5341C60.9352 44.4371 60.8093 44.3645 60.6722 44.3211C59.9446 44.0484 59.1421 44.0484 58.4144 44.3211C57.4313 44.5621 56.4805 44.9186 55.582 45.383C54.5968 45.8731 53.16 46.6083 51.477 47.6294C48.7266 49.1405 46.4278 50.3658 44.4574 51.2643C42.506 52.1563 40.4299 52.7484 38.2999 53.0205C36.2876 53.3242 34.23 53.0256 32.3886 52.1628C31.3817 51.8426 30.5263 51.1685 29.9824 50.2666C29.4384 49.3646 29.2432 48.2965 29.433 47.2618C30.1276 44.4883 31.6607 41.9936 33.8254 40.1144L28.0784 37.3779L33.9896 32.5177L39.7776 35.295C42.1567 33.6456 44.6537 32.1713 47.2488 30.884C49.7894 29.6987 52.426 28.7287 55.1304 27.9842L57.5113 33.2529C54.5528 34.0126 51.6786 35.0661 48.9319 36.3977C46.4863 37.4973 44.1729 38.8673 42.0354 40.482C41.0845 41.1791 40.3112 42.0883 39.7776 43.1367C39.6894 43.2858 39.6363 43.453 39.6224 43.6255C39.6085 43.798 39.6341 43.9714 39.6974 44.1326C39.7606 44.2939 39.8598 44.4387 39.9875 44.5563C40.1152 44.6738 40.268 44.761 40.4344 44.8112C41.1899 45.0861 42.0188 45.0861 42.7743 44.8112C43.7943 44.5435 44.7845 44.174 45.73 43.7085L49.835 41.3805C52.4622 39.8693 54.761 38.6849 56.6903 37.7864C58.5938 36.9114 60.6112 36.3065 62.6836 35.9893C64.6558 35.6853 66.6742 35.9844 68.4717 36.847C69.4189 37.1665 70.2281 37.7981 70.7655 38.6373C71.3029 39.4765 71.5364 40.473 71.4273 41.4622C70.85 44.1344 69.408 46.5447 67.3223 48.3237L72.9873 51.3052L67.076 56.002Z" fill="url(#paint2_linear_1_8045)"/>
</g>
<defs>
<linearGradient id="paint0_linear_1_8045" x1="-70699.1" y1="46569" x2="-71956.4" y2="47119" gradientUnits="userSpaceOnUse">
<stop stop-color="#C9C7C7"/>
<stop offset="0.06" stop-color="#E4E3E3"/>
<stop offset="0.11" stop-color="white"/>
<stop offset="0.12" stop-color="#F6F5F5"/>
<stop offset="0.15" stop-color="#DDDCDB"/>
<stop offset="0.19" stop-color="#B4B2B0"/>
<stop offset="0.23" stop-color="#7C7876"/>
<stop offset="0.25" stop-color="#6B6764"/>
<stop offset="0.27" stop-color="#6D6967"/>
<stop offset="0.28" stop-color="#75726F"/>
<stop offset="0.29" stop-color="#837F7D"/>
<stop offset="0.3" stop-color="#969391"/>
<stop offset="0.31" stop-color="#C9C7C7"/>
<stop offset="0.35" stop-color="#BFBDBD"/>
<stop offset="0.41" stop-color="#A5A3A3"/>
<stop offset="0.48" stop-color="#7A7878"/>
<stop offset="0.57" stop-color="#403E3E"/>
<stop offset="0.65" stop-color="#020000"/>
<stop offset="0.67" stop-color="#0C0908"/>
<stop offset="0.71" stop-color="#26221F"/>
<stop offset="0.74" stop-color="#3B3732"/>
<stop offset="0.75" stop-color="#211F1C"/>
<stop offset="0.76" stop-color="#0F0E0D"/>
<stop offset="0.77" stop-color="#040303"/>
<stop offset="0.78" stop-color="#0F0F0F"/>
<stop offset="0.8" stop-color="#464646"/>
<stop offset="0.81" stop-color="#787878"/>
<stop offset="0.82" stop-color="#A1A1A1"/>
<stop offset="0.83" stop-color="#C3C3C3"/>
<stop offset="0.84" stop-color="#DEDEDE"/>
<stop offset="0.86" stop-color="#F0F0F0"/>
<stop offset="0.87" stop-color="#FBFBFB"/>
<stop offset="0.88" stop-color="white"/>
<stop offset="0.89" stop-color="#EFEFEF"/>
<stop offset="0.91" stop-color="#CFCFCE"/>
<stop offset="0.93" stop-color="#B5B5B3"/>
<stop offset="0.95" stop-color="#A3A3A1"/>
<stop offset="0.98" stop-color="#989896"/>
<stop offset="1" stop-color="#949492"/>
</linearGradient>
<linearGradient id="paint1_linear_1_8045" x1="-88903" y1="58979.1" x2="-90864.2" y2="59837" gradientUnits="userSpaceOnUse">
<stop stop-color="#C9C7C7"/>
<stop offset="0.06" stop-color="#E4E3E3"/>
<stop offset="0.11" stop-color="white"/>
<stop offset="0.12" stop-color="#F6F5F5"/>
<stop offset="0.15" stop-color="#DDDCDB"/>
<stop offset="0.19" stop-color="#B4B2B0"/>
<stop offset="0.23" stop-color="#7C7876"/>
<stop offset="0.25" stop-color="#6B6764"/>
<stop offset="0.27" stop-color="#6D6967"/>
<stop offset="0.28" stop-color="#75726F"/>
<stop offset="0.29" stop-color="#837F7D"/>
<stop offset="0.3" stop-color="#969391"/>
<stop offset="0.31" stop-color="#C9C7C7"/>
<stop offset="0.35" stop-color="#BFBDBD"/>
<stop offset="0.41" stop-color="#A5A3A3"/>
<stop offset="0.48" stop-color="#7A7878"/>
<stop offset="0.57" stop-color="#403E3E"/>
<stop offset="0.65" stop-color="#020000"/>
<stop offset="0.67" stop-color="#0C0908"/>
<stop offset="0.71" stop-color="#26221F"/>
<stop offset="0.74" stop-color="#3B3732"/>
<stop offset="0.75" stop-color="#211F1C"/>
<stop offset="0.76" stop-color="#0F0E0D"/>
<stop offset="0.77" stop-color="#040303"/>
<stop offset="0.78" stop-color="#0F0F0F"/>
<stop offset="0.8" stop-color="#464646"/>
<stop offset="0.81" stop-color="#787878"/>
<stop offset="0.82" stop-color="#A1A1A1"/>
<stop offset="0.83" stop-color="#C3C3C3"/>
<stop offset="0.84" stop-color="#DEDEDE"/>
<stop offset="0.86" stop-color="#F0F0F0"/>
<stop offset="0.87" stop-color="#FBFBFB"/>
<stop offset="0.88" stop-color="white"/>
<stop offset="0.89" stop-color="#EFEFEF"/>
<stop offset="0.91" stop-color="#CFCFCE"/>
<stop offset="0.93" stop-color="#B5B5B3"/>
<stop offset="0.95" stop-color="#A3A3A1"/>
<stop offset="0.98" stop-color="#989896"/>
<stop offset="1" stop-color="#949492"/>
</linearGradient>
<linearGradient id="paint2_linear_1_8045" x1="-42193.5" y1="27821.7" x2="-42616.9" y2="28006.9" gradientUnits="userSpaceOnUse">
<stop stop-color="#C9C7C7"/>
<stop offset="0.06" stop-color="#E4E3E3"/>
<stop offset="0.11" stop-color="white"/>
<stop offset="0.12" stop-color="#F6F5F5"/>
<stop offset="0.15" stop-color="#DDDCDB"/>
<stop offset="0.19" stop-color="#B4B2B0"/>
<stop offset="0.23" stop-color="#7C7876"/>
<stop offset="0.25" stop-color="#6B6764"/>
<stop offset="0.27" stop-color="#6D6967"/>
<stop offset="0.28" stop-color="#75726F"/>
<stop offset="0.29" stop-color="#837F7D"/>
<stop offset="0.3" stop-color="#969391"/>
<stop offset="0.31" stop-color="#C9C7C7"/>
<stop offset="0.35" stop-color="#BFBDBD"/>
<stop offset="0.41" stop-color="#A5A3A3"/>
<stop offset="0.48" stop-color="#7A7878"/>
<stop offset="0.57" stop-color="#403E3E"/>
<stop offset="0.65" stop-color="#020000"/>
<stop offset="0.67" stop-color="#0C0908"/>
<stop offset="0.71" stop-color="#26221F"/>
<stop offset="0.74" stop-color="#3B3732"/>
<stop offset="0.75" stop-color="#211F1C"/>
<stop offset="0.76" stop-color="#0F0E0D"/>
<stop offset="0.77" stop-color="#040303"/>
<stop offset="0.78" stop-color="#0F0F0F"/>
<stop offset="0.8" stop-color="#464646"/>
<stop offset="0.81" stop-color="#787878"/>
<stop offset="0.82" stop-color="#A1A1A1"/>
<stop offset="0.83" stop-color="#C3C3C3"/>
<stop offset="0.84" stop-color="#DEDEDE"/>
<stop offset="0.86" stop-color="#F0F0F0"/>
<stop offset="0.87" stop-color="#FBFBFB"/>
<stop offset="0.88" stop-color="white"/>
<stop offset="0.89" stop-color="#EFEFEF"/>
<stop offset="0.91" stop-color="#CFCFCE"/>
<stop offset="0.93" stop-color="#B5B5B3"/>
<stop offset="0.95" stop-color="#A3A3A1"/>
<stop offset="0.98" stop-color="#989896"/>
<stop offset="1" stop-color="#949492"/>
</linearGradient>
</defs>
</svg>
