<svg width="65" height="59" viewBox="0 0 65 59" fill="none" xmlns="http://www.w3.org/2000/svg">
<path d="M13.4694 52.9352L12.4432 51.7508C13.3873 52.8536 17.5745 51.0973 23.8552 46.8089L24.8815 47.9933C18.6008 52.2818 14.4546 54.038 13.4694 52.9352Z" fill="#B45500"/>
<path d="M24.8809 47.9926L23.8546 46.8081L26.8102 44.7252L27.8775 45.8688L24.8809 47.9926Z" fill="#C36E00"/>
<path d="M27.8776 45.868L26.8102 44.7244L28.206 43.6625L29.3964 42.7639L30.4227 43.9484C30.0436 44.2705 29.6461 44.5705 29.2322 44.8469L27.8776 45.868Z" fill="#CF8400"/>
<path d="M30.4233 43.948L29.3971 42.7636C30.177 42.1918 30.957 41.5383 31.737 40.9257L32.8043 42.1509L30.4233 43.9888" fill="#DD9200"/>
<path d="M32.8032 42.1506L31.736 40.9662L33.8295 39.2917L34.8557 40.4761L32.8032 42.1506Z" fill="#E8A600"/>
<path d="M34.8555 40.4345L33.8293 39.2501L35.5124 37.8614L36.5797 39.005L34.8555 40.4345Z" fill="#F1B700"/>
<path d="M36.58 39.0065L35.5127 37.8629L36.8263 36.7193L37.8937 37.9037L36.58 39.0065Z" fill="#F9C900"/>
<path d="M37.8931 38.0688L36.8258 36.8843L37.8931 35.9858L38.9194 37.1702L37.8931 38.0688Z" fill="#FFD400"/>
<path d="M38.9612 37.0056L37.935 35.8212L38.8791 34.9635L39.9464 36.1479L38.9612 37.0056Z" fill="#FFE100"/>
<path d="M39.9057 36.147L38.8384 34.9626L39.6594 34.2683L40.6857 35.4527L39.9057 36.147Z" fill="#FFE900"/>
<path d="M40.6859 35.4541L39.6596 34.2697L40.3986 33.6162L41.4659 34.7598L40.6859 35.4541Z" fill="#FFEE00"/>
<path d="M41.4649 34.7586L40.3976 33.615L41.1365 32.9207L42.2037 34.1051L41.4649 34.7586Z" fill="#FFEE00"/>
<path d="M42.2049 33.9818L41.1376 32.7974L41.8766 32.1031L42.9438 33.2875L42.2049 33.9818Z" fill="#FFEE00"/>
<path d="M43.0671 33.4107L41.9998 32.2263L42.8208 31.4911L43.847 32.6755L43.0671 33.4107Z" fill="#FFF302"/>
<path d="M43.7232 32.6755L42.697 31.4911L43.6411 30.6334L44.6674 31.777C44.3731 32.0971 44.0577 32.3972 43.7232 32.6755Z" fill="#FFEE22"/>
<path d="M44.6675 31.7774L43.6412 30.6338L45.4885 28.8368L46.5147 30.0212L44.6675 31.7774Z" fill="#FFEF37"/>
<path d="M46.5144 29.8983L45.4881 28.7139L46.7607 29.8983L46.5144 30.1025" fill="#FFF34B"/>
<path d="M46.7607 29.899L45.6934 28.7145L47.6228 26.7949L48.649 27.9794L46.7607 29.899Z" fill="#FFEF37"/>
<path d="M48.6498 27.8961L47.6236 26.7116L48.6498 25.6497L49.6761 26.8342L48.6498 27.8961Z" fill="#FFEE22"/>
<path d="M49.6749 26.8356L48.6486 25.6512L49.5107 24.7527L50.537 25.9371L49.6749 26.8356Z" fill="#FFF302"/>
<path d="M50.5375 25.814L49.5113 24.6296L50.4143 23.6494L51.4406 24.8338L50.5375 25.814Z" fill="#FFEE00"/>
<path d="M51.2756 24.9565L50.2493 23.7721C50.5777 23.4045 50.9472 23.0369 51.2346 22.6693L52.3018 23.8537L51.2756 24.9565Z" fill="#FFEE00"/>
<path d="M52.4661 23.8544L51.3988 22.67C51.8914 22.1391 52.384 21.6081 52.7945 21.0772L53.8618 22.2616L52.4661 23.8544Z" fill="#FFEE00"/>
<path d="M53.862 22.2607L52.7946 21.0763C53.4925 20.3003 54.1083 19.5243 54.683 18.7891L55.7092 19.9736L53.862 22.2607Z" fill="#FFE900"/>
<path d="M55.7094 19.9751L54.6832 18.7907C55.2168 18.0964 55.7094 17.4021 56.1199 16.7486L57.1872 17.933L55.7094 19.9751Z" fill="#FFE100"/>
<path d="M57.1874 17.9317L56.12 16.7473C56.3663 16.4205 56.5716 16.0529 56.7768 15.7262L57.0231 15.3178L58.0494 16.5022C58.0494 16.5022 58.0494 16.7472 57.8031 16.9106C57.5568 17.074 57.3926 17.5641 57.1874 17.9317Z" fill="#FFD400"/>
<path d="M58.05 16.504L57.0237 15.3195C57.0237 14.9111 57.4342 14.5435 57.5574 14.2168L58.5836 15.4012C58.4404 15.7844 58.2617 16.1536 58.05 16.504Z" fill="#F9C900"/>
<path d="M58.5828 15.4002L57.5566 14.2158C57.6658 13.9383 57.7483 13.6512 57.8029 13.3581L58.8291 14.5425C58.7746 14.8356 58.6921 15.1228 58.5828 15.4002Z" fill="#F1B700"/>
<path d="M58.8296 14.5417L57.8034 13.3572C57.8445 13.1413 57.8445 12.9197 57.8034 12.7038L58.8707 13.8882C58.8898 14.1056 58.8898 14.3242 58.8707 14.5417" fill="#E8A600"/>
<path d="M58.871 13.8895L57.8037 12.7051C57.8266 12.5699 57.8266 12.4318 57.8037 12.2967L58.6658 13.5628C58.688 13.698 58.688 13.8359 58.6658 13.9712" fill="#DD9200"/>
<path d="M41.8761 20.3831C53.8628 11.357 60.5539 9.27402 56.7773 15.7271C53.0007 22.1802 40.3572 34.6779 28.0422 43.6632C15.7271 52.6485 9.36431 54.7723 13.0999 48.3192C16.8355 41.8662 29.8484 29.3684 41.8761 20.3831Z" fill="#AB4900"/>
<g style="mix-blend-mode:screen">
<path style="mix-blend-mode:screen" d="M41.8761 20.3831C53.8628 11.357 60.5539 9.27402 56.7773 15.7271C53.0007 22.1802 40.3572 34.6779 28.0422 43.6632C15.7271 52.6485 9.36431 54.7723 13.0999 48.3192C16.8355 41.8662 29.8484 29.3684 41.8761 20.3831Z" fill="url(#paint0_linear_1_8372)"/>
</g>
<path d="M40.3988 31.2446L39.3315 30.101C39.9473 29.325 40.4809 28.549 40.9325 27.8547L42.0408 28.9983C41.5482 29.6926 41.0146 30.4686 40.3988 31.2446Z" fill="#FFE000"/>
<path d="M42.0406 28.9996L40.9322 27.856C41.3113 27.3433 41.6411 26.7963 41.9174 26.2223C42.1007 25.9402 42.2521 25.6389 42.369 25.3238L43.4774 26.4674L43.0258 27.3659C42.7385 27.8968 42.41 28.4278 42.0406 28.9996Z" fill="#FCD200"/>
<path d="M43.477 26.4671L42.3686 25.3236C42.514 25.024 42.6242 24.7088 42.697 24.3842L43.8053 25.5278C43.7137 25.8468 43.6041 26.1604 43.477 26.4671Z" fill="#F5C300"/>
<path d="M43.8053 25.5284L42.697 24.3849C42.7151 24.2493 42.7151 24.112 42.697 23.9764L43.7643 25.12C43.7852 25.2554 43.7852 25.3931 43.7643 25.5284" fill="#ECB400"/>
<path d="M43.8053 25.1193L42.738 23.9757L43.8053 25.1193Z" fill="#E3A600"/>
<path d="M49.2647 19.3624L48.1974 18.2188L53.9034 13.0318L55.0118 14.1754L49.2647 19.3624Z" fill="#D78E00"/>
<path d="M16.1382 49.5034L15.0709 48.3599L20.4895 43.4179L21.5569 44.6024L16.1382 49.5034Z" fill="#D78E00"/>
<path d="M16.5482 50.7698L15.4398 49.6263L15.0703 48.3601L16.1376 49.5037L16.5482 50.7698Z" fill="#E5A800"/>
<path d="M27.4679 40.3156L26.3595 39.172C26.3595 39.172 26.6469 39.172 26.9343 39.172L27.7963 38.6002L28.8636 39.7438L28.0426 40.3156C27.7552 40.3156 27.55 40.3156 27.4679 40.3156Z" fill="#B05500"/>
<path d="M28.8636 39.7039L27.7963 38.5603L28.0426 38.3561L29.151 39.4996L28.8636 39.4996" fill="#BF6900"/>
<path d="M29.1507 39.4993L28.0423 38.3557L28.3297 38.1106L29.3969 39.2542L29.1507 39.4993Z" fill="#CC7D00"/>
<path d="M29.3969 39.2551L28.3297 38.1115L29.3969 39.2551Z" fill="#D89200"/>
<path d="M29.6435 39.0083L28.5762 37.8647L28.7815 37.8647L29.8488 39.0083L29.6435 39.0083Z" fill="#E3A600"/>
<path d="M29.8496 38.8473L28.7823 37.7037L29.8907 38.8473" fill="#ECB400"/>
<path d="M30.0127 38.6813L28.9043 37.5377L29.9716 38.6813" fill="#F5C300"/>
<path d="M30.1366 38.5599L29.0693 37.4163L30.1366 38.5599Z" fill="#FCD200"/>
<path d="M30.2582 38.4365L29.1909 37.2929L30.2582 38.4365L30.2582 38.6407L30.2582 38.4365Z" fill="#FFE000"/>
<path d="M30.4231 38.0706L29.3558 36.927L29.6842 36.5594L30.7925 37.703L30.4231 38.0706Z" fill="#FFED00"/>
<path d="M30.7522 37.8643L29.6438 36.7207L29.6438 36.5165C29.8256 36.2979 29.9903 36.0658 30.1364 35.8222L31.2448 36.9658L30.7522 37.6601C30.7348 37.7271 30.7348 37.7973 30.7522 37.8643Z" fill="#FFE000"/>
<path d="M31.4489 36.9668L30.3406 35.8233C30.4786 35.6283 30.6022 35.4236 30.7101 35.2106C30.7101 34.9247 31.0384 34.5571 31.2437 34.067L32.311 35.2106C32.156 35.602 31.9777 35.9838 31.7773 36.3542C31.6841 36.5666 31.5743 36.7714 31.4489 36.9668Z" fill="#FCD200"/>
<path d="M32.3117 35.2101L31.2444 34.0665L31.2444 33.6581L31.5728 33.0046L32.8043 33.9849C32.6839 34.1911 32.5874 34.4104 32.5169 34.6383L32.3117 35.0468" fill="#F5C300"/>
<path d="M32.8042 33.9846L31.7369 32.8411C32.0106 32.1688 32.3259 31.5141 32.681 30.8806C32.681 30.6764 32.9273 30.5131 33.0505 30.268L34.1178 31.4116C34.1178 31.6566 33.8715 31.82 33.7894 32.0242C33.4202 32.6566 33.0911 33.3114 32.8042 33.9846Z" fill="#FCD200"/>
<path d="M34.1184 31.5767L33.0511 30.4331C33.5038 29.7508 33.9973 29.0961 34.5289 28.4726L35.6373 29.6162C35.0215 30.3514 34.5289 31.0457 34.1184 31.5767Z" fill="#FFE000"/>
<path d="M35.6361 29.6143L34.5277 28.4708L34.9382 27.9807L35.7182 27.123L36.7855 28.2666L36.0466 29.1242L35.6361 29.6143Z" fill="#FFED00"/>
<path d="M36.7861 28.2685L35.7188 27.1249L36.2524 26.5531L37.3197 27.6967L36.7861 28.2685Z" fill="#FFE000"/>
<path d="M37.3196 27.6963L36.2522 26.5528L36.6627 26.1035L37.7711 27.2471L37.3196 27.6963Z" fill="#FCD200"/>
<path d="M37.7714 27.2476L36.663 26.104L37.1556 25.6548L38.2229 26.7983L37.7714 27.2476Z" fill="#F5C300"/>
<path d="M38.2228 26.7955L37.1555 25.6519L37.7302 25.0801L38.9617 26.2237L38.346 26.7955" fill="#ECB400"/>
<path d="M38.961 26.225L37.8526 25.0814L38.7147 24.3054L39.782 25.449C39.4888 25.6864 39.2143 25.9459 38.961 26.225Z" fill="#E3A600"/>
<path d="M39.6597 25.4483L38.5924 24.3047L39.2492 23.6921L39.7007 23.2428L40.8091 24.3864L40.3165 24.8356L39.6597 25.4483Z" fill="#D89200"/>
<path d="M40.8088 24.3871L39.7004 23.2436L40.8499 22.2225L41.9582 23.3661L40.8088 24.3871Z" fill="#CC7D00"/>
<path d="M41.9583 23.3656L40.85 22.222L42.0404 21.2418L43.1488 22.3854L41.9583 23.3656Z" fill="#BF6900"/>
<path d="M43.0663 22.3853L41.958 21.2417C42.9091 20.4817 43.9102 19.7859 44.9547 19.1588C46.4735 18.2194 47.5408 17.9335 48.1155 18.2194L49.1828 19.363C48.6081 19.0771 47.5818 19.363 46.0219 20.3023C44.9915 20.9308 44.0041 21.6266 43.0663 22.3853Z" fill="#B05500"/>
<path d="M23.8137 39.865L22.7053 38.7215L28.5755 34.2288L29.6428 35.3724L23.8137 39.865Z" fill="#B65F00"/>
<path d="M21.5165 44.6059L20.4492 43.4623C20.4492 43.4623 20.4492 43.2581 20.4492 43.1355L21.5575 44.2791C21.5575 44.2791 21.5575 44.4833 21.5575 44.6059" fill="#ECB400"/>
<path d="M21.5992 44.2789L20.4908 43.1353C20.6048 42.6299 20.7698 42.1373 20.9834 41.665L22.0917 42.8085C21.8781 43.2809 21.7131 43.7735 21.5992 44.2789Z" fill="#F5C300"/>
<path d="M22.0913 42.8092L20.983 41.6657C20.9908 41.5705 20.9908 41.4749 20.983 41.3798C21.3549 40.6029 21.7801 39.8523 22.2555 39.1334L23.3228 40.277C22.8302 41.0939 22.3787 41.829 22.0503 42.5234L22.0503 42.8092" fill="#FCD200"/>
<path d="M23.4868 40.2778L22.4196 39.1342L22.7069 38.7258L23.7742 39.8694C23.6924 40.0148 23.5961 40.1516 23.4868 40.2778Z" fill="#FFE000"/>
<path d="M16.1375 49.5032L21.515 44.6021C21.6524 43.8797 21.8871 43.1791 22.2129 42.5192C22.6513 41.5893 23.1735 40.7007 23.7728 39.8644L29.643 35.3718C28.9995 36.3604 28.4103 37.383 27.8778 38.4349C27.5535 38.9637 27.383 39.5717 27.3852 40.1912C27.3852 40.3954 27.6726 40.4362 28.042 40.1912C28.581 39.8895 29.0779 39.5188 29.5198 39.0884C30.0321 38.6171 30.5121 38.1123 30.9566 37.5772C31.256 37.1581 31.5301 36.7217 31.7776 36.2703C31.9828 35.9027 32.2291 35.3718 32.5165 34.7183C32.8914 33.8241 33.3163 32.9514 33.7891 32.1044C34.4355 31.0099 35.1919 29.9836 36.0468 29.0412C37.327 27.5948 38.6981 26.2307 40.1518 24.957C41.9148 23.2466 43.855 21.727 45.9399 20.4235C47.4998 19.525 48.5261 19.1982 49.1008 19.4841L54.8068 14.2971L55.2173 15.5633L49.4292 20.7911C49.2185 21.7464 48.8435 22.6583 48.3208 23.4867C47.6296 24.7266 46.8476 25.9143 45.981 27.0399L40.2339 31.3692C41.1979 30.1372 42.0757 28.8409 42.8611 27.4892C43.3242 26.811 43.5938 26.0206 43.6411 25.202C43.6411 24.957 43.3127 24.9161 42.8611 25.202C42.2236 25.5678 41.6312 26.0064 41.096 26.509C40.558 26.9964 40.0635 27.5293 39.6182 28.1018C39.2837 28.5048 38.9946 28.9431 38.7561 29.4088C38.5094 29.9001 38.2902 30.4046 38.0993 30.92C37.7467 31.7907 37.3353 32.6367 36.8678 33.4522C36.251 34.4971 35.5363 35.4817 34.7332 36.3928C33.4464 37.8329 32.0757 39.1967 30.6282 40.477C28.9256 42.1067 27.0698 43.5701 25.0864 44.8472C23.5675 45.7865 22.5003 46.1541 21.9256 45.8682L16.4248 50.851L16.1375 49.5032Z" fill="#C36E00"/>
<path d="M36.9903 14.8679L35.9641 13.6835L34.7736 14.582L35.7998 15.7664L36.9903 14.8679Z" fill="#CF8400"/>
<path d="M35.7997 15.7653L34.7735 14.5809L32.3925 16.4188L33.4599 17.6032L35.7997 15.7653Z" fill="#DD9200"/>
<path d="M33.4595 17.6442L32.3922 16.4597L30.3396 18.1343L31.3659 19.3187L33.4595 17.6442Z" fill="#E8A600"/>
<path d="M31.3667 19.2804L30.3404 18.096L28.6163 19.5254L29.6836 20.7099L31.3667 19.2804Z" fill="#F1B700"/>
<path d="M29.6833 20.7081L28.6159 19.5237L27.3434 20.6265L28.3696 21.8109L29.6833 20.7081Z" fill="#F9C900"/>
<path d="M28.3693 21.7293L27.343 20.5449L26.2757 21.4843L27.302 22.6279L28.3693 21.7293Z" fill="#FFD400"/>
<path d="M27.3017 22.7089L26.2754 21.5653L25.2902 22.3822L26.3575 23.5666L27.3017 22.7089Z" fill="#FFE100"/>
<path d="M26.357 23.5679L25.2897 22.3834C25.0495 22.6359 24.7886 22.8682 24.5098 23.0777L25.5771 24.2622L26.357 23.5679Z" fill="#FFE900"/>
<path d="M25.5782 24.2634L24.5108 23.079L23.7719 23.7733L24.7982 24.9578L25.5782 24.2634Z" fill="#FFEE00"/>
<path d="M24.7989 24.9563L23.7726 23.7719L22.9926 24.4662L24.0599 25.6506L24.7989 24.9563Z" fill="#FFEE00"/>
<path d="M24.0596 25.8135L22.9924 24.629L22.2535 25.2825L23.3208 26.4669L24.0596 25.8135Z" fill="#FFEE00"/>
<path d="M23.3208 26.3029L22.2535 25.1185L21.4736 25.8537L22.5409 27.0381L23.3618 26.3029" fill="#FFF302"/>
<path d="M22.5402 27.0387L21.514 25.8543L20.5698 26.7528L21.5961 27.9372C21.9305 27.6589 22.2459 27.3588 22.5402 27.0387Z" fill="#FFEE22"/>
<path d="M21.5551 27.9367L20.5288 26.7523L18.6816 28.5085L19.7078 29.6929L21.5551 27.9367Z" fill="#FFEF37"/>
<path d="M19.7077 29.6931L18.6814 28.5086L18.4351 28.7537L19.5024 29.9381L19.7077 29.6931Z" fill="#FFF34B"/>
<path d="M19.5023 29.8983L18.435 28.7138L16.5466 30.5926L17.5729 31.777L19.5023 29.8983Z" fill="#FFEF37"/>
<path d="M17.5734 31.8185L16.5471 30.6341L15.5208 31.696L16.5882 32.8804L17.5734 31.8185Z" fill="#FFEE22"/>
<path d="M16.5886 32.8793L15.5212 31.6949L14.6592 32.5934L15.6855 33.7778L16.5886 32.8793Z" fill="#FFF302"/>
<path d="M15.6855 33.7769L14.6592 32.5925L13.7561 33.5727L14.7824 34.7571L15.6855 33.7769Z" fill="#FFEE00"/>
<path d="M14.7818 34.7581L13.7556 33.5737L12.7293 34.6764L13.7966 35.8609L14.7818 34.7581Z" fill="#FFEE00"/>
<path d="M13.798 35.8628L12.7307 34.6783C12.2792 35.2501 11.7866 35.7811 11.3351 36.2712L12.4023 37.4556L13.798 35.8628Z" fill="#FFEE00"/>
<path d="M12.4016 37.454L11.3343 36.2696L9.48703 38.5568L10.5543 39.7412C11.088 39.006 11.7037 38.2709 12.4016 37.454Z" fill="#FFE900"/>
<path d="M10.5537 39.7415L9.48641 38.5571L8.0496 40.5992L9.07587 41.7836C9.48638 41.171 9.979 40.4767 10.5537 39.7415Z" fill="#FFE100"/>
<path d="M9.07663 41.7826L8.05038 40.5982C7.81097 40.9392 7.59165 41.2938 7.39357 41.6601L7.14728 42.0685L8.17353 43.2529L8.41982 42.8445L9.07663 41.7826Z" fill="#FFD400"/>
<path d="M8.173 43.2549L7.14677 42.0705C6.94153 42.4789 6.73626 42.8465 6.61311 43.1733L7.63934 44.3577L8.173 43.2549Z" fill="#F9C900"/>
<path d="M7.63922 44.3578L6.61299 43.1734C6.50457 43.4371 6.4221 43.7107 6.36671 43.9902L7.39294 45.1747C7.44254 44.8937 7.52519 44.6195 7.63922 44.3578Z" fill="#F1B700"/>
<path d="M7.39325 45.1735L6.367 43.9891C6.32491 44.2049 6.32491 44.4267 6.367 44.6425L7.39325 45.827C7.35216 45.6111 7.35216 45.3894 7.39325 45.1735Z" fill="#E8A600"/>
<path d="M7.39269 45.8267L6.36644 44.6423C6.31948 44.7744 6.31948 44.9185 6.36644 45.0507L7.43378 46.2351C7.31822 46.128 7.24534 45.983 7.22851 45.8267" fill="#DD9200"/>
<path d="M56.6133 0.370099L58.5837 0.69683C56.0385 0.247564 48.9779 4.00507 39.0848 11.3975L37.7712 10.7032C47.3359 3.55579 54.1913 -0.0791667 56.6133 0.370099Z" fill="#B45500"/>
<path d="M37.7707 10.7032L39.0843 11.3975L37.7707 10.7032Z" fill="#C36E00"/>
<path d="M37.6476 10.7853L38.9613 11.4797C37.0319 12.95 35.0615 14.502 33.0911 16.0948L31.9417 15.2371C33.871 13.726 35.7593 12.2148 37.6476 10.7853Z" fill="#C36E00"/>
<path d="M31.9422 15.2357L33.0917 16.0934C31.2034 17.6046 29.3561 19.1566 27.5499 20.7086L26.5647 19.7284L31.9422 15.2357Z" fill="#CF8400"/>
<path d="M26.6468 19.7281L27.632 20.7083C25.5385 22.5054 23.5269 24.3025 21.5565 26.1404L20.7766 24.9559C22.6649 23.1997 24.6353 21.4435 26.6468 19.7281Z" fill="#DD9200"/>
<path d="M20.6933 24.9559L21.4732 26.1403C14.6881 32.125 8.52676 38.7751 3.08273 45.9897L3.08273 44.1926C8.34216 37.2018 14.2972 30.7569 20.8574 24.9559" fill="#E8A600"/>
<path d="M2.91892 44.1927L2.91892 45.9898L1.97478 47.5418C1.6485 48.0651 1.36038 48.6111 1.1127 49.1754L1.1127 47.2559C1.35473 46.7226 1.62889 46.2043 1.93369 45.7039L2.87789 44.1927" fill="#DD9200"/>
<path d="M1.15353 47.257L1.15353 49.1766C0.84913 49.7725 0.68095 50.428 0.661001 51.0962L0.661001 49.1357C0.702892 48.4839 0.87008 47.8461 1.15353 47.257Z" fill="#CF8400"/>
<path d="M44.5843 18.6668C59.5676 7.43519 67.9419 4.82129 63.2211 12.8672C58.5004 20.9132 42.696 36.5149 27.5485 47.7465C12.401 58.9782 4.23198 61.5921 8.91169 53.5461C13.5914 45.5002 29.601 29.8984 44.5843 18.6668ZM43.0655 21.73C31.0378 30.7153 18.4354 43.2539 14.3304 49.6661C10.2253 56.0783 17.2449 54.0362 29.2316 45.0101C41.2182 35.9839 54.067 23.4862 57.9667 17.074C61.8665 10.6617 55.0932 12.7038 43.0655 21.73Z" fill="#AB4900"/>
<g style="mix-blend-mode:screen">
<path style="mix-blend-mode:screen" d="M44.5853 18.6679C59.5687 7.4363 67.9429 4.8224 63.2221 12.8683C58.5014 20.9143 42.697 36.516 27.5495 47.7476C12.402 58.9793 4.23298 61.5932 8.9127 53.5472C13.5924 45.5013 29.602 29.8996 44.5853 18.6679ZM43.0665 21.7311C31.0388 30.7164 18.4364 43.255 14.3314 49.6672C10.2263 56.0795 17.2459 54.0374 29.2326 45.0112C41.2193 35.9851 54.068 23.4873 57.9677 17.0751C61.8675 10.6628 55.0942 12.705 43.0665 21.7311Z" fill="url(#paint1_linear_1_8372)"/>
</g>
<path d="M64.4528 7.35342L64.4528 9.31384C64.4528 6.74078 58.993 8.66037 50.2904 14.5417L49.7157 12.7446C58.7057 6.6591 64.2064 4.57615 64.3706 7.35342" fill="#B45500"/>
<path d="M49.7983 12.7462L50.373 14.5433C48.8951 15.5235 47.3352 16.6263 45.6932 17.8515L44.9544 16.177C46.6785 14.9109 48.2794 13.7673 49.7983 12.7462Z" fill="#C36E00"/>
<path d="M44.9542 16.1764L45.6931 17.851L44.5847 18.6678L43.8458 16.9933L44.9542 16.1764Z" fill="#CF8400"/>
<path d="M43.8456 16.9919L44.5844 18.6665L41.4236 21.0762L40.5615 19.5242L43.8456 16.9919Z" fill="#CF8400"/>
<path d="M40.5619 19.5256L41.424 21.0776L37.3189 24.3042L36.3337 22.8339C37.6884 21.7311 39.0841 20.5875 40.4388 19.5256" fill="#DD9200"/>
<path d="M36.4161 22.8343L37.4013 24.3046C36.0467 25.4073 34.7331 26.5509 33.2963 27.6945L32.1469 26.3059L36.2519 22.8343" fill="#E8A600"/>
<path d="M32.2698 26.3044L33.4192 27.693L29.3141 31.328L28.0416 30.1027L32.1466 26.3044" fill="#F1B700"/>
<path d="M28.0014 29.8972L29.274 31.1224C27.5498 32.6744 25.8668 34.2673 24.2658 35.7784L22.8291 34.7165C24.4711 33.1237 26.2362 31.49 28.0014 29.8972Z" fill="#F9C900"/>
<path d="M22.8285 34.9215L24.2652 35.9834C20.0548 39.959 16.0928 44.1873 12.4017 48.6445L10.5955 47.9911C14.4139 43.3757 18.5275 39.0102 22.9106 34.9215" fill="#FFD400"/>
<path d="M10.5955 47.9928L12.4017 48.6462C11.2523 50.1165 10.2672 51.4643 9.48721 52.7305L7.55786 52.1995C8.49218 50.7822 9.50633 49.4186 10.5955 48.1153" fill="#F9C900"/>
<path d="M7.5574 52.1162L9.48676 52.6472L8.91199 53.5457L8.17312 55.016L6.12062 54.4034C6.34897 53.8973 6.6095 53.4062 6.90058 52.9331L7.47528 51.9937" fill="#F1B700"/>
<path d="M6.11987 54.403L8.0903 54.8931C7.83992 55.3829 7.6603 55.9053 7.55668 56.4451L5.58619 56.0367C5.70002 55.4734 5.87913 54.9252 6.11987 54.403Z" fill="#E8A600"/>
<path d="M5.66902 56.1606L7.6394 56.569C7.52976 56.9006 7.52976 57.2585 7.6394 57.5901L5.66902 57.2225C5.55888 56.877 5.55888 56.5061 5.66902 56.1606Z" fill="#DD9200"/>
<path d="M5.7512 57.2212L7.72162 57.5887C7.78747 57.7375 7.88948 57.8677 8.01847 57.9675C8.14746 58.0673 8.29941 58.1337 8.46057 58.1605L6.49009 57.793C6.32892 57.7661 6.17704 57.6998 6.04805 57.5999C5.91906 57.5001 5.81704 57.37 5.7512 57.2212Z" fill="#CF8400"/>
<path d="M6.49012 57.793L8.46057 58.1605L6.49012 57.793Z" fill="#C36E00"/>
<path d="M59.4863 1.10436L64.3302 6.57722C63.0987 5.18859 57.7212 7.4349 49.6343 12.9486L44.7904 7.47574C53.0004 1.96203 58.2138 -0.325122 59.4863 1.10436Z" fill="#B45500"/>
<path d="M44.6255 7.47633L49.4693 12.9492L45.6106 15.6856L40.7667 10.1719C42.1214 9.1917 43.394 8.29317 44.6255 7.47633Z" fill="#C36E00"/>
<path d="M40.7672 10.1723L45.6111 15.686L43.846 16.993L38.961 11.4792L40.7672 10.1723Z" fill="#CF8400"/>
<path d="M38.962 11.4777L43.847 16.9914L42.2871 18.1758L37.4432 12.6621L38.962 11.4777Z" fill="#CF8400"/>
<path d="M37.4423 12.663L42.2862 18.1767L39.2485 20.5456L34.4045 15.0319C35.3898 14.215 36.416 13.439 37.4423 12.663Z" fill="#DD9200"/>
<path d="M34.4042 15.0321L39.2482 20.5458L36.5799 22.7104L31.736 17.1967L34.4042 15.0321Z" fill="#E8A600"/>
<path d="M31.7358 17.196L36.5797 22.7097L34.404 24.5067L29.519 19.0339L31.7358 17.196Z" fill="#F1B700"/>
<path d="M29.5198 19.0359L34.4048 24.5087L32.6807 25.9791L27.8368 20.4654L29.5198 19.0359Z" fill="#F9C900"/>
<path d="M27.8369 20.4644L32.6808 25.8148L31.3262 26.9584L26.6465 21.7305L28.0011 20.5461" fill="#FFD400"/>
<path d="M26.6464 21.7306L31.4903 27.2035L30.2588 28.3062L25.4148 22.7925L26.6464 21.7306Z" fill="#FFE100"/>
<path d="M25.2504 22.711L30.0943 28.2247L29.068 29.1232L24.2241 23.6095L25.2504 22.711Z" fill="#FFE900"/>
<path d="M24.2247 23.6091L29.0686 29.1228L28.0834 30.0214L23.2394 24.5076L24.2247 23.6091Z" fill="#FFEE00"/>
<path d="M23.239 24.5087L28.0829 29.8998L27.1387 30.7575L22.2948 25.2438L23.239 24.3861" fill="#FFEE00"/>
<path d="M22.2944 25.3644L27.1383 30.8781L26.1942 31.7358L21.3092 26.2629L22.2944 25.3644Z" fill="#FFEE00"/>
<path d="M21.3105 26.262L26.1955 31.7349L25.1692 32.7151L20.2843 27.2014L21.3105 26.262Z" fill="#FFF302"/>
<path d="M20.2825 27.2038L25.1675 32.7175L23.936 33.8611L19.0921 28.3474L20.2825 27.2038Z" fill="#FFEE22"/>
<path d="M19.0925 28.346L23.9364 33.9823L21.5554 36.2694L16.7115 30.7557L19.0925 28.4686" fill="#FFEF37"/>
<path d="M16.7113 30.6338L21.5552 36.1475L21.2679 36.4334L16.424 30.9197L16.7113 30.6338Z" fill="#FFF34B"/>
<path d="M16.4248 30.9205L21.2687 36.4342C20.4203 37.251 19.5993 38.0679 18.8057 38.8847L13.9618 33.371C14.7281 32.5542 15.549 31.7373 16.4248 30.9205Z" fill="#FFEF37"/>
<path d="M13.9617 33.3711L18.8056 38.8848L17.492 40.2326L12.6481 34.7189L13.9617 33.3711Z" fill="#FFEE22"/>
<path d="M12.6476 34.7167L17.4915 40.2304L16.3832 41.4148L11.4982 35.9011L12.6476 34.7167Z" fill="#FFF302"/>
<path d="M11.4984 35.9017L16.3834 41.4154C15.9729 41.8238 15.5624 42.2323 15.193 42.6815L10.2259 37.1678L11.3753 35.9017" fill="#FFEE00"/>
<path d="M10.2255 37.1693L15.0694 42.683L13.7558 44.0717L8.91181 38.5988C9.32232 38.1087 9.7739 37.6594 10.2255 37.1693Z" fill="#FFEE00"/>
<path d="M9.03494 38.5969L13.8788 44.0697L12.1137 46.1527L7.22873 40.639L9.03494 38.5969Z" fill="#FFEE00"/>
<path d="M7.22977 40.6394L12.1148 46.2348C11.2527 47.2558 10.4317 48.2361 9.69276 49.1754L4.84884 43.6617C5.58775 42.7224 6.36771 41.7421 7.22977 40.7211" fill="#FFE900"/>
<path d="M4.84781 43.5803L9.69171 49.094L7.80343 51.7079L2.95947 46.235C3.49312 45.4182 4.14996 44.5605 4.84781 43.6211" fill="#FFE100"/>
<path d="M2.96031 46.2355L7.80426 51.7492L6.98327 53.097L6.65486 53.6279L1.81091 48.1142L2.13932 47.5833C2.38562 47.1748 2.63191 46.7256 2.96031 46.2355Z" fill="#FFD400"/>
<path d="M1.81119 48.0729L6.65512 53.5866C6.40882 54.1175 6.16251 54.5668 5.99831 55.016L1.15437 49.5023C1.34534 49.0136 1.56466 48.5363 1.81119 48.0729Z" fill="#F9C900"/>
<path d="M1.1542 49.5033L6.12131 55.017C5.96645 55.3697 5.85614 55.7401 5.7929 56.1198L0.948994 50.6061C1.01223 50.2264 1.12255 49.856 1.2774 49.5033" fill="#F1B700"/>
<path d="M0.826032 50.6045L5.66995 56.1182C5.60837 56.387 5.60837 56.6662 5.66995 56.9351L0.784942 51.4214C0.724729 51.1524 0.724729 50.8735 0.784942 50.6045" fill="#E8A600"/>
<path d="M0.784604 51.423L5.6696 56.9367C5.70894 57.1304 5.79328 57.3122 5.91589 57.4677L1.0309 51.9539C0.900469 51.8034 0.815142 51.6194 0.784604 51.423Z" fill="#DD9200"/>
<g style="mix-blend-mode:screen">
<path style="mix-blend-mode:screen" d="M16.1379 49.5032L21.5155 44.6021C21.6528 43.8797 21.8876 43.1791 22.2133 42.5192C22.6518 41.5893 23.1739 40.7007 23.7733 39.8644L29.6434 35.3718C29 36.3604 28.4108 37.383 27.8783 38.4349C27.554 38.9637 27.3834 39.5717 27.3857 40.1912C27.3857 40.3954 27.673 40.4362 28.0425 40.1912C28.5815 39.8895 29.0783 39.5188 29.5203 39.0884C30.0325 38.6171 30.5126 38.1123 30.9571 37.5772C31.2564 37.1581 31.5305 36.7217 31.7781 36.2703C31.9833 35.9027 32.2296 35.3718 32.5169 34.7183C32.8919 33.8241 33.3168 32.9514 33.7895 32.1044C34.4359 31.0099 35.1924 29.9836 36.0472 29.0412C37.3274 27.5948 38.6985 26.2307 40.1523 24.957C41.9152 23.2466 43.8555 21.727 45.9404 20.4235C47.5003 19.525 48.5265 19.1982 49.1012 19.4841L54.8072 14.2971L55.2177 15.5633L49.4297 20.7911C49.2189 21.7464 48.8439 22.6583 48.3213 23.4867C47.6301 24.7266 46.848 25.9143 45.9815 27.0399L40.2344 31.3692C41.1984 30.1372 42.0762 28.8409 42.8616 27.4892C43.3247 26.811 43.5942 26.0206 43.6416 25.202C43.6416 24.957 43.3131 24.9161 42.8616 25.202C42.224 25.5678 41.6316 26.0064 41.0965 26.509C40.5584 26.9964 40.064 27.5293 39.6187 28.1018C39.2841 28.5048 38.995 28.9431 38.7566 29.4088C38.5099 29.9001 38.2906 30.4046 38.0998 30.92C37.7472 31.7907 37.3358 32.6367 36.8683 33.4522C36.2514 34.4971 35.5367 35.4817 34.7337 36.3928C33.4468 37.8329 32.0761 39.1967 30.6287 40.477C28.9261 42.1067 27.0703 43.5701 25.0868 44.8472C23.568 45.7865 22.5007 46.1541 21.926 45.8682L16.4253 50.851L16.1379 49.5032Z" fill="url(#paint2_linear_1_8372)"/>
</g>
<defs>
<linearGradient id="paint0_linear_1_8372" x1="48093.6" y1="-31295.5" x2="47907.9" y2="-31411.7" gradientUnits="userSpaceOnUse">
<stop stop-color="#C9C7C7"/>
<stop offset="0.06" stop-color="#E4E3E3"/>
<stop offset="0.11" stop-color="white"/>
<stop offset="0.12" stop-color="#F6F5F5"/>
<stop offset="0.15" stop-color="#DDDCDB"/>
<stop offset="0.19" stop-color="#B4B2B0"/>
<stop offset="0.23" stop-color="#7C7876"/>
<stop offset="0.25" stop-color="#6B6764"/>
<stop offset="0.27" stop-color="#6D6967"/>
<stop offset="0.28" stop-color="#75726F"/>
<stop offset="0.29" stop-color="#837F7D"/>
<stop offset="0.3" stop-color="#969391"/>
<stop offset="0.31" stop-color="#C9C7C7"/>
<stop offset="0.35" stop-color="#BFBDBD"/>
<stop offset="0.41" stop-color="#A5A3A3"/>
<stop offset="0.48" stop-color="#7A7878"/>
<stop offset="0.57" stop-color="#403E3E"/>
<stop offset="0.65" stop-color="#020000"/>
<stop offset="0.67" stop-color="#0C0908"/>
<stop offset="0.71" stop-color="#26221F"/>
<stop offset="0.74" stop-color="#3B3732"/>
<stop offset="0.75" stop-color="#211F1C"/>
<stop offset="0.76" stop-color="#0F0E0D"/>
<stop offset="0.77" stop-color="#040303"/>
<stop offset="0.78" stop-color="#0F0F0F"/>
<stop offset="0.8" stop-color="#464646"/>
<stop offset="0.81" stop-color="#787878"/>
<stop offset="0.82" stop-color="#A1A1A1"/>
<stop offset="0.83" stop-color="#C3C3C3"/>
<stop offset="0.84" stop-color="#DEDEDE"/>
<stop offset="0.86" stop-color="#F0F0F0"/>
<stop offset="0.87" stop-color="#FBFBFB"/>
<stop offset="0.88" stop-color="white"/>
<stop offset="0.89" stop-color="#EFEFEF"/>
<stop offset="0.91" stop-color="#CFCFCE"/>
<stop offset="0.93" stop-color="#B5B5B3"/>
<stop offset="0.95" stop-color="#A3A3A1"/>
<stop offset="0.98" stop-color="#989896"/>
<stop offset="1" stop-color="#949492"/>
</linearGradient>
<linearGradient id="paint1_linear_1_8372" x1="61348.4" y1="-39913.2" x2="61060.6" y2="-40093.2" gradientUnits="userSpaceOnUse">
<stop stop-color="#C9C7C7"/>
<stop offset="0.06" stop-color="#E4E3E3"/>
<stop offset="0.11" stop-color="white"/>
<stop offset="0.12" stop-color="#F6F5F5"/>
<stop offset="0.15" stop-color="#DDDCDB"/>
<stop offset="0.19" stop-color="#B4B2B0"/>
<stop offset="0.23" stop-color="#7C7876"/>
<stop offset="0.25" stop-color="#6B6764"/>
<stop offset="0.27" stop-color="#6D6967"/>
<stop offset="0.28" stop-color="#75726F"/>
<stop offset="0.29" stop-color="#837F7D"/>
<stop offset="0.3" stop-color="#969391"/>
<stop offset="0.31" stop-color="#C9C7C7"/>
<stop offset="0.35" stop-color="#BFBDBD"/>
<stop offset="0.41" stop-color="#A5A3A3"/>
<stop offset="0.48" stop-color="#7A7878"/>
<stop offset="0.57" stop-color="#403E3E"/>
<stop offset="0.65" stop-color="#020000"/>
<stop offset="0.67" stop-color="#0C0908"/>
<stop offset="0.71" stop-color="#26221F"/>
<stop offset="0.74" stop-color="#3B3732"/>
<stop offset="0.75" stop-color="#211F1C"/>
<stop offset="0.76" stop-color="#0F0E0D"/>
<stop offset="0.77" stop-color="#040303"/>
<stop offset="0.78" stop-color="#0F0F0F"/>
<stop offset="0.8" stop-color="#464646"/>
<stop offset="0.81" stop-color="#787878"/>
<stop offset="0.82" stop-color="#A1A1A1"/>
<stop offset="0.83" stop-color="#C3C3C3"/>
<stop offset="0.84" stop-color="#DEDEDE"/>
<stop offset="0.86" stop-color="#F0F0F0"/>
<stop offset="0.87" stop-color="#FBFBFB"/>
<stop offset="0.88" stop-color="white"/>
<stop offset="0.89" stop-color="#EFEFEF"/>
<stop offset="0.91" stop-color="#CFCFCE"/>
<stop offset="0.93" stop-color="#B5B5B3"/>
<stop offset="0.95" stop-color="#A3A3A1"/>
<stop offset="0.98" stop-color="#989896"/>
<stop offset="1" stop-color="#949492"/>
</linearGradient>
<linearGradient id="paint2_linear_1_8372" x1="42040" y1="-29071.5" x2="41783.3" y2="-29232.1" gradientUnits="userSpaceOnUse">
<stop stop-color="#C9C7C7"/>
<stop offset="0.06" stop-color="#E4E3E3"/>
<stop offset="0.11" stop-color="white"/>
<stop offset="0.12" stop-color="#F6F5F5"/>
<stop offset="0.15" stop-color="#DDDCDB"/>
<stop offset="0.19" stop-color="#B4B2B0"/>
<stop offset="0.23" stop-color="#7C7876"/>
<stop offset="0.25" stop-color="#6B6764"/>
<stop offset="0.27" stop-color="#6D6967"/>
<stop offset="0.28" stop-color="#75726F"/>
<stop offset="0.29" stop-color="#837F7D"/>
<stop offset="0.3" stop-color="#969391"/>
<stop offset="0.31" stop-color="#C9C7C7"/>
<stop offset="0.35" stop-color="#BFBDBD"/>
<stop offset="0.41" stop-color="#A5A3A3"/>
<stop offset="0.48" stop-color="#7A7878"/>
<stop offset="0.57" stop-color="#403E3E"/>
<stop offset="0.65" stop-color="#020000"/>
<stop offset="0.67" stop-color="#0C0908"/>
<stop offset="0.71" stop-color="#26221F"/>
<stop offset="0.74" stop-color="#3B3732"/>
<stop offset="0.75" stop-color="#211F1C"/>
<stop offset="0.76" stop-color="#0F0E0D"/>
<stop offset="0.77" stop-color="#040303"/>
<stop offset="0.78" stop-color="#0F0F0F"/>
<stop offset="0.8" stop-color="#464646"/>
<stop offset="0.81" stop-color="#787878"/>
<stop offset="0.82" stop-color="#A1A1A1"/>
<stop offset="0.83" stop-color="#C3C3C3"/>
<stop offset="0.84" stop-color="#DEDEDE"/>
<stop offset="0.86" stop-color="#F0F0F0"/>
<stop offset="0.87" stop-color="#FBFBFB"/>
<stop offset="0.88" stop-color="white"/>
<stop offset="0.89" stop-color="#EFEFEF"/>
<stop offset="0.91" stop-color="#CFCFCE"/>
<stop offset="0.93" stop-color="#B5B5B3"/>
<stop offset="0.95" stop-color="#A3A3A1"/>
<stop offset="0.98" stop-color="#989896"/>
<stop offset="1" stop-color="#949492"/>
</linearGradient>
</defs>
</svg>
