<svg width="52" height="103" viewBox="0 0 52 103" fill="none" xmlns="http://www.w3.org/2000/svg">
<path d="M6.79069 21.8785C3.83507 9.62578 7.77589 13.71 15.5754 30.7004C23.4199 47.984 29.9114 65.8442 34.9922 84.1221C37.9478 96.3748 34.0069 92.2906 26.2485 75.2593C18.4117 57.9823 11.907 40.1372 6.79069 21.8785Z" fill="#DD8F00"/>
<path d="M27.6862 75.8722L29.5746 75.1779L32.6123 83.7956L30.724 84.49L27.6862 75.8722Z" fill="#C57300"/>
<path d="M19.6403 59.3303L21.5286 58.6359C22.4317 60.3922 23.2938 61.9442 24.0737 63.292C24.5599 64.1701 25.1232 65.0038 25.7568 65.7833C25.7568 65.7833 26.0031 65.7833 26.0441 65.7833L24.1558 66.4777C24.1558 66.4777 24.1558 66.4777 23.9095 66.4777C23.2602 65.6951 22.6961 64.8463 22.2265 63.9455C21.4055 62.6385 20.5844 61.0865 19.6403 59.2894" fill="#B05500"/>
<path d="M10.4035 30.9078L12.2918 30.2135L12.5381 30.2135L10.6498 30.9078L10.4035 30.9078Z" fill="#B05500"/>
<path d="M7.48939 21.9186L9.37771 21.2243L10.8966 22.7354L9.04933 23.4706L7.48939 21.9186Z" fill="#9F3E00"/>
<path d="M9.04977 23.471L10.897 22.7358L14.14 31.8028L12.2517 32.4971L9.04977 23.471Z" fill="#C57300"/>
<path d="M14.1811 40.2584L16.0694 39.5641L14.1811 40.2993" fill="#D89200"/>
<path d="M14.0977 40.383L15.986 39.6478C15.9648 39.7419 15.9648 39.8396 15.986 39.9337C16.0373 40.439 16.1617 40.9342 16.3555 41.4041L14.4672 42.0984C14.2648 41.6314 14.1401 41.1348 14.0977 40.628L14.0977 40.383Z" fill="#E3A600"/>
<path d="M14.4672 41.9755L16.3555 41.2811C16.3431 41.4988 16.3431 41.717 16.3555 41.9346L14.4672 42.629C14.4548 42.4113 14.4548 42.1931 14.4672 41.9755Z" fill="#D89200"/>
<path d="M14.6725 42.7507L16.5608 42.0564L16.5608 42.3015C16.5717 42.451 16.5717 42.6012 16.5608 42.7507L14.6725 43.4858C14.6895 43.3366 14.6895 43.1859 14.6725 43.0366L14.6725 42.7507Z" fill="#CC7D00"/>
<path d="M14.9195 43.4839L16.8078 42.7488L17.0951 43.4839L15.2068 44.2191C15.1289 43.9675 15.0329 43.7218 14.9195 43.4839Z" fill="#BF6900"/>
<path d="M15.2059 44.2214L17.0942 43.4862C17.2857 44.0035 17.491 44.4936 17.7099 44.9565C18.0794 45.7325 18.4488 46.4268 18.7772 46.9986C19.1056 47.5704 19.5572 48.3464 20.1319 49.2449C20.7066 50.1435 21.7328 51.8589 22.3897 53.0433C23.0465 54.2277 23.7853 55.8205 24.6474 57.7401L25.7968 60.5174L23.9085 61.2117C23.498 60.2315 23.1285 59.2921 22.7591 58.4752C21.897 56.5148 21.1581 54.9628 20.5013 53.7784C19.8445 52.594 19.0646 51.287 18.2436 49.9392L16.8889 47.7338C16.5605 47.1212 16.1911 46.4268 15.8216 45.6508L15.2059 44.2214Z" fill="#B05500"/>
<path d="M23.9094 61.2111L25.7977 60.5167C26.1261 61.2927 26.4135 62.1504 26.7419 63.0081L24.8536 63.7433C24.5662 62.8447 24.2378 62.0279 23.9094 61.2111Z" fill="#BF6900"/>
<path d="M24.8531 63.7424L26.7414 63.0072C26.9876 63.6198 27.1929 64.1917 27.3982 64.8451L27.7676 65.8253L25.8793 66.5605C25.7454 66.2284 25.6357 65.8872 25.5509 65.5395C25.3046 64.9268 25.0994 64.3142 24.8531 63.7424Z" fill="#CC7D00"/>
<path d="M25.8791 66.4809L27.7674 65.7458C28.0548 66.6035 28.3421 67.3795 28.5474 68.1146L26.6591 68.8498C26.6591 68.1146 26.1665 67.2978 25.8791 66.4809Z" fill="#D89200"/>
<path d="M26.6596 68.9297L28.5479 68.1945C29.1226 70.0324 29.5331 71.5027 29.7794 72.6463C29.947 73.3858 29.947 74.1531 29.7794 74.8926L27.9321 75.587C28.0027 74.8455 27.9331 74.0974 27.7268 73.3815C27.4105 71.8733 26.9992 70.3864 26.4954 68.9297" fill="#E3A600"/>
<path d="M28.096 75.5876L29.9433 74.8932C29.9433 74.8932 29.9433 75.1383 29.9433 75.1791L28.0549 75.8735C28.0549 75.8735 28.0549 75.8735 28.3012 75.5876" fill="#D89200"/>
<path d="M17.5054 42.0151L19.3937 41.3207L21.6515 49.1625L19.7632 49.8976L17.5054 42.0151Z" fill="#D99400"/>
<path d="M12.21 32.4952L14.0983 31.8009C14.999 33.1053 15.8082 34.4699 16.5203 35.8851C17.4234 37.5188 18.4085 39.3976 19.3938 41.4806L17.5054 42.1749C16.5202 40.0919 15.5761 38.0906 14.6319 36.6203C13.9071 35.2121 13.0983 33.8483 12.21 32.5361" fill="#B05500"/>
<path d="M4.16414 15.5074L6.21663 14.7314C6.12491 14.7791 6.04675 14.849 5.98935 14.9346C5.93195 15.0203 5.89716 15.1189 5.88822 15.2215L3.83573 15.9975C3.85355 15.8977 3.89193 15.8026 3.94845 15.7183C4.00496 15.634 4.0784 15.5622 4.16414 15.5074Z" fill="#C36E00"/>
<path d="M3.83509 15.9968L5.8876 15.2208C5.8196 15.7085 5.8196 16.2033 5.8876 16.6911L3.83509 17.4671C3.76708 16.9793 3.76708 16.4845 3.83509 15.9968Z" fill="#CF8400"/>
<path d="M3.79451 17.4679L5.847 16.6919C5.91577 17.4595 6.02537 18.223 6.17537 18.979L4.12288 19.7551C4.12288 18.8157 3.83556 18.0805 3.79451 17.4679Z" fill="#DD9200"/>
<path d="M4.12355 19.7539L6.17606 18.9779C6.17606 19.7947 6.54552 20.775 6.79182 21.8777L4.73931 22.6537C4.49301 21.551 4.28775 20.5707 4.12355 19.7539Z" fill="#E8A600"/>
<path d="M4.90262 22.6524L6.95515 21.8764L6.95515 22.4073L4.94368 23.1833C4.94368 22.9791 4.94368 22.8158 4.94368 22.6524" fill="#E8A600"/>
<path d="M4.90272 23.1847L6.91417 22.4088C7.32467 24.0425 7.81727 25.8803 8.39197 27.8407L6.38053 28.6168C5.80583 26.6563 5.27217 24.8184 4.90272 23.1847Z" fill="#F1B700"/>
<path d="M6.38114 28.6168L8.3926 27.8408C9.18624 30.5636 10.0894 33.4226 11.1019 36.4177L9.04942 37.1937C8.02316 34.1306 7.12005 31.2716 6.38114 28.6168Z" fill="#F9C900"/>
<path d="M9.00745 37.1949L11.06 36.4189C12.2094 39.9313 13.523 43.6479 14.9187 47.4463L12.8662 48.2223C11.4705 44.424 10.1979 40.7073 9.00745 37.1949Z" fill="#FFD400"/>
<path d="M12.9079 48.2229L14.9604 47.4469C15.6172 49.2848 16.315 51.1227 17.0129 53.0015L15.0014 53.7775C14.2625 51.8987 13.6057 50.0608 12.9079 48.2229Z" fill="#F9C900"/>
<path d="M15.0012 53.7742L17.0126 52.9982L18.8599 57.6951L16.8074 58.4711C16.1916 56.9191 15.5759 55.3262 15.0012 53.7742Z" fill="#F1B700"/>
<path d="M16.808 58.3091L18.8605 57.5331C19.5172 59.2485 20.174 60.923 20.8719 62.5976L18.8194 63.3736L16.808 58.3091Z" fill="#E8A600"/>
<path d="M18.8191 63.5364L20.8716 62.7604L23.0472 68.029L21.0358 68.8051C20.2969 67.0897 19.558 65.2926 18.8191 63.5364Z" fill="#DD9200"/>
<path d="M21.0356 68.8057L23.0471 68.0297C23.827 69.8676 24.607 71.6647 25.3869 73.38L23.3344 74.156L21.0356 68.8057Z" fill="#CF8400"/>
<path d="M23.3343 74.1558L25.3868 73.3798L26.2489 75.2586C26.8646 76.6064 27.4394 77.8725 28.0141 79.0569L25.9615 79.8329C25.3868 78.6485 24.8121 77.3824 24.1964 76.0346L23.3343 74.1558Z" fill="#C36E00"/>
<path d="M25.9612 79.8326L28.0137 79.0566C32.1187 87.2251 34.6638 91.5952 35.608 91.3093L33.5555 92.0445C32.6113 92.4121 29.902 88.2053 25.9612 79.7918" fill="#B45500"/>
<path d="M39.5092 102.336L36.8819 101.52C36.9194 101.541 36.9619 101.552 37.0051 101.552C37.0483 101.552 37.0908 101.541 37.1282 101.52L39.7965 102.336C39.7965 102.336 39.7965 102.336 39.5092 102.336Z" fill="#DD9200"/>
<path d="M39.7936 102.336L37.1253 101.52C37.3306 101.52 37.4948 101.52 37.5769 100.989L40.2452 101.805C40.2452 102.132 39.9989 102.296 39.7936 102.336Z" fill="#E8A600"/>
<path d="M40.2472 101.807L37.5789 100.99C37.6343 100.556 37.6343 100.117 37.5789 99.6828L40.2472 100.418C40.3016 100.879 40.3016 101.345 40.2472 101.807Z" fill="#F1B700"/>
<path d="M40.3708 100.418L37.7026 99.683C37.7026 99.0704 37.7026 98.3353 37.4563 97.4367L40.1246 98.131C40.1246 99.0296 40.1245 99.8056 40.3708 100.418Z" fill="#F9C900"/>
<path d="M40.1231 98.129L37.4548 97.4347C37.4548 96.4953 37.0854 95.3926 36.798 94.0857L39.4252 94.6574C39.7536 95.9644 39.9589 97.1488 40.1231 98.129Z" fill="#FFD400"/>
<path d="M39.4271 94.6577L36.7999 94.0859C36.7999 93.6367 36.7999 93.1465 36.4715 92.6156C36.1842 91.472 35.8968 90.2059 35.5274 88.8989L38.1135 89.3073C38.4829 90.6551 38.8114 91.9213 39.0987 93.1465C39.0987 93.6775 39.345 94.1676 39.4271 94.6577Z" fill="#FFE100"/>
<path d="M38.1122 89.3088L35.526 88.9004C34.9513 86.8174 34.2946 84.4894 33.5556 82.0797L36.0597 82.0797C36.8397 84.5711 37.5375 86.9399 38.1122 89.1454" fill="#FFE900"/>
<path d="M36.0594 82.2422L33.5554 82.2422C32.9807 80.3635 32.3649 78.4031 31.6671 76.4018L34.1301 76.4018C34.828 78.4848 35.4847 80.486 36.0594 82.4465" fill="#FFEE00"/>
<path d="M34.1305 76.1991L31.6675 76.1991C31.1338 74.4428 30.5181 72.6866 29.9023 70.8487L32.2832 70.8487C32.94 72.7274 33.5558 74.5654 34.1305 76.3624" fill="#FFEE00"/>
<path d="M32.2832 70.5604L29.9022 70.5604C28.3834 66.1494 26.7414 61.4934 24.9762 56.7966L27.1929 56.1431C28.9992 61.0033 30.7233 65.7818 32.2832 70.3561" fill="#FFEE00"/>
<path d="M27.1938 56.4713L24.9771 57.1248C24.4434 55.777 23.9508 54.3884 23.4172 53.0406L25.5928 52.2237L27.1938 56.3079" fill="#FFEE00"/>
<path d="M25.4284 52.2248L23.2527 53.0417L21.8981 49.5293L24.0327 48.5899C24.5253 49.8151 24.9769 51.0404 25.4284 52.2248Z" fill="#FFEE00"/>
<path d="M24.1973 48.5877L22.0627 49.5272L20.708 46.0556L22.8016 45.0345L24.1973 48.5877Z" fill="#FFE900"/>
<path d="M22.8013 45.0348L20.7077 46.0558L19.1889 42.2576L21.2414 41.1139C21.734 42.4209 22.2676 43.7278 22.8013 45.1981" fill="#FFE100"/>
<path d="M21.3237 41.113L19.2712 42.2567L17.2187 37.8865L19.1891 36.5795C19.846 38.0907 20.4617 39.6018 21.0775 41.113" fill="#FFD400"/>
<path d="M19.3525 36.5792L17.2179 37.8862L15.1243 32.9442L17.0537 31.4739C17.7516 33.1484 18.4905 34.8638 19.1883 36.5792" fill="#F9C900"/>
<path d="M17.2182 31.4751L15.2888 32.9454C14.5089 31.1484 13.77 29.3922 12.99 27.7176L14.8373 26.084L17.2182 31.4751Z" fill="#F1B700"/>
<path d="M14.837 26.0845L12.9897 27.7182C12.7434 27.1056 12.4561 26.5338 12.2098 25.962L10.6499 22.5721L12.415 20.7342C12.9076 21.8778 13.4824 23.0622 14.016 24.2467L14.837 26.0845Z" fill="#E8A600"/>
<path d="M12.4149 20.7341L10.6497 22.572C9.82869 20.8158 9.04874 19.223 8.30983 17.7526L9.99288 15.7513C10.7728 17.3034 11.5528 18.9371 12.4149 20.7341Z" fill="#DD9200"/>
<path d="M9.99315 15.7499L8.3101 17.7512C7.4891 16.0358 6.70915 14.5246 5.97024 13.1768L7.5712 11.053C8.3101 12.4416 9.13109 14.0345 9.99315 15.7499Z" fill="#CF8400"/>
<path d="M7.57143 11.0551L5.97048 13.179C5.02633 11.4227 4.16428 9.99324 3.42538 9.09471L4.94424 6.80754C5.72418 7.99197 6.58623 9.46229 7.57143 11.2594" fill="#C36E00"/>
<path d="M4.90376 6.60249L3.3849 8.88965C1.74289 6.39827 0.675603 5.49976 0.224052 6.23492L1.6608 3.90688C2.11235 3.13088 3.22071 3.9069 4.90376 6.60249Z" fill="#B45500"/>
<path d="M1.24936 14.9364C-2.4041 -0.420322 2.48086 4.52159 12.2098 25.9638C22.0023 47.5303 30.1131 69.8142 36.4704 92.6184C40.1649 107.975 35.2389 103.033 25.51 81.591C15.7415 60.0148 7.63135 37.7327 1.24936 14.9364ZM4.73862 22.6556C9.85494 40.9143 16.3596 58.7593 24.1964 76.0364C31.9959 93.231 35.9367 97.1927 32.9811 84.8992C27.8657 66.627 21.361 48.7682 13.5234 31.4775C5.72382 14.3237 1.82406 10.362 4.73862 22.6556Z" fill="#DD8F00"/>
<path style="mix-blend-mode:screen" d="M10.3224 33.2745C10.9379 36.0545 11.7612 38.785 12.7854 41.443C13.7706 44.2611 14.7147 46.6708 15.6179 48.7129C16.3111 50.3729 17.0922 51.9953 17.9577 53.5731C18.6145 54.7576 19.3945 56.1054 20.2565 57.6574L21.6112 59.9854C21.9396 60.5572 22.309 61.2515 22.6374 61.9866C22.9658 62.7218 23.3353 63.6204 23.6637 64.5189C23.9295 65.1627 24.1223 65.8339 24.2384 66.5202C24.2384 66.8878 24.2384 66.9286 23.91 66.5202C23.2607 65.7376 22.6966 64.8888 22.2269 63.9879C21.4059 62.681 20.5849 61.129 19.6408 59.3319L22.0217 67.5004C22.7606 69.0115 23.4995 70.4002 24.2384 71.5846C24.8252 72.6003 25.4694 73.5821 26.1678 74.5253L29.2055 83.0205L30.7243 84.5725L27.6456 75.9547C28.1792 75.9547 28.2613 75.2196 27.8919 73.4225C27.2757 70.763 26.4943 68.144 25.552 65.5808C24.5257 62.8035 23.6226 60.4347 22.7606 58.5151C21.8985 56.5955 21.1596 55.0026 20.5028 53.8182C19.846 52.6338 19.0661 51.3269 18.2451 49.9791L16.8904 47.7736C16.562 47.1609 16.1926 46.4666 15.8231 45.6906C15.4537 44.9146 15.1253 44.0569 14.7558 43.0767C14.455 42.2978 14.2349 41.4904 14.099 40.667C14.099 40.2585 14.099 40.1769 14.5095 40.667C15.3368 41.6913 16.0524 42.8004 16.6441 43.9752C17.6293 45.7315 18.6556 47.7736 19.7639 50.1016L17.5062 42.219C16.521 40.136 15.5768 38.1348 14.6327 36.6644C13.9078 35.2563 13.099 33.8924 12.2107 32.5802L9.00877 23.5541L7.4899 22.0021L10.6508 30.9874C10.1171 30.7423 9.99397 31.5183 10.3224 33.2745ZM1.25028 14.9364C7.60562 37.7305 15.6883 60.0124 25.4288 81.591C35.1577 103.033 40.0838 107.975 36.3892 92.6184C30.0319 69.8142 21.9211 47.5303 12.1286 25.9638C2.48179 4.52159 -2.40319 -0.420322 1.25028 14.9364ZM13.5653 31.4775C21.403 48.7682 27.9077 66.627 33.0231 84.8992C35.9787 97.1519 32.0379 93.0676 24.2384 76.0364C16.4436 58.7558 9.98009 40.9108 4.90375 22.6556C1.82498 10.362 5.72474 14.3237 13.5243 31.4775L13.5653 31.4775Z" fill="url(#paint0_linear_1_8282)"/>
<path d="M51.0436 96.1282L49.6479 98.497C50.0143 95.4633 49.6629 92.3863 48.6216 89.5117C42.0237 65.9602 33.639 42.9408 23.54 20.6516C17.6698 7.7046 13.4827 0.55718 11.7996 0.0262351L14.4269 0.843069C16.0689 1.33317 20.0918 8.23554 25.7977 20.7741C35.5852 42.3567 43.6958 64.6538 50.0584 87.4696C51.0734 90.2369 51.4112 93.2051 51.0436 96.1282Z" fill="#B45500"/>
<path d="M49.3607 98.7014L39.8781 102.336C39.991 102.265 40.0864 102.169 40.1574 102.056C40.2284 101.943 40.2732 101.815 40.2887 101.683L49.7712 98.0888C49.7712 98.4155 49.566 98.6197 49.3607 98.7014Z" fill="#C36E00"/>
<path d="M49.7711 98.0872L40.2886 101.681C40.357 101.057 40.357 100.427 40.2886 99.8026L49.7711 96.2085C49.88 96.83 49.88 97.4657 49.7711 98.0872Z" fill="#CF8400"/>
<path d="M49.8122 96.2096L40.3296 99.8038C40.3296 99.0278 40.3296 98.0475 39.9191 96.8631L49.4017 93.269C49.6173 94.2367 49.7546 95.2201 49.8122 96.2096Z" fill="#DD9200"/>
<path d="M49.4014 93.2699L39.9188 96.864C39.9188 95.8021 39.4262 94.536 39.0978 93.1474C39.0978 92.9023 39.0978 92.6573 39.0978 92.453L48.6215 88.8181C48.6016 89.0491 48.6016 89.2814 48.6215 89.5124C48.9499 90.9419 49.1961 92.1671 49.4014 93.2699Z" fill="#E8A600"/>
<path d="M48.4581 88.8182L38.9345 92.4531C38.4008 90.3293 37.744 87.9605 37.0051 85.3874L46.5287 81.7933C47.2676 84.3255 47.9244 86.6944 48.4581 88.8182Z" fill="#F1B700"/>
<path d="M46.5279 81.7948L37.0042 85.3889C36.019 82.0399 34.8696 78.3232 33.556 74.3615L43.0797 70.7674C44.3522 74.8516 45.5427 78.4049 46.5279 81.7948Z" fill="#F9C900"/>
<path d="M43.0804 70.561L33.5568 74.1551C32.0379 69.6624 30.3549 64.843 28.5487 59.942L38.0723 56.307C39.8785 61.2489 41.5616 66.0275 43.0804 70.561Z" fill="#FFD400"/>
<path d="M38.0717 56.5114L28.548 60.1464C27.686 57.7775 26.8239 55.4087 25.8797 52.999L35.4034 49.3641C36.3065 51.7737 37.2096 54.1426 38.0717 56.5114Z" fill="#F9C900"/>
<path d="M35.404 49.3635L25.8804 52.9985C25.1415 50.9564 24.3615 48.9143 23.5405 46.913L33.0642 43.3189L35.404 49.3635Z" fill="#F1B700"/>
<path d="M33.0629 43.3186L23.5393 46.9127L20.9531 40.4187L30.4768 36.7838L33.0629 43.3186Z" fill="#E8A600"/>
<path d="M30.4777 36.7847L20.9541 40.4196C20.0099 38.0916 19.0658 35.8453 18.1216 33.599L27.6042 29.964C28.5483 32.2103 29.5336 34.4975 30.4777 36.7847Z" fill="#DD9200"/>
<path d="M27.6033 29.9628L18.1207 33.5977L15.124 26.6954L24.6066 23.0604C25.6329 25.3067 26.6181 27.6347 27.6033 29.9628Z" fill="#CF8400"/>
<path d="M24.6081 23.0607L15.1255 26.6957L14.0172 24.2452L11.7594 19.3441L21.283 15.75C21.9809 17.2611 22.7608 18.8948 23.5408 20.651C23.9102 21.427 24.2797 22.2439 24.6081 23.0607Z" fill="#C36E00"/>
<path d="M21.3237 15.7498L11.8001 19.344C6.70986 8.6433 3.22059 3.00701 1.98909 3.66049L11.5127 0.0255254C12.7442 -0.423741 16.2335 5.00831 21.3237 15.7498Z" fill="#B45500"/>
<defs>
<linearGradient id="paint0_linear_1_8282" x1="38941.4" y1="-66995.4" x2="38390.4" y2="-67158.9" gradientUnits="userSpaceOnUse">
<stop stop-color="#C9C7C7"/>
<stop offset="0.06" stop-color="#E4E3E3"/>
<stop offset="0.11" stop-color="white"/>
<stop offset="0.12" stop-color="#F6F5F5"/>
<stop offset="0.15" stop-color="#DDDCDB"/>
<stop offset="0.19" stop-color="#B4B2B0"/>
<stop offset="0.23" stop-color="#7C7876"/>
<stop offset="0.25" stop-color="#6B6764"/>
<stop offset="0.27" stop-color="#6D6967"/>
<stop offset="0.28" stop-color="#75726F"/>
<stop offset="0.29" stop-color="#837F7D"/>
<stop offset="0.3" stop-color="#969391"/>
<stop offset="0.31" stop-color="#C9C7C7"/>
<stop offset="0.35" stop-color="#BFBDBD"/>
<stop offset="0.41" stop-color="#A5A3A3"/>
<stop offset="0.48" stop-color="#7A7878"/>
<stop offset="0.57" stop-color="#403E3E"/>
<stop offset="0.65" stop-color="#020000"/>
<stop offset="0.67" stop-color="#0C0908"/>
<stop offset="0.71" stop-color="#26221F"/>
<stop offset="0.74" stop-color="#3B3732"/>
<stop offset="0.75" stop-color="#211F1C"/>
<stop offset="0.76" stop-color="#0F0E0D"/>
<stop offset="0.77" stop-color="#040303"/>
<stop offset="0.78" stop-color="#0F0F0F"/>
<stop offset="0.8" stop-color="#464646"/>
<stop offset="0.81" stop-color="#787878"/>
<stop offset="0.82" stop-color="#A1A1A1"/>
<stop offset="0.83" stop-color="#C3C3C3"/>
<stop offset="0.84" stop-color="#DEDEDE"/>
<stop offset="0.86" stop-color="#F0F0F0"/>
<stop offset="0.87" stop-color="#FBFBFB"/>
<stop offset="0.88" stop-color="white"/>
<stop offset="0.89" stop-color="#EFEFEF"/>
<stop offset="0.91" stop-color="#CFCFCE"/>
<stop offset="0.93" stop-color="#B5B5B3"/>
<stop offset="0.95" stop-color="#A3A3A1"/>
<stop offset="0.98" stop-color="#989896"/>
<stop offset="1" stop-color="#949492"/>
</linearGradient>
</defs>
</svg>
