<svg width="69" height="76" viewBox="0 0 69 76" fill="none" xmlns="http://www.w3.org/2000/svg">
<path d="M11.0223 45.6162C4.57739 30.5045 8.96978 15.2703 20.7922 11.5537C32.6147 7.83701 47.4338 17.1082 53.8786 32.2199C60.3235 47.3315 55.9311 62.6066 44.1087 66.2824C32.2863 69.9582 17.4671 60.7278 11.0223 45.6162Z" fill="#D78700"/>
<path style="mix-blend-mode:screen" d="M11.0223 45.6162C4.57739 30.5045 8.96978 15.2703 20.7922 11.5537C32.6147 7.83701 47.4338 17.1082 53.8786 32.2199C60.3235 47.3315 55.9311 62.6066 44.1087 66.2824C32.2863 69.9582 17.4671 60.7278 11.0223 45.6162Z" fill="url(#paint0_linear_1_8545)"/>
<path d="M16.564 13.5137L17.5082 12.9827L16.8924 13.3503L15.9483 13.8812L16.564 13.5137Z" fill="#E8A600"/>
<path d="M15.9479 13.8798L16.892 13.3489C15.9616 13.9235 15.0947 14.5943 14.3059 15.3501L13.3617 15.881C14.1671 15.1444 15.0321 14.4751 15.9479 13.8798Z" fill="#F1B700"/>
<path d="M13.3627 15.8824L14.3069 15.3515C13.2591 16.3547 12.3357 17.479 11.5565 18.7006L10.6124 19.2315C11.3916 18.01 12.3149 16.8856 13.3627 15.8824Z" fill="#F9C900"/>
<path d="M10.6122 19.2326L11.5563 18.7016C9.01416 22.9052 7.7986 27.7711 8.06701 32.6697L7.12287 33.2007C6.88187 28.3047 8.09547 23.4466 10.6122 19.2326Z" fill="#FFD400"/>
<path d="M7.12184 33.1998L8.06598 32.6688C8.11957 34.4372 8.31178 36.1988 8.64075 37.9375L7.73764 38.4684C7.39555 36.7308 7.18964 34.9692 7.12184 33.1998Z" fill="#F9C900"/>
<path d="M7.73822 38.4684L8.64134 37.9375C8.92613 39.3163 9.28236 40.6795 9.70863 42.0217L8.76449 42.5527C8.3326 41.2152 7.98977 39.8508 7.73822 38.4684Z" fill="#F1B700"/>
<path d="M8.76431 42.5939L9.70845 42.063C10.0779 43.2474 10.5294 44.4318 11.022 45.6163L10.0779 46.1472C9.58529 44.9628 9.13377 43.7783 8.76431 42.5939Z" fill="#E8A600"/>
<path d="M10.0779 46.1472L11.022 45.6163L10.0779 46.1472Z" fill="#E8A600"/>
<path d="M10.1601 46.3526L11.1042 45.8216C11.6266 47.0507 12.2159 48.2505 12.8694 49.4157L11.9252 49.9467C11.3094 48.8031 10.6937 47.5778 10.1601 46.3526Z" fill="#DD9200"/>
<path d="M11.9248 49.9454L12.869 49.4145C13.5805 50.6397 14.3194 51.8242 15.0856 52.9678L14.1415 53.4987C13.3752 52.3551 12.6363 51.1707 11.9248 49.9454Z" fill="#CF8400"/>
<path d="M14.1419 53.4996L15.0861 52.9687C16.034 54.3087 17.0621 55.5907 18.1649 56.8079L17.2617 57.3388C16.1454 56.1224 15.1036 54.8404 14.1419 53.4996Z" fill="#C36E00"/>
<path d="M17.261 57.3374L18.1641 56.8065C22.6014 61.9612 28.6395 65.4967 35.3232 66.8537L34.42 67.3846C27.733 66.0366 21.6921 62.4994 17.261 57.3374Z" fill="#B45500"/>
<path d="M34.4208 67.4264L35.3239 66.8955C36.248 67.0379 37.1804 67.1198 38.1153 67.1405L37.1711 67.6714C36.2499 67.6507 35.3311 67.5688 34.4208 67.4264Z" fill="#C36E00"/>
<path d="M37.1709 67.4247L38.1151 66.8938C38.9349 66.9552 39.7582 66.9552 40.5781 66.8938L39.675 67.4247C38.8414 67.4859 38.0045 67.4859 37.1709 67.4247Z" fill="#CF8400"/>
<path d="M39.6752 67.4252L40.5783 66.8943C41.6049 66.7866 42.6209 66.5954 43.616 66.3225L42.6719 66.8534C41.6907 67.1263 40.6883 67.3175 39.6752 67.4252Z" fill="#DD9200"/>
<path d="M42.6714 66.9769L43.6155 66.4459L44.1082 66.4459C45.2543 66.0962 46.3562 65.6166 47.3922 65.0165L46.448 65.5474C45.412 66.1475 44.3101 66.6272 43.164 66.9769L42.6714 66.9769Z" fill="#E8A600"/>
<path d="M56.0533 69.9185L51.7019 72.3691C51.9754 72.2438 52.2365 72.0934 52.4819 71.9198L56.8743 69.4284L56.0533 69.9185Z" fill="#E8A600"/>
<path d="M56.8737 69.4289L52.4813 71.9203C53.6788 71.1652 54.8054 70.304 55.8474 69.3473L60.1987 66.8559C59.1735 67.815 58.0603 68.6764 56.8737 69.4289Z" fill="#F1B700"/>
<path d="M60.1991 66.8551L55.8478 69.3465C57.1887 68.029 58.3733 66.5627 59.3781 64.9764L63.7705 62.5259C62.7631 64.1093 61.5636 65.5633 60.1991 66.8551Z" fill="#F9C900"/>
<path d="M63.7709 62.5263L59.3785 64.9769C62.6558 59.5706 64.2287 53.3109 63.894 47.0063L68.2453 44.5149C68.588 50.8279 67.0301 57.0991 63.7709 62.5263Z" fill="#FFD400"/>
<path d="M68.2459 44.5138L63.8945 47.0051C63.8098 44.7151 63.549 42.4349 63.1146 40.1845L67.4659 37.734C67.9033 39.9702 68.1641 42.237 68.2459 44.5138Z" fill="#F9C900"/>
<path d="M67.4661 37.7344L63.1148 40.1849C62.7745 38.3888 62.3221 36.6156 61.7602 34.8754L66.1525 32.3841C66.6822 34.1439 67.1206 35.9298 67.4661 37.7344Z" fill="#F1B700"/>
<path d="M66.1521 32.3843L61.7597 34.8757C61.2896 33.3193 60.7276 31.7919 60.0766 30.3014L60.0766 30.0155L64.428 27.5649L64.428 27.81C65.0848 29.3212 65.6595 30.8732 66.1521 32.3843Z" fill="#E8A600"/>
<path d="M64.3047 27.5666L59.9534 30.0171C59.2839 28.4398 58.5302 26.8992 57.6956 25.4019L62.047 22.9514C62.8896 24.4446 63.6434 25.9856 64.3047 27.5666Z" fill="#DD9200"/>
<path d="M62.0465 22.9501L57.6952 25.4006C56.8248 23.8232 55.8655 22.2959 54.8217 20.8263L59.173 18.335C60.2169 19.8186 61.1763 21.3594 62.0465 22.9501Z" fill="#CF8400"/>
<path d="M59.173 18.4164L54.8217 20.9078C53.5692 19.1557 52.1976 17.4908 50.7167 15.925L55.068 13.4337C56.549 14.9995 57.9205 16.6643 59.173 18.4164Z" fill="#C36E00"/>
<path d="M55.1913 13.353L50.84 15.8444C45.1174 9.20799 37.3294 4.6652 28.714 2.93822L33.0653 0.446828C41.6808 2.17381 49.4688 6.7166 55.1913 13.353Z" fill="#B45500"/>
<path d="M33.0662 0.446366L28.7148 2.93774C27.5342 2.73458 26.3409 2.61179 25.1434 2.57018L29.4947 0.119621C30.6913 0.147468 31.8846 0.256643 33.0662 0.446366Z" fill="#C36E00"/>
<path d="M29.494 0.119431L25.1427 2.57001C24.0754 2.57001 23.0081 2.57001 21.9408 2.57001L26.2921 0.119431C27.3578 0.037947 28.4282 0.0379471 29.494 0.119431Z" fill="#CF8400"/>
<path d="M26.2913 0.242045L21.94 2.69257C20.6257 2.8548 19.3231 3.10036 18.0403 3.42773L22.3915 0.977206C23.7321 0.597863 25.1072 0.351606 26.4966 0.242045" fill="#DD9200"/>
<path d="M22.3923 0.977145L18.041 3.42767L17.4253 3.42767C16.0001 3.90595 14.6252 4.52149 13.3203 5.26556L17.6716 2.77418C18.9766 2.03011 20.3514 1.41457 21.7766 0.936294L22.3923 0.936294" fill="#E8A600"/>
<path d="M21.1206 68.3648L20.5459 67.9563C21.865 68.877 23.2355 69.7224 24.6509 70.4885L25.3898 70.9786C23.9644 70.1993 22.593 69.3261 21.2848 68.3648" fill="#B45500"/>
<path d="M25.225 70.9778L24.4861 70.4877C26.3446 71.5347 28.2959 72.4096 30.3153 73.1016L31.2184 73.6734C29.1378 72.9695 27.1306 72.0668 25.225 70.9778Z" fill="#C36E00"/>
<path d="M31.2194 73.6742L30.3163 73.1024C31.8292 73.6165 33.3801 74.0125 34.9549 74.2869L35.9812 74.8995C34.3661 74.6065 32.7747 74.1969 31.2194 73.6742Z" fill="#CF8400"/>
<path d="M36.0621 74.8995L35.0358 74.2869C36.3955 74.4917 37.7663 74.6145 39.1409 74.6545L40.3313 75.2671C38.9549 75.2617 37.5815 75.1387 36.2263 74.8995" fill="#DD9200"/>
<path d="M40.1674 75.2671L38.9769 74.6545C40.2279 74.6625 41.4774 74.5669 42.7125 74.3686L43.985 75.0221C42.7192 75.1864 41.4439 75.2682 40.1674 75.2671Z" fill="#E8A600"/>
<path d="M43.9851 75.02L42.7126 74.3665C43.8377 74.2039 44.9492 73.9582 46.0376 73.6314L47.4744 74.244C46.3375 74.617 45.1699 74.8903 43.9851 75.0609" fill="#F1B700"/>
<path d="M47.6802 74.1635L46.2435 73.5509C47.4398 73.178 48.5951 72.6853 49.6917 72.0806L51.2515 72.6524C50.1018 73.2465 48.9079 73.7517 47.6802 74.1635Z" fill="#F9C900"/>
<path d="M51.2512 72.6526L49.6913 72.0809C50.8895 71.4517 52.0177 70.6988 53.0574 69.8345L54.6994 70.3246C53.616 71.1933 52.4627 71.9719 51.2512 72.6526Z" fill="#FFD400"/>
<path d="M54.6991 70.3236L53.0571 69.8335C54.2836 68.8377 55.3861 67.6997 56.3411 66.4436L58.1063 66.8112C57.0991 68.0989 55.9569 69.2764 54.6991 70.3236Z" fill="#FFE100"/>
<path d="M58.1067 66.8119L56.3416 66.4443C57.2438 65.2777 58.0406 64.034 58.7225 62.7277L60.6929 62.9319C59.9934 64.2978 59.1689 65.5966 58.2299 66.8119" fill="#FFE900"/>
<path d="M60.6933 62.9324L58.8461 62.7282C59.3291 61.7882 59.754 60.8198 60.1186 59.8284L62.0069 59.8284C61.644 60.8533 61.2049 61.8499 60.6933 62.8099" fill="#FFEE00"/>
<path d="M61.8829 59.9516L59.9946 59.9516C60.2819 59.2572 60.4872 58.5221 60.7335 57.7869L62.6218 57.7869C62.4188 58.5491 62.1721 59.2992 61.8829 60.0333" fill="#FFEE00"/>
<path d="M62.6221 57.7048L60.6927 57.7048C60.6928 57.0922 60.9801 56.4796 61.1443 55.9078L63.0326 55.9078C63.0326 56.5204 62.7453 57.133 62.5811 57.7457" fill="#FFEE00"/>
<path d="M63.074 55.868L61.1857 55.868C61.1857 55.2962 61.1857 54.7244 61.5141 54.1526L63.4434 54.1526L63.074 55.9088" fill="#FFF302"/>
<path d="M63.4429 54.1102L61.5136 54.1102C61.5136 53.5384 61.5136 52.9666 61.5136 52.3948L63.484 52.3948L63.2377 54.1511" fill="#FFEE22"/>
<path d="M63.6894 52.3548L61.719 52.3548C61.719 51.783 61.719 51.1704 61.719 50.5577L63.6483 50.5577C63.6483 51.2112 63.6483 51.8238 63.6483 52.4365" fill="#FFEF37"/>
<path d="M63.8128 50.4752L61.8835 50.4752C61.8835 49.6583 61.8835 48.8006 61.8835 47.9838L63.8128 47.7387C63.8128 48.5964 63.8128 49.4541 63.8128 50.3118" fill="#FFF34B"/>
<path d="M63.8948 47.9021L61.9655 48.1472C61.9502 46.6184 61.8543 45.0916 61.6781 43.5729L63.6075 43.1644C63.7838 44.7378 63.8797 46.3191 63.8948 47.9021Z" fill="#FFF35E"/>
<path d="M63.6074 43.1638L61.6781 43.5723C61.6781 42.7554 61.4318 41.9386 61.2676 41.1217L63.1969 40.6316C63.1969 41.4893 63.4843 42.347 63.6074 43.1638Z" fill="#FFF34B"/>
<path d="M63.197 40.6335L61.2676 41.1235C61.2676 40.5518 61.2676 39.98 60.9392 39.4082L62.8686 38.8773C62.8686 39.449 63.1149 40.0617 63.197 40.6335Z" fill="#FFEF37"/>
<path d="M62.8678 38.8367L60.9384 39.3677C60.9384 38.9184 60.9384 38.4692 60.61 38.0199L62.5393 37.4481C62.5393 37.8974 62.5393 38.3875 62.8678 38.8367Z" fill="#FFEE22"/>
<path d="M62.5394 37.4886L60.61 38.0604C60.61 37.6519 60.61 37.2027 60.2816 36.7534L62.1699 36.1408L62.5394 37.4886Z" fill="#FFF302"/>
<path d="M62.1713 36.1396L60.283 36.7522C60.283 36.3438 60.0367 35.9354 59.8725 35.4861L61.7608 34.8326C61.7608 35.2819 62.0482 35.6903 62.1713 36.1396Z" fill="#FFEE00"/>
<path d="M61.7592 34.7508L59.8708 35.4043C59.8708 34.9959 59.6245 34.5874 59.4603 34.179L61.3487 33.4847L61.7592 34.7508Z" fill="#FFEE00"/>
<path d="M61.3497 33.5677L59.4614 34.262C59.3337 33.8004 59.169 33.3497 58.9688 32.9142L60.816 32.1791C61.0185 32.6322 61.1967 33.0957 61.3497 33.5677Z" fill="#FFEE00"/>
<path d="M60.6929 32.18L58.8456 32.9152C58.8456 32.4659 58.5172 31.9758 58.312 31.5265L60.1592 30.7505C60.1592 31.1998 60.5287 31.6899 60.6929 32.18Z" fill="#FFE900"/>
<path d="M60.2832 30.666L58.4359 31.442C58.4359 31.442 58.4359 31.1561 58.4359 30.9927L57.9023 29.8492L59.7085 29.0323C59.9109 29.4157 60.0892 29.8113 60.2421 30.2167C60.3183 30.3629 60.3868 30.5128 60.4474 30.666" fill="#FFE100"/>
<path d="M59.5428 29.1162L57.7366 29.933C57.4903 29.402 57.244 28.8302 56.9567 28.2993L58.7218 27.4008C59.0092 27.9726 59.2965 28.5444 59.5428 29.1162Z" fill="#FFD400"/>
<path d="M58.7225 27.4001L56.9574 28.2986L55.849 26.1749L57.5731 25.2355C57.9836 25.9298 58.3531 26.6649 58.7225 27.4001Z" fill="#F9C900"/>
<path d="M57.573 25.2348L55.8489 26.1742C55.3563 25.3165 54.8636 24.4997 54.33 23.6828L56.0541 22.6209C56.5878 23.4786 57.0804 24.3363 57.573 25.2348Z" fill="#F1B700"/>
<path d="M56.0535 22.4997L54.3294 23.5616C53.6726 22.4997 52.9747 21.4787 52.2358 20.4985L53.8368 19.3549C54.6167 20.3759 55.3557 21.4378 56.0535 22.4997Z" fill="#E8A600"/>
<path d="M53.8372 19.4765L52.2363 20.6201C51.2921 19.3539 50.2658 18.1695 49.2396 17.0259L50.7585 15.7598C51.8487 16.9448 52.8764 18.1853 53.8372 19.4765Z" fill="#DD9200"/>
<path d="M50.7587 15.761L49.2399 17.0272C47.9668 15.6502 46.5948 14.3671 45.1349 13.188L46.5306 11.7993C47.9833 13.0741 49.3543 14.4382 50.6356 15.8835" fill="#CF8400"/>
<path d="M46.6942 11.7986L45.2985 13.1873C43.5991 11.691 41.7877 10.3256 39.8799 9.10303L41.0703 7.55101C43.0504 8.7625 44.9309 10.1282 46.6942 11.6352" fill="#C36E00"/>
<path d="M41.071 7.67481L39.8805 9.22681C36.5813 6.94912 32.8276 5.40537 28.8749 4.70059C24.9222 3.99581 20.8634 4.14655 16.9745 5.14257C15.2812 5.65961 13.6656 6.40146 12.1716 7.34806L12.459 5.75521C14.0046 4.77562 15.6752 4.00637 17.4261 3.46802C21.4303 2.41296 25.6164 2.23172 29.6975 2.93667C33.7787 3.64162 37.6585 5.2161 41.071 7.55225" fill="#B45500"/>
<path d="M12.4582 5.91646L12.1708 7.50931C10.051 8.81087 8.18709 10.4855 6.67011 12.4512L6.67011 11.0626C8.22925 9.0197 10.1488 7.27597 12.3351 5.91646" fill="#C36E00"/>
<path d="M6.79512 11.0633L6.79512 12.4519C3.30643 17.2053 1.35876 22.9048 1.21232 28.7888L1.21232 27.9311C1.29296 21.8087 3.30315 15.8659 6.95935 10.9407" fill="#CF8400"/>
<path d="M1.04605 28.0539L1.04605 28.9116C0.923102 30.7338 0.923101 32.5622 1.04605 34.3845L1.04605 33.6901C0.903807 31.814 0.903807 29.93 1.04605 28.0539Z" fill="#C36E00"/>
<path d="M4.7829 47.8208C-3.42714 28.9517 2.19674 9.91918 17.098 5.304C31.9992 0.688825 50.3486 12.2063 58.3945 31.0755C66.4403 49.9446 60.9396 69.0179 46.0794 73.6331C31.2192 78.2483 12.7877 66.6899 4.7829 47.8208ZM10.0784 46.1463C16.5232 61.2579 31.3424 70.6516 43.1648 66.8125C54.9873 62.9733 59.5849 47.8617 52.9348 32.75C46.2847 17.6384 31.7118 8.24463 19.8483 12.0838C7.98482 15.923 3.67452 31.0346 10.0784 46.1463Z" fill="#D78700"/>
<g style="mix-blend-mode:screen">
<path style="mix-blend-mode:screen" d="M4.78188 47.8215C-3.42816 28.9523 2.19572 9.91986 17.097 5.30468C31.9982 0.689497 50.3476 12.207 58.3935 31.0761C66.4393 49.9453 60.9386 69.0186 46.0784 73.6338C31.2182 78.249 12.7867 66.6906 4.78188 47.8215ZM10.0773 46.147C16.5222 61.2586 31.3414 70.6523 43.1638 66.8131C54.9863 62.974 59.5839 47.8623 52.9338 32.7507C46.2836 17.6391 31.7108 8.24531 19.8473 12.0845C7.98379 15.9237 3.6735 31.0353 10.0773 46.147Z" fill="url(#paint1_linear_1_8545)"/>
</g>
<path d="M30.8075 55.9081L31.9568 55.4588L31.1358 61.7894L29.9864 62.1978L30.8075 55.9081Z" fill="#D68D00"/>
<path d="M22.0642 39.8963L23.2136 39.4879C24.3879 41.2553 25.6914 42.9344 27.1135 44.5114C28.193 45.7565 29.4197 46.8673 30.7669 47.8196C31.3191 48.2404 32.0011 48.457 32.6962 48.4323L31.5468 48.8407C30.8517 48.8654 30.1696 48.6489 29.6175 48.2281C28.2599 47.2885 27.0316 46.1763 25.964 44.9198C24.5419 43.3428 23.2385 41.6638 22.0642 39.8963Z" fill="#B05500"/>
<path d="M28.9188 28.2124L30.0683 27.7632C29.7744 27.8909 29.5398 28.1243 29.4115 28.4166L28.2621 28.8659C28.3198 28.7175 28.4081 28.5828 28.5211 28.4702C28.6342 28.3577 28.7697 28.2699 28.9188 28.2124Z" fill="#ECB400"/>
<path d="M28.2621 28.8656L29.4115 28.4163C29.3877 28.5652 29.3877 28.7168 29.4115 28.8656L28.2621 29.274C28.2383 29.1389 28.2383 29.0007 28.2621 28.8656Z" fill="#E3A600"/>
<path d="M28.1386 29.2747L29.2881 28.8663C29.2881 28.8663 29.2881 28.8663 29.2881 29.1522L29.2881 29.3564L28.1386 29.8057L28.1386 29.5606C28.1439 29.4654 28.1439 29.37 28.1386 29.2747Z" fill="#D89200"/>
<path d="M27.8517 29.8051L29.0011 29.3559L29.0011 29.8051L27.8517 30.2544L27.8517 29.8051Z" fill="#CC7D00"/>
<path d="M27.8517 30.2543L29.0011 29.805C29.0011 29.805 29.0011 30.1726 29.0011 30.336L27.8517 30.7444C27.8517 30.7444 27.8517 30.4177 27.8517 30.2543Z" fill="#BF6900"/>
<path d="M28.0971 30.6635L29.2465 30.2551C29.3332 30.5943 29.4571 30.923 29.6159 31.2353C29.9834 32.0023 30.4529 32.7166 31.0117 33.3591C31.5864 34.0126 32.4074 34.9111 33.5158 36.0138C34.964 37.4084 36.3344 38.881 37.6207 40.4248C38.6812 41.7945 39.5129 43.3253 40.0838 44.9583C40.272 45.464 40.4229 45.9827 40.5353 46.5103L39.3859 46.9595C39.2789 46.4306 39.1279 45.9115 38.9344 45.4075C38.3729 43.7579 37.5407 42.2121 36.4713 40.8332C35.185 39.2894 33.8146 37.8169 32.3664 36.4223C31.258 35.3195 30.437 34.4618 29.8623 33.7675C29.2953 33.1463 28.8248 32.4442 28.4665 31.6845C28.3137 31.3556 28.1901 31.0139 28.0971 30.6635Z" fill="#B05500"/>
<path d="M39.2224 47.0003L40.3718 46.551C40.3718 47.0819 40.3718 47.572 40.3718 48.103L39.2224 48.5522C39.2224 48.0213 39.2224 47.4904 39.2224 47.0003Z" fill="#BF6900"/>
<path d="M39.4276 48.5932L40.577 48.1439C40.6181 48.715 40.6181 49.2882 40.577 49.8593L39.4276 50.2677C39.4688 49.7103 39.4688 49.1506 39.4276 48.5932Z" fill="#CC7D00"/>
<path d="M39.4264 50.2671L40.5758 49.8587L40.5758 50.7164C40.5987 51.0564 40.5987 51.3975 40.5758 51.7375L39.4264 52.1867C39.4264 51.86 39.4264 51.4924 39.4264 51.1248C39.4062 50.8393 39.4062 50.5527 39.4264 50.2671Z" fill="#D89200"/>
<path d="M39.14 52.1874L40.2894 51.7381C40.1735 52.3008 39.9945 52.8488 39.7557 53.3718L38.6063 53.821C38.839 53.2957 39.0178 52.7484 39.14 52.1874Z" fill="#E3A600"/>
<path d="M38.6062 53.8209L39.7556 53.3717C39.3501 54.3529 38.628 55.1719 37.7031 55.6997L37.0873 55.9856L35.9379 56.394L36.5537 56.1081C37.4757 55.5957 38.1984 54.7903 38.6062 53.8209Z" fill="#ECB400"/>
<path d="M24.6084 20.4985L25.7578 20.0901C26.6853 19.802 27.6619 19.7042 28.6286 19.8025C29.5952 19.9008 30.5318 20.1931 31.3816 20.6619L30.2322 21.0703C29.3792 20.6103 28.443 20.3229 27.4777 20.2248C26.5125 20.1266 25.5373 20.2197 24.6084 20.4985Z" fill="#B05500"/>
<path d="M35.8153 17.3932L36.9647 16.9848L36.1026 23.6421L34.9532 24.0505L35.8153 17.3932Z" fill="#D68D00"/>
<path d="M31.1356 14.4927L32.285 14.0434L36.9647 16.9841L35.8153 17.3925L31.1356 14.4927Z" fill="#9F3E00"/>
<path d="M34.9125 24.0522L36.0619 23.6438C37.7563 25.0592 39.2972 26.6471 40.6595 28.3815C42.0806 30.1365 43.3056 32.04 44.313 34.0586L43.1636 34.467C42.1562 32.4484 40.9312 30.5449 39.5101 28.7899C38.1369 27.0649 36.597 25.4781 34.9125 24.0522Z" fill="#B05500"/>
<path d="M25.2655 59.2567L26.0866 53.0078C24.608 51.8801 23.2341 50.6226 21.9816 49.2504C20.7631 47.8655 19.6515 46.391 18.6565 44.8394L21.9405 39.8566C23.1147 41.6241 24.4182 43.3032 25.8402 44.8802C26.9079 46.1367 28.1361 47.2489 29.4937 48.1885C30.0459 48.6092 30.728 48.8258 31.4231 48.8011C31.9567 48.8011 32.2441 48.311 32.3262 47.6167C32.4037 46.9015 32.2756 46.1792 31.9567 45.5337C31.6123 44.7978 31.1705 44.111 30.6431 43.4916L28.1801 40.7552C26.7201 39.3288 25.3492 37.8148 24.0751 36.2217C22.9993 34.8104 22.1542 33.2391 21.5711 31.5656C20.957 29.697 20.7746 27.7146 21.0374 25.7661C21.0405 24.7224 21.319 23.6978 21.8448 22.7947C22.3707 21.8917 23.1256 21.1417 24.0341 20.6199C25.003 20.2509 26.0409 20.0962 27.076 20.1668C28.111 20.2373 29.1181 20.5313 30.0274 21.0283L30.8895 14.4527L35.5692 17.3934L34.7071 24.0098C36.3916 25.4357 37.9315 27.0225 39.3047 28.7475C40.7258 30.5025 41.9508 32.406 42.9582 34.4246L39.6331 39.244C38.5172 37.0199 37.1391 34.9359 35.5281 33.036C34.312 31.4469 32.842 30.0672 31.1768 28.9517C30.5108 28.431 29.6837 28.1567 28.8369 28.1757C28.2212 28.1757 27.8517 28.7475 27.7286 29.6052C27.6559 30.3641 27.7981 31.1281 28.1391 31.8107C28.4973 32.5704 28.9678 33.2725 29.5348 33.8937C30.1095 34.588 30.9305 35.4457 32.0389 36.5484C33.4871 37.943 34.8575 39.4155 36.1438 40.9594C37.2132 42.3383 38.0455 43.884 38.6069 45.5337C39.3009 47.2986 39.5544 49.2045 39.3458 51.0883C39.3216 52.0818 39.0548 53.0545 38.5685 53.9226C38.0822 54.7907 37.391 55.528 36.5544 56.071C35.6573 56.5232 34.6659 56.7588 33.6603 56.7588C32.6547 56.7588 31.6633 56.5232 30.7663 56.071L29.9453 62.4015L25.2655 59.2567Z" fill="#DC9800"/>
<path d="M43.2048 34.4651L44.3542 34.0567L41.0291 38.8352L39.8797 39.2845L43.2048 34.4651Z" fill="#ECB500"/>
<g style="mix-blend-mode:screen">
<path style="mix-blend-mode:screen" d="M25.2674 59.2568L26.0884 53.0079C24.6098 51.8802 23.2359 50.6227 21.9834 49.2504C20.7649 47.8656 19.6533 46.391 18.6583 44.8394L21.9423 39.8567C23.1166 41.6242 24.42 43.3032 25.8421 44.8803C26.9097 46.1368 28.138 47.249 29.4955 48.1885C30.0477 48.6093 30.7298 48.8259 31.4249 48.8012C31.9586 48.8012 32.2459 48.311 32.328 47.6167C32.4056 46.9016 32.2775 46.1793 31.9586 45.5338C31.6141 44.7979 31.1723 44.1111 30.6449 43.4916L28.182 40.7552C26.7219 39.3288 25.351 37.8148 24.077 36.2217C23.0012 34.8105 22.1561 33.2392 21.5729 31.5657C20.9589 29.697 20.7764 27.7146 21.0392 25.7661C21.0424 24.7224 21.3208 23.6979 21.8467 22.7948C22.3726 21.8917 23.1275 21.1418 24.0359 20.62C25.0048 20.2509 26.0428 20.0963 27.0778 20.1668C28.1128 20.2373 29.12 20.5314 30.0292 21.0284L30.8913 14.4528L35.571 17.3934L34.7089 24.0099C36.3935 25.4358 37.9334 27.0226 39.3066 28.7476C40.7277 30.5026 41.9527 32.4061 42.96 34.4247L39.635 39.244C38.519 37.02 37.141 34.936 35.5299 33.036C34.3138 31.447 32.8438 30.0672 31.1786 28.9518C30.5127 28.4311 29.6856 28.1568 28.8388 28.1758C28.223 28.1758 27.8536 28.7476 27.7304 29.6053C27.6577 30.3641 27.7999 31.1281 28.1409 31.8108C28.4992 32.5704 28.9696 33.2725 29.5366 33.8937C30.1113 34.588 30.9323 35.4457 32.0407 36.5485C33.489 37.9431 34.8594 39.4156 36.1457 40.9594C37.215 42.3384 38.0473 43.8841 38.6087 45.5338C39.3027 47.2986 39.5562 49.2046 39.3476 51.0883C39.3234 52.0818 39.0567 53.0546 38.5704 53.9227C38.0841 54.7908 37.3928 55.5281 36.5562 56.0711C35.6592 56.5232 34.6677 56.7588 33.6621 56.7588C32.6566 56.7588 31.6652 56.5232 30.7682 56.0711L29.9471 62.4016L25.2674 59.2568Z" fill="url(#paint2_linear_1_8545)"/>
</g>
<defs>
<linearGradient id="paint0_linear_1_8545" x1="-5942.44" y1="-5567.32" x2="-6522.16" y2="-5567.32" gradientUnits="userSpaceOnUse">
<stop stop-color="#C9C7C7"/>
<stop offset="0.06" stop-color="#E4E3E3"/>
<stop offset="0.11" stop-color="white"/>
<stop offset="0.12" stop-color="#F6F5F5"/>
<stop offset="0.15" stop-color="#DDDCDB"/>
<stop offset="0.19" stop-color="#B4B2B0"/>
<stop offset="0.23" stop-color="#7C7876"/>
<stop offset="0.25" stop-color="#6B6764"/>
<stop offset="0.27" stop-color="#6D6967"/>
<stop offset="0.28" stop-color="#75726F"/>
<stop offset="0.29" stop-color="#837F7D"/>
<stop offset="0.3" stop-color="#969391"/>
<stop offset="0.31" stop-color="#C9C7C7"/>
<stop offset="0.35" stop-color="#BFBDBD"/>
<stop offset="0.41" stop-color="#A5A3A3"/>
<stop offset="0.48" stop-color="#7A7878"/>
<stop offset="0.57" stop-color="#403E3E"/>
<stop offset="0.65" stop-color="#020000"/>
<stop offset="0.67" stop-color="#0C0908"/>
<stop offset="0.71" stop-color="#26221F"/>
<stop offset="0.74" stop-color="#3B3732"/>
<stop offset="0.75" stop-color="#211F1C"/>
<stop offset="0.76" stop-color="#0F0E0D"/>
<stop offset="0.77" stop-color="#040303"/>
<stop offset="0.78" stop-color="#0F0F0F"/>
<stop offset="0.8" stop-color="#464646"/>
<stop offset="0.81" stop-color="#787878"/>
<stop offset="0.82" stop-color="#A1A1A1"/>
<stop offset="0.83" stop-color="#C3C3C3"/>
<stop offset="0.84" stop-color="#DEDEDE"/>
<stop offset="0.86" stop-color="#F0F0F0"/>
<stop offset="0.87" stop-color="#FBFBFB"/>
<stop offset="0.88" stop-color="white"/>
<stop offset="0.89" stop-color="#EFEFEF"/>
<stop offset="0.91" stop-color="#CFCFCE"/>
<stop offset="0.93" stop-color="#B5B5B3"/>
<stop offset="0.95" stop-color="#A3A3A1"/>
<stop offset="0.98" stop-color="#989896"/>
<stop offset="1" stop-color="#949492"/>
</linearGradient>
<linearGradient id="paint1_linear_1_8545" x1="-7372.76" y1="-6950.97" x2="-8279.43" y2="-6950.97" gradientUnits="userSpaceOnUse">
<stop stop-color="#C9C7C7"/>
<stop offset="0.06" stop-color="#E4E3E3"/>
<stop offset="0.11" stop-color="white"/>
<stop offset="0.12" stop-color="#F6F5F5"/>
<stop offset="0.15" stop-color="#DDDCDB"/>
<stop offset="0.19" stop-color="#B4B2B0"/>
<stop offset="0.23" stop-color="#7C7876"/>
<stop offset="0.25" stop-color="#6B6764"/>
<stop offset="0.27" stop-color="#6D6967"/>
<stop offset="0.28" stop-color="#75726F"/>
<stop offset="0.29" stop-color="#837F7D"/>
<stop offset="0.3" stop-color="#969391"/>
<stop offset="0.31" stop-color="#C9C7C7"/>
<stop offset="0.35" stop-color="#BFBDBD"/>
<stop offset="0.41" stop-color="#A5A3A3"/>
<stop offset="0.48" stop-color="#7A7878"/>
<stop offset="0.57" stop-color="#403E3E"/>
<stop offset="0.65" stop-color="#020000"/>
<stop offset="0.67" stop-color="#0C0908"/>
<stop offset="0.71" stop-color="#26221F"/>
<stop offset="0.74" stop-color="#3B3732"/>
<stop offset="0.75" stop-color="#211F1C"/>
<stop offset="0.76" stop-color="#0F0E0D"/>
<stop offset="0.77" stop-color="#040303"/>
<stop offset="0.78" stop-color="#0F0F0F"/>
<stop offset="0.8" stop-color="#464646"/>
<stop offset="0.81" stop-color="#787878"/>
<stop offset="0.82" stop-color="#A1A1A1"/>
<stop offset="0.83" stop-color="#C3C3C3"/>
<stop offset="0.84" stop-color="#DEDEDE"/>
<stop offset="0.86" stop-color="#F0F0F0"/>
<stop offset="0.87" stop-color="#FBFBFB"/>
<stop offset="0.88" stop-color="white"/>
<stop offset="0.89" stop-color="#EFEFEF"/>
<stop offset="0.91" stop-color="#CFCFCE"/>
<stop offset="0.93" stop-color="#B5B5B3"/>
<stop offset="0.95" stop-color="#A3A3A1"/>
<stop offset="0.98" stop-color="#989896"/>
<stop offset="1" stop-color="#949492"/>
</linearGradient>
<linearGradient id="paint2_linear_1_8545" x1="-2988.68" y1="-4738.24" x2="-3279.57" y2="-4738.24" gradientUnits="userSpaceOnUse">
<stop stop-color="#C9C7C7"/>
<stop offset="0.06" stop-color="#E4E3E3"/>
<stop offset="0.11" stop-color="white"/>
<stop offset="0.12" stop-color="#F6F5F5"/>
<stop offset="0.15" stop-color="#DDDCDB"/>
<stop offset="0.19" stop-color="#B4B2B0"/>
<stop offset="0.23" stop-color="#7C7876"/>
<stop offset="0.25" stop-color="#6B6764"/>
<stop offset="0.27" stop-color="#6D6967"/>
<stop offset="0.28" stop-color="#75726F"/>
<stop offset="0.29" stop-color="#837F7D"/>
<stop offset="0.3" stop-color="#969391"/>
<stop offset="0.31" stop-color="#C9C7C7"/>
<stop offset="0.35" stop-color="#BFBDBD"/>
<stop offset="0.41" stop-color="#A5A3A3"/>
<stop offset="0.48" stop-color="#7A7878"/>
<stop offset="0.57" stop-color="#403E3E"/>
<stop offset="0.65" stop-color="#020000"/>
<stop offset="0.67" stop-color="#0C0908"/>
<stop offset="0.71" stop-color="#26221F"/>
<stop offset="0.74" stop-color="#3B3732"/>
<stop offset="0.75" stop-color="#211F1C"/>
<stop offset="0.76" stop-color="#0F0E0D"/>
<stop offset="0.77" stop-color="#040303"/>
<stop offset="0.78" stop-color="#0F0F0F"/>
<stop offset="0.8" stop-color="#464646"/>
<stop offset="0.81" stop-color="#787878"/>
<stop offset="0.82" stop-color="#A1A1A1"/>
<stop offset="0.83" stop-color="#C3C3C3"/>
<stop offset="0.84" stop-color="#DEDEDE"/>
<stop offset="0.86" stop-color="#F0F0F0"/>
<stop offset="0.87" stop-color="#FBFBFB"/>
<stop offset="0.88" stop-color="white"/>
<stop offset="0.89" stop-color="#EFEFEF"/>
<stop offset="0.91" stop-color="#CFCFCE"/>
<stop offset="0.93" stop-color="#B5B5B3"/>
<stop offset="0.95" stop-color="#A3A3A1"/>
<stop offset="0.98" stop-color="#989896"/>
<stop offset="1" stop-color="#949492"/>
</linearGradient>
</defs>
</svg>
