<svg width="82" height="75" viewBox="0 0 82 75" fill="none" xmlns="http://www.w3.org/2000/svg">
<path d="M19.8859 24.2069C24.5784 18.5833 30.4843 14.0841 37.1647 11.0436C43.8451 8.00318 51.1284 6.49962 58.4731 6.6447C71.3629 7.82912 74.8932 17.6313 66.6832 28.5362C61.9848 34.1529 56.0778 38.6473 49.3988 41.6872C42.7197 44.727 35.4394 46.2345 28.0959 46.0983C15.0009 44.9139 11.4296 35.1118 19.8859 24.2069Z" fill="#FFCD00"/>
<g style="mix-blend-mode:screen">
<path style="mix-blend-mode:screen" d="M19.8862 24.2062C24.5787 18.5826 30.4846 14.0834 37.165 11.043C43.8454 8.00251 51.1287 6.49895 58.4734 6.64403C71.3632 7.82845 74.8935 17.6306 66.6835 28.5355C61.9851 34.1523 56.0781 38.6467 49.399 41.6865C42.72 44.7263 35.4396 46.2339 28.0962 46.0977C15.0012 44.9132 11.4298 35.1111 19.8862 24.2062Z" fill="url(#paint0_linear_1_8661)"/>
</g>
<path d="M69.4323 11.7914L70.0481 12.9758C69.8182 12.5361 69.5576 12.113 69.2681 11.7097L68.6934 10.5253C68.9788 10.9235 69.2262 11.3474 69.4323 11.7914Z" fill="#DD9200"/>
<path d="M68.6936 10.5267L69.2683 11.7111C68.9727 11.2787 68.6284 10.8813 68.2421 10.5267L67.6674 9.34228C68.0311 9.71799 68.3737 10.1134 68.6936 10.5267Z" fill="#E8A600"/>
<path d="M67.6679 9.34011L68.2426 10.5245C67.8877 10.1664 67.5032 9.83847 67.0932 9.54431L66.4774 8.35988C66.9099 8.64122 67.3092 8.97003 67.6679 9.34011Z" fill="#F1B700"/>
<path d="M66.4773 8.3615L67.093 9.54593L65.7794 8.68825L65.2047 7.50382C65.6507 7.75631 66.0762 8.04307 66.4773 8.3615Z" fill="#F9C900"/>
<path d="M65.2043 7.50392L65.779 8.68835L64.3422 7.99402L63.7265 6.80961C64.2303 7.0165 64.7236 7.24822 65.2043 7.50392Z" fill="#FFD400"/>
<path d="M63.7267 6.80835L64.3425 7.99277L62.6594 7.42098L62.0847 6.23655L63.7267 6.80835Z" fill="#FFE100"/>
<path d="M62.0848 6.23822L62.6595 7.42264C61.9204 7.19291 61.166 7.01549 60.4018 6.89169L59.827 5.70728C60.5893 5.8409 61.3431 6.01817 62.0848 6.23822Z" fill="#FFE900"/>
<path d="M59.8266 5.70734L60.4013 6.89175C59.7644 6.76741 59.1198 6.68556 58.472 6.64671C56.8742 6.5035 55.2668 6.5035 53.6691 6.64671L53.0534 5.46228C54.6648 5.31904 56.2858 5.31904 57.8973 5.46228C58.5451 5.50112 59.1897 5.583 59.8266 5.70734Z" fill="#FFEE00"/>
<path d="M53.0543 5.41899L53.67 6.60342L51.207 6.84848L50.5912 5.66404L53.0543 5.41899Z" fill="#FFEE00"/>
<path d="M50.5911 5.66465L51.2068 6.84907L49.1133 7.17581L48.4975 5.99139L50.5911 5.66465Z" fill="#FFEE00"/>
<path d="M48.4968 5.99022L49.1126 7.17466C48.2916 7.17466 47.5116 7.50139 46.6906 7.66476L46.1159 6.48033L48.4968 5.99022Z" fill="#FFF302"/>
<path d="M46.1162 6.48197L46.6909 7.6664C44.8979 8.11743 43.1303 8.66274 41.3954 9.30008L40.8207 8.11567C42.5536 7.47263 44.3216 6.9272 46.1162 6.48197Z" fill="#FFEE22"/>
<path d="M40.8205 8.11501L41.3952 9.29942L38.9733 10.2388L38.3986 9.05438L40.8205 8.11501Z" fill="#FFF302"/>
<path d="M38.3988 9.05372L38.9735 10.2381L36.8389 11.1775L36.2642 9.99309L38.3988 9.05372Z" fill="#FFEE00"/>
<path d="M36.2649 9.99514L36.8396 11.1796L34.2945 12.4865L33.7198 11.3021L36.2649 9.99514Z" fill="#FFEE00"/>
<path d="M33.7189 11.3015L34.2936 12.486L32.2 13.6704L31.5842 12.486C32.2821 12.0775 32.98 11.6691 33.7189 11.3015Z" fill="#FFEE00"/>
<path d="M31.585 12.487L32.2007 13.6714L30.3945 14.7741L29.8198 13.5897L31.585 12.487Z" fill="#FFE900"/>
<path d="M29.8187 13.5886L30.3934 14.773L28.5461 16.0392L27.9714 14.8547C28.5461 14.4463 29.1619 13.997 29.8187 13.5886Z" fill="#FFE100"/>
<path d="M27.9718 14.854L28.5465 16.0384C27.8897 16.4877 27.274 16.9778 26.6582 17.4679L26.0835 16.2834C26.6993 15.7933 27.315 15.3032 27.9718 14.854Z" fill="#FFD400"/>
<path d="M26.0843 16.2852L26.659 17.4696C26.0433 17.9597 25.4275 18.4498 24.8528 18.9808L24.2371 17.7963L26.0843 16.2852Z" fill="#F9C900"/>
<path d="M24.2374 17.7943L24.8531 18.9787L23.088 20.6124L22.4722 19.428L24.2374 17.7943Z" fill="#F1B700"/>
<path d="M22.4711 19.4712L23.0869 20.6556C22.4574 21.2546 21.8827 21.8672 21.3627 22.4935L20.7469 21.3091C21.3217 20.6556 21.8964 20.0838 22.4711 19.4712Z" fill="#E8A600"/>
<path d="M20.7472 21.268L21.3629 22.4524C20.8365 23.0088 20.343 23.5952 19.8851 24.2086L19.2694 23.0242L20.7472 21.268Z" fill="#DD9200"/>
<path d="M19.2692 23.0242L19.8849 24.2086L19.5976 24.5762L18.9819 23.3918L19.2692 23.0242Z" fill="#DD9200"/>
<path d="M18.9831 23.553L19.5989 24.7374C18.9492 25.6176 18.3463 26.531 17.7927 27.4738L17.1769 26.2486C17.7106 25.3909 18.3263 24.4515 18.9831 23.553Z" fill="#CF8400"/>
<path d="M17.1763 26.0855L17.7921 27.3108C16.9498 28.6919 16.2876 30.1742 15.8217 31.7217L15.247 30.5373C15.7189 28.9726 16.3661 27.4656 17.1763 26.0447" fill="#C36E00"/>
<path d="M15.2468 30.5792L15.8215 31.7227C14.9309 34.4082 15.1071 37.331 16.3141 39.8912L15.6984 38.6659C14.4708 36.109 14.3085 33.173 15.2468 30.4975" fill="#B45500"/>
<path d="M22.3901 56.7981L20.9944 56.3897L21.2818 56.3897L22.6775 56.7981L22.3901 56.7981Z" fill="#F1B700"/>
<path d="M22.6768 56.8819L21.2811 56.4734C22.9065 56.9199 24.5688 57.2206 26.2482 57.372C27.4104 57.4346 28.5752 57.4346 29.7374 57.372L30.8458 57.7395C29.7247 57.8022 28.6008 57.8022 27.4797 57.7395C25.8556 57.6016 24.2478 57.3145 22.6768 56.8819Z" fill="#F9C900"/>
<path d="M30.8465 57.8613L29.7381 57.4937C32.9103 57.4826 36.0734 57.1542 39.1796 56.5135L40.0007 56.9219C36.987 57.5291 33.9212 57.8437 30.8465 57.8613Z" fill="#FFD400"/>
<path d="M39.9999 56.9225L39.1789 56.5141C42.6523 55.7953 46.058 54.7843 49.3593 53.4918L49.8519 54.0227C46.6469 55.2376 43.3534 56.207 39.9999 56.9225Z" fill="#F9C900"/>
<path d="M49.8515 54.0222L49.3589 53.4912C51.5032 52.6837 53.6001 51.7564 55.6396 50.714L55.9269 51.3266C53.9565 52.3068 51.8219 53.2053 49.8515 54.0222Z" fill="#F1B700"/>
<path d="M55.9278 51.3268L55.6404 50.7141C57.3988 49.8639 59.1116 48.9233 60.7717 47.896L60.7717 48.5903C59.1707 49.5705 57.5287 50.4691 55.8046 51.3268" fill="#E8A600"/>
<path d="M60.894 48.5898L60.894 47.8954C62.495 46.9152 64.0139 45.8942 65.4917 44.8323L65.4917 45.6083C64.096 46.6293 62.5771 47.6504 61.0582 48.5898" fill="#DD9200"/>
<path d="M65.3279 45.6103L65.3279 44.8342C66.8467 43.7315 68.3245 42.5471 69.7202 41.3218L69.7202 42.2203C68.3656 43.4048 66.9699 44.5075 65.6152 45.6103" fill="#CF8400"/>
<path d="M69.5973 42.2192L69.5973 41.3207C71.1803 39.9162 72.6746 38.4158 74.0717 36.8281L73.7844 37.89C72.4297 39.3603 70.993 40.8306 69.4331 42.2192" fill="#C36E00"/>
<path d="M74.1123 37.8912L74.3997 36.8293C75.0155 36.135 75.5902 35.4407 76.1649 34.7055C78.1139 32.2295 79.6776 29.4759 80.8035 26.5371L80.2699 27.9257C79.1392 30.7744 77.5747 33.433 75.6312 35.8083L73.9481 37.8912" fill="#B45500"/>
<path d="M8.43149 31.7211L8.92407 30.3733C8.34312 31.8844 7.95692 33.4626 7.77468 35.0702L7.24107 36.5814C7.41739 34.9156 7.81776 33.2809 8.43149 31.7211Z" fill="#B45500"/>
<path d="M7.32282 36.4187L7.85648 34.9075C7.71159 36.1012 7.71159 37.3079 7.85648 38.5016L7.32282 40.1353C7.1574 38.9019 7.15741 37.6521 7.32282 36.4187Z" fill="#C36E00"/>
<path d="M7.40601 40.1366L7.9397 38.5029C8.08613 39.3416 8.32001 40.1629 8.63757 40.9534L8.10388 42.6688C7.77146 41.8551 7.53721 41.0051 7.40601 40.1366Z" fill="#CF8400"/>
<path d="M8.10391 42.6667L8.63758 40.9513C8.88273 41.6302 9.21376 42.2753 9.62274 42.8709L9.08913 44.668C8.70353 44.0303 8.37389 43.3607 8.10391 42.6667Z" fill="#DD9200"/>
<path d="M9.08833 44.6686L9.62194 42.8715C9.95813 43.4448 10.3574 43.979 10.8124 44.4644L10.3609 46.3023C9.90159 45.7857 9.47652 45.24 9.08833 44.6686Z" fill="#E8A600"/>
<path d="M10.3607 46.3021L10.8123 44.4642C11.2611 44.9441 11.741 45.3944 12.249 45.812L11.8385 47.6907C11.3168 47.2595 10.8232 46.7957 10.3607 46.3021Z" fill="#F1B700"/>
<path d="M11.839 47.6915L12.2494 45.8127C12.7495 46.2263 13.2853 46.5953 13.8504 46.9155L13.4809 48.8351C12.9107 48.4875 12.3624 48.1056 11.839 47.6915Z" fill="#F9C900"/>
<path d="M13.481 48.8341L13.8505 46.9145C14.4392 47.2895 15.0568 47.6173 15.6977 47.8947L15.3693 49.8143C14.7192 49.5286 14.0885 49.2012 13.481 48.8341Z" fill="#FFD400"/>
<path d="M15.3696 49.8145L15.698 47.8949C16.3671 48.1915 17.0523 48.4506 17.7505 48.6709L17.5042 50.6313C16.7769 50.4017 16.0641 50.129 15.3696 49.8145Z" fill="#FFE100"/>
<path d="M17.5034 50.6325L17.7497 48.672C18.7843 49.0024 19.8403 49.2617 20.9106 49.448L20.9106 51.4493C19.799 51.2495 18.7019 50.9766 17.6266 50.6325" fill="#FFE900"/>
<path d="M20.747 51.4484L20.747 49.4472C21.5886 49.6125 22.438 49.7352 23.2921 49.8148C25.6951 50.0391 28.114 50.0391 30.517 49.8148L30.7222 51.816C28.2506 52.0395 25.7637 52.0395 23.2921 51.816C22.3969 51.7392 21.5064 51.6165 20.6239 51.4484" fill="#FFEE00"/>
<path d="M30.8859 51.7763L30.6807 49.775L34.2931 49.2849L34.5804 51.2862C33.3489 51.504 32.1174 51.6674 30.8859 51.7763Z" fill="#FFEE00"/>
<path d="M34.5808 51.2863L34.2934 49.285L36.8385 48.7949L37.249 50.7962L34.5808 51.2863Z" fill="#FFEE00"/>
<path d="M37.1671 50.7943L36.7566 48.7931L38.8912 48.303L39.3838 50.2634L37.1671 50.7943Z" fill="#FFF302"/>
<path d="M39.4658 50.2627L38.9732 48.3023L40.7794 47.8122L41.3541 49.7318L39.4658 50.2627Z" fill="#FFEE22"/>
<path d="M41.2714 49.7332L40.6967 47.8136L42.4618 47.2418L43.0776 49.1614L41.2714 49.7332Z" fill="#FFEF37"/>
<path d="M43.1598 49.162L42.544 47.2425L44.2682 46.6707L44.925 48.5903L43.1598 49.162Z" fill="#FFF34B"/>
<path d="M44.9253 48.5899L44.2686 46.6703L46.1569 45.976L46.8958 47.8547L44.9253 48.5899Z" fill="#FFF35E"/>
<path d="M46.896 47.8547L46.1571 45.976L48.497 44.9958L49.2769 46.8745L46.896 47.8547Z" fill="#FFF36E"/>
<path d="M49.2773 46.8734L48.4974 44.9947C50.8505 43.9908 53.1399 42.8451 55.3528 41.5639L56.379 43.3201C54.0752 44.6261 51.7048 45.8121 49.2773 46.8734Z" fill="#FFF37A"/>
<path d="M56.3779 43.3211L55.3517 41.5649L57.3631 40.3804L58.4304 42.055C57.7736 42.5043 57.0758 42.9127 56.3779 43.3211Z" fill="#FFF36E"/>
<path d="M58.431 42.0544L57.3637 40.3798L58.8004 39.4405L59.9498 41.115C59.4572 41.4417 58.9646 41.7685 58.431 42.0544Z" fill="#FFF35E"/>
<path d="M59.9496 41.1157L58.8002 39.4411C59.2813 39.152 59.7472 38.8384 60.1959 38.5018L61.3864 40.1355L59.9496 41.1157Z" fill="#FFF34B"/>
<path d="M61.3864 40.1353L60.1959 38.5016L61.4684 37.6031L62.7 39.196L61.3864 40.1353Z" fill="#FFEF37"/>
<path d="M62.7007 39.1976L61.4692 37.6048L62.8239 36.5837L64.0964 38.1357L62.7007 39.1976Z" fill="#FFEE22"/>
<path d="M64.0954 38.1345L62.8228 36.5825L64.1365 35.5206L65.4501 37.0317L64.0954 38.1345Z" fill="#FFF302"/>
<path d="M65.4505 37.0308L64.1369 35.5196L65.4094 34.4577L66.7641 35.928L65.4505 37.0308Z" fill="#FFEE00"/>
<path d="M66.7641 35.8073L65.4094 34.337L66.6409 33.1934L68.0366 34.6637L66.7641 35.8073Z" fill="#FFEE00"/>
<path d="M68.0371 34.7847L66.6414 33.3144L67.9139 32.0891L69.3507 33.5186L68.0371 34.7847Z" fill="#FFEE00"/>
<path d="M69.3511 33.518L67.9143 32.0885C68.448 31.5576 68.9817 31.0266 69.4743 30.4548L70.9521 31.8435C70.4595 32.4153 69.9258 32.9462 69.3511 33.518Z" fill="#FFE900"/>
<path d="M70.9512 31.7217L69.4734 30.3331C70.1302 29.6388 70.7459 28.9036 71.3206 28.2093L72.8805 29.4754C72.2648 30.2514 71.608 30.9866 70.9512 31.7217Z" fill="#FFE100"/>
<path d="M72.8806 29.5971L71.3207 28.331L71.6491 27.8817C72.3059 27.024 72.9216 26.2072 73.4553 25.3495L75.0563 26.5339C74.4961 27.4428 73.8791 28.3158 73.209 29.1478L72.8806 29.5971Z" fill="#FFD400"/>
<path d="M75.056 26.5341L73.455 25.3497C74.2243 24.1593 74.9101 22.9174 75.5075 21.633L77.1906 22.6949C76.5816 24.0285 75.8679 25.3122 75.056 26.5341Z" fill="#F9C900"/>
<path d="M77.1909 22.695L75.5078 21.6331C76.0613 20.4194 76.5144 19.1627 76.8625 17.8757L78.5866 18.815C78.2432 20.1486 77.7759 21.4475 77.1909 22.695Z" fill="#F1B700"/>
<path d="M78.5872 18.8147L76.8631 17.8754C77.1599 16.6852 77.3251 15.4663 77.3557 14.2404L79.1209 15.0572C79.0815 16.3254 78.9025 17.5854 78.5872 18.8147Z" fill="#E8A600"/>
<path d="M79.1201 15.0578L77.355 14.241C77.3901 13.0162 77.2519 11.7926 76.9445 10.606L78.6686 11.3004C79.0074 12.5233 79.1596 13.7899 79.1201 15.0578Z" fill="#DD9200"/>
<path d="M78.669 11.3019L76.9449 10.6076C76.5938 9.28292 75.995 8.03589 75.1797 6.93182L76.8628 7.50361C77.6923 8.64975 78.3044 9.93698 78.669 11.3019Z" fill="#CF8400"/>
<path d="M76.862 7.50278L75.179 6.93098C74.0962 5.41194 72.6958 4.14403 71.074 3.21432L72.5928 3.66359C74.3129 4.62044 75.8099 5.92887 76.9852 7.50278" fill="#C36E00"/>
<path d="M72.4697 3.66373L70.9508 3.21446C69.6531 2.48795 68.2757 1.91237 66.8458 1.49907L68.2415 1.90751C69.6724 2.33615 71.0496 2.92535 72.3465 3.66373" fill="#B45500"/>
<path d="M13.5228 22.4518C24.0727 8.85133 45.624 -0.950823 61.7978 0.56034C77.9715 2.07151 82.3228 14.2834 71.7729 27.8838C61.2231 41.4843 39.6717 51.2865 23.58 49.8161C7.48837 48.3458 2.97287 36.0523 13.5228 22.4518ZM19.2698 23.0236C11.0597 33.8876 14.4258 43.6898 27.4798 44.9151C34.8232 45.0513 42.1035 43.5437 48.7826 40.5039C55.4616 37.4641 61.3686 32.9697 66.067 27.3529C74.5233 16.448 70.9519 6.64585 58.1032 5.46142C50.7516 5.31017 43.4604 6.81074 36.7724 9.85142C30.0844 12.8921 24.1719 17.3946 19.475 23.0236" fill="#FFCD00"/>
<g style="mix-blend-mode:screen">
<path style="mix-blend-mode:screen" d="M13.5228 22.4518C24.0727 8.85133 45.624 -0.950822 61.7978 0.56034C77.9715 2.07151 82.3228 14.2834 71.7729 27.8838C61.2231 41.4843 39.6717 51.2865 23.58 49.8161C7.48837 48.3458 2.97287 36.0523 13.5228 22.4518ZM19.2698 23.0236C11.0597 33.8876 14.4258 43.6898 27.4798 44.9151C34.8232 45.0513 42.1035 43.5437 48.7826 40.5039C55.4616 37.4641 61.3686 32.9697 66.067 27.3529C74.5233 16.448 70.9519 6.64585 58.1032 5.46142C50.7516 5.31017 43.4604 6.81074 36.7724 9.85142C30.0844 12.8921 24.1719 17.3946 19.475 23.0236" fill="url(#paint1_linear_1_8661)"/>
</g>
<path d="M11.3054 49.1608L8.51396 43.6062C8.80274 44.1735 9.13194 44.7194 9.49914 45.2399L12.2906 50.7944C11.9234 50.274 11.5942 49.728 11.3054 49.1608Z" fill="#DD9200"/>
<path d="M12.2905 50.7945L9.49904 45.24C9.91654 45.7858 10.369 46.3042 10.8537 46.792L13.6452 52.1423C13.1605 51.6546 12.708 51.1361 12.2905 50.5903" fill="#E8A600"/>
<path d="M13.6453 52.1429L10.8539 46.5884C11.3183 47.0419 11.812 47.4648 12.3317 47.8545L15.1232 53.4091C14.6034 53.0194 14.1098 52.5965 13.6453 52.1429Z" fill="#F1B700"/>
<path d="M15.1237 53.6129L12.3323 48.0583C12.871 48.4586 13.433 48.8269 14.0154 49.1611L16.6426 54.6748C16.061 54.3542 15.4989 53.9996 14.9595 53.6129" fill="#F9C900"/>
<path d="M16.6422 54.6771L13.8508 49.1634C14.4642 49.4953 15.0944 49.7952 15.7391 50.062L18.5305 55.6165L16.6422 54.6771Z" fill="#FFD400"/>
<path d="M18.6943 55.6156L15.9029 50.0611C16.5989 50.3486 17.3117 50.5941 18.0374 50.7962L20.7468 56.2282C20.021 56.0262 19.3082 55.7807 18.6121 55.4931" fill="#FFE100"/>
<path d="M20.7476 56.2285L17.9562 50.674C18.9004 50.9598 19.8445 51.1641 20.8708 51.3683L23.6622 56.9228C22.636 56.7186 21.6918 56.5144 20.7476 56.2285Z" fill="#FFE900"/>
<path d="M23.7441 57.0442L20.9527 51.4897L23.4568 51.8164C25.5197 51.9804 27.5924 51.9804 29.6553 51.8164L32.4468 57.371C30.3839 57.535 28.3111 57.535 26.2482 57.371L23.7441 57.0442Z" fill="#FFEE00"/>
<path d="M32.4468 57.4128L29.6553 51.8582C30.7227 51.8582 31.79 51.8582 32.8573 51.5723L35.6487 57.086C34.5885 57.2555 33.5195 57.3646 32.4468 57.4128Z" fill="#FFEE00"/>
<path d="M35.6481 57.0858L32.8567 51.5721L35.525 51.1228L38.3164 56.6774C37.4133 56.6774 36.5102 57.0041 35.6481 57.0858Z" fill="#FFEE00"/>
<path d="M38.3167 56.6766L35.5253 51.1221L38.6451 50.4686L41.2723 56.0232L38.1525 56.6766" fill="#FFF302"/>
<path d="M41.2722 56.0226L38.4808 50.4681C40.7386 49.8963 43.0374 49.202 45.2951 48.3851L48.0866 53.9397C45.8288 54.7565 43.53 55.4509 41.2722 56.0226Z" fill="#FFEE22"/>
<path d="M48.2506 53.9417L45.4592 48.3871C46.5265 47.9787 47.5528 47.6111 48.579 47.1618L51.3705 52.7164L48.2506 53.9417Z" fill="#FFF302"/>
<path d="M51.3707 52.7155L48.5793 47.1609L51.3296 45.9357L54.121 51.4902L51.3707 52.7155Z" fill="#FFEE00"/>
<path d="M54.1204 51.49L51.329 45.9355C52.4373 45.4045 53.5457 44.8736 54.613 44.2609L57.4044 49.8155C56.3371 50.4281 55.2288 50.9591 54.1204 51.49Z" fill="#FFEE00"/>
<path d="M57.4043 49.8152L54.6129 44.2606C55.516 43.7705 56.4602 43.2804 57.3222 42.7494L60.1136 48.304C59.2515 48.8349 58.3074 49.325 57.4043 49.8152Z" fill="#FFEE00"/>
<path d="M60.1139 48.3053L57.3225 42.7508L59.6623 41.3213L62.4538 46.835L60.1139 48.3053Z" fill="#FFE900"/>
<path d="M62.454 46.834L59.6626 41.3203L62.0435 39.6866L64.8349 45.2411L62.454 46.834Z" fill="#FFE100"/>
<path d="M64.8351 45.2403L62.0437 39.6857L64.4657 37.8478L67.2571 43.4024L64.8351 45.2403Z" fill="#FFD400"/>
<path d="M67.2569 43.4034L64.4655 37.8489L66.8054 35.8884L69.5968 41.443L67.2569 43.4034Z" fill="#F9C900"/>
<path d="M69.5972 41.4438L66.8058 35.8892C67.5857 35.1949 68.3657 34.5006 69.1046 33.7654L71.896 39.32C71.1571 40.0551 70.3771 40.7495 69.5972 41.4438Z" fill="#F1B700"/>
<path d="M71.8956 39.3195L69.1042 33.765C69.8841 33.0298 70.623 32.213 71.3209 31.437L74.1123 36.9915C73.4281 37.7539 72.6892 38.5299 71.8956 39.3195Z" fill="#E8A600"/>
<path d="M74.1127 36.9896L71.3213 31.4351C71.9781 30.6999 72.5938 29.9239 73.2096 29.1479L73.5791 28.6578L76.3705 34.2123L76.001 34.7024C75.3853 35.4785 74.7695 36.2545 74.1127 36.9896Z" fill="#DD9200"/>
<path d="M76.3704 34.2137L73.5789 28.6592C74.4336 27.5536 75.2152 26.3939 75.9188 25.1876L78.7102 30.7421C78.0066 31.9485 77.225 33.1081 76.3704 34.2137Z" fill="#CF8400"/>
<path d="M78.7097 30.7427L75.9183 25.1882C76.9108 23.3801 77.6825 21.4605 78.2171 19.4703L81.0085 25.0248C80.415 27.0525 79.5741 29.0002 78.5044 30.8244" fill="#C36E00"/>
<path d="M81.2143 24.9407L78.2177 19.4678C79.3314 16.0869 79.1262 12.4129 77.643 9.17552L80.4344 14.7301C81.9176 17.9674 82.1228 21.6414 81.0091 25.0223" fill="#B45500"/>
<path d="M26.2477 24.4929L26.6582 25.7182L20.8702 24.8197L20.4597 23.5536L26.2477 24.4929Z" fill="#E4A700"/>
<path d="M44.9252 17.1424L45.3356 18.3677C44.4112 18.6967 43.5066 19.0785 42.6264 19.5113L42.1748 18.2452C43.0779 17.8368 44.0221 17.4692 44.9252 17.1424Z" fill="#BF6900"/>
<path d="M42.1745 18.2459L42.6261 19.512C41.3168 20.0921 40.0421 20.7467 38.8084 21.4725C37.0743 22.3994 35.4728 23.5532 34.0466 24.9032C33.44 25.3953 33.0083 26.0682 32.8151 26.8228C32.7739 26.9278 32.7739 27.0445 32.8151 27.1495L32.3635 25.9243C32.3223 25.8192 32.3223 25.7026 32.3635 25.5975C32.5558 24.8525 32.971 24.1831 33.554 23.6779C35.0117 22.3362 36.6238 21.1709 38.3569 20.2063C39.5768 19.4812 40.8378 18.8266 42.1335 18.2459" fill="#B05500"/>
<path d="M51.6983 23.9625L52.1089 25.2286L51.6983 24.0034" fill="#CC7D00"/>
<path d="M51.6164 23.8404L52.0269 25.0656C51.9386 24.9411 51.8069 24.8537 51.6574 24.8206L51.2059 23.5545C51.3693 23.6049 51.5128 23.7049 51.6164 23.8404Z" fill="#D89200"/>
<path d="M51.2051 23.5544L51.6566 24.8205L51.2872 24.8205L50.8356 23.5544L51.2051 23.5544Z" fill="#E3A600"/>
<path d="M50.6307 23.5544L51.0822 24.8205C50.7843 24.76 50.4771 24.76 50.1791 24.8205L49.7686 23.5544L50.6307 23.5544Z" fill="#D89200"/>
<path d="M49.7699 23.5544L50.1804 24.8205L49.5647 24.8205L49.1542 23.5952L49.7699 23.5952" fill="#CC7D00"/>
<path d="M49.1537 23.5536L49.5642 24.7789L49.2768 24.7789L48.4558 25.1465L48.0453 23.8804L48.8663 23.5536L49.1537 23.5536Z" fill="#BF6900"/>
<path d="M48.0455 24.0437L48.456 25.3098C47.99 25.4841 47.5484 25.7174 47.1424 26.0041C46.4035 26.4125 45.4183 27.066 44.1047 27.9237C42.7911 28.7814 40.4923 30.2925 39.0555 31.1094L37.6188 31.8037L37.2083 30.5784C37.7074 30.3745 38.188 30.1286 38.645 29.8433C40.3697 28.8848 42.0415 27.835 43.6532 26.6984L46.6909 24.738L48.0455 24.0437Z" fill="#B05500"/>
<path d="M37.1663 30.5765L37.5768 31.8018C36.7512 32.1844 35.901 32.5118 35.0317 32.782L34.5801 31.5568C35.4604 31.2796 36.3238 30.9523 37.1663 30.5765Z" fill="#BF6900"/>
<path d="M34.622 31.7216L35.0735 32.9469L34.2525 33.192L32.9799 33.437L32.5695 32.2117L33.842 31.9258L34.622 31.9258" fill="#CC7D00"/>
<path d="M32.5693 32.05L32.9798 33.2753C31.9023 33.3985 30.8143 33.3985 29.7368 33.2753L29.3263 32.05C30.4038 32.1732 31.4919 32.1732 32.5693 32.05Z" fill="#D89200"/>
<path d="M29.3259 32.1712L29.7364 33.3964L28.8743 33.3964C28.2874 33.3179 27.7098 33.1811 27.1502 32.988L26.6987 31.7219C27.2597 31.9196 27.8364 32.0699 28.4228 32.1712L29.3259 32.1712Z" fill="#E3A600"/>
<path d="M26.6987 31.7222L27.1503 32.9883C26.4331 32.7803 25.8007 32.3513 25.3441 31.763L24.9336 30.5377C25.3972 31.0911 26.0094 31.5019 26.6987 31.7222Z" fill="#D89200"/>
<path d="M24.8514 30.4151L25.2619 31.6404C25.0869 31.4335 24.9481 31.1988 24.8514 30.9461L24.4408 29.68C24.5108 29.9564 24.6524 30.2099 24.8514 30.4151Z" fill="#CC7D00"/>
<path d="M59.4583 20.2876L59.8688 21.5537C59.9945 22.4096 59.9191 23.2829 59.6485 24.1049C59.3778 24.927 58.9193 25.6754 58.3088 26.2914L57.8983 25.0661C58.5124 24.4538 58.9705 23.7044 59.2347 22.8804C59.4989 22.0563 59.5614 21.1814 59.4172 20.3284" fill="#B05500"/>
<path d="M45.2133 34.6228L45.6238 35.8889L41.8883 33.0299L41.4367 31.8047L45.2133 34.6228Z" fill="#DE9800"/>
<path d="M54.2857 28.905L54.6962 30.1303C51.9286 32.4008 48.8797 34.3087 45.6241 35.8074L45.2136 34.5821C48.4736 33.058 51.5227 31.1224 54.2857 28.8233" fill="#B05500"/>
<path d="M59.7447 29.7626L54.285 28.905C51.573 31.1923 48.5797 33.1274 45.3771 34.6637L41.6005 31.8048C43.4741 30.8814 45.2966 29.8589 47.0602 28.7416C48.4284 27.9064 49.7075 26.9348 50.8778 25.8418C51.3667 25.42 51.723 24.867 51.9041 24.2489C51.9041 23.8405 51.6168 23.5546 51.001 23.4729C50.334 23.4024 49.6596 23.4863 49.0306 23.718C48.2752 23.9908 47.5469 24.3326 46.8549 24.739L43.8172 26.6995C42.2056 27.8361 40.5338 28.8859 38.8091 29.8443C37.3023 30.6964 35.6868 31.3421 34.0063 31.7639C32.2419 32.247 30.3934 32.3445 28.5876 32.0498C26.2478 31.6822 24.9342 30.8245 24.4826 29.4359C24.4048 28.5345 24.5221 27.627 24.8266 26.7745C25.1311 25.922 25.6157 25.1444 26.2477 24.494L20.4597 23.5546L24.1952 19.7971L30.0244 20.7365C31.7143 19.381 33.5128 18.1653 35.4019 17.1015C37.3124 15.977 39.3178 15.0204 41.3953 14.2426L44.9666 17.1424C42.7082 17.9789 40.5248 19.0036 38.4396 20.2056C36.7066 21.1701 35.0945 22.3354 33.6368 23.6771C33.0538 24.1823 32.6387 24.8517 32.4464 25.5967C32.4464 26.0868 32.7337 26.4136 33.4726 26.5361C34.1666 26.6105 34.8685 26.5267 35.5251 26.291C36.3195 26.0151 37.0776 25.6448 37.7829 25.1883C38.5218 24.7527 39.507 24.0992 40.7385 23.2279C42.6268 21.9618 44.2688 20.8999 45.6645 20.083C47.1447 19.2759 48.7155 18.6453 50.3442 18.2043C52.0675 17.7275 53.8746 17.6299 55.6397 17.9184C57.8153 18.286 59.0879 19.062 59.4984 20.3689C59.6426 21.2219 59.5801 22.0968 59.3159 22.9209C59.0517 23.7449 58.5935 24.4943 57.9795 25.1066L63.5213 26.0052L59.7447 29.7626Z" fill="#FFBC00"/>
<path d="M59.7859 29.7634L60.1964 30.9887L54.7367 30.131L54.2852 28.9057L59.7859 29.7634Z" fill="#E4A700"/>
<path d="M63.5216 25.9651L63.9321 27.2312L60.1965 30.9887L59.786 29.7634L63.5216 25.9651Z" fill="#A34300"/>
<g style="mix-blend-mode:screen">
<path style="mix-blend-mode:screen" d="M59.7454 29.7624L54.2857 28.9047C51.5736 31.1921 48.5803 33.1272 45.3778 34.6635L41.6012 31.8045C43.4747 30.8811 45.2972 29.8586 47.0609 28.7413C48.429 27.9062 49.7082 26.9346 50.8785 25.8415C51.3673 25.4198 51.7237 24.8667 51.9048 24.2487C51.9048 23.8403 51.6174 23.5544 51.0017 23.4727C50.3347 23.4022 49.6603 23.486 49.0313 23.7177C48.2759 23.9905 47.5476 24.3323 46.8556 24.7388L43.8179 26.6992C42.2062 27.8358 40.5344 28.8856 38.8098 29.8441C37.303 30.6961 35.6874 31.3418 34.0069 31.7637C32.2426 32.2467 30.3941 32.3443 28.5883 32.0496C26.2484 31.682 24.9348 30.8243 24.4833 29.4357C24.4055 28.5343 24.5228 27.6268 24.8273 26.7743C25.1318 25.9218 25.6163 25.1441 26.2484 24.4937L20.4603 23.5544L24.1959 19.7969L30.025 20.7363C31.715 19.3808 33.5135 18.1651 35.4026 17.1013C37.313 15.9767 39.3184 15.0201 41.3959 14.2423L44.9673 17.1421C42.7089 17.9786 40.5254 19.0033 38.4403 20.2053C36.7073 21.1699 35.0951 22.3352 33.6374 23.6769C33.0544 24.1821 32.6393 24.8515 32.447 25.5965C32.447 26.0866 32.7343 26.4133 33.4732 26.5359C34.1672 26.6102 34.8691 26.5264 35.5257 26.2908C36.3201 26.0148 37.0782 25.6446 37.7835 25.1881C38.5224 24.7524 39.5076 24.0989 40.7391 23.2276C42.6274 21.9615 44.2694 20.8996 45.6651 20.0828C47.1454 19.2757 48.7161 18.6451 50.3449 18.204C52.0682 17.7272 53.8753 17.6297 55.6403 17.9181C57.816 18.2857 59.0886 19.0617 59.4991 20.3687C59.6433 21.2216 59.5807 22.0965 59.3165 22.9206C59.0524 23.7447 58.5942 24.494 57.9802 25.1064L63.522 26.0049L59.7454 29.7624Z" fill="url(#paint2_linear_1_8661)"/>
</g>
<defs>
<linearGradient id="paint0_linear_1_8661" x1="-6553.39" y1="-1663.41" x2="-7310.95" y2="-1663.41" gradientUnits="userSpaceOnUse">
<stop stop-color="#C9C7C7"/>
<stop offset="0.06" stop-color="#E4E3E3"/>
<stop offset="0.11" stop-color="white"/>
<stop offset="0.12" stop-color="#F6F5F5"/>
<stop offset="0.15" stop-color="#DDDCDB"/>
<stop offset="0.19" stop-color="#B4B2B0"/>
<stop offset="0.23" stop-color="#7C7876"/>
<stop offset="0.25" stop-color="#6B6764"/>
<stop offset="0.27" stop-color="#6D6967"/>
<stop offset="0.28" stop-color="#75726F"/>
<stop offset="0.29" stop-color="#837F7D"/>
<stop offset="0.3" stop-color="#969391"/>
<stop offset="0.31" stop-color="#C9C7C7"/>
<stop offset="0.35" stop-color="#BFBDBD"/>
<stop offset="0.41" stop-color="#A5A3A3"/>
<stop offset="0.48" stop-color="#7A7878"/>
<stop offset="0.57" stop-color="#403E3E"/>
<stop offset="0.65" stop-color="#020000"/>
<stop offset="0.67" stop-color="#0C0908"/>
<stop offset="0.71" stop-color="#26221F"/>
<stop offset="0.74" stop-color="#3B3732"/>
<stop offset="0.75" stop-color="#211F1C"/>
<stop offset="0.76" stop-color="#0F0E0D"/>
<stop offset="0.77" stop-color="#040303"/>
<stop offset="0.78" stop-color="#0F0F0F"/>
<stop offset="0.8" stop-color="#464646"/>
<stop offset="0.81" stop-color="#787878"/>
<stop offset="0.82" stop-color="#A1A1A1"/>
<stop offset="0.83" stop-color="#C3C3C3"/>
<stop offset="0.84" stop-color="#DEDEDE"/>
<stop offset="0.86" stop-color="#F0F0F0"/>
<stop offset="0.87" stop-color="#FBFBFB"/>
<stop offset="0.88" stop-color="white"/>
<stop offset="0.89" stop-color="#EFEFEF"/>
<stop offset="0.91" stop-color="#CFCFCE"/>
<stop offset="0.93" stop-color="#B5B5B3"/>
<stop offset="0.95" stop-color="#A3A3A1"/>
<stop offset="0.98" stop-color="#989896"/>
<stop offset="1" stop-color="#949492"/>
</linearGradient>
<linearGradient id="paint1_linear_1_8661" x1="-8091.7" y1="-2110.66" x2="-9273.07" y2="-2110.66" gradientUnits="userSpaceOnUse">
<stop stop-color="#C9C7C7"/>
<stop offset="0.06" stop-color="#E4E3E3"/>
<stop offset="0.11" stop-color="white"/>
<stop offset="0.12" stop-color="#F6F5F5"/>
<stop offset="0.15" stop-color="#DDDCDB"/>
<stop offset="0.19" stop-color="#B4B2B0"/>
<stop offset="0.23" stop-color="#7C7876"/>
<stop offset="0.25" stop-color="#6B6764"/>
<stop offset="0.27" stop-color="#6D6967"/>
<stop offset="0.28" stop-color="#75726F"/>
<stop offset="0.29" stop-color="#837F7D"/>
<stop offset="0.3" stop-color="#969391"/>
<stop offset="0.31" stop-color="#C9C7C7"/>
<stop offset="0.35" stop-color="#BFBDBD"/>
<stop offset="0.41" stop-color="#A5A3A3"/>
<stop offset="0.48" stop-color="#7A7878"/>
<stop offset="0.57" stop-color="#403E3E"/>
<stop offset="0.65" stop-color="#020000"/>
<stop offset="0.67" stop-color="#0C0908"/>
<stop offset="0.71" stop-color="#26221F"/>
<stop offset="0.74" stop-color="#3B3732"/>
<stop offset="0.75" stop-color="#211F1C"/>
<stop offset="0.76" stop-color="#0F0E0D"/>
<stop offset="0.77" stop-color="#040303"/>
<stop offset="0.78" stop-color="#0F0F0F"/>
<stop offset="0.8" stop-color="#464646"/>
<stop offset="0.81" stop-color="#787878"/>
<stop offset="0.82" stop-color="#A1A1A1"/>
<stop offset="0.83" stop-color="#C3C3C3"/>
<stop offset="0.84" stop-color="#DEDEDE"/>
<stop offset="0.86" stop-color="#F0F0F0"/>
<stop offset="0.87" stop-color="#FBFBFB"/>
<stop offset="0.88" stop-color="white"/>
<stop offset="0.89" stop-color="#EFEFEF"/>
<stop offset="0.91" stop-color="#CFCFCE"/>
<stop offset="0.93" stop-color="#B5B5B3"/>
<stop offset="0.95" stop-color="#A3A3A1"/>
<stop offset="0.98" stop-color="#989896"/>
<stop offset="1" stop-color="#949492"/>
</linearGradient>
<linearGradient id="paint2_linear_1_8661" x1="-5028.09" y1="-859.375" x2="-5729.56" y2="-859.375" gradientUnits="userSpaceOnUse">
<stop stop-color="#C9C7C7"/>
<stop offset="0.06" stop-color="#E4E3E3"/>
<stop offset="0.11" stop-color="white"/>
<stop offset="0.12" stop-color="#F6F5F5"/>
<stop offset="0.15" stop-color="#DDDCDB"/>
<stop offset="0.19" stop-color="#B4B2B0"/>
<stop offset="0.23" stop-color="#7C7876"/>
<stop offset="0.25" stop-color="#6B6764"/>
<stop offset="0.27" stop-color="#6D6967"/>
<stop offset="0.28" stop-color="#75726F"/>
<stop offset="0.29" stop-color="#837F7D"/>
<stop offset="0.3" stop-color="#969391"/>
<stop offset="0.31" stop-color="#C9C7C7"/>
<stop offset="0.35" stop-color="#BFBDBD"/>
<stop offset="0.41" stop-color="#A5A3A3"/>
<stop offset="0.48" stop-color="#7A7878"/>
<stop offset="0.57" stop-color="#403E3E"/>
<stop offset="0.65" stop-color="#020000"/>
<stop offset="0.67" stop-color="#0C0908"/>
<stop offset="0.71" stop-color="#26221F"/>
<stop offset="0.74" stop-color="#3B3732"/>
<stop offset="0.75" stop-color="#211F1C"/>
<stop offset="0.76" stop-color="#0F0E0D"/>
<stop offset="0.77" stop-color="#040303"/>
<stop offset="0.78" stop-color="#0F0F0F"/>
<stop offset="0.8" stop-color="#464646"/>
<stop offset="0.81" stop-color="#787878"/>
<stop offset="0.82" stop-color="#A1A1A1"/>
<stop offset="0.83" stop-color="#C3C3C3"/>
<stop offset="0.84" stop-color="#DEDEDE"/>
<stop offset="0.86" stop-color="#F0F0F0"/>
<stop offset="0.87" stop-color="#FBFBFB"/>
<stop offset="0.88" stop-color="white"/>
<stop offset="0.89" stop-color="#EFEFEF"/>
<stop offset="0.91" stop-color="#CFCFCE"/>
<stop offset="0.93" stop-color="#B5B5B3"/>
<stop offset="0.95" stop-color="#A3A3A1"/>
<stop offset="0.98" stop-color="#989896"/>
<stop offset="1" stop-color="#949492"/>
</linearGradient>
<radialGradient id="paint3_radial_1_8661" cx="0" cy="0" r="1" gradientUnits="userSpaceOnUse" gradientTransform="translate(-6645.99 -1865.88) rotate(-180) scale(324.306 322.664)">
<stop offset="0.01" stop-color="#FFEBE2"/>
<stop offset="0.06" stop-color="#FFEB64"/>
<stop offset="0.07" stop-color="#F5E260"/>
<stop offset="0.15" stop-color="#C3B34C"/>
<stop offset="0.22" stop-color="#94893A"/>
<stop offset="0.3" stop-color="#6C642A"/>
<stop offset="0.39" stop-color="#4B451D"/>
<stop offset="0.47" stop-color="#2F2C13"/>
<stop offset="0.57" stop-color="#1A180A"/>
<stop offset="0.68" stop-color="#0B0B04"/>
<stop offset="0.81" stop-color="#030201"/>
<stop offset="1"/>
</radialGradient>
</defs>
</svg>
