<svg width="81" height="77" viewBox="0 0 81 77" fill="none" xmlns="http://www.w3.org/2000/svg">
<path d="M8.86158 22.7831L9.23102 21.517C8.69669 24.0588 8.85239 26.6963 9.68207 29.1584C10.5118 31.6204 11.9855 33.8183 13.9518 35.5259C15.4879 37.1977 17.2093 38.6911 19.0831 39.9777L18.7136 41.2438C16.8351 39.9474 15.1012 38.455 13.5413 36.792C11.5784 35.0818 10.1071 32.8837 9.27771 30.4224C8.4483 27.9612 8.29053 25.3249 8.82052 22.7831" fill="#9B3800"/>
<path d="M18.7141 41.244L19.0836 39.9779C20.3897 40.918 21.7615 41.7642 23.1886 42.5101L22.8192 43.7762C21.4009 43.0151 20.03 42.1695 18.7141 41.244Z" fill="#A34300"/>
<path d="M22.7774 43.7745L23.1469 42.5084C24.3581 43.1995 25.605 43.8266 26.8825 44.3872L26.513 45.6124C25.2405 45.0406 23.9679 44.428 22.7774 43.7745Z" fill="#AF4D00"/>
<path d="M26.5131 45.6138L26.8825 44.3885L30.7002 45.8589L30.3307 47.125C29.0582 46.6757 27.7856 46.1856 26.5131 45.6138Z" fill="#B55C00"/>
<path d="M30.3313 47.1231L30.7007 45.857C32.0426 46.3487 33.4135 46.7579 34.8057 47.0823L34.4363 48.3484C33.0816 47.9808 31.727 47.5724 30.3313 47.1231Z" fill="#C06300"/>
<path d="M34.3546 48.3505L34.7241 47.0844C36.2388 47.489 37.7733 47.8161 39.3217 48.0646L38.9522 49.2899C37.4334 49.0448 35.8735 48.7181 34.3546 48.3505Z" fill="#C56C00"/>
<path d="M38.9523 49.2889L39.3217 48.0636C41.4241 48.4275 43.5511 48.6323 45.6845 48.6763L45.3151 49.9016C43.1816 49.8575 41.0546 49.6527 38.9523 49.2889Z" fill="#C97D00"/>
<path d="M45.3151 49.9019L45.6846 48.6766C48.6762 48.7644 51.6674 48.4901 54.5925 47.8598C55.4678 47.6635 56.3312 47.4181 57.1786 47.1246L56.8092 48.3499C55.9618 48.6433 55.0983 48.8888 54.223 49.0851C51.3008 49.7338 48.3073 50.0083 45.3151 49.9019Z" fill="#D38500"/>
<path d="M56.8093 48.3484L57.1788 47.1231C58.7147 46.6071 60.1879 45.9221 61.5712 45.081L61.2017 46.3063C59.8362 47.1799 58.3589 47.8667 56.8093 48.3484Z" fill="#C97D00"/>
<path d="M61.202 46.3486L61.5714 45.1233C62.4335 44.5723 63.2319 43.9286 63.9523 43.2037L63.5829 44.4698C62.8507 45.1696 62.0535 45.7986 61.202 46.3486Z" fill="#C56C00"/>
<path d="M63.5814 44.4285L63.9509 43.1624C64.5769 42.5784 65.1284 41.92 65.5929 41.202L65.2235 42.4273C64.7485 43.1501 64.1981 43.8209 63.5814 44.4285Z" fill="#C06300"/>
<path d="M65.2238 42.2637L65.5932 41.0384C66.0223 40.355 66.38 39.6297 66.6605 38.8738L66.2911 40.1399C66.0101 40.8826 65.6524 41.5944 65.2238 42.2637Z" fill="#B55C00"/>
<path d="M66.2911 40.3041L66.6605 39.038C66.6605 39.038 66.6605 38.7112 66.6605 38.5479L66.2911 39.7731C66.2911 39.7731 66.2911 40.0999 66.2911 40.3041Z" fill="#AF4D00"/>
<path d="M9.204 21.5203C6.47063 30.6895 17.1527 41.9287 33.0631 46.6237C48.9735 51.3187 64.0873 47.6917 66.8207 38.5225C69.554 29.3533 58.8719 18.1141 42.9615 13.4191C27.0511 8.72409 11.9374 12.3511 9.204 21.5203Z" fill="#EBB400"/>
<path style="mix-blend-mode:screen" d="M9.20393 21.5193C6.47056 30.6884 17.1527 41.9276 33.0631 46.6226C48.9735 51.3176 64.0872 47.6906 66.8206 38.5214C69.554 29.3522 58.8719 18.1131 42.9615 13.418C27.0511 8.72302 11.9373 12.3501 9.20393 21.5193Z" fill="url(#paint0_linear_47_1790)"/>
<path d="M16.9494 9.01757C26.0278 7.41489 35.3587 7.97465 44.1779 10.651C52.997 13.3274 61.0535 18.0442 67.6874 24.4151C79.1404 36.6678 74.9533 49.7373 58.328 53.5357C49.2528 55.1303 39.9274 54.5705 31.1108 51.902C22.2941 49.2335 14.2352 44.5316 7.58996 38.179C-3.82199 25.9263 0.365131 12.8159 16.9494 9.01757ZM21.0544 13.4694C7.75416 16.4917 4.38804 26.9473 13.5422 36.7903C18.8616 41.8818 25.3178 45.6467 32.3819 47.7765C39.446 49.9063 46.9167 50.3403 54.1819 49.043C67.4822 46.0207 70.8483 35.5651 61.6941 25.7221C56.3748 20.6306 49.9185 16.8657 42.8544 14.7359C35.7904 12.6061 28.3196 12.1721 21.0544 13.4694Z" fill="#EBB400"/>
<path style="mix-blend-mode:screen" d="M16.9496 9.0186C26.028 7.41592 35.3589 7.97569 44.178 10.652C52.9972 13.3284 61.0536 18.0452 67.6876 24.4162C79.1406 36.6688 74.9535 49.7384 58.3282 53.5367C49.253 55.1313 39.9276 54.5716 31.111 51.9031C22.2943 49.2346 14.2354 44.5327 7.59014 38.18C-3.8218 25.9273 0.365316 12.8169 16.9496 9.0186ZM21.0546 13.4704C7.75435 16.4927 4.38823 26.9484 13.5424 36.7914C18.8618 41.8828 25.318 45.6478 32.3821 47.7776C39.4461 49.9073 46.9169 50.3414 54.1821 49.044C67.4824 46.0217 70.8485 35.5661 61.6943 25.7231C56.3749 20.6316 49.9187 16.8667 42.8546 14.7369C35.7906 12.6071 28.3198 12.1731 21.0546 13.4704Z" fill="url(#paint1_linear_47_1790)"/>
<path d="M16.6625 7.05648L16.9498 9.01691L16.1288 9.01691L15.7594 7.05648L16.6625 7.05648Z" fill="#FFE000"/>
<path d="M15.7592 7.26194L16.1286 9.22236L14.4045 9.71246L13.994 7.75204L15.7592 7.26194Z" fill="#FFDF00"/>
<path d="M13.9951 7.75176L14.4056 9.71218C13.6256 9.95723 12.8867 10.2023 12.1889 10.4882L11.6963 8.56861L13.9951 7.75176Z" fill="#FFD800"/>
<path d="M11.6954 8.56879L12.1879 10.4884C11.2027 10.8968 10.2996 11.3461 9.4376 11.7953L8.90396 9.9166C9.80567 9.41063 10.7379 8.9605 11.6954 8.56879Z" fill="#FFD100"/>
<path d="M8.90372 9.91694L9.43736 11.7957C8.54344 12.2821 7.69207 12.8422 6.89223 13.4702L6.23544 11.6323C7.08072 10.9952 7.97263 10.4219 8.90372 9.91694Z" fill="#F9C800"/>
<path d="M6.23456 11.6319L6.89134 13.4698C6.17918 13.9907 5.51932 14.5788 4.92095 15.2261L4.18204 13.429C4.82847 12.7886 5.51394 12.1884 6.23456 11.6319Z" fill="#F6C100"/>
<path d="M4.18299 13.4286L4.92189 15.2257C4.37112 15.7749 3.87612 16.3768 3.44408 17.0227L2.66412 15.3073C3.12222 14.644 3.62996 14.016 4.18299 13.4286Z" fill="#EFBC00"/>
<path d="M2.66484 15.3065L3.44481 17.0219C3.05003 17.5971 2.69349 18.1974 2.37749 18.819L1.59752 17.1853C1.89706 16.529 2.25422 15.9003 2.66484 15.3065Z" fill="#ECAF00"/>
<path d="M1.59723 17.1846L2.3772 18.8182C2.10888 19.4169 1.87588 20.0306 1.67935 20.6562L0.858347 19.0633C1.06185 18.4212 1.30868 17.7935 1.59723 17.1846Z" fill="#E6AA00"/>
<path d="M0.857532 19.0657L1.67853 20.6586C1.50259 21.2757 1.3655 21.9032 1.26803 22.5373L0.447003 21.0262C0.544407 20.3651 0.681512 19.7105 0.857532 19.0657Z" fill="#E3A000"/>
<path d="M0.448028 21.0243L1.26906 22.5355C1.22829 23.1883 1.22829 23.8431 1.26906 24.4959L0.448028 23.0256C0.405973 22.3592 0.405973 21.6908 0.448028 21.0243Z" fill="#DE9800"/>
<path d="M0.324141 23.0262L1.14517 24.4965C1.10621 25.163 1.10621 25.8312 1.14517 26.4978L0.324141 25.0683C0.264845 24.3889 0.264845 23.7056 0.324141 23.0262Z" fill="#D88D00"/>
<path d="M0.487923 25.0691L1.30891 26.4985C1.30891 27.152 1.47312 27.8463 1.80151 28.5815L0.980531 27.2337C0.777016 26.5216 0.612563 25.799 0.487923 25.0691Z" fill="#D38500"/>
<path d="M0.981676 27.2332L1.80266 28.581C2.01427 29.3189 2.27484 30.0421 2.58263 30.7457L1.80266 29.4796C1.47491 28.7515 1.20054 28.0007 0.981676 27.2332Z" fill="#C97D00"/>
<path d="M1.80324 29.4787L2.5832 30.7448C2.93067 31.5449 3.32828 32.3224 3.77365 33.0728L3.03475 31.8884C2.55965 31.1195 2.1478 30.3137 1.80324 29.4787Z" fill="#C56C00"/>
<path d="M3.03411 31.8888L3.77302 33.0732L4.22458 33.8492L3.5267 32.7057C3.3328 32.4522 3.16761 32.1783 3.03411 31.8888Z" fill="#C06300"/>
<path d="M65.471 51.0025L64.2394 51.5743C67.0391 50.5711 69.4751 48.7613 71.237 46.3755C72.9989 43.9897 74.0069 41.136 74.1326 38.178L75.7335 37.157C75.6075 40.2204 74.5628 43.1761 72.7338 45.6437C70.9048 48.1113 68.3753 49.9776 65.471 51.0025Z" fill="#9B3800"/>
<path d="M75.7335 37.1583L74.1326 38.1793C74.1281 36.5555 73.8649 34.9426 73.3526 33.4008L74.8715 32.2164C75.4255 33.8064 75.7167 35.4754 75.7335 37.1583Z" fill="#A34300"/>
<path d="M74.8713 32.2164L73.3525 33.4008C72.9289 32.19 72.4072 31.0153 71.7926 29.8884L73.2704 28.6223C73.9397 29.7558 74.4769 30.9617 74.8713 32.2164Z" fill="#AF4D00"/>
<path d="M73.2708 28.6227L71.793 29.8888C71.2362 28.8902 70.605 27.9346 69.9047 27.0298L71.3415 25.6412C72.0655 26.5809 72.7108 27.578 73.2708 28.6227Z" fill="#B55C00"/>
<path d="M71.341 25.6407L69.9043 27.0294C69.2519 26.1376 68.5387 25.2915 67.7697 24.4971L69.1654 23.0268C69.9453 23.8845 70.6842 24.783 71.341 25.6407Z" fill="#C06300"/>
<path d="M69.1653 23.0256L67.7696 24.4959C67.1128 23.7608 66.3739 23.0256 65.635 22.3313L66.9075 20.7793C67.6875 21.5144 68.4674 22.2496 69.1653 23.0256Z" fill="#C56C00"/>
<path d="M66.9071 20.6989L65.6345 22.2509C64.8956 21.5974 64.1157 20.9031 63.2947 20.2905L64.5262 18.6976C65.3472 19.3511 66.1682 20.0046 66.9071 20.6989Z" fill="#C97D00"/>
<path d="M64.4448 18.6984L63.2133 20.2913C62.4744 19.6787 61.6534 19.1069 60.8734 18.5351L61.9818 16.8605C62.8439 17.4732 63.6649 18.045 64.4448 18.6984Z" fill="#D38500"/>
<path d="M61.9821 16.8607L60.8738 18.5352L58.5339 17.0241L59.5602 15.3087C60.4222 15.7988 61.2022 16.3298 61.9821 16.8607Z" fill="#D88D00"/>
<path d="M59.56 15.3073L58.5337 17.0227L56.317 15.7158L57.3022 13.9595C58.0822 14.4088 58.8211 14.8172 59.56 15.3073Z" fill="#DE9800"/>
<path d="M57.3018 13.9592L56.3165 15.7154L54.3051 14.6943L55.2493 12.8973L57.3018 13.9592Z" fill="#E3A000"/>
<path d="M55.2495 12.8985L54.3053 14.6955C53.7378 14.369 53.1479 14.0824 52.5401 13.8378L53.4022 11.9999L55.2495 12.8985Z" fill="#E6AA00"/>
<path d="M53.4012 11.9984L52.5391 13.6729L51.1024 13.0195L51.9234 11.1816L53.4012 11.835" fill="#ECAF00"/>
<path d="M51.9254 11.3459L51.1045 13.1838L49.6677 12.5712L50.4477 10.7333L51.9254 11.3459Z" fill="#EFBC00"/>
<path d="M50.4875 10.734L49.7076 12.5719L48.5582 12.1226L49.2971 10.2439L50.4875 10.734Z" fill="#F6C100"/>
<path d="M49.2555 10.2438L48.5166 12.1225L47.4083 11.7141L48.0651 9.83533L49.2555 10.2438Z" fill="#F9C800"/>
<path d="M48.0658 9.83561L47.409 11.7144L46.3828 11.3468L47.0396 9.46802L48.0658 9.83561Z" fill="#FFD100"/>
<path d="M47.0388 9.5896L46.382 11.4684L45.3968 11.1416L46.0536 9.26285L47.0388 9.5896Z" fill="#FFD800"/>
<path d="M46.055 9.14002L45.3982 11.0188L44.454 10.7329L45.0698 8.81328L46.055 9.14002Z" fill="#FFDF00"/>
<path d="M45.0698 8.81277L44.454 10.7324L43.592 10.4873L44.1256 8.52688L45.0698 8.81277Z" fill="#FFE000"/>
<path d="M44.1247 8.52776L43.591 10.4882L42.6879 10.2431L43.2216 8.28271L44.1247 8.52776Z" fill="#FFE100"/>
<path d="M43.2224 8.2826L42.6888 10.243L41.8267 9.99798L42.3604 8.03754L43.2224 8.2826Z" fill="#FFE200"/>
<path d="M42.2773 8.03847L41.7437 9.9989L40.8816 9.75386L41.3332 7.83427L42.2773 7.83427" fill="#FFE605"/>
<path d="M41.416 7.83244L40.9645 9.75204L40.0614 9.75204L40.5129 7.7916L41.416 8.03665" fill="#FFE812"/>
<path d="M40.5124 7.58887L40.0608 9.54932L39.1988 9.34509L39.6093 7.38466L40.5124 7.38466" fill="#FFE522"/>
<path d="M39.6096 7.38347L39.1992 9.3439L38.2139 9.3439L38.5834 7.38347L39.6096 7.58768" fill="#FFE830"/>
<path d="M38.5835 7.17989L38.214 9.14032L37.1057 9.14032L37.4752 7.17989L38.5835 7.17989Z" fill="#FFE738"/>
<path d="M37.4754 6.9753L37.1059 8.93573L36.0386 8.93573L36.367 6.93445L37.4754 6.93445" fill="#FFEB48"/>
<path d="M36.3658 6.77148L36.0374 8.77274L34.3133 8.48684L34.6007 6.52642L36.3658 6.77148Z" fill="#FFEB52"/>
<path d="M34.6009 6.52675L34.3136 8.48718C32.3021 8.24213 30.2085 8.07876 28.3613 7.99708L28.3613 5.99579C30.4361 6.05269 32.5058 6.22998 34.5599 6.52675" fill="#FFEC5C"/>
<path d="M28.403 5.99491L28.403 7.99619L26.7199 7.99619L26.7199 5.95408L28.403 5.95408" fill="#FFEB52"/>
<path d="M26.7195 5.95408L26.7195 7.99619L25.488 7.99619L25.488 5.99491L26.8016 5.99491" fill="#FFEB48"/>
<path d="M25.4064 5.99491L25.4064 7.99619L24.257 7.99619L24.257 5.99491L25.4474 5.99491" fill="#FFE738"/>
<path d="M24.2163 6.03547L24.2163 8.03674L23.149 8.03674L23.149 5.99462L24.2163 5.99462" fill="#FFE830"/>
<path d="M23.1482 6.07563L23.1482 8.11774L22.122 8.11774L22.122 6.11648L23.1892 6.11648" fill="#FFE522"/>
<path d="M22.081 6.20118L22.081 8.20245L21.0137 8.20245L21.0137 6.20118C21.3829 6.18115 21.7529 6.18115 22.1221 6.20118" fill="#FFE812"/>
<path d="M20.9725 6.32273L20.9725 8.32401L19.9052 8.32401L19.6999 6.32273L20.8083 6.32273" fill="#FFE605"/>
<path d="M19.8645 6.4457L20.0698 8.44698L18.8793 8.65118L18.633 6.64991L19.8645 6.4457Z" fill="#FFE200"/>
<path d="M18.6324 6.64898L18.8787 8.65026L17.6062 8.89532L17.3188 6.89404L18.6324 6.64898Z" fill="#FFE100"/>
<path d="M17.3192 6.89405L17.6476 8.89532L16.9908 8.89532L16.7034 6.93488L17.3602 6.93488" fill="#FFE000"/>
<path d="M18.3873 1.42017L16.6632 7.21976C15.5218 7.45979 14.3974 7.77359 13.2971 8.15915L15.0212 2.35954C16.1215 1.97399 17.2459 1.6602 18.3873 1.42017Z" fill="#D38500"/>
<path d="M15.0199 2.19712L13.2958 7.99673C11.3179 8.62858 9.42829 9.50685 7.67196 10.6106L9.43712 4.81104C11.1935 3.70726 13.0831 2.82897 15.061 2.19712" fill="#C97D00"/>
<path d="M9.43736 4.81166L7.71326 10.6112C6.58971 11.3324 5.54419 12.1673 4.59343 13.1026L6.31754 7.26218C7.28014 6.35234 8.32445 5.53208 9.43736 4.81166Z" fill="#C56C00"/>
<path d="M6.27602 7.26258L4.55189 13.103C3.75306 13.8592 3.05003 14.7096 2.45835 15.6353L4.18245 9.83565C4.78376 8.90446 5.48581 8.04162 6.27602 7.26258Z" fill="#C06300"/>
<path d="M4.18312 9.83397L2.45902 15.6336C1.88554 16.4954 1.42998 17.4293 1.10436 18.4108L2.82846 12.6112C3.15408 11.6297 3.60964 10.6958 4.18312 9.83397Z" fill="#B55C00"/>
<path d="M2.82885 12.6128L1.22791 18.4124L0.981619 19.0658L2.70571 13.2662L2.952 12.6128" fill="#AF4D00"/>
<path d="M76.9244 35.1986L75.1182 40.9982C76.7192 35.607 74.8309 29.1539 69.0428 22.9459C67.0282 20.8068 64.8 18.8773 62.3927 17.1871L64.1168 11.3875C66.5241 13.0777 68.7523 15.0072 70.7669 17.1463C76.555 23.3543 78.4843 29.8074 76.8834 35.1986" fill="#9B3800"/>
<path d="M64.1579 11.3852L62.4338 17.1848C60.7576 16.0012 59.0172 14.9104 57.2204 13.9175L58.9445 8.11785C60.7469 9.10141 62.4879 10.1925 64.1579 11.3852Z" fill="#A34300"/>
<path d="M58.9437 8.11933L57.2196 13.9189C55.6597 13.0613 54.0177 12.2444 52.3757 11.5092L54.0998 5.50542C55.7418 6.24059 57.3838 7.05743 58.9437 7.91512" fill="#AF4D00"/>
<path d="M54.1003 5.50659L52.3762 11.3062C50.7752 10.6119 49.1332 9.9584 47.4502 9.38661L49.1743 3.587C50.8573 4.15879 52.4994 4.81227 54.1003 5.50659Z" fill="#B55C00"/>
<path d="M49.174 3.79114L47.4499 9.59073C45.7668 9.01894 44.0017 8.48798 42.2365 8.03872L44.0016 2.23913C45.7258 2.68839 47.4909 3.21935 49.174 3.79114Z" fill="#C06300"/>
<path d="M44.0015 2.23715L42.2774 8.03674C40.3304 7.51317 38.3573 7.09057 36.3662 6.77064L38.1724 0.971028C40.1428 1.29777 42.2774 1.7062 44.1247 2.23715" fill="#C56C00"/>
<path d="M38.1727 0.972123L36.4486 6.77173C33.7347 6.31291 30.9906 6.05354 28.2385 5.99572L29.9626 0.196125C32.7147 0.253946 35.4588 0.513309 38.1727 0.972123Z" fill="#C97D00"/>
<path d="M29.9625 0.195775L28.2384 5.99537C24.3773 5.8631 20.5149 6.21994 16.7443 7.05728L18.3863 1.42104C22.1537 0.563636 26.0187 0.20657 29.8804 0.359148" fill="#D38500"/>
<path d="M18.3867 1.42069C27.7646 -0.231701 37.4024 0.346306 46.513 3.10751C55.6235 5.86871 63.9484 10.7348 70.8078 17.3084C72.0831 18.6768 73.2368 20.1527 74.256 21.7193L73.5171 20.5757C72.5394 19.114 71.4262 17.7466 70.192 16.4915C63.5543 10.1261 55.4975 5.41296 46.6795 2.73695C37.8615 0.0609385 28.5324 -0.50206 19.454 1.09395C17.4385 1.44284 15.4597 1.97607 13.5428 2.68681L12.2702 3.2586C14.2389 2.43488 16.2889 1.81887 18.3867 1.42069Z" fill="#9B3800"/>
<path d="M28.6887 44.7544L29.0992 43.6925L30.8644 39.6899L30.4539 40.7519L28.6887 44.7544Z" fill="#B65F00"/>
<path d="M21.5876 34.5864L22.0392 33.5654L26.9652 30.6656L26.5547 31.6866L21.5876 34.5864Z" fill="#D68B00"/>
<path d="M26.5132 31.6857L26.9237 30.6647L28.4426 32.0125L28.0321 33.0335L26.5132 31.6857Z" fill="#A64900"/>
<path d="M28.0311 33.0341L28.4416 32.013C29.4268 32.8299 30.4941 33.6059 31.6024 34.3819L32.3414 34.872L31.9308 35.9339L31.1919 35.4438C30.0836 34.6678 29.0163 33.8509 28.0311 33.0341Z" fill="#AC5200"/>
<path d="M31.9326 35.9334L32.3431 34.8714C33.1641 35.4024 33.944 35.8925 34.6419 36.2601L34.2314 37.322L31.9326 35.9334Z" fill="#B25900"/>
<path d="M34.066 37.3231L34.4765 36.2612L35.8311 36.9147L35.4206 37.9357L34.066 37.3231Z" fill="#B96300"/>
<path d="M35.5856 37.934L35.9961 36.9129L36.8582 37.1988L36.4477 38.2607L35.5856 37.934Z" fill="#BF6900"/>
<path d="M36.571 38.1789L36.9815 37.117L37.7204 37.117L37.3099 38.1789L36.571 38.1789Z" fill="#C47300"/>
<path d="M37.3089 38.5059L37.7194 37.444L38.4172 37.444L37.9657 38.465L37.3089 38.465" fill="#CA7900"/>
<path d="M37.9657 38.5879L38.4172 37.5668L38.6635 37.5668C38.9076 37.6132 39.1583 37.6132 39.4024 37.5668L38.9919 38.5879C38.7501 38.6539 38.4948 38.6539 38.253 38.5879L37.9657 38.5879Z" fill="#CF8200"/>
<path d="M38.9925 38.4647L39.403 37.4437L39.6493 37.4437L39.2388 38.4647C39.2003 38.4829 39.1582 38.4923 39.1156 38.4923C39.073 38.4923 39.031 38.4829 38.9925 38.4647Z" fill="#CA7900"/>
<path d="M39.2388 38.1786L39.6493 37.1576L39.2388 38.2195" fill="#C47300"/>
<path d="M39.4027 38.1789L39.8132 37.117L39.4027 38.1789Z" fill="#BF6900"/>
<path d="M39.5262 38.1789L39.9367 37.117L39.5262 38.1789Z" fill="#B96300"/>
<path d="M35.6689 25.6421L36.0794 24.621C36.0018 24.8573 35.9875 25.1097 36.0379 25.3533C36.0883 25.5968 36.2016 25.823 36.3668 26.0096C36.6653 26.4029 37.0098 26.7593 37.393 27.0715L36.9825 28.1334C36.609 27.8109 36.2655 27.4555 35.9563 27.0715C35.7876 26.8787 35.6724 26.6454 35.622 26.3947C35.5716 26.144 35.5878 25.8846 35.6689 25.6421Z" fill="#A64900"/>
<path d="M36.9829 28.1315L37.3934 27.0696L38.1734 27.5597L39.6922 28.5807L39.2817 29.6426L37.7629 28.5807L37.1471 28.1315" fill="#AC5200"/>
<path d="M39.1173 29.6451L39.5278 28.5832L41.0877 29.5635L42.0729 30.0127L41.6624 31.0338L40.6772 30.4211L39.1173 29.4409" fill="#B25900"/>
<path d="M41.6629 31.237L42.0734 30.216C43.5786 31.1962 44.8512 32.0947 45.8911 32.9116C46.0185 32.9843 46.1301 33.0814 46.2195 33.1975L45.809 34.2185L45.4806 33.9326C44.4406 33.1702 43.1681 32.2717 41.6629 31.237Z" fill="#AC5200"/>
<path d="M45.808 34.0965L46.2185 33.0754C47.219 33.903 48.0665 34.8982 48.7226 36.0161C48.9916 36.5701 49.1313 37.1774 49.1313 37.7927C49.1313 38.408 48.9916 39.0153 48.7226 39.5694L48.3121 40.6313C48.5496 40.062 48.6545 39.4466 48.6189 38.8312C48.5834 38.2158 48.4083 37.6165 48.1068 37.078C47.4628 35.9399 46.614 34.9293 45.6028 34.0965" fill="#A64900"/>
<path d="M45.4794 22.7409L45.8899 21.679C46.9983 22.2508 48.0245 22.9043 49.0508 23.5578L48.6403 24.5788C47.614 23.9253 46.5877 23.3127 45.4794 22.7409Z" fill="#B25900"/>
<path d="M48.6404 24.5802L49.0509 23.5591C49.9046 24.0977 50.7269 24.684 51.5139 25.3153L52.4991 25.928L52.0886 26.9899L51.1034 26.173C50.3234 25.5604 49.5024 24.9886 48.6404 24.4168" fill="#AC5200"/>
<path d="M52.0884 27.1527L52.4989 26.0908C53.6962 27.1027 54.7957 28.224 55.7829 29.4399L55.3724 30.4609C54.3948 29.2489 53.2943 28.1403 52.0884 27.1527Z" fill="#A64900"/>
<path d="M26.8826 22.5792L27.2931 21.5173C27.283 21.4496 27.283 21.3808 27.2931 21.3131L27.5394 20.7822L27.1289 21.8441L26.8826 22.375" fill="#B96300"/>
<path d="M27.21 21.843L27.6205 20.7812C27.7785 20.5118 27.9717 20.2646 28.1952 20.046L27.7847 21.0671C27.5704 21.3083 27.3781 21.5679 27.21 21.843Z" fill="#BF6900"/>
<path d="M27.7856 21.07L28.1961 20.049C28.4083 19.8106 28.6419 19.5919 28.8939 19.3955L28.4834 20.4166C28.2314 20.613 27.9978 20.8317 27.7856 21.07Z" fill="#C47300"/>
<path d="M28.4841 20.415L28.8946 19.394C29.2353 19.1419 29.6079 18.9359 30.003 18.7813L29.5925 19.8024L28.4841 20.415Z" fill="#CA7900"/>
<path d="M29.5915 19.8033L30.002 18.7823C30.6168 18.5235 31.2672 18.3583 31.9314 18.2922C32.9001 18.1885 33.8772 18.1885 34.8459 18.2922L34.4355 19.3132C33.4657 19.2298 32.4906 19.2298 31.5209 19.3132C30.8642 19.4182 30.2184 19.5823 29.5915 19.8033Z" fill="#CF8200"/>
<path d="M34.4361 19.2302L34.8466 18.2092C35.7729 18.271 36.6928 18.4076 37.5969 18.6176L37.1864 19.6386C36.2785 19.4487 35.3601 19.3123 34.4361 19.2302Z" fill="#CA7900"/>
<path d="M37.1863 19.6394L37.5968 18.6184L39.9367 19.231L39.5262 20.252L37.1863 19.6394Z" fill="#C47300"/>
<path d="M39.5268 20.2497L39.9784 19.2286L41.8256 14.981L41.4151 16.0429L39.5268 20.2497Z" fill="#B65F00"/>
<path d="M28.6898 44.7549L30.4549 40.6706C28.7485 39.8166 27.1027 38.8478 25.5289 37.7708C24.0665 36.8041 22.6928 35.7107 21.4239 34.5034L26.3499 31.6036C27.8127 32.9714 29.377 34.2274 31.0296 35.3611C32.4438 36.3566 33.9569 37.2051 35.5452 37.8934C36.3465 38.2633 37.209 38.4848 38.0903 38.5468C38.7881 38.5468 39.2397 38.3018 39.4039 37.8525C39.4992 37.6148 39.5267 37.3555 39.4832 37.1032C39.4397 36.851 39.3271 36.6156 39.1576 36.423C38.7083 35.8637 38.1833 35.3689 37.5977 34.9527C36.9409 34.4626 35.9146 33.7683 34.601 32.9106C32.5896 31.6036 30.9475 30.4601 29.716 29.4798C28.5432 28.5766 27.5776 27.4349 26.8836 26.1308C26.5673 25.5399 26.4019 24.8807 26.4019 24.2112C26.4019 23.5417 26.5673 22.8825 26.8836 22.2916C27.2921 21.4176 27.932 20.6707 28.7347 20.1311C29.5375 19.5915 30.4727 19.2794 31.4401 19.2284C34.1451 18.9773 36.8729 19.2975 39.4449 20.1678L41.3332 16.0836L47.2855 18.5341L45.3972 22.6183C47.3669 23.6623 49.2478 24.8643 51.0211 26.2125C52.5396 27.4158 53.9167 28.7858 55.1261 30.2967L50.4874 33.2373C49.1381 31.5509 47.5794 30.0414 45.8488 28.7447C44.1982 27.4507 42.3917 26.3668 40.4712 25.5182C39.4991 25.087 38.4554 24.8378 37.3924 24.783C37.0676 24.7352 36.7358 24.7879 36.442 24.934C36.1483 25.0801 35.9069 25.3125 35.7504 25.5998C35.6615 25.848 35.6412 26.1155 35.6918 26.3741C35.7424 26.6328 35.8618 26.8732 36.0378 27.0701C36.5053 27.6534 37.0589 28.1629 37.6798 28.5813C38.4187 29.1123 39.4039 29.7657 40.7585 30.6234C42.729 31.8487 44.3299 32.9923 45.5614 33.9317C46.7119 34.8254 47.6743 35.9356 48.3939 37.199C48.6962 37.7796 48.854 38.4239 48.854 39.0778C48.854 39.7317 48.6962 40.376 48.3939 40.9565C48.0222 41.7607 47.4498 42.4568 46.7313 42.9787C46.0127 43.5006 45.1719 43.8308 44.2889 43.938C41.6906 44.2718 39.05 44.0062 36.5714 43.162L34.7652 47.2462L28.6898 44.7549Z" fill="#FDD400"/>
<path d="M41.4153 16.0418L41.8258 14.9799L47.7781 17.4304L47.3676 18.4923L41.4153 16.0418Z" fill="#CD7D00"/>
<g style="mix-blend-mode:screen">
<path style="mix-blend-mode:screen" d="M28.6897 44.7549L30.4548 40.6706C28.7485 39.8166 27.1026 38.8478 25.5288 37.7708C24.0664 36.8041 22.6927 35.7107 21.4238 34.5034L26.3498 31.6036C27.8126 32.9714 29.3769 34.2274 31.0295 35.3611C32.4437 36.3566 33.9568 37.2051 35.5451 37.8934C36.3465 38.2633 37.2089 38.4848 38.0902 38.5468C38.788 38.5468 39.2396 38.3018 39.4038 37.8525C39.4991 37.6148 39.5266 37.3555 39.4831 37.1032C39.4396 36.851 39.327 36.6156 39.1575 36.423C38.7082 35.8637 38.1832 35.3689 37.5976 34.9527C36.9408 34.4626 35.9145 33.7683 34.6009 32.9106C32.5895 31.6036 30.9474 30.4601 29.7159 29.4798C28.5431 28.5766 27.5775 27.4349 26.8835 26.1308C26.5672 25.5399 26.4018 24.8807 26.4018 24.2112C26.4018 23.5417 26.5672 22.8825 26.8835 22.2916C27.292 21.4176 27.9319 20.6707 28.7347 20.1311C29.5374 19.5915 30.4726 19.2794 31.4401 19.2284C34.145 18.9773 36.8728 19.2975 39.4448 20.1678L41.3331 16.0836L47.2854 18.5341L45.3971 22.6183C47.3668 23.6623 49.2477 24.8643 51.021 26.2125C52.5395 27.4158 53.9166 28.7858 55.126 30.2967L50.4873 33.2373C49.138 31.5509 47.5793 30.0414 45.8487 28.7447C44.1981 27.4507 42.3916 26.3668 40.4711 25.5182C39.499 25.087 38.4553 24.8378 37.3923 24.783C37.0675 24.7352 36.7357 24.7879 36.4419 24.934C36.1482 25.0801 35.9068 25.3125 35.7503 25.5998C35.6614 25.848 35.6412 26.1155 35.6917 26.3741C35.7423 26.6328 35.8617 26.8732 36.0377 27.0701C36.5052 27.6534 37.0588 28.1629 37.6797 28.5813C38.4186 29.1123 39.4038 29.7657 40.7584 30.6234C42.7289 31.8487 44.3298 32.9923 45.5613 33.9317C46.7118 34.8254 47.6742 35.9356 48.3938 37.199C48.6961 37.7796 48.8539 38.4239 48.8539 39.0778C48.8539 39.7317 48.6961 40.376 48.3938 40.9565C48.0221 41.7607 47.4497 42.4568 46.7312 42.9787C46.0126 43.5006 45.1718 43.8308 44.2888 43.938C41.6905 44.2718 39.0499 44.0062 36.5713 43.162L34.7651 47.2462L28.6897 44.7549Z" fill="url(#paint2_linear_47_1790)"/>
</g>
<defs>
<linearGradient id="paint0_linear_47_1790" x1="23389.9" y1="-26639.4" x2="22901.3" y2="-26783.5" gradientUnits="userSpaceOnUse">
<stop stop-color="#C9C7C7"/>
<stop offset="0.06" stop-color="#E4E3E3"/>
<stop offset="0.11" stop-color="white"/>
<stop offset="0.12" stop-color="#F6F5F5"/>
<stop offset="0.15" stop-color="#DDDCDB"/>
<stop offset="0.19" stop-color="#B4B2B0"/>
<stop offset="0.23" stop-color="#7C7876"/>
<stop offset="0.25" stop-color="#6B6764"/>
<stop offset="0.27" stop-color="#6D6967"/>
<stop offset="0.28" stop-color="#75726F"/>
<stop offset="0.29" stop-color="#837F7D"/>
<stop offset="0.3" stop-color="#969391"/>
<stop offset="0.31" stop-color="#C9C7C7"/>
<stop offset="0.35" stop-color="#BFBDBD"/>
<stop offset="0.41" stop-color="#A5A3A3"/>
<stop offset="0.48" stop-color="#7A7878"/>
<stop offset="0.57" stop-color="#403E3E"/>
<stop offset="0.65" stop-color="#020000"/>
<stop offset="0.67" stop-color="#0C0908"/>
<stop offset="0.71" stop-color="#26221F"/>
<stop offset="0.74" stop-color="#3B3732"/>
<stop offset="0.75" stop-color="#211F1C"/>
<stop offset="0.76" stop-color="#0F0E0D"/>
<stop offset="0.77" stop-color="#040303"/>
<stop offset="0.78" stop-color="#0F0F0F"/>
<stop offset="0.8" stop-color="#464646"/>
<stop offset="0.81" stop-color="#787878"/>
<stop offset="0.82" stop-color="#A1A1A1"/>
<stop offset="0.83" stop-color="#C3C3C3"/>
<stop offset="0.84" stop-color="#DEDEDE"/>
<stop offset="0.86" stop-color="#F0F0F0"/>
<stop offset="0.87" stop-color="#FBFBFB"/>
<stop offset="0.88" stop-color="white"/>
<stop offset="0.89" stop-color="#EFEFEF"/>
<stop offset="0.91" stop-color="#CFCFCE"/>
<stop offset="0.93" stop-color="#B5B5B3"/>
<stop offset="0.95" stop-color="#A3A3A1"/>
<stop offset="0.98" stop-color="#989896"/>
<stop offset="1" stop-color="#949492"/>
</linearGradient>
<linearGradient id="paint1_linear_47_1790" x1="39293" y1="-13912.4" x2="38013.9" y2="-14289.8" gradientUnits="userSpaceOnUse">
<stop stop-color="#C9C7C7"/>
<stop offset="0.06" stop-color="#E4E3E3"/>
<stop offset="0.11" stop-color="white"/>
<stop offset="0.12" stop-color="#F6F5F5"/>
<stop offset="0.15" stop-color="#DDDCDB"/>
<stop offset="0.19" stop-color="#B4B2B0"/>
<stop offset="0.23" stop-color="#7C7876"/>
<stop offset="0.25" stop-color="#6B6764"/>
<stop offset="0.27" stop-color="#6D6967"/>
<stop offset="0.28" stop-color="#75726F"/>
<stop offset="0.29" stop-color="#837F7D"/>
<stop offset="0.3" stop-color="#969391"/>
<stop offset="0.31" stop-color="#C9C7C7"/>
<stop offset="0.35" stop-color="#BFBDBD"/>
<stop offset="0.41" stop-color="#A5A3A3"/>
<stop offset="0.48" stop-color="#7A7878"/>
<stop offset="0.57" stop-color="#403E3E"/>
<stop offset="0.65" stop-color="#020000"/>
<stop offset="0.67" stop-color="#0C0908"/>
<stop offset="0.71" stop-color="#26221F"/>
<stop offset="0.74" stop-color="#3B3732"/>
<stop offset="0.75" stop-color="#211F1C"/>
<stop offset="0.76" stop-color="#0F0E0D"/>
<stop offset="0.77" stop-color="#040303"/>
<stop offset="0.78" stop-color="#0F0F0F"/>
<stop offset="0.8" stop-color="#464646"/>
<stop offset="0.81" stop-color="#787878"/>
<stop offset="0.82" stop-color="#A1A1A1"/>
<stop offset="0.83" stop-color="#C3C3C3"/>
<stop offset="0.84" stop-color="#DEDEDE"/>
<stop offset="0.86" stop-color="#F0F0F0"/>
<stop offset="0.87" stop-color="#FBFBFB"/>
<stop offset="0.88" stop-color="white"/>
<stop offset="0.89" stop-color="#EFEFEF"/>
<stop offset="0.91" stop-color="#CFCFCE"/>
<stop offset="0.93" stop-color="#B5B5B3"/>
<stop offset="0.95" stop-color="#A3A3A1"/>
<stop offset="0.98" stop-color="#989896"/>
<stop offset="1" stop-color="#949492"/>
</linearGradient>
<linearGradient id="paint2_linear_47_1790" x1="18111.8" y1="-11054.9" x2="17865.9" y2="-11127.5" gradientUnits="userSpaceOnUse">
<stop stop-color="#C9C7C7"/>
<stop offset="0.06" stop-color="#E4E3E3"/>
<stop offset="0.11" stop-color="white"/>
<stop offset="0.12" stop-color="#F6F5F5"/>
<stop offset="0.15" stop-color="#DDDCDB"/>
<stop offset="0.19" stop-color="#B4B2B0"/>
<stop offset="0.23" stop-color="#7C7876"/>
<stop offset="0.25" stop-color="#6B6764"/>
<stop offset="0.27" stop-color="#6D6967"/>
<stop offset="0.28" stop-color="#75726F"/>
<stop offset="0.29" stop-color="#837F7D"/>
<stop offset="0.3" stop-color="#969391"/>
<stop offset="0.31" stop-color="#C9C7C7"/>
<stop offset="0.35" stop-color="#BFBDBD"/>
<stop offset="0.41" stop-color="#A5A3A3"/>
<stop offset="0.48" stop-color="#7A7878"/>
<stop offset="0.57" stop-color="#403E3E"/>
<stop offset="0.65" stop-color="#020000"/>
<stop offset="0.67" stop-color="#0C0908"/>
<stop offset="0.71" stop-color="#26221F"/>
<stop offset="0.74" stop-color="#3B3732"/>
<stop offset="0.75" stop-color="#211F1C"/>
<stop offset="0.76" stop-color="#0F0E0D"/>
<stop offset="0.77" stop-color="#040303"/>
<stop offset="0.78" stop-color="#0F0F0F"/>
<stop offset="0.8" stop-color="#464646"/>
<stop offset="0.81" stop-color="#787878"/>
<stop offset="0.82" stop-color="#A1A1A1"/>
<stop offset="0.83" stop-color="#C3C3C3"/>
<stop offset="0.84" stop-color="#DEDEDE"/>
<stop offset="0.86" stop-color="#F0F0F0"/>
<stop offset="0.87" stop-color="#FBFBFB"/>
<stop offset="0.88" stop-color="white"/>
<stop offset="0.89" stop-color="#EFEFEF"/>
<stop offset="0.91" stop-color="#CFCFCE"/>
<stop offset="0.93" stop-color="#B5B5B3"/>
<stop offset="0.95" stop-color="#A3A3A1"/>
<stop offset="0.98" stop-color="#989896"/>
<stop offset="1" stop-color="#949492"/>
</linearGradient>
<radialGradient id="paint3_radial_47_1790" cx="0" cy="0" r="1" gradientUnits="userSpaceOnUse" gradientTransform="translate(-2450.65 -1788.81) rotate(-180) scale(263.014 261.682)">
<stop offset="0.01" stop-color="#FFEBE2"/>
<stop offset="0.06" stop-color="#FFEB64"/>
<stop offset="0.07" stop-color="#F5E260"/>
<stop offset="0.15" stop-color="#C3B34C"/>
<stop offset="0.22" stop-color="#94893A"/>
<stop offset="0.3" stop-color="#6C642A"/>
<stop offset="0.39" stop-color="#4B451D"/>
<stop offset="0.47" stop-color="#2F2C13"/>
<stop offset="0.57" stop-color="#1A180A"/>
<stop offset="0.68" stop-color="#0B0B04"/>
<stop offset="0.81" stop-color="#030201"/>
<stop offset="1"/>
</radialGradient>
</defs>
</svg>
