<svg width="88" height="86" viewBox="0 0 88 86" fill="none" xmlns="http://www.w3.org/2000/svg">
<path d="M21.5914 56.3325C21.9198 40.1998 35.138 21.9024 51.1065 15.4902C67.075 9.07796 79.8416 17.0013 79.4311 33.1749C79.0206 49.3484 65.9256 67.5641 49.9571 74.0172C33.9885 80.4703 21.263 72.4652 21.5914 56.3325Z" fill="#DD8F00"/>
<path style="mix-blend-mode:screen" d="M21.5904 56.3325C21.9188 40.1998 35.137 21.9024 51.1055 15.4902C67.074 9.07796 79.8406 17.0013 79.4301 33.1749C79.0196 49.3484 65.9246 67.5641 49.9561 74.0172C33.9876 80.4703 21.262 72.4652 21.5904 56.3325Z" fill="url(#paint0_linear_47_1691)"/>
<path d="M15.5564 60.0901C15.9669 39.9548 32.4281 17.124 52.5016 9.15979C72.5752 1.19554 88.2563 10.9977 87.8458 31.1738C87.4353 51.3499 70.9742 74.1399 50.9007 82.1041C30.8271 90.0683 15.1459 80.2253 15.5564 60.0901ZM22.7402 57.2311C22.4118 73.568 35.0553 81.2464 51.0649 74.875C67.0744 68.5036 80.2516 50.3696 80.58 34.0327C80.9084 17.6958 68.2649 10.0175 52.2143 16.3889C36.1636 22.7602 23.0686 40.8942 22.7402 57.2311Z" fill="#DD8F00"/>
<path style="mix-blend-mode:screen" d="M15.5563 60.0903C15.9668 39.955 32.428 17.1242 52.5015 9.15997C72.575 1.19572 88.2562 10.9979 87.8457 31.174C87.4352 51.35 70.9741 74.14 50.9005 82.1043C30.827 90.0685 15.1458 80.2255 15.5563 60.0903ZM22.7401 57.2313C22.4117 73.5682 35.0552 81.2466 51.0647 74.8752C67.0743 68.5038 80.2514 50.3698 80.5798 34.0329C80.9082 17.696 68.2648 10.0176 52.2141 16.389C36.1635 22.7604 23.0685 40.8944 22.7401 57.2313Z" fill="url(#paint1_linear_47_1691)"/>
<path d="M49.1778 1.80744L50.4504 1.43987C49.0541 1.84909 47.6834 2.34006 46.3454 2.9102C34.5002 8.00516 24.4825 16.5482 17.6102 27.4155L17.6102 26.9254C24.1753 16.4629 33.7409 8.19764 45.0728 3.19606C46.4685 2.66511 47.8232 2.17502 49.1778 1.80744Z" fill="#B45500"/>
<path d="M17.1586 27.0489L17.1586 27.539C11.935 35.4985 8.82765 44.6469 8.12759 54.1273L8.12759 52.7795C8.90015 43.5803 12.0076 34.7269 17.1586 27.0489Z" fill="#C36E00"/>
<path d="M29.3509 73.2831L28.2015 72.3846C33.3738 76.4688 41.1733 77.2857 49.9581 73.7732C51.2101 73.2766 52.4302 72.7037 53.6115 72.0579L54.7609 72.9564C53.5294 73.5826 52.2979 74.1544 51.0664 74.6717C42.2817 78.1842 34.6463 77.3673 29.3509 73.2831Z" fill="#B45500"/>
<path d="M54.7601 73.2839L53.6107 72.3854C55.2588 71.5213 56.8493 70.5527 58.3725 69.4856L59.4809 70.3432C57.976 71.4287 56.3988 72.4112 54.7601 73.2839Z" fill="#C36E00"/>
<path d="M59.481 70.2208L58.3726 69.3631C59.6862 68.4237 60.9588 67.4435 62.1903 66.3816L63.2986 67.2801C62.0671 68.3012 60.7946 69.3222 59.481 70.2208Z" fill="#CF8400"/>
<path d="M63.2989 67.28L62.1905 66.3815C63.3399 65.3604 64.4893 64.2985 65.5566 63.155L66.706 64.0535C65.5976 65.1971 64.4893 66.259 63.2989 67.28Z" fill="#DD9200"/>
<path d="M66.7056 64.052L65.5562 63.1535C66.6646 62.0099 67.7319 60.8255 68.7171 59.6002L69.8665 60.4987C68.8403 61.724 67.814 62.9084 66.7056 64.052Z" fill="#E8A600"/>
<path d="M69.7022 60.4987L68.5528 59.6001C69.6614 58.292 70.7027 56.9289 71.6726 55.5159L72.7809 56.3736C71.8242 57.7855 70.7967 59.1487 69.7022 60.4578" fill="#F1B700"/>
<path d="M72.9458 56.2508L71.8374 55.3931C73.0573 53.5469 74.1543 51.6232 75.1215 49.6343L76.2298 50.5329C75.2713 52.5131 74.1739 54.4238 72.9458 56.2508Z" fill="#F9C900"/>
<path d="M76.229 50.5344L75.1207 49.6359C77.7211 44.5618 79.1913 38.9896 79.431 33.299L79.431 32.0329L80.5804 32.8906L80.5804 34.1567C80.3203 39.8492 78.8364 45.42 76.229 50.4936" fill="#FFD400"/>
<path d="M80.5804 32.7689L79.431 31.9112C79.4098 30.1361 79.1895 28.369 78.7742 26.6425L79.8825 27.5002C80.312 29.225 80.5461 30.9922 80.5804 32.7689Z" fill="#F9C900"/>
<path d="M79.8826 27.4984L78.7743 26.6407C78.4953 25.4203 78.0966 24.2302 77.5838 23.0874L78.6922 23.9451C79.205 25.0879 79.6037 26.278 79.8826 27.4984Z" fill="#F1B700"/>
<path d="M78.6924 23.9442L77.5841 23.0865C77.1334 22.0898 76.5978 21.1333 75.9831 20.2275L77.0915 21.1261C77.7212 22.0082 78.2577 22.9525 78.6924 23.9442Z" fill="#E8A600"/>
<path d="M77.0915 21.1279L75.9831 20.2293C75.3664 19.3716 74.6799 18.5656 73.9306 17.8196L75.039 18.7181C75.7979 19.4552 76.4852 20.2621 77.0915 21.1279Z" fill="#DD9200"/>
<path d="M75.0388 18.717L73.9304 17.8184L72.822 16.879L73.9714 17.7776L75.0388 18.717Z" fill="#CF8400"/>
<path d="M13.217 59.6816L15.5568 60.09L15.5568 61.0294L13.217 60.6618L13.217 59.7633" fill="#FFEE00"/>
<path d="M13.2175 60.5813L15.5573 60.9489C15.5556 62.3141 15.6379 63.678 15.8036 65.0331L13.5048 64.7881C13.311 63.4352 13.215 62.0703 13.2175 60.7038" fill="#FFE900"/>
<path d="M13.5052 64.8281L15.804 65.0731C16.0068 66.7192 16.3501 68.3452 16.8303 69.9333L14.5725 69.9333C14.0549 68.2969 13.6975 66.6146 13.5052 64.9097" fill="#FFE100"/>
<path d="M14.5727 69.8518L16.8305 69.8518C17.3055 71.259 17.8959 72.625 18.5956 73.9361L16.3379 73.9361C15.5859 72.6453 14.9801 71.2755 14.5316 69.8518" fill="#FFD400"/>
<path d="M16.3375 74.1414L18.5542 74.1414C19.1673 75.3353 19.9107 76.4584 20.7709 77.4904L18.5953 77.4904C17.7394 76.403 16.9838 75.2412 16.3375 74.0189" fill="#F9C900"/>
<path d="M18.6361 77.6132L20.8118 77.6132C21.592 78.5869 22.4726 79.4766 23.439 80.268L21.3865 80.513C20.3993 79.6737 19.4797 78.7587 18.6361 77.7766" fill="#F1B700"/>
<path d="M21.3857 80.3481L23.4382 80.103C24.4233 80.907 25.4815 81.6181 26.5991 82.2269L24.6697 82.5536C23.4957 81.9428 22.3941 81.203 21.3857 80.3481Z" fill="#E8A600"/>
<path d="M24.5473 82.5529L26.4766 82.2262C27.6789 82.8813 28.9441 83.4149 30.2532 83.8191L28.447 84.2275C27.0219 83.8185 25.6455 83.257 24.342 82.5529" fill="#DD9200"/>
<path d="M28.6517 84.2278L30.4579 83.8194C31.9779 84.3043 33.5475 84.6193 35.1376 84.7587L33.4956 85.1672C31.8541 85.0117 30.2317 84.6971 28.6517 84.2278Z" fill="#CF8400"/>
<path d="M33.4142 85.168L35.0562 84.7596C37.1838 85.0029 39.3324 85.0029 41.46 84.7596L40.0232 85.168C37.827 85.4108 35.6105 85.4108 33.4142 85.168Z" fill="#C36E00"/>
<path d="M40.0234 85.0457L41.4602 84.6372C43.2669 84.4189 45.052 84.05 46.7967 83.5345L45.5241 83.902C43.7238 84.4271 41.8844 84.8095 40.0234 85.0457Z" fill="#B45500"/>
<path d="M87.7635 31.215L87.7635 32.522C87.7635 32.0727 87.7635 31.6235 87.7635 31.1742C88.133 13.7754 76.3926 4.05492 60.342 6.66882L59.48 4.50418C75.9 1.60438 88.2151 11.6516 87.8456 29.6222C87.8456 30.1123 87.8456 30.5616 87.8456 31.0517" fill="#B45500"/>
<path d="M59.4405 4.66841L60.3026 6.83304C57.9086 7.25808 55.5589 7.90063 53.283 8.75262L52.2157 6.62881C54.5207 5.76993 56.8971 5.11396 59.3174 4.66841" fill="#C36E00"/>
<path d="M52.3389 6.62942L53.283 8.75324L52.2568 9.16169C50.7242 9.76071 49.2054 10.455 47.7002 11.2446L46.4687 9.20251C47.9875 8.4265 49.5885 7.69135 51.1484 7.03787L52.2157 6.62942" fill="#CF8400"/>
<path d="M46.591 9.20071L47.8224 11.2428C46.2215 12.1005 44.6205 13.0399 43.1017 14.061L41.6649 12.1414C43.2522 11.0795 44.8942 10.0992 46.591 9.20071Z" fill="#DD9200"/>
<path d="M41.6652 12.0195L43.102 13.9391C41.7063 14.8784 40.3516 15.8586 38.997 16.9205L37.4371 15.0826C38.7516 13.9921 40.1217 12.9696 41.5421 12.0195" fill="#E8A600"/>
<path d="M37.4784 15.2056L39.0383 17.0435C37.9299 17.9012 36.8216 18.8406 35.7953 19.78L34.1533 18.0646C35.2129 17.0569 36.3227 16.1027 37.4784 15.2056Z" fill="#F1B700"/>
<path d="M34.153 18.064L35.795 19.7794C34.974 20.5146 34.1941 21.2906 33.4141 22.0666L31.69 20.3921C32.4705 19.5747 33.2925 18.7977 34.153 18.064Z" fill="#F9C900"/>
<path d="M31.6891 20.1895L33.4133 21.864L31.6481 23.7019L29.8829 22.1091C30.4576 21.4556 31.0734 20.8021 31.6891 20.1895Z" fill="#FFD400"/>
<path d="M29.8846 22.3124L31.6497 23.9053C31.1571 24.4362 30.6645 24.9671 30.2129 25.5389L28.3657 23.9869C28.8583 23.4151 29.3509 22.8433 29.8846 22.3124Z" fill="#FFE100"/>
<path d="M28.3659 23.9851L30.2132 25.5371L28.9817 27.0074L27.0934 25.4963L28.3659 23.9851Z" fill="#FFE900"/>
<path d="M27.0923 25.4965L28.9807 27.0077L27.9544 28.3146L26.025 26.8443L27.0923 25.4965Z" fill="#FFEE00"/>
<path d="M26.0247 26.8449L27.954 28.3153L26.9688 29.5814L25.0395 28.1519L26.0247 26.8449Z" fill="#FFEE00"/>
<path d="M25.0396 28.1519L26.9689 29.5814L26.1069 30.8067L24.1365 29.4589L25.0396 28.1519Z" fill="#FFEE00"/>
<path d="M24.1367 29.4593L26.1071 30.8071L25.2451 32.0732L23.2336 30.7254C23.5111 30.2872 23.8126 29.8645 24.1367 29.4593Z" fill="#FFF302"/>
<path d="M23.2335 30.7243L25.2449 32.0722C24.9476 32.4785 24.6735 32.9012 24.4239 33.3383L22.3714 32.0313L23.2335 30.7243Z" fill="#FFEE22"/>
<path d="M22.3708 32.031L24.4233 33.3379C24.1065 33.7821 23.8186 34.2459 23.5612 34.7266L21.5087 33.5013L22.3708 32.031Z" fill="#FFEF37"/>
<path d="M21.5096 33.5032L23.5621 34.7284C23.2337 35.2594 22.9053 35.7903 22.6179 36.3213L20.5243 35.1369L21.5096 33.5032Z" fill="#FFF34B"/>
<path d="M20.4428 35.1368L22.5363 36.3212C22.1669 37.0155 21.7563 37.7099 21.4279 38.4042L19.2934 37.2606L20.4428 35.1368Z" fill="#FFF35E"/>
<path d="M19.3746 37.26L21.5092 38.4036C20.4829 40.3813 19.5648 42.4128 18.7588 44.4891L16.5832 43.5497C17.385 41.3989 18.3172 39.2985 19.3746 37.26Z" fill="#FFF36E"/>
<path d="M16.5831 43.5491L18.7587 44.4885C18.4714 45.2237 18.2251 45.9997 17.9788 46.7757L15.721 45.918C15.9653 45.1135 16.253 44.3227 16.5831 43.5491Z" fill="#FFF35E"/>
<path d="M15.7217 45.9196L17.9794 46.7773C17.7331 47.3899 17.5689 48.0025 17.3637 48.656L15.1059 47.88L15.7217 45.9196Z" fill="#FFF34B"/>
<path d="M15.1063 47.8775L17.3641 48.6535C17.3641 49.1844 17.0767 49.7562 16.9125 50.328L14.6548 49.5928C14.6548 49.0211 14.9421 48.4493 15.1063 47.8775Z" fill="#FFEF37"/>
<path d="M14.6536 49.5932L16.9113 50.3283L16.5419 52.0029L14.2431 51.3086C14.2431 50.7368 14.4894 50.165 14.6536 49.5932Z" fill="#FFEE22"/>
<path d="M14.2436 51.3098L16.5424 52.0041L16.173 53.6786L13.9152 53.066C13.9152 52.4942 13.9152 51.8816 14.2436 51.3098Z" fill="#FFF302"/>
<path d="M13.915 52.8615L16.337 53.6783C16.337 54.3318 16.337 55.0261 16.0496 55.6796L13.7508 55.1078C13.7508 54.4543 13.7508 53.76 14.0792 53.0657" fill="#FFEE00"/>
<path d="M13.5854 55.1073L15.8842 55.6791L15.6379 57.9662L13.3391 57.4761C13.3391 56.7001 13.3391 55.9242 13.5854 55.1073Z" fill="#FFEE00"/>
<path d="M13.3395 57.4766L15.6384 57.9667C15.6384 58.661 15.6384 59.3962 15.6384 60.0905L13.2985 59.6821L13.2985 57.4766" fill="#FFEE00"/>
<path d="M74.0544 4.66808L79.3088 8.75232C72.6176 3.44281 62.6014 2.42174 51.2715 6.95524C49.6706 7.60872 48.0696 8.34392 46.5097 9.16076L41.2963 5.07653C42.8271 4.22607 44.4186 3.48888 46.0581 2.87101C57.3469 -1.66249 67.3632 -0.641401 74.0544 4.62726" fill="#B45500"/>
<path d="M41.296 5.11819L46.5093 9.20242C44.3914 10.3227 42.3483 11.5778 40.3929 12.9599L35.1795 8.87567C37.1349 7.49355 39.178 6.23846 41.296 5.11819Z" fill="#C36E00"/>
<path d="M35.1785 8.87542L40.3919 12.9596C38.7089 14.1441 37.0669 15.451 35.4659 16.7988L30.2525 12.7146C31.8119 11.3332 33.4571 10.051 35.1785 8.87542Z" fill="#CF8400"/>
<path d="M30.2527 12.7144L35.4661 16.7986C33.9883 18.1056 32.5105 19.4942 31.1148 20.8829L25.9014 16.7986C27.2817 15.365 28.734 14.0019 30.2527 12.7144Z" fill="#DD9200"/>
<path d="M25.9021 16.8396L31.1154 20.9238C29.6787 22.3941 28.324 23.9461 27.0104 25.5389L21.756 21.4547C23.0696 19.8619 24.4242 18.3507 25.861 16.8804" fill="#E8A600"/>
<path d="M21.7974 21.412L27.0518 25.4963C25.6151 27.2525 24.3014 29.0904 22.9468 30.9283L17.7334 26.844C18.9649 24.9653 20.3196 23.1274 21.8384 21.3712" fill="#F1B700"/>
<path d="M17.8153 26.8867L23.0286 30.9709C21.5118 33.3646 20.141 35.8468 18.9236 38.4042L13.6692 34.3199C14.8787 31.7717 16.2498 29.3026 17.7742 26.9275" fill="#F9C900"/>
<path d="M13.5467 34.2792L18.8011 38.3634C15.4277 44.9613 13.5235 52.2051 13.2183 59.6014L8.0049 55.5172C8.28579 48.1223 10.1766 40.8761 13.5467 34.2792Z" fill="#FFD400"/>
<path d="M8.12716 55.5169L13.3405 59.6011L13.3405 61.2348L8.12716 56.9463L8.12716 55.3127" fill="#FFD400"/>
<path d="M8.12773 56.9457L13.3411 61.0299C13.4052 63.3124 13.694 65.5832 14.2032 67.8098L8.98978 63.7255C8.44362 61.5057 8.1544 59.2309 8.12773 56.9457Z" fill="#F9C900"/>
<path d="M8.86508 63.9704L14.0784 68.0546C14.4493 69.6258 14.9717 71.1576 15.6384 72.6289L10.384 68.5447C9.737 67.0698 9.22854 65.5385 8.86508 63.9704Z" fill="#F1B700"/>
<path d="M10.385 68.5465L15.6394 72.6307C16.1889 73.934 16.8916 75.1678 17.733 76.3065L12.4786 72.2223C11.6844 71.0539 10.9844 69.8248 10.385 68.5465Z" fill="#E8A600"/>
<path d="M12.4785 72.221L17.7329 76.3052C18.4955 77.4297 19.3762 78.4703 20.3602 79.4092L15.1057 75.325C14.1436 74.3805 13.2647 73.3557 12.4785 72.2618" fill="#DD9200"/>
<path d="M15.106 75.2849L20.3605 79.3692C20.812 79.7776 21.2636 80.186 21.7562 80.5536L16.5017 76.4693L15.106 75.2441" fill="#CF8400"/>
<path d="M57.5516 67.6479L56.4022 66.8719L54.1444 61.2765L55.2528 62.0934L57.5516 67.6479Z" fill="#D48800"/>
<path d="M44.333 66.9523L43.2247 66.1355L43.9225 57.8445L45.0309 58.6614L44.333 66.9523Z" fill="#CE7F00"/>
<path d="M45.0725 58.6629L43.9641 57.8869C46.0957 57.3662 48.1716 56.6412 50.1627 55.7223C51.9628 54.9561 53.6591 53.9682 55.2119 52.7817C56.0957 52.119 56.8357 51.2855 57.3875 50.3311L57.3875 50.0452L58.5369 50.8621L58.5369 51.148C57.9682 52.0785 57.2304 52.8956 56.3613 53.5576C54.8007 54.7438 53.1061 55.7444 51.3121 56.5391C49.3222 57.451 47.2457 58.1624 45.1135 58.6629" fill="#B05500"/>
<path d="M58.5789 50.8627L57.4295 50.0458C57.5855 49.8163 57.671 49.5467 57.6758 49.2698L58.8252 50.0458C58.7813 50.3281 58.6984 50.603 58.5789 50.8627Z" fill="#BF6900"/>
<path d="M58.8249 50.0447L57.6755 49.2687C57.7781 48.9221 57.7781 48.5534 57.6755 48.2068C57.5801 47.9228 57.3923 47.6785 57.1418 47.5125L58.2502 48.2884C58.4929 48.4625 58.6786 48.7041 58.7838 48.9828C58.866 49.332 58.866 49.6954 58.7838 50.0447" fill="#CC7D00"/>
<path d="M46.2224 43.3469L45.1141 42.5709C45.3701 42.7371 45.6706 42.8225 45.9761 42.816C46.7999 42.82 47.6138 42.6385 48.3571 42.2851L52.0516 40.488C53.9667 39.4859 55.9406 38.5994 57.9628 37.8332C59.4291 37.2818 61.0192 37.1405 62.5604 37.4248C63.0562 37.5517 63.5277 37.7587 63.9561 38.0375L65.0645 38.8134C64.6468 38.5238 64.1704 38.3287 63.6688 38.2417C62.1298 37.9157 60.5278 38.058 59.0712 38.6501C57.0418 39.3988 55.0667 40.2858 53.1599 41.3048C51.6 42.0808 50.3685 42.6935 49.4654 43.061C48.7316 43.4051 47.936 43.5996 47.1255 43.6328C46.7992 43.6526 46.4772 43.5507 46.2224 43.3469Z" fill="#B05500"/>
<path d="M49.5475 28.7672L48.3981 27.9912C50.498 26.6335 52.742 25.5104 55.0893 24.6421C57.1016 23.8771 59.2197 23.4226 61.37 23.2943L62.4783 24.0703C60.3405 24.193 58.2352 24.6477 56.2387 25.4181C53.8873 26.2769 51.6422 27.4006 49.5475 28.7672Z" fill="#B05500"/>
<path d="M39.2838 52.6183L38.1755 51.8423C37.2677 51.155 36.5826 50.2177 36.205 49.1467C35.5906 47.5612 35.4066 45.8427 35.6714 44.164L36.8208 44.9808C36.5239 46.6418 36.6944 48.3521 37.3134 49.9227C37.691 50.9937 38.3761 51.931 39.2838 52.6183Z" fill="#CC7D00"/>
<path d="M36.8631 44.9803L35.7137 44.1635C35.8972 43.1428 36.1861 42.1436 36.5758 41.1819L36.9452 40.3651L38.0536 41.1819L37.6841 41.958C37.2878 42.9284 37.0121 43.9433 36.8631 44.9803Z" fill="#BF6900"/>
<path d="M38.012 41.181L36.9036 40.3641C38.2882 37.4932 40.179 34.8925 42.4864 32.6858L43.5948 33.5026C41.2692 35.6936 39.3757 38.2977 38.012 41.181Z" fill="#B05500"/>
<path d="M43.6349 33.4637L42.5265 32.6877L40.1045 26.8065L41.254 27.5824L43.6349 33.4637Z" fill="#D48800"/>
<path d="M57.3873 67.6479L55.1296 62.0933C53.3417 63.2884 51.4612 64.34 49.5057 65.2382C47.7946 66.0007 46.0052 66.5759 44.1692 66.9535L44.867 58.7851C46.9992 58.2846 49.0758 57.5732 51.0656 56.6613C52.8597 55.8666 54.5542 54.8659 56.1148 53.6798C56.9839 53.0178 57.7217 52.2006 58.2904 51.2701C58.5004 50.9547 58.6354 50.5958 58.6852 50.2208C58.7349 49.8457 58.6982 49.4643 58.5778 49.1055C58.4798 48.819 58.2904 48.5721 58.0385 48.4026C57.7865 48.233 57.4858 48.15 57.1821 48.1661C56.401 48.1885 55.6328 48.3692 54.9243 48.6971C54.1033 49.0238 52.8718 49.5956 51.2298 50.3716C49.2661 51.3602 47.2519 52.2463 45.1954 53.0263C43.7174 53.5969 42.1008 53.7108 40.5568 53.3531C39.7617 53.1271 39.0366 52.7055 38.4484 52.1274C37.8601 51.5492 37.4276 50.833 37.1907 50.0448C36.6911 48.7311 36.4628 47.3308 36.5192 45.9274C36.5756 44.5239 36.9157 43.1462 37.5191 41.8764C38.9098 38.6877 40.9345 35.8119 43.4713 33.422L41.0904 27.4999L47.0016 22.7622L49.4236 28.6843C51.5183 27.3177 53.7633 26.1941 56.1148 25.3353C58.1113 24.5649 60.2166 24.1102 62.3544 23.9875L61.5334 32.1559C59.1933 32.2145 56.8837 32.699 54.7191 33.5854C52.4796 34.3687 50.3853 35.514 48.5205 36.9753C47.457 37.7721 46.5639 38.7718 45.8933 39.916C45.6385 40.2887 45.476 40.7161 45.4189 41.1633C45.3618 41.6105 45.4119 42.0647 45.5649 42.489C45.6634 42.7864 45.8574 43.0434 46.1169 43.2205C46.3765 43.3976 46.6873 43.485 47.0016 43.4692C47.8121 43.436 48.6077 43.2415 49.3415 42.8974C50.2446 42.5299 51.4761 41.9172 53.036 41.1412C54.9428 40.1222 56.9178 39.2352 58.9472 38.4865C60.4039 37.8944 62.0058 37.7521 63.5449 38.0781C64.3228 38.2803 65.0346 38.6803 65.6103 39.2388C66.186 39.7973 66.606 40.4951 66.8289 41.2638C67.7876 43.6921 67.7876 46.3913 66.8289 48.8196C65.5492 51.9038 63.6332 54.6866 61.205 56.988L63.5038 62.6651L57.3873 67.6479Z" fill="#EEB000"/>
<path d="M41.2549 27.5815L40.1055 26.8056L46.0167 22.027L47.1251 22.803L41.2549 27.5815Z" fill="#A44300"/>
<g style="mix-blend-mode:screen">
<path style="mix-blend-mode:screen" d="M57.3873 67.6479L55.1296 62.0934C53.3417 63.2884 51.4612 64.34 49.5057 65.2382C47.7946 66.0008 46.0052 66.576 44.1692 66.9536L44.867 58.7851C46.9992 58.2847 49.0758 57.5732 51.0656 56.6614C52.8597 55.8666 54.5542 54.866 56.1148 53.6799C56.9839 53.0178 57.7217 52.2007 58.2904 51.2702C58.5004 50.9548 58.6354 50.5959 58.6852 50.2208C58.7349 49.8458 58.6982 49.4644 58.5778 49.1055C58.4798 48.819 58.2904 48.5722 58.0385 48.4026C57.7865 48.2331 57.4858 48.15 57.1821 48.1662C56.401 48.1886 55.6328 48.3693 54.9243 48.6971C54.1033 49.0239 52.8718 49.5956 51.2298 50.3716C49.2661 51.3603 47.2519 52.2464 45.1954 53.0264C43.7174 53.597 42.1008 53.7109 40.5568 53.3531C39.7617 53.1271 39.0366 52.7056 38.4484 52.1274C37.8601 51.5493 37.4276 50.8331 37.1907 50.0449C36.6911 48.7312 36.4628 47.3309 36.5192 45.9274C36.5756 44.524 36.9157 43.1462 37.5191 41.8764C38.9098 38.6878 40.9345 35.812 43.4713 33.4221L41.0904 27.5L47.0016 22.7623L49.4236 28.6844C51.5183 27.3178 53.7633 26.1941 56.1148 25.3353C58.1113 24.565 60.2166 24.1102 62.3544 23.9875L61.5334 32.156C59.1933 32.2146 56.8837 32.699 54.7191 33.5855C52.4796 34.3688 50.3853 35.5141 48.5205 36.9754C47.457 37.7722 46.5639 38.7719 45.8933 39.916C45.6385 40.2888 45.476 40.7162 45.4189 41.1634C45.3618 41.6105 45.4119 42.0648 45.5649 42.4891C45.6634 42.7865 45.8574 43.0435 46.1169 43.2206C46.3765 43.3977 46.6873 43.485 47.0016 43.4693C47.8121 43.436 48.6077 43.2416 49.3415 42.8975C50.2446 42.5299 51.4761 41.9173 53.036 41.1413C54.9428 40.1222 56.9178 39.2352 58.9472 38.4866C60.4039 37.8945 62.0058 37.7522 63.5449 38.0781C64.3228 38.2804 65.0346 38.6804 65.6103 39.2389C66.186 39.7974 66.606 40.4952 66.8289 41.2638C67.7876 43.6921 67.7876 46.3914 66.8289 48.8197C65.5492 51.9039 63.6332 54.6866 61.205 56.9881L63.5038 62.6652L57.3873 67.6479Z" fill="url(#paint2_linear_47_1691)"/>
</g>
<defs>
<linearGradient id="paint0_linear_47_1691" x1="-4015" y1="-7544.64" x2="-4955.73" y2="-7544.64" gradientUnits="userSpaceOnUse">
<stop stop-color="#C9C7C7"/>
<stop offset="0.06" stop-color="#E4E3E3"/>
<stop offset="0.11" stop-color="white"/>
<stop offset="0.12" stop-color="#F6F5F5"/>
<stop offset="0.15" stop-color="#DDDCDB"/>
<stop offset="0.19" stop-color="#B4B2B0"/>
<stop offset="0.23" stop-color="#7C7876"/>
<stop offset="0.25" stop-color="#6B6764"/>
<stop offset="0.27" stop-color="#6D6967"/>
<stop offset="0.28" stop-color="#75726F"/>
<stop offset="0.29" stop-color="#837F7D"/>
<stop offset="0.3" stop-color="#969391"/>
<stop offset="0.31" stop-color="#C9C7C7"/>
<stop offset="0.35" stop-color="#BFBDBD"/>
<stop offset="0.41" stop-color="#A5A3A3"/>
<stop offset="0.48" stop-color="#7A7878"/>
<stop offset="0.57" stop-color="#403E3E"/>
<stop offset="0.65" stop-color="#020000"/>
<stop offset="0.67" stop-color="#0C0908"/>
<stop offset="0.71" stop-color="#26221F"/>
<stop offset="0.74" stop-color="#3B3732"/>
<stop offset="0.75" stop-color="#211F1C"/>
<stop offset="0.76" stop-color="#0F0E0D"/>
<stop offset="0.77" stop-color="#040303"/>
<stop offset="0.78" stop-color="#0F0F0F"/>
<stop offset="0.8" stop-color="#464646"/>
<stop offset="0.81" stop-color="#787878"/>
<stop offset="0.82" stop-color="#A1A1A1"/>
<stop offset="0.83" stop-color="#C3C3C3"/>
<stop offset="0.84" stop-color="#DEDEDE"/>
<stop offset="0.86" stop-color="#F0F0F0"/>
<stop offset="0.87" stop-color="#FBFBFB"/>
<stop offset="0.88" stop-color="white"/>
<stop offset="0.89" stop-color="#EFEFEF"/>
<stop offset="0.91" stop-color="#CFCFCE"/>
<stop offset="0.93" stop-color="#B5B5B3"/>
<stop offset="0.95" stop-color="#A3A3A1"/>
<stop offset="0.98" stop-color="#989896"/>
<stop offset="1" stop-color="#949492"/>
</linearGradient>
<linearGradient id="paint1_linear_47_1691" x1="-4872.28" y1="-9392.41" x2="-6144.13" y2="-9392.41" gradientUnits="userSpaceOnUse">
<stop stop-color="#C9C7C7"/>
<stop offset="0.06" stop-color="#E4E3E3"/>
<stop offset="0.11" stop-color="white"/>
<stop offset="0.12" stop-color="#F6F5F5"/>
<stop offset="0.15" stop-color="#DDDCDB"/>
<stop offset="0.19" stop-color="#B4B2B0"/>
<stop offset="0.23" stop-color="#7C7876"/>
<stop offset="0.25" stop-color="#6B6764"/>
<stop offset="0.27" stop-color="#6D6967"/>
<stop offset="0.28" stop-color="#75726F"/>
<stop offset="0.29" stop-color="#837F7D"/>
<stop offset="0.3" stop-color="#969391"/>
<stop offset="0.31" stop-color="#C9C7C7"/>
<stop offset="0.35" stop-color="#BFBDBD"/>
<stop offset="0.41" stop-color="#A5A3A3"/>
<stop offset="0.48" stop-color="#7A7878"/>
<stop offset="0.57" stop-color="#403E3E"/>
<stop offset="0.65" stop-color="#020000"/>
<stop offset="0.67" stop-color="#0C0908"/>
<stop offset="0.71" stop-color="#26221F"/>
<stop offset="0.74" stop-color="#3B3732"/>
<stop offset="0.75" stop-color="#211F1C"/>
<stop offset="0.76" stop-color="#0F0E0D"/>
<stop offset="0.77" stop-color="#040303"/>
<stop offset="0.78" stop-color="#0F0F0F"/>
<stop offset="0.8" stop-color="#464646"/>
<stop offset="0.81" stop-color="#787878"/>
<stop offset="0.82" stop-color="#A1A1A1"/>
<stop offset="0.83" stop-color="#C3C3C3"/>
<stop offset="0.84" stop-color="#DEDEDE"/>
<stop offset="0.86" stop-color="#F0F0F0"/>
<stop offset="0.87" stop-color="#FBFBFB"/>
<stop offset="0.88" stop-color="white"/>
<stop offset="0.89" stop-color="#EFEFEF"/>
<stop offset="0.91" stop-color="#CFCFCE"/>
<stop offset="0.93" stop-color="#B5B5B3"/>
<stop offset="0.95" stop-color="#A3A3A1"/>
<stop offset="0.98" stop-color="#989896"/>
<stop offset="1" stop-color="#949492"/>
</linearGradient>
<linearGradient id="paint2_linear_47_1691" x1="-2100.08" y1="-5357.69" x2="-2634.85" y2="-5357.69" gradientUnits="userSpaceOnUse">
<stop stop-color="#C9C7C7"/>
<stop offset="0.06" stop-color="#E4E3E3"/>
<stop offset="0.11" stop-color="white"/>
<stop offset="0.12" stop-color="#F6F5F5"/>
<stop offset="0.15" stop-color="#DDDCDB"/>
<stop offset="0.19" stop-color="#B4B2B0"/>
<stop offset="0.23" stop-color="#7C7876"/>
<stop offset="0.25" stop-color="#6B6764"/>
<stop offset="0.27" stop-color="#6D6967"/>
<stop offset="0.28" stop-color="#75726F"/>
<stop offset="0.29" stop-color="#837F7D"/>
<stop offset="0.3" stop-color="#969391"/>
<stop offset="0.31" stop-color="#C9C7C7"/>
<stop offset="0.35" stop-color="#BFBDBD"/>
<stop offset="0.41" stop-color="#A5A3A3"/>
<stop offset="0.48" stop-color="#7A7878"/>
<stop offset="0.57" stop-color="#403E3E"/>
<stop offset="0.65" stop-color="#020000"/>
<stop offset="0.67" stop-color="#0C0908"/>
<stop offset="0.71" stop-color="#26221F"/>
<stop offset="0.74" stop-color="#3B3732"/>
<stop offset="0.75" stop-color="#211F1C"/>
<stop offset="0.76" stop-color="#0F0E0D"/>
<stop offset="0.77" stop-color="#040303"/>
<stop offset="0.78" stop-color="#0F0F0F"/>
<stop offset="0.8" stop-color="#464646"/>
<stop offset="0.81" stop-color="#787878"/>
<stop offset="0.82" stop-color="#A1A1A1"/>
<stop offset="0.83" stop-color="#C3C3C3"/>
<stop offset="0.84" stop-color="#DEDEDE"/>
<stop offset="0.86" stop-color="#F0F0F0"/>
<stop offset="0.87" stop-color="#FBFBFB"/>
<stop offset="0.88" stop-color="white"/>
<stop offset="0.89" stop-color="#EFEFEF"/>
<stop offset="0.91" stop-color="#CFCFCE"/>
<stop offset="0.93" stop-color="#B5B5B3"/>
<stop offset="0.95" stop-color="#A3A3A1"/>
<stop offset="0.98" stop-color="#989896"/>
<stop offset="1" stop-color="#949492"/>
</linearGradient>
<radialGradient id="paint3_radial_47_1691" cx="0" cy="0" r="1" gradientUnits="userSpaceOnUse" gradientTransform="translate(-3871.78 -5587.83) rotate(-180) scale(263.013 261.681)">
<stop offset="0.01" stop-color="#FFEBE2"/>
<stop offset="0.06" stop-color="#FFEB64"/>
<stop offset="0.07" stop-color="#F5E260"/>
<stop offset="0.15" stop-color="#C3B34C"/>
<stop offset="0.22" stop-color="#94893A"/>
<stop offset="0.3" stop-color="#6C642A"/>
<stop offset="0.39" stop-color="#4B451D"/>
<stop offset="0.47" stop-color="#2F2C13"/>
<stop offset="0.57" stop-color="#1A180A"/>
<stop offset="0.68" stop-color="#0B0B04"/>
<stop offset="0.81" stop-color="#030201"/>
<stop offset="1"/>
</radialGradient>
</defs>
</svg>
