<svg width="105" height="74" viewBox="0 0 105 74" fill="none" xmlns="http://www.w3.org/2000/svg">
<path d="M19.4758 49.1688C7.16078 36.426 11.2658 22.3762 28.8763 17.8019C46.4869 13.2276 71.117 19.844 83.6373 32.5868C96.1576 45.3296 91.8473 59.3385 74.2368 63.9128C56.6263 68.4872 31.9962 61.9116 19.4758 49.1688Z" fill="#EEBB00"/>
<path style="mix-blend-mode:screen" d="M19.4757 49.1688C7.16066 36.426 11.2657 22.3762 28.8762 17.8019C46.4868 13.2276 71.1169 19.844 83.6372 32.5868C96.1575 45.3296 91.8472 59.3385 74.2367 63.9129C56.6261 68.4872 31.996 61.9116 19.4757 49.1688Z" fill="url(#paint0_linear_47_1350)"/>
<path d="M11.0607 52.8863C-4.53834 36.9986 0.716077 19.4773 22.8421 13.7594C44.9682 8.04149 75.5506 16.2916 91.1907 32.1793C106.831 48.0669 101.576 65.6291 79.4503 71.347C57.3243 77.0649 26.7008 68.8148 11.0607 52.8863ZM19.2708 50.8442C31.5858 63.587 56.2159 70.2034 74.0317 65.5882C91.8475 60.9731 95.9525 47.005 83.4322 34.2622C70.9119 21.5194 46.487 14.903 28.6713 19.4773C10.8555 24.0516 6.70941 38.1014 19.2708 50.8442Z" fill="#EEBB00"/>
<path style="mix-blend-mode:screen" d="M11.0608 52.887C-4.53828 36.9993 0.71614 19.478 22.8422 13.7601C44.9682 8.04216 75.5506 16.2923 91.1907 32.1799C106.831 48.0676 101.576 65.6298 79.4504 71.3477C57.3243 77.0656 26.7009 68.8154 11.0608 52.887ZM19.2708 50.8448C31.5859 63.5876 56.216 70.2041 74.0318 65.5889C91.8475 60.9737 95.9526 47.0057 83.4323 34.2629C70.912 21.5201 46.4871 14.9036 28.6713 19.478C10.8555 24.0523 6.70947 38.102 19.2708 50.8448Z" fill="url(#paint1_linear_47_1350)"/>
<path d="M60.9363 67.0569L61.3468 65.3823C62.8656 65.3823 64.3845 65.3823 65.8623 65.3823L65.4108 67.0569C63.9329 67.0569 62.4551 67.0569 60.9363 67.0569Z" fill="#BC6700"/>
<path d="M65.4113 66.9361L65.8628 65.2616C67.2585 65.2616 68.6542 65.0166 69.9678 64.8123L69.5163 66.4869C68.1616 66.6911 66.807 66.8544 65.4113 66.9361Z" fill="#B65F00"/>
<path d="M12.2507 32.6282L12.7022 30.9537C12.3971 32.1684 12.259 33.4186 12.2917 34.6703L11.8402 36.3448C11.8095 35.0933 11.9475 33.8432 12.2507 32.6282Z" fill="#983500"/>
<path d="M11.8404 36.3437L12.292 34.6691C12.3139 35.9253 12.4931 37.1738 12.8256 38.3858L12.5383 40.0603C12.2229 38.8449 12.044 37.5984 12.0046 36.3437" fill="#A24100"/>
<path d="M12.5386 40.0606L12.9902 38.3861C13.282 39.4653 13.6665 40.5174 14.1396 41.531L13.7291 43.2055C13.2431 42.1928 12.8448 41.1407 12.5386 40.0606Z" fill="#AA4D00"/>
<path d="M13.5647 43.2052L13.9752 41.5306C14.4456 42.5173 14.9804 43.4724 15.5762 44.3896L15.1657 46.0641C14.5699 45.1469 14.0351 44.1919 13.5647 43.2052Z" fill="#B45200"/>
<path d="M15.165 46.065L15.5755 44.3905C16.2101 45.3618 16.9096 46.2896 17.6691 47.1677L17.2586 48.8831C16.5081 47.9836 15.8092 47.0427 15.165 46.065Z" fill="#B65F00"/>
<path d="M17.2583 48.8823L17.6688 47.1669C18.2435 47.8612 18.8182 48.5147 19.475 49.1682L19.0645 50.8427C18.4293 50.2202 17.8265 49.5659 17.2583 48.8823Z" fill="#BC6700"/>
<path d="M19.0655 50.8429L19.4759 49.1684L20.3791 50.0261L19.9275 51.9048L19.0655 51.0063" fill="#BC6700"/>
<path d="M19.9267 51.9055L20.3782 50.1902C21.4866 51.2521 22.636 52.2323 23.8675 53.2125L23.457 54.887C22.2255 53.9068 21.035 52.9266 19.9267 51.9055Z" fill="#C56C00"/>
<path d="M23.4576 54.7242L23.8681 53.0497C25.5862 54.3093 27.3673 55.4817 29.2046 56.5621L28.7531 58.2366C26.9049 57.1946 25.1351 56.0208 23.4576 54.7242Z" fill="#CA7700"/>
<path d="M28.7538 58.2355L29.2053 56.5609C35.4196 60.1677 42.1872 62.7341 49.2378 64.1576L48.7863 65.873C41.748 64.4492 34.9847 61.912 28.7538 58.358" fill="#CC8400"/>
<path d="M48.7842 65.7492L49.2357 64.0338C51.5275 64.5106 53.8433 64.865 56.1732 65.0957L55.7216 66.7703C53.3929 66.5501 51.0772 66.2092 48.7842 65.7492Z" fill="#CA7700"/>
<path d="M55.7229 66.771L56.1745 65.0964C57.8986 65.0964 59.6227 65.3415 61.3468 65.3823L60.9363 67.0569C59.2122 67.0569 57.4881 67.0569 55.7229 66.771Z" fill="#C56C00"/>
<path d="M69.5565 66.4855L70.008 64.811C71.3627 64.566 72.6763 64.3209 74.113 63.9941L73.6615 65.6687C72.3083 66.0118 70.9381 66.2844 69.5565 66.4855Z" fill="#B45200"/>
<path d="M73.539 65.6672L74.1137 64.156L74.36 64.156C75.6427 63.8407 76.9041 63.4451 78.1366 62.9715L77.685 64.6461C76.4665 65.1198 75.2188 65.5154 73.9495 65.8305L73.6621 65.8305" fill="#AA4D00"/>
<path d="M77.5613 64.4027L78.0128 62.7282C79.4321 62.1858 80.8049 61.5302 82.1179 60.7677L81.6663 62.4423C80.3533 63.2048 78.9805 63.8604 77.5613 64.4027Z" fill="#A24100"/>
<path d="M81.7475 62.4412L82.1991 60.7667C84.1751 59.7461 85.9219 58.3364 87.3333 56.6233C88.7447 54.9101 89.7912 52.9293 90.4091 50.8012L89.9986 52.4757C89.3678 54.5978 88.3163 56.5728 86.9063 58.2843C85.4963 59.9958 83.7562 61.4092 81.7886 62.4412" fill="#983500"/>
<path d="M98.4553 26.2965L99.5226 27.8077C98.1627 25.8579 96.6383 24.0271 94.966 22.3348C78.8333 5.99789 47.1836 -2.57902 24.3597 3.30227C21.44 4.04121 18.6058 5.08153 15.9033 6.4063L17.5453 5.58947C20.1667 4.29546 22.9188 3.2823 25.7554 2.56711C47.8814 -3.15081 78.4638 5.09936 94.104 21.0279C95.733 22.6412 97.2038 24.4054 98.4963 26.2965" fill="#983500"/>
<path d="M103.71 45.8604L101.699 53.7021C102.104 52.1286 102.283 50.5062 102.233 48.8828L104.244 41.0819C104.295 42.6918 104.115 44.3008 103.71 45.8604Z" fill="#983500"/>
<path d="M104.244 41.0822L102.233 48.8831C102.197 47.2545 101.962 45.6363 101.535 44.0637L103.546 36.222C103.994 37.8044 104.228 39.4386 104.244 41.0822Z" fill="#A24100"/>
<path d="M103.546 36.2224L101.535 44.0641C101.154 42.6652 100.659 41.2993 100.057 39.9799L102.068 32.1381C102.658 33.4629 103.152 34.8278 103.546 36.2224Z" fill="#AA4D00"/>
<path d="M102.069 32.1772L100.057 40.0189C99.4376 38.7511 98.7383 37.5234 97.9635 36.3431L99.975 28.5014C100.765 29.6723 101.465 30.9011 102.069 32.1772Z" fill="#B45200"/>
<path d="M99.9753 28.5031L97.9638 36.3448C97.1422 35.0853 96.2515 33.8718 95.2956 32.7099L97.307 24.909C98.2622 26.0573 99.153 27.2571 99.9753 28.5031Z" fill="#B65F00"/>
<path d="M97.3062 24.9069L95.2948 32.7078L92.9549 30.1756L91.8055 29.032L93.8169 21.2311L94.9664 22.3339C95.7874 23.1779 96.5673 24.0356 97.3062 24.9069Z" fill="#BC6700"/>
<path d="M93.8178 21.2329L91.8064 29.0338C90.3672 27.6791 88.8601 26.3978 87.2908 25.1946L89.3023 17.3529C90.8806 18.5596 92.3882 19.855 93.8178 21.2329Z" fill="#C56C00"/>
<path d="M89.3015 17.3532L87.29 25.1949C85.099 23.5349 82.8097 22.0073 80.4346 20.6205L82.3229 12.8197C84.7064 14.1782 86.9965 15.6927 89.1783 17.3532" fill="#CA7700"/>
<path d="M82.3232 12.8182L80.3118 20.619C72.3228 16.0695 63.6439 12.8418 54.6144 11.0619L56.6258 3.22024C65.6542 5.02532 74.3313 8.26617 82.3232 12.8182Z" fill="#CC8400"/>
<path d="M56.6264 3.13847L54.6149 11.0619C51.6446 10.4532 48.6436 10.0033 45.6249 9.71409L47.6774 1.87237C50.6822 2.16459 53.6693 2.61449 56.6264 3.22017" fill="#CA7700"/>
<path d="M47.6778 1.79218L45.6253 9.63391C43.4086 9.4297 41.1508 9.30716 38.9341 9.26631L40.9456 1.42458C43.1623 1.42458 45.4201 1.4246 47.6778 1.79218Z" fill="#C56C00"/>
<path d="M40.9438 1.42379L38.9323 9.2655C36.9619 9.2655 34.8273 9.2655 33.1443 9.2655L35.1557 1.42379C37.044 1.42379 39.0144 1.42379 40.9438 1.42379Z" fill="#BC6700"/>
<path d="M35.1566 1.58796L33.0631 9.42968C31.2569 9.42967 29.4507 9.75641 27.7266 10.0015L29.738 2.2006C31.5032 1.91471 33.2684 1.71049 35.0746 1.58796" fill="#B65F00"/>
<path d="M29.8195 2.19912L27.8081 9.99998C26.0671 10.2673 24.3408 10.6217 22.6357 11.0619L24.6472 3.22018C26.353 2.79364 28.0793 2.45286 29.8195 2.19912Z" fill="#B45200"/>
<path d="M24.6472 3.22262L22.6358 11.0643L22.3074 11.0643C20.6243 11.5136 18.9823 12.0037 17.4634 12.5755L19.4749 4.77462C21.0747 4.1724 22.7053 3.65436 24.3599 3.22262L24.6472 3.22262Z" fill="#AA4D00"/>
<path d="M19.475 4.85543L17.4635 12.6563C15.6056 13.3392 13.807 14.1724 12.0859 15.1476L14.0974 7.34677C15.8212 6.36525 17.6192 5.51865 19.475 4.81458" fill="#A24100"/>
<path d="M14.0973 7.38587L12.0858 15.1459C9.53656 16.4707 7.28144 18.2925 5.45483 20.5028C3.62823 22.7131 2.26753 25.2666 1.45382 28.0112L3.46529 20.1695C4.28173 17.4314 5.64383 14.8848 7.47043 12.6815C9.29704 10.4782 11.5508 8.66333 14.0973 7.34501" fill="#983500"/>
<path d="M89.3023 67.4659L87.6603 68.3236L89.877 67.0983L91.6011 66.2406C90.8622 66.6491 90.1233 67.0983 89.3023 67.4659Z" fill="#A24100"/>
<path d="M91.6014 66.2396L89.8773 67.0973C91.2372 66.2811 92.5156 65.3374 93.695 64.2791L95.5422 63.3398C94.2588 64.4202 92.8855 65.3902 91.4372 66.2396" fill="#AA4D00"/>
<path d="M95.5412 63.3416L93.694 64.2809C94.6254 63.4787 95.4777 62.5898 96.2391 61.6262L98.1685 60.5643C97.3805 61.5685 96.501 62.4982 95.5412 63.3416Z" fill="#B45200"/>
<path d="M98.1691 60.5641L96.2397 61.6259C96.8794 60.8275 97.4559 59.9809 97.9638 59.0937L99.9753 57.9502C99.4492 58.8711 98.8449 59.7456 98.1691 60.5641Z" fill="#B65F00"/>
<path d="M99.975 57.9508L97.9635 59.0943C98.3969 58.3017 98.7807 57.4834 99.1129 56.6438L101.124 55.4185C100.818 56.295 100.433 57.1425 99.975 57.9508Z" fill="#BC6700"/>
<path d="M101.124 55.4176L99.1128 56.6429C99.4071 55.8587 99.6404 55.053 99.8107 54.2332L101.863 52.9671C101.693 53.8047 101.445 54.625 101.124 55.4176Z" fill="#C56C00"/>
<path d="M101.863 52.966L99.8106 54.2321C99.9804 53.4657 100.09 52.6873 100.139 51.904L102.192 50.5154C102.143 51.3392 102.033 52.1583 101.863 52.966Z" fill="#CA7700"/>
<path d="M102.191 50.5162L100.138 51.9048C100.179 51.1294 100.179 50.3523 100.138 49.5768L102.191 48.1474C102.273 48.9349 102.273 49.7287 102.191 50.5162Z" fill="#CC8400"/>
<path d="M102.192 48.1492L100.139 49.5787C100.101 48.8102 100.005 48.0456 99.8517 47.2915L101.904 45.7804C102.06 46.5616 102.157 47.3535 102.192 48.1492Z" fill="#D58800"/>
<path d="M101.904 45.7782L99.8517 47.2894C99.7324 46.528 99.554 45.777 99.318 45.0431L101.371 43.4094C101.576 44.2262 101.781 45.0022 101.904 45.7782Z" fill="#DA8F00"/>
<path d="M101.37 43.4097L99.3174 45.0434C99.1053 44.2605 98.8308 43.4956 98.4964 42.7562L100.508 41.0817C100.836 41.8713 101.124 42.6473 101.37 43.4097Z" fill="#E09C00"/>
<path d="M100.508 41.0822L98.4967 42.7568C98.1828 41.9757 97.8265 41.2122 97.4294 40.4696L99.3588 38.7134C99.7915 39.4782 100.175 40.2694 100.508 41.0822Z" fill="#E49F00"/>
<path d="M99.359 38.7123L97.4297 40.4685C96.9781 39.6925 96.5265 38.9165 96.0339 38.1405L97.9633 36.3026C98.474 37.0789 98.94 37.8834 99.359 38.7123Z" fill="#E6AA00"/>
<path d="M97.9639 36.3034L96.0346 38.1413C95.5009 37.3653 94.9673 36.5893 94.3515 35.7725L96.2398 33.8937C96.8556 34.7105 97.4303 35.4866 97.9639 36.3034Z" fill="#EBB200"/>
<path d="M96.2382 33.8948L94.3499 35.7736C93.7341 35.0384 93.1183 34.2624 92.4205 33.4864L94.2267 31.4851L96.2382 33.8948Z" fill="#F0B400"/>
<path d="M94.2273 31.484L92.4211 33.4853L91.1896 32.1783L90.3275 31.3615L92.0516 29.2785L92.9547 30.1771L94.2273 31.484Z" fill="#F5BF00"/>
<path d="M92.0524 29.2789L90.3283 31.3618C89.6715 30.7083 89.0147 30.0957 88.3169 29.5239L89.9999 27.4001L92.0524 29.2789Z" fill="#F5C800"/>
<path d="M89.9996 27.3992L88.3166 29.5229C87.7574 28.9992 87.168 28.5083 86.5514 28.0527L88.1524 25.888L89.9996 27.3992Z" fill="#FAC900"/>
<path d="M88.1523 25.8872L86.5513 28.0518L85.0325 26.8674L86.5924 24.6619L88.1523 25.8872Z" fill="#FFD100"/>
<path d="M86.4275 24.6643L84.8676 26.8698L83.4308 25.8488L84.9497 23.6024L86.4275 24.6643Z" fill="#FFD800"/>
<path d="M85.1144 23.6009L83.5955 25.8472L82.4051 25.0304L83.8829 22.7841L85.1144 23.6009Z" fill="#FFE000"/>
<path d="M83.8832 22.7854L82.4054 25.0317L81.2971 24.2966L82.7338 22.0094L83.8832 22.7854Z" fill="#FFDD00"/>
<path d="M82.7341 22.0086L81.2973 24.2958L80.1479 23.6015L81.5436 21.2735L82.7341 22.0086Z" fill="#FFDD00"/>
<path d="M81.5435 21.2721L80.1478 23.6002L79.2037 23.0284L80.5994 20.7003L81.5435 21.2721Z" fill="#FFE200"/>
<path d="M80.5989 20.7018L79.2032 23.0298L78.3001 22.4989L79.6137 20.1709L80.5989 20.7018Z" fill="#FFE300"/>
<path d="M79.6132 20.1713L78.2175 22.4993L77.2323 21.9683L78.5459 19.5994L79.5311 20.1713" fill="#FFE502"/>
<path d="M78.6281 19.5981L77.3144 21.9669L76.4113 21.4768L77.6839 19.108L78.6281 19.5981Z" fill="#FFE312"/>
<path d="M77.6852 19.2331L76.4127 21.602L75.5096 21.1527L76.7821 18.743L77.6852 19.2331Z" fill="#FFE81E"/>
<path d="M76.782 18.6183L75.5095 21.028C75.2212 20.8541 74.9192 20.7038 74.6064 20.5788L75.8379 18.1691L76.782 18.6183Z" fill="#FFE52A"/>
<path d="M75.8374 18.1697L74.6059 20.5795L73.7028 20.1302L74.8933 17.7205L75.8374 18.1697Z" fill="#FFE637"/>
<path d="M74.8928 17.7191L73.7023 20.1288L72.7581 19.6796L73.9076 17.229L74.8928 17.7191Z" fill="#FFE63F"/>
<path d="M73.9076 17.2298L72.7582 19.6803L71.773 19.231L72.8813 16.7805L73.9076 17.2298Z" fill="#FFE84F"/>
<path d="M72.8819 16.7811L71.7735 19.2316L70.7883 18.7823L71.8556 16.3318L72.8819 16.7811Z" fill="#FFEB52"/>
<path d="M71.8562 16.3324L70.7889 18.783L69.5574 18.2928L70.6247 15.8015L71.8562 16.3324Z" fill="#FFEC5C"/>
<path d="M70.6237 15.8007L69.5564 18.292L68.1607 17.7202L69.187 15.1472L70.6237 15.719" fill="#FFEE5F"/>
<path d="M69.1867 15.1456L68.1605 17.637L66.7647 17.106L67.7089 14.6146L69.1867 15.1456Z" fill="#FFEC6B"/>
<path d="M67.7097 14.6969L66.7655 17.1882L63.1531 15.963L63.9741 13.3899C65.2466 13.7983 66.4782 14.2068 67.7097 14.6969Z" fill="#FFEE6E"/>
<path d="M64.0149 13.3899L63.1529 15.963L63.1118 15.963L63.9328 13.3899L64.0149 13.3899Z" fill="#FFED77"/>
<path d="M63.9334 13.3899L63.1124 15.963C61.7988 15.5545 60.5262 15.1461 59.0074 14.8194L59.7052 12.2055L63.8103 13.3899" fill="#FFEE6E"/>
<path d="M59.9103 12.2068L59.2124 14.8207L57.6936 14.4123L58.3504 11.7983L59.9103 12.2068Z" fill="#FFEC6B"/>
<path d="M58.3494 11.7986L57.6926 14.4125L56.1737 14.045L56.7484 11.431L58.3494 11.7986Z" fill="#FFEE5F"/>
<path d="M56.7489 11.43L56.1742 14.0439L54.9837 13.7989L55.5174 11.1441L56.7489 11.43Z" fill="#FFEC5C"/>
<path d="M55.5178 11.0622L54.9841 13.7169L53.9168 13.7169L54.4504 11.0622L55.5178 11.0622Z" fill="#FFEB52"/>
<path d="M54.4502 11.0622L53.9165 13.7169L52.8492 13.5127L53.3418 10.858L54.4502 10.858" fill="#FFE84F"/>
<path d="M53.342 10.737L52.8494 13.3918L51.7821 13.3918L52.2747 10.737L53.342 10.737Z" fill="#FFE63F"/>
<path d="M52.2744 10.5317L51.7818 13.1864L50.8376 13.1864L51.2481 10.5317L52.2744 10.5317Z" fill="#FFE637"/>
<path d="M51.2487 10.3695L50.8382 13.0242L49.894 13.0242L50.2635 10.3695L51.2487 10.3695Z" fill="#FFE52A"/>
<path d="M50.2635 10.2055L49.8941 12.8602L48.9089 12.8602L49.2783 10.1646L50.2635 10.1646" fill="#FFE81E"/>
<path d="M49.2779 10.0412L48.9084 12.7368L47.9643 12.7368L48.2927 10.0412L49.2779 10.0412Z" fill="#FFE312"/>
<path d="M48.2927 9.92051L47.9643 12.6161L46.9381 12.6161L47.2254 9.92051L48.2927 9.92051Z" fill="#FFE502"/>
<path d="M47.2256 9.79608L46.9382 12.4916L45.9119 12.4916L46.1582 9.79608L47.2256 9.79608Z" fill="#FFE300"/>
<path d="M46.1575 9.67362L45.9112 12.3692L44.885 12.3692L44.885 9.71444L45.9523 9.71444" fill="#FFE200"/>
<path d="M45.0899 9.59275L45.0899 12.2475L43.9405 12.2475L43.9405 9.5519L45.0899 9.5519" fill="#FFDD00"/>
<path d="M43.9407 9.46989L43.9407 12.1655L42.7503 12.1655L42.7503 9.46989L43.9818 9.46989" fill="#FFDD00"/>
<path d="M42.7096 9.38703L42.7096 12.0826L41.2729 12.0826L41.2729 9.38703L42.5454 9.38703" fill="#FFE000"/>
<path d="M41.2731 9.34646L41.2731 12.0421L39.9184 12.0421L39.9184 9.38728L41.2731 9.38728" fill="#FFD800"/>
<path d="M40.042 9.3063L40.042 11.9611L38.4821 11.9611L38.4821 9.26545L40.042 9.26545" fill="#FFD100"/>
<path d="M38.4819 9.26545L38.4819 11.9611L36.963 11.9611L36.963 9.26545L38.564 9.26545" fill="#FAC900"/>
<path d="M36.8801 9.26545L36.8801 11.9611L34.8686 11.9611L34.8686 9.26545L36.9211 9.26545" fill="#F5C800"/>
<path d="M34.8281 9.34645L34.8281 12.0421C34.1309 12.0014 33.4318 12.0014 32.7345 12.0421L32.7345 9.34645C33.4592 9.30582 34.1856 9.30582 34.9102 9.34645" fill="#F5BF00"/>
<path d="M32.652 9.46989L32.652 12.1655L30.189 12.1655L29.9017 9.51074C30.75 9.51074 31.6121 9.42903 32.4878 9.26566" fill="#F0B400"/>
<path d="M30.0669 9.71417L30.3542 12.3689L27.5628 12.7773L27.2344 10.1226L30.0669 9.71417Z" fill="#EBB200"/>
<path d="M27.2343 10.123L27.5627 12.7778L24.6891 13.3088L24.2376 10.6949C25.2228 10.4498 26.208 10.2864 27.2343 10.123Z" fill="#E6AA00"/>
<path d="M24.2382 10.6946L24.854 13.3085L23.0067 13.7578L21.8573 14.0845L21.3237 11.4297L22.4731 11.1438L24.4024 10.6946" fill="#E49F00"/>
<path d="M21.1576 11.4303L21.6913 14.0851C20.7471 14.3302 19.7619 14.6569 18.8588 14.9836L18.2431 12.3697L21.1576 11.4303Z" fill="#E09C00"/>
<path d="M18.2443 12.3698L18.8601 15.1471L16.1918 16.209L15.4529 13.6359L18.2443 12.5332" fill="#DA8F00"/>
<path d="M15.4522 13.4711L16.1911 16.0442C15.3329 16.4032 14.4967 16.8123 13.687 17.2694L12.866 14.7372C13.687 14.2879 14.5491 13.8795 15.4522 13.4711Z" fill="#D58800"/>
<path d="M12.8668 14.7382L13.6878 17.2704C12.8668 17.7197 12.0868 18.2098 11.3479 18.7L10.4449 16.2086L12.8668 14.7382Z" fill="#CC8400"/>
<path d="M10.4441 16.2077L11.3472 18.6991C10.5912 19.1871 9.8647 19.719 9.17155 20.292L8.18634 17.8823C8.88419 17.3105 9.66415 16.7387 10.4441 16.2077Z" fill="#CA7700"/>
<path d="M8.18621 17.8839L9.17142 20.2936C8.46251 20.8778 7.79073 21.5053 7.15995 22.1723L6.1337 19.8443C6.76689 19.14 7.45304 18.4846 8.18621 17.8839Z" fill="#C56C00"/>
<path d="M6.13427 19.8442L7.16052 22.1723C6.46267 22.9074 5.88798 23.6426 5.31328 24.3777L4.24596 22.0905C4.81811 21.2959 5.44931 20.545 6.13427 19.8442Z" fill="#BC6700"/>
<path d="M4.32785 22.0902L5.39514 24.3774C4.81919 25.2068 4.31127 26.0809 3.87629 26.9913L2.72689 24.7858C3.1807 23.8427 3.71639 22.9407 4.32785 22.0902Z" fill="#B65F00"/>
<path d="M2.6457 24.7841L3.79511 26.9895C3.2957 28.0107 2.89703 29.0775 2.60466 30.1752L1.45524 28.0923C1.74708 26.9549 2.14565 25.8473 2.6457 24.7841Z" fill="#B45200"/>
<path d="M1.45465 28.0938L2.60407 30.1767C2.2801 31.5153 2.10119 32.8845 2.07041 34.261L0.879955 32.3005C0.91372 30.9217 1.10655 29.5513 1.45465 28.2163" fill="#AA4D00"/>
<path d="M0.879897 32.3012L2.07036 34.2617C2.07719 36.2691 2.38148 38.2646 2.97345 40.1838L1.82405 38.4276C1.19788 36.4451 0.879493 34.3792 0.879897 32.3012Z" fill="#A24100"/>
<path d="M1.82478 38.4271L2.97418 40.1833C3.82093 42.8125 5.05195 45.3033 6.62766 47.5758L5.6014 46.0646C3.96655 43.7206 2.69356 41.1462 1.82478 38.4271Z" fill="#983500"/>
<path d="M59.6224 56.4796L60.1561 54.7234L61.8391 60.1146L61.3055 61.9117L59.6224 56.4796Z" fill="#B45A00"/>
<path d="M35.0739 50.8427L35.5665 49.0456L38.481 44.0628L37.9474 45.819L35.0739 50.8427Z" fill="#9F3E00"/>
<path d="M37.9473 45.8211L38.4809 44.0649C41.3143 45.219 44.2053 46.2278 47.1425 47.0872L46.6089 48.8434C43.6574 47.9706 40.7527 46.9482 37.9062 45.7802" fill="#CA7900"/>
<path d="M46.7311 48.8828L47.2647 47.1266C49.3405 47.7526 51.4514 48.2572 53.5865 48.6378L53.0528 50.394C50.8722 50.0379 48.7189 49.533 46.6079 48.8828" fill="#C47300"/>
<path d="M53.1767 50.3954L53.5872 48.6392L54.4493 48.6392L55.5987 48.6392L55.1061 50.4362L53.9156 50.4362L53.0536 50.4362" fill="#BF6900"/>
<path d="M55.2289 50.6398L55.7215 48.8428L56.8298 48.8428L56.3372 50.599C55.9681 50.6194 55.598 50.6194 55.2289 50.599" fill="#B96300"/>
<path d="M56.338 50.6396L56.8306 48.8834L57.5695 48.8834L57.0769 50.6804L56.338 50.6804" fill="#B25900"/>
<path d="M57.0767 50.5992L57.5693 48.8022L58.0208 48.8022L57.4872 50.5584L57.0767 50.5584" fill="#AC5200"/>
<path d="M57.6929 50.4363L58.2266 48.6801C58.3922 48.6355 58.5451 48.5532 58.6733 48.4398C58.8015 48.3264 58.9016 48.185 58.9655 48.0266L58.4318 49.8236C58.3716 49.9801 58.272 50.1185 58.1426 50.2258C58.0133 50.333 57.8584 50.4055 57.6929 50.4363Z" fill="#A64900"/>
<path d="M42.6684 34.9951L43.161 33.2389C43.1403 33.3606 43.1403 33.4848 43.161 33.6065L42.6273 35.3627C42.5866 35.2435 42.5866 35.1143 42.6273 34.9951" fill="#A64900"/>
<path d="M42.6273 35.3631L43.161 33.6069C43.141 33.7012 43.141 33.7986 43.161 33.8928L42.6684 35.6899C42.6684 35.6899 42.6684 35.6899 42.6684 35.3631" fill="#AC5200"/>
<path d="M42.7501 35.8541L43.2427 34.0571L43.4479 34.4247L42.9143 36.1809C42.9068 36.0721 42.9068 35.9629 42.9143 35.8541" fill="#B25900"/>
<path d="M42.9143 36.1811L43.448 34.4249L43.7353 34.7516L43.2017 36.5079C43.0851 36.419 42.9874 36.3079 42.9143 36.1811Z" fill="#B96300"/>
<path d="M43.2021 36.5064L43.7357 34.7502L44.0641 35.0769L43.5715 36.8332C43.4225 36.7573 43.2953 36.6448 43.2021 36.5064Z" fill="#BF6900"/>
<path d="M43.5714 36.8349L44.064 35.0787C44.2887 35.261 44.5373 35.4122 44.8029 35.5279L44.2693 37.325L43.5714 36.8349Z" fill="#C47300"/>
<path d="M44.2698 37.3226L44.8034 35.5255C45.8577 36.0667 46.9563 36.5176 48.0874 36.8733L48.9495 37.1184L48.4159 38.8746L47.5538 38.6296C46.4284 38.3122 45.341 37.8739 44.3108 37.3226" fill="#CA7900"/>
<path d="M48.4563 38.9169L48.99 37.1607L53.5876 38.386L57.6926 39.4478L57.1589 41.2449L53.0539 40.1422C51.2477 39.7065 49.7699 39.2981 48.6205 38.9169" fill="#C47300"/>
<path d="M56.8305 41.2453L57.3642 39.4482C59.0472 39.9383 60.5661 40.4285 61.8797 40.8777C63.43 41.3894 64.9282 42.0458 66.3542 42.8382L65.8205 44.6352C64.4087 43.843 62.9242 43.1865 61.3871 42.6748C60.0325 42.1847 58.5136 41.7354 56.8305 41.2453Z" fill="#CA7900"/>
<path d="M65.9019 44.6346L66.4355 42.8375L68.0365 43.7361L68.8164 44.267L68.2828 46.0641L67.5439 45.4923L65.8198 44.4712" fill="#C47300"/>
<path d="M68.2843 46.2256L68.8179 44.4285L70.0084 45.3679L69.4747 47.1649C69.1526 46.8309 68.8098 46.5172 68.4485 46.2256" fill="#BF6900"/>
<path d="M69.3098 47.1665L70.0077 45.3694L70.8287 46.3905L70.295 48.1875C70.057 47.8202 69.7819 47.4781 69.474 47.1665" fill="#B96300"/>
<path d="M70.0075 48.1876L70.5412 46.3906C70.8189 46.8221 71.0658 47.2725 71.2801 47.7384L70.7464 49.5354C70.5498 49.0609 70.302 48.609 70.0075 48.1876Z" fill="#B25900"/>
<path d="M70.8692 49.5353L71.4028 47.7383L71.6491 48.3918C71.7373 48.7554 71.8058 49.1235 71.8544 49.4945L71.3207 51.2507C71.3036 50.8755 71.2345 50.5044 71.1155 50.148L70.8692 49.5353Z" fill="#AC5200"/>
<path d="M71.3214 51.2504L71.8551 49.4943C71.9376 49.9398 71.9376 50.3965 71.8551 50.842L71.3214 52.6391C71.4011 52.1796 71.4011 51.7099 71.3214 51.2504Z" fill="#A64900"/>
<path d="M29.7375 31.9728L30.2711 30.1757C30.4829 29.6117 30.8117 29.0983 31.236 28.6691C31.6604 28.2398 32.1708 27.9043 32.7342 27.6843L34.0067 27.1534L33.4731 28.9504L32.2005 29.4405C31.6345 29.6672 31.1227 30.0098 30.6983 30.4461C30.274 30.8823 29.9466 31.4025 29.7375 31.9728Z" fill="#A64900"/>
<path d="M33.4731 28.9502L34.0068 27.1532C34.8222 26.8868 35.6604 26.6954 36.5109 26.5814L36.0183 28.3376C35.1559 28.4794 34.3053 28.6841 33.4731 28.9502Z" fill="#AC5200"/>
<path d="M36.0173 28.3393L36.5099 26.5831C37.4872 26.4192 38.4748 26.3237 39.4655 26.2972L38.9318 28.0942C37.9568 28.1266 36.984 28.2084 36.0173 28.3393Z" fill="#B25900"/>
<path d="M38.9327 28.0933L39.4664 26.2962C40.4516 26.2962 41.5189 26.2962 42.6683 26.2962L42.1346 28.0933C40.9852 28.0933 39.9179 28.0933 38.9327 28.0933Z" fill="#B96300"/>
<path d="M51.0834 29.1948L51.6171 27.4386C53.7517 27.847 55.7221 28.378 57.9798 28.9906L57.4462 30.7877C55.3526 30.175 53.3412 29.6441 51.0834 29.1948Z" fill="#C47300"/>
<path d="M57.4452 30.7879L57.9789 28.9908L61.2629 30.0119C64.2274 30.9975 67.1098 32.2129 69.8834 33.6468L69.3498 35.403C66.5749 33.9831 63.6926 32.7814 60.7292 31.8089C59.6619 31.4414 58.5536 31.0738 57.4452 30.7879Z" fill="#CA7900"/>
<path d="M49.3188 23.5198L49.8524 21.7228L51.6176 27.4407L51.0839 29.1969L49.3188 23.5198Z" fill="#B45A00"/>
<path d="M40.37 22.4582L40.9037 20.6612L49.8526 21.7231L49.319 23.5201L40.37 22.4582Z" fill="#D18400"/>
<path d="M52.3558 60.8089L50.6728 55.4994C47.9224 54.9684 45.2131 54.315 42.4627 53.539C39.9219 52.7856 37.4273 51.8855 34.9916 50.8434L37.9062 45.8198C40.7527 46.9878 43.6573 48.0102 46.6088 48.883C49.0226 49.6283 51.4939 50.1747 53.9978 50.5167C55.1371 50.7311 56.3067 50.7311 57.4461 50.5167C58.226 50.3125 58.5134 49.904 58.3492 49.2914C58.0192 48.5905 57.4527 48.0268 56.7482 47.6985C55.7432 47.1545 54.6839 46.7165 53.5873 46.3916L48.3329 44.8396C44.8847 43.941 42.0112 43.0834 39.7124 42.2665C37.5023 41.5142 35.4037 40.4702 33.4728 39.1625C31.7739 38.0701 30.4886 36.4465 29.8193 34.5473C29.4921 33.5653 29.5516 32.4963 29.9859 31.5563C30.4202 30.6162 31.1969 29.8752 32.1591 29.4829C35.3243 28.2875 38.722 27.8265 42.0933 28.1351L40.3281 22.4989L49.4823 23.3157L51.2475 28.9928C54.5114 29.6767 57.7325 30.5494 60.8943 31.6067C63.8576 32.5791 66.7399 33.7809 69.5148 35.2008L66.4361 40.1019C63.4508 38.4536 60.3174 37.0862 57.0766 36.0176C54.154 35.0105 51.1448 34.2723 48.0866 33.8122C46.7279 33.5837 45.3403 33.5837 43.9816 33.8122C43.0374 34.0981 42.7091 34.5882 42.9143 35.3233C43.2451 36.0713 43.8456 36.6687 44.5974 36.9978C45.6275 37.5492 46.7149 37.9874 47.8403 38.3048C49.1266 38.7132 50.8917 39.2033 53.1358 39.7751C56.5019 40.6737 59.3344 41.5314 61.6332 42.3074C63.8125 43.0179 65.8841 44.0209 67.7907 45.2888C69.4481 46.3518 70.7042 47.9319 71.3621 49.7815C71.7179 50.7092 71.6986 51.738 71.3082 52.6519C70.9178 53.5657 70.1868 54.2936 69.2685 54.6826C66.3094 55.9509 63.0728 56.4431 59.868 56.112L61.5511 61.5441L52.3558 60.8089Z" fill="#FFDD00"/>
<g style="mix-blend-mode:screen">
<path style="mix-blend-mode:screen" d="M52.3569 60.8098L50.6739 55.5003C47.9235 54.9693 45.2142 54.3159 42.4638 53.5399C39.9229 52.7864 37.4283 51.8864 34.9927 50.8443L37.9072 45.8207C40.7537 46.9887 43.6584 48.0111 46.6099 48.8839C49.0237 49.6292 51.495 50.1756 53.9989 50.5175C55.1382 50.7319 56.3078 50.7319 57.4471 50.5175C58.2271 50.3133 58.5144 49.9049 58.3502 49.2923C58.0203 48.5913 57.4538 48.0277 56.7493 47.6994C55.7443 47.1554 54.6849 46.7174 53.5884 46.3925L48.334 44.8404C44.8858 43.9419 42.0123 43.0842 39.7134 42.2674C37.5034 41.5151 35.4048 40.4711 33.4738 39.1634C31.7749 38.071 30.4896 36.4474 29.8204 34.5482C29.4931 33.5662 29.5527 32.4972 29.987 31.5571C30.4213 30.6171 31.198 29.8761 32.1602 29.4838C35.3254 28.2884 38.723 27.8274 42.0944 28.136L40.3292 22.4997L49.4834 23.3166L51.2486 28.9937C54.5125 29.6775 57.7336 30.5503 60.8953 31.6076C63.8587 32.58 66.741 33.7818 69.5159 35.2017L66.4371 40.1028C63.4519 38.4545 60.3185 37.0871 57.0777 36.0185C54.1551 35.0114 51.1458 34.2732 48.0877 33.813C46.729 33.5845 45.3414 33.5845 43.9827 33.813C43.0385 34.0989 42.7101 34.5891 42.9154 35.3242C43.2462 36.0722 43.8467 36.6696 44.5984 36.9987C45.6286 37.5501 46.716 37.9883 47.8414 38.3057C49.1276 38.7141 50.8928 39.2042 53.1369 39.776C56.503 40.6745 59.3354 41.5322 61.6342 42.3082C63.8135 43.0187 65.8851 44.0218 67.7918 45.2897C69.4492 46.3527 70.7053 47.9328 71.3631 49.7824C71.719 50.7101 71.6996 51.7389 71.3093 52.6528C70.9189 53.5666 70.1878 54.2945 69.2696 54.6834C66.3105 55.9518 63.0739 56.4439 59.8691 56.1129L61.5521 61.545L52.3569 60.8098Z" fill="url(#paint2_linear_47_1350)"/>
</g>
<defs>
<linearGradient id="paint0_linear_47_1350" x1="-98315.2" y1="118460" x2="-99074.8" y2="119235" gradientUnits="userSpaceOnUse">
<stop stop-color="#C9C7C7"/>
<stop offset="0.06" stop-color="#E4E3E3"/>
<stop offset="0.11" stop-color="white"/>
<stop offset="0.12" stop-color="#F6F5F5"/>
<stop offset="0.15" stop-color="#DDDCDB"/>
<stop offset="0.19" stop-color="#B4B2B0"/>
<stop offset="0.23" stop-color="#7C7876"/>
<stop offset="0.25" stop-color="#6B6764"/>
<stop offset="0.27" stop-color="#6D6967"/>
<stop offset="0.28" stop-color="#75726F"/>
<stop offset="0.29" stop-color="#837F7D"/>
<stop offset="0.3" stop-color="#969391"/>
<stop offset="0.31" stop-color="#C9C7C7"/>
<stop offset="0.35" stop-color="#BFBDBD"/>
<stop offset="0.41" stop-color="#A5A3A3"/>
<stop offset="0.48" stop-color="#7A7878"/>
<stop offset="0.57" stop-color="#403E3E"/>
<stop offset="0.65" stop-color="#020000"/>
<stop offset="0.67" stop-color="#0C0908"/>
<stop offset="0.71" stop-color="#26221F"/>
<stop offset="0.74" stop-color="#3B3732"/>
<stop offset="0.75" stop-color="#211F1C"/>
<stop offset="0.76" stop-color="#0F0E0D"/>
<stop offset="0.77" stop-color="#040303"/>
<stop offset="0.78" stop-color="#0F0F0F"/>
<stop offset="0.8" stop-color="#464646"/>
<stop offset="0.81" stop-color="#787878"/>
<stop offset="0.82" stop-color="#A1A1A1"/>
<stop offset="0.83" stop-color="#C3C3C3"/>
<stop offset="0.84" stop-color="#DEDEDE"/>
<stop offset="0.86" stop-color="#F0F0F0"/>
<stop offset="0.87" stop-color="#FBFBFB"/>
<stop offset="0.88" stop-color="white"/>
<stop offset="0.89" stop-color="#EFEFEF"/>
<stop offset="0.91" stop-color="#CFCFCE"/>
<stop offset="0.93" stop-color="#B5B5B3"/>
<stop offset="0.95" stop-color="#A3A3A1"/>
<stop offset="0.98" stop-color="#989896"/>
<stop offset="1" stop-color="#949492"/>
</linearGradient>
<linearGradient id="paint1_linear_47_1350" x1="-124107" y1="149825" x2="-125293" y2="151035" gradientUnits="userSpaceOnUse">
<stop stop-color="#C9C7C7"/>
<stop offset="0.06" stop-color="#E4E3E3"/>
<stop offset="0.11" stop-color="white"/>
<stop offset="0.12" stop-color="#F6F5F5"/>
<stop offset="0.15" stop-color="#DDDCDB"/>
<stop offset="0.19" stop-color="#B4B2B0"/>
<stop offset="0.23" stop-color="#7C7876"/>
<stop offset="0.25" stop-color="#6B6764"/>
<stop offset="0.27" stop-color="#6D6967"/>
<stop offset="0.28" stop-color="#75726F"/>
<stop offset="0.29" stop-color="#837F7D"/>
<stop offset="0.3" stop-color="#969391"/>
<stop offset="0.31" stop-color="#C9C7C7"/>
<stop offset="0.35" stop-color="#BFBDBD"/>
<stop offset="0.41" stop-color="#A5A3A3"/>
<stop offset="0.48" stop-color="#7A7878"/>
<stop offset="0.57" stop-color="#403E3E"/>
<stop offset="0.65" stop-color="#020000"/>
<stop offset="0.67" stop-color="#0C0908"/>
<stop offset="0.71" stop-color="#26221F"/>
<stop offset="0.74" stop-color="#3B3732"/>
<stop offset="0.75" stop-color="#211F1C"/>
<stop offset="0.76" stop-color="#0F0E0D"/>
<stop offset="0.77" stop-color="#040303"/>
<stop offset="0.78" stop-color="#0F0F0F"/>
<stop offset="0.8" stop-color="#464646"/>
<stop offset="0.81" stop-color="#787878"/>
<stop offset="0.82" stop-color="#A1A1A1"/>
<stop offset="0.83" stop-color="#C3C3C3"/>
<stop offset="0.84" stop-color="#DEDEDE"/>
<stop offset="0.86" stop-color="#F0F0F0"/>
<stop offset="0.87" stop-color="#FBFBFB"/>
<stop offset="0.88" stop-color="white"/>
<stop offset="0.89" stop-color="#EFEFEF"/>
<stop offset="0.91" stop-color="#CFCFCE"/>
<stop offset="0.93" stop-color="#B5B5B3"/>
<stop offset="0.95" stop-color="#A3A3A1"/>
<stop offset="0.98" stop-color="#989896"/>
<stop offset="1" stop-color="#949492"/>
</linearGradient>
<linearGradient id="paint2_linear_47_1350" x1="-47707.3" y1="63036" x2="-47958.1" y2="63291.8" gradientUnits="userSpaceOnUse">
<stop stop-color="#C9C7C7"/>
<stop offset="0.06" stop-color="#E4E3E3"/>
<stop offset="0.11" stop-color="white"/>
<stop offset="0.12" stop-color="#F6F5F5"/>
<stop offset="0.15" stop-color="#DDDCDB"/>
<stop offset="0.19" stop-color="#B4B2B0"/>
<stop offset="0.23" stop-color="#7C7876"/>
<stop offset="0.25" stop-color="#6B6764"/>
<stop offset="0.27" stop-color="#6D6967"/>
<stop offset="0.28" stop-color="#75726F"/>
<stop offset="0.29" stop-color="#837F7D"/>
<stop offset="0.3" stop-color="#969391"/>
<stop offset="0.31" stop-color="#C9C7C7"/>
<stop offset="0.35" stop-color="#BFBDBD"/>
<stop offset="0.41" stop-color="#A5A3A3"/>
<stop offset="0.48" stop-color="#7A7878"/>
<stop offset="0.57" stop-color="#403E3E"/>
<stop offset="0.65" stop-color="#020000"/>
<stop offset="0.67" stop-color="#0C0908"/>
<stop offset="0.71" stop-color="#26221F"/>
<stop offset="0.74" stop-color="#3B3732"/>
<stop offset="0.75" stop-color="#211F1C"/>
<stop offset="0.76" stop-color="#0F0E0D"/>
<stop offset="0.77" stop-color="#040303"/>
<stop offset="0.78" stop-color="#0F0F0F"/>
<stop offset="0.8" stop-color="#464646"/>
<stop offset="0.81" stop-color="#787878"/>
<stop offset="0.82" stop-color="#A1A1A1"/>
<stop offset="0.83" stop-color="#C3C3C3"/>
<stop offset="0.84" stop-color="#DEDEDE"/>
<stop offset="0.86" stop-color="#F0F0F0"/>
<stop offset="0.87" stop-color="#FBFBFB"/>
<stop offset="0.88" stop-color="white"/>
<stop offset="0.89" stop-color="#EFEFEF"/>
<stop offset="0.91" stop-color="#CFCFCE"/>
<stop offset="0.93" stop-color="#B5B5B3"/>
<stop offset="0.95" stop-color="#A3A3A1"/>
<stop offset="0.98" stop-color="#989896"/>
<stop offset="1" stop-color="#949492"/>
</linearGradient>
</defs>
</svg>
