<svg width="53" height="68" viewBox="0 0 53 68" fill="none" xmlns="http://www.w3.org/2000/svg">
<path d="M9.64697 44.5833C3.32523 54.0587 0.0822608 59.8583 0.369614 60.9202L0.944313 62.8398L6.97869 67.1691L8.99015 67.1691C9.4417 67.1691 10.7143 66.1888 12.8489 63.7791C23.8731 50.7903 34.0995 37.1514 43.4723 22.9369C49.9583 13.2573 53.2012 7.41681 52.7497 6.59996L52.175 4.68037L46.1406 0.187721L44.1291 0.18772C43.6365 0.18772 42.405 1.33131 40.3115 3.57764C29.2802 16.6279 19.0405 30.3207 9.64697 44.5833Z" fill="#E9AF00"/>
<path d="M48.1117 8.02991L42.0774 3.70063C44.4583 1.08672 45.8129 -0.0160194 46.1824 0.229034L52.2578 4.55831C51.8884 4.31326 50.5337 5.416 48.1528 8.02991" fill="#9F3E00"/>
<path d="M6.98001 67.2097L0.945616 62.8804C0.945616 62.8804 0.945616 62.6354 0.945616 62.3495L6.98001 66.6787C6.98001 66.9646 6.98001 67.128 6.98001 67.2097Z" fill="#B05700"/>
<path d="M6.89754 66.679L0.863154 62.3497C0.941069 62.0133 1.05104 61.6851 1.19156 61.3695L7.22595 65.5354C7.22595 65.9438 6.97964 66.2705 6.89754 66.5156" fill="#BD6900"/>
<path d="M7.22646 65.5366L1.19207 61.4524L1.8078 60.1046L7.84219 64.4338L7.22646 65.7816" fill="#CB7900"/>
<path d="M7.8414 64.3528L1.80702 60.0235L2.6691 58.3898L8.74451 62.474C8.37506 63.0867 8.0877 63.6585 7.8414 64.1486" fill="#D68B00"/>
<path d="M8.74371 62.6774L2.66829 58.5932L3.85872 56.5102L9.93417 60.7986L8.74371 62.8816" fill="#E29F00"/>
<path d="M9.93515 60.594L3.85973 56.3055L5.46071 53.6508L11.4951 57.9801L9.93515 60.594Z" fill="#E9AF00"/>
<path d="M11.4953 57.9796L5.54297 53.6502L7.5134 50.5463L13.5888 54.8755L11.5774 57.9796" fill="#F2BB00"/>
<path d="M13.5067 54.8777L7.43121 50.5484L9.19637 47.8528L15.2308 52.1821L13.5067 54.8777Z" fill="#FAC900"/>
<path d="M15.2299 52.1792L9.19553 47.8498C9.56498 47.2372 10.0165 46.5837 10.427 45.9711L16.5024 50.3004L15.2299 52.22" fill="#FFD800"/>
<path d="M16.5848 50.1396L10.5094 45.8103C10.8788 45.3202 11.2072 44.7892 11.5767 44.2583L17.611 48.5876L16.5848 50.1396Z" fill="#FFDF00"/>
<path d="M17.611 48.5873L11.5766 44.2581L12.5208 42.8286L18.5962 47.1579L17.611 48.5873Z" fill="#FFE300"/>
<path d="M18.5959 47.1576L12.5204 42.8283L13.4646 41.4805L19.499 45.5647C19.2116 46.0548 18.8832 46.5041 18.5959 46.9534" fill="#FFE40B"/>
<path d="M19.4992 45.7687L13.4648 41.6845L14.5732 40.0508L20.6075 44.3801L19.4992 45.9729" fill="#FFE725"/>
<path d="M20.608 44.1763L14.5737 39.847L16.462 37.1514L22.4963 41.4807L20.608 44.1763Z" fill="#FFE53E"/>
<path d="M22.4963 41.478L16.462 36.9445L17.4061 35.5559L23.4815 39.8851L22.4963 41.2737" fill="#FFE84D"/>
<path d="M23.4812 40.0905L17.4058 35.7612L19.2531 33.1882L25.2874 37.2724L23.4812 39.8863" fill="#FFE53E"/>
<path d="M25.2873 37.4781L19.2529 33.3939L20.3202 31.8828L26.3546 36.212L25.2873 37.6824" fill="#FFE725"/>
<path d="M26.3547 36.0067L20.3203 31.6774L21.1823 30.4521L27.2578 34.7814L26.3547 36.0067Z" fill="#FFE40B"/>
<path d="M27.2584 34.7823L21.183 30.4531L22.0451 29.2686L28.0794 33.5979C27.7921 34.0063 27.5458 34.4148 27.2584 34.7823Z" fill="#FFE300"/>
<path d="M28.0788 33.5958L21.9623 29.2665L22.8654 28.0412L28.8997 32.3705L27.9967 33.5958" fill="#FFDF00"/>
<path d="M28.9818 32.3713L22.9474 28.042L23.8505 26.8167L29.8849 31.146L28.9818 32.3713Z" fill="#FFD800"/>
<path d="M29.8852 31.1451L23.8508 26.8158L24.9592 25.3047L30.9935 29.634L29.8852 31.1451Z" fill="#FAC900"/>
<path d="M30.994 29.6353L24.9596 25.306L26.1911 23.6315L32.2665 27.9199L30.994 29.6353Z" fill="#F2BB00"/>
<path d="M32.2667 27.9199L26.0681 23.6314C26.6428 22.8962 27.1765 22.1611 27.6691 21.4668L33.7445 25.796L32.1436 27.9199" fill="#E9AF00"/>
<path d="M33.8674 25.7964L27.792 21.4671L29.8445 18.7715L35.8788 23.1008L33.8674 25.7964Z" fill="#E29F00"/>
<path d="M35.8788 23.1008L29.8444 18.7715L32.1432 15.79L38.1776 20.1193L35.8788 23.1008Z" fill="#D68B00"/>
<path d="M38.1778 20.1196L32.1435 15.7904L34.4833 12.7681L40.5587 17.0973L38.1778 20.1196Z" fill="#CB7900"/>
<path d="M40.5593 17.0969L34.2786 12.7676L36.7006 9.78608L42.735 14.1154L40.354 17.0969" fill="#BD6900"/>
<path d="M42.9389 14.1149L36.9045 9.78554C37.8076 8.64196 38.7108 7.58006 39.5318 6.59984L45.5661 10.9291L42.9389 14.1149Z" fill="#B05700"/>
<path d="M45.5662 10.9283L39.5318 6.599L42.0769 3.69919L48.1113 8.02848L45.5662 10.9283Z" fill="#9F3E00"/>
<path d="M43.9661 14.2781C49.59 8.11088 47.7017 12.8078 39.8611 24.7337C32.2978 36.093 24.0738 47.0029 15.231 57.4075C9.60712 63.5338 11.4954 58.8778 19.336 46.9519C26.8981 35.5917 35.1222 24.6817 43.9661 14.2781Z" fill="#943000"/>
<path d="M47.1266 11.5823L48.3991 12.5217C48.3991 12.5217 48.3991 12.5217 48.3991 12.9301L47.0855 11.9907C47.0855 11.9907 47.0855 11.664 47.0855 11.5823" fill="#B05700"/>
<path d="M47.168 11.9914L48.4816 12.9307C48.4137 13.1937 48.3315 13.4527 48.2353 13.7067L46.9217 12.7674C47.0236 12.5154 47.1059 12.2559 47.168 11.9914Z" fill="#BD6900"/>
<path d="M46.9216 12.7662L48.2352 13.7055L47.7426 14.7266L46.4289 13.7872L46.9216 12.7662Z" fill="#CB7900"/>
<path d="M46.5923 13.7878L47.9059 14.7271C47.7006 15.0947 47.4954 15.544 47.208 15.9933L45.9354 15.0947C46.1818 14.6046 46.4281 14.1962 46.5923 13.7878Z" fill="#D68B00"/>
<path d="M45.7725 15.0954L47.045 15.994C46.7987 16.4841 46.4703 17.0558 46.1419 17.6276L44.8283 16.6883C45.1978 16.1165 45.4851 15.5855 45.7725 15.0954Z" fill="#E29F00"/>
<path d="M44.8273 16.5237L46.1409 17.4631L44.9094 19.5052L43.5958 18.5658L44.8273 16.5237Z" fill="#E9AF00"/>
<path d="M43.5971 18.7292L44.9107 19.6685L43.3919 22.0782L42.0782 21.1797C42.6119 20.2812 43.1455 19.5052 43.5971 18.7292Z" fill="#F2BB00"/>
<path d="M42.0768 21.1798L43.3904 22.0783C42.9525 22.7318 42.501 23.4261 42.0357 24.1613L40.7221 23.2627L42.0768 21.1798Z" fill="#FAC900"/>
<path d="M40.7231 23.2644L42.0367 24.1629L41.0515 25.6332L39.779 24.6939L40.7642 23.2236" fill="#FFD800"/>
<path d="M39.6961 24.6925L40.9687 25.6319L40.1887 26.8163L38.8751 25.9178L39.6961 24.6925Z" fill="#FFDF00"/>
<path d="M38.8748 26.0409L40.1884 26.9394C39.9421 27.307 39.6548 27.6746 39.4085 28.083L38.1359 27.1436L38.8748 26.0409Z" fill="#FFE300"/>
<path d="M38.1361 27.1441L39.4087 28.0835L38.7108 29.1046L37.3972 28.206L38.1361 27.1441Z" fill="#FFE40B"/>
<path d="M37.3977 28.2066L38.7114 29.1052L37.8493 30.3713L36.5357 29.4319L37.3977 28.2066Z" fill="#FFE725"/>
<path d="M36.536 29.4301L37.8496 30.3695L36.3718 32.4525L35.0993 31.5539L36.536 29.4301Z" fill="#FFE53E"/>
<path d="M35.0996 31.5549L36.3721 32.4535L35.6332 33.5562L34.3196 32.6168L35.0996 31.5549Z" fill="#FFE84D"/>
<path d="M34.2774 32.6174L35.591 33.5567L34.1542 35.558L32.8817 34.6187L34.2774 32.6174Z" fill="#FFE53E"/>
<path d="M32.9233 34.6166L34.1959 35.556L33.3749 36.6995L32.1023 35.801C32.3486 35.3926 32.636 35.025 32.9233 34.6166Z" fill="#FFE725"/>
<path d="M32.1017 35.8039L33.3742 36.7024L32.7174 37.6418L31.4038 36.7432C31.6501 36.4165 31.8554 36.0898 32.1017 35.8039Z" fill="#FFE40B"/>
<path d="M31.4043 36.7427L32.7179 37.6412L32.0611 38.5806L30.7475 37.6412L31.4043 36.7427Z" fill="#FFE300"/>
<path d="M30.7475 37.6398L32.0611 38.5792C31.8063 38.8754 31.5731 39.1893 31.3633 39.5186L30.0497 38.5792C30.296 38.2933 30.5012 37.9665 30.7475 37.6398Z" fill="#FFDF00"/>
<path d="M30.1732 38.5795L31.4868 39.5189L30.7889 40.4583L29.4753 39.5597L30.1732 38.5795Z" fill="#FFD800"/>
<path d="M29.3524 39.5608L30.666 40.4594L29.804 41.6438L28.4904 40.7044L29.3524 39.5608Z" fill="#FAC900"/>
<path d="M28.4898 40.7038L29.8034 41.6432L28.8182 42.9501L27.5046 42.0516L28.4898 40.7038Z" fill="#F2BB00"/>
<path d="M27.5041 42.052L28.8177 42.9505L27.5862 44.625L26.2726 43.6857L27.5041 42.052Z" fill="#E9AF00"/>
<path d="M26.0681 43.6857L27.3817 44.625L25.7807 46.708L24.5082 45.8095L26.0681 43.6857Z" fill="#E29F00"/>
<path d="M24.7131 45.8096L25.9857 46.7081C25.411 47.5249 24.7952 48.2601 24.2205 49.0361L22.9069 48.0967C23.5227 47.3616 24.0974 46.5856 24.7131 45.8096Z" fill="#D68B00"/>
<path d="M22.9076 48.0957L24.2212 49.035C23.6191 49.8519 23.0034 50.6279 22.3739 51.363L21.1014 50.4237L22.9076 48.0957Z" fill="#CB7900"/>
<path d="M21.1008 50.4245L22.3734 51.3639C21.7439 52.1807 21.1282 52.9567 20.5261 53.6919L19.2125 52.7525L21.1008 50.4245Z" fill="#BD6900"/>
<path d="M19.2124 52.7535L20.526 53.6929C19.8281 54.5505 19.1303 55.4082 18.4735 56.1434L17.2009 55.204C17.8167 54.4689 18.5145 53.652 19.2124 52.7535Z" fill="#B05700"/>
<path d="M17.2007 55.2024L18.4732 56.1417C17.7754 56.9994 17.1186 57.7346 16.5028 58.3881C14.6555 60.4302 13.6293 61.2879 13.3419 61.0837L12.0694 60.1443C12.3157 60.1443 13.383 59.4908 15.2303 57.4895L17.2007 55.2024Z" fill="#9F3E00"/>
<path d="M48.8101 9.86735C55.8296 2.14816 53.4898 7.98861 43.5556 22.8552C34.1828 37.0698 23.9564 50.7086 12.9322 63.6975C5.95362 71.4167 8.2935 65.5762 18.1866 50.7096C27.5866 36.514 37.8118 22.8767 48.8101 9.86735ZM45.2387 15.2177C36.3959 25.6223 28.1718 36.5322 20.6085 47.8915C12.6448 59.8175 10.7975 64.4735 16.5035 58.3063C25.3604 47.9129 33.5851 37.0021 41.1337 25.6325C49.0563 13.7065 50.9447 9.0505 45.2387 15.2177Z" fill="#943000"/>
<path d="M9.64851 44.5827C3.32678 54.0581 0.0838092 59.8577 0.371159 60.9196L0.945862 62.8392C0.658508 61.8181 3.98358 55.8143 10.5106 46.053C20.2287 31.3645 30.7964 17.2501 42.1602 3.78123C44.2949 1.45322 45.6085 0.309635 46.2653 0.268791L44.2538 0.268791C43.7612 0.268791 42.5297 1.41238 40.4361 3.65871C29.3654 16.6792 19.0846 30.3448 9.64851 44.5827Z" fill="url(#paint0_linear_47_1514)"/>
<path d="M48.8093 9.86694L48.1114 8.02903C50.7387 5.12925 52.2165 3.94483 52.2165 4.67998L52.7912 6.59957C52.7912 6.02778 51.3134 7.04884 48.6861 9.86694" fill="#9F3E00"/>
<path d="M9.11327 67.1691L7.10178 67.1691C6.60918 67.1691 7.1018 65.9438 8.21016 63.6158L10.1806 63.6158C8.99011 65.9029 8.62067 67.0874 9.11327 67.0874" fill="#9F3E00"/>
<path d="M10.1817 63.6978L8.21126 63.6978C8.95017 62.2683 10.0175 60.4303 11.3721 58.184L13.2604 58.184C11.9468 60.3487 10.9206 62.2683 10.1817 63.4935" fill="#B05700"/>
<path d="M13.2607 58.3879L11.3724 58.3879C12.7681 56.1416 14.4922 53.4868 16.5036 50.4645C20.6087 44.1339 25.6168 37.1499 30.4197 30.6151L31.6922 31.7179C27.0535 38.0484 22.2917 44.7874 18.1867 50.9546C16.2574 53.8544 14.6153 56.4275 13.2607 58.5921" fill="#BD6900"/>
<path d="M31.6916 31.5127L30.4191 30.41C32.7179 27.306 34.9757 24.2836 37.1103 21.5064L38.1776 22.895C36.084 25.5906 34.0726 28.4904 31.6916 31.5127Z" fill="#B05700"/>
<path d="M38.1775 22.8962L37.1102 21.5076C41.4205 15.9122 45.3202 11.1337 48.1116 8.02965L48.8095 9.86757C46.1002 12.8491 42.3236 17.4642 38.1775 22.8962Z" fill="#9F3E00"/>
<defs>
<linearGradient id="paint0_linear_47_1514" x1="45.5251" y1="-0.409437" x2="-0.311612" y2="61.6692" gradientUnits="userSpaceOnUse">
<stop offset="0.1" stop-color="#BA6300"/>
<stop offset="0.64" stop-color="#FFCF00"/>
<stop offset="0.78" stop-color="#FECD00"/>
<stop offset="0.85" stop-color="#F9C500"/>
<stop offset="0.91" stop-color="#F1B700"/>
<stop offset="0.96" stop-color="#E5A500"/>
<stop offset="1" stop-color="#D68B00"/>
</linearGradient>
</defs>
</svg>
