<svg width="80" height="78" viewBox="0 0 80 78" fill="none" xmlns="http://www.w3.org/2000/svg">
<path d="M11.2207 31.0332C4.98103 17.1468 11.467 10.612 25.6703 16.575C41.5847 24.1432 54.5636 36.6977 62.6155 52.312C68.8551 66.1984 62.3692 72.7332 48.1658 66.811C32.2398 59.2399 19.2579 46.6682 11.2207 31.0332Z" fill="#FFD400"/>
<path style="mix-blend-mode:screen" d="M11.2205 31.0352C4.98088 17.1488 11.4668 10.6141 25.6702 16.577C41.5846 24.1452 54.5634 36.6997 62.6154 52.314C68.855 66.2004 62.369 72.7352 48.1657 66.813C32.2396 59.2419 19.2578 46.6702 11.2205 31.0352Z" fill="url(#paint0_linear_47_1586)"/>
<path d="M3.58615 29.6857C-4.21339 12.3686 3.87351 4.28183 21.6482 11.5926C41.5648 21.0335 57.8174 36.716 67.9118 56.2332C75.6703 73.5504 67.6244 81.6371 49.8497 74.3264C29.9262 64.8955 13.6707 49.2103 3.58615 29.6857ZM9.99 32.2996C18.0273 47.9347 31.0091 60.5063 46.9352 68.0775C61.1385 73.9588 67.4603 67.4649 61.3848 53.6193C53.3475 37.9843 40.3657 25.4126 24.4397 17.8415C10.2363 11.9602 3.91457 18.4541 9.99 32.2996Z" fill="#FFD400"/>
<path style="mix-blend-mode:screen" d="M3.58615 29.6857C-4.21339 12.3686 3.87351 4.28183 21.6482 11.5926C41.5648 21.0335 57.8174 36.716 67.9118 56.2332C75.6703 73.5504 67.6244 81.6371 49.8497 74.3264C29.9262 64.8955 13.6707 49.2103 3.58615 29.6857ZM9.99 32.2996C18.0273 47.9347 31.0091 60.5063 46.9352 68.0775C61.1385 73.9588 67.4603 67.4649 61.3848 53.6193C53.3475 37.9843 40.3657 25.4126 24.4397 17.8415C10.2363 11.9602 3.91457 18.4541 9.99 32.2996Z" fill="url(#paint1_linear_47_1586)"/>
<path d="M79.1174 59.746L79.1174 61.7065C79.0151 57.4459 77.9636 53.261 76.0386 49.4538C65.6163 29.2633 48.7927 13.0561 28.1741 3.34282C24.1305 1.45557 19.7092 0.505965 15.2433 0.565546L17.5421 0.443018C21.794 0.410506 26.0001 1.31722 29.8571 3.09777C49.789 12.5314 66.0567 28.2146 76.1617 47.7384C78.0372 51.4706 79.0472 55.5739 79.1174 59.746Z" fill="#B15200"/>
<path d="M9.33283 17.7203L10.5643 16.4541C9.58639 17.7116 8.94219 19.1938 8.69111 20.764C8.44003 22.3342 8.59011 23.9421 9.12757 25.4394L7.89608 26.7464C7.35885 25.2422 7.20887 23.6281 7.45984 22.0514C7.71082 20.4747 8.35474 18.9857 9.33283 17.7203Z" fill="#B15200"/>
<path d="M8.0601 26.7459L9.29158 25.4389C9.69869 27.1922 10.2761 28.902 11.0157 30.5442L9.78419 31.8512C9.03242 30.2138 8.45459 28.5027 8.0601 26.7459Z" fill="#BC6300"/>
<path d="M9.78419 31.8506L11.0157 30.5437L11.0157 31.0338L9.78419 32.2999L9.78419 31.8506Z" fill="#C36E00"/>
<path d="M9.98918 32.2989L11.2207 31.0328C11.8722 32.6113 12.6122 34.1521 13.4374 35.648L12.2059 36.9549C11.3104 35.4499 10.5018 33.8954 9.78391 32.2989" fill="#C36E00"/>
<path d="M12.4112 36.9543L13.6428 35.6473C14.8411 37.5937 16.1428 39.4751 17.5425 41.2836L16.311 42.5497C14.9665 40.738 13.7196 38.8566 12.5754 36.9134" fill="#CE7700"/>
<path d="M16.1469 42.5909L17.5426 41.2839C19.7925 44.2816 22.2331 47.1328 24.8496 49.82L23.6181 51.0861C21.0016 48.3989 18.561 45.5478 16.3111 42.55" fill="#D78700"/>
<path d="M23.4537 51.127L24.6852 49.8609C27.6028 52.7742 30.7013 55.5023 33.9625 58.0293L32.731 59.2954C29.4612 56.7788 26.362 54.0501 23.4537 51.127Z" fill="#DD9200"/>
<path d="M32.7315 59.4612L33.963 58.1951C36.7927 60.4138 39.7839 62.4205 42.9119 64.1989L41.6804 65.4651C38.5524 63.6867 35.5612 61.6799 32.7315 59.4612Z" fill="#D78700"/>
<path d="M41.6797 65.4637L42.9112 64.1976C44.6579 65.1593 46.4527 66.0317 48.2887 66.8115L48.5761 66.8115L47.3446 68.0776L47.0572 68.0776C45.2136 67.3145 43.4178 66.4416 41.6797 65.4637Z" fill="#CE7700"/>
<path d="M47.3451 68.2015L48.5766 66.9354C50.139 67.5642 51.7439 68.0828 53.3794 68.4874L52.1479 69.7535C50.507 69.3677 48.9007 68.8486 47.3451 68.2015Z" fill="#C36E00"/>
<path d="M52.1479 69.8745L53.3794 68.6084C54.8582 68.958 56.3751 69.1227 57.8949 69.0985L56.6634 70.3646C55.1436 70.3888 53.6267 70.2242 52.1479 69.8745Z" fill="#BC6300"/>
<path d="M56.6636 70.2412L57.8951 68.9751C59.8742 69.0164 61.7905 68.2831 63.2316 66.9329L62.0001 68.1991C60.559 69.5492 58.6427 70.2825 56.6636 70.2412Z" fill="#B15200"/>
<path d="M64.5036 76.8579L62.369 76.8579C63.358 76.7948 64.3362 76.6166 65.2835 76.3269L67.5002 76.3269C66.5265 76.6306 65.5211 76.8224 64.5036 76.8987" fill="#BC6300"/>
<path d="M67.5005 76.2877L65.2838 76.2877C66.3791 75.9288 67.3862 75.3443 68.2394 74.5724L70.5382 74.5724C69.6649 75.369 68.6286 75.9681 67.5005 76.3286" fill="#C36E00"/>
<path d="M70.5385 74.532L68.2397 74.532C68.8978 73.9103 69.4398 73.1774 69.8407 72.3673L72.2216 72.0406C71.8187 72.9066 71.2466 73.6841 70.5385 74.3278" fill="#CE7700"/>
<path d="M72.2209 72.2429L69.84 72.5697C70.2232 71.779 70.4992 70.9412 70.661 70.0783L73.0419 69.6699C72.8988 70.5635 72.6221 71.4308 72.2209 72.2429Z" fill="#D78700"/>
<path d="M73.042 69.6694L70.6611 70.0778C70.8155 69.1741 70.8843 68.2579 70.8663 67.3414L73.2472 66.8921C73.353 67.8149 73.353 68.7466 73.2472 69.6694" fill="#DD9200"/>
<path d="M73.2473 66.8932L70.8664 67.3425C70.8314 66.369 70.7216 65.3995 70.538 64.4427L72.96 63.8709C73.131 64.8698 73.227 65.8801 73.2473 66.8932Z" fill="#E6A300"/>
<path d="M72.9599 63.8707L70.538 64.4425C70.3561 63.3802 70.1094 62.33 69.799 61.2976L72.18 60.6441C72.5084 61.7469 72.7547 62.8496 72.9599 63.8707Z" fill="#ECAF00"/>
<path d="M72.1801 60.6448L69.7992 61.2983C69.4708 60.2364 69.1014 59.0928 68.6088 57.9084L70.9486 57.1324C71.4193 58.2815 71.8304 59.4538 72.1801 60.6448Z" fill="#F1B700"/>
<path d="M70.9072 57.132L68.5673 57.908L67.8694 56.2335L67.0074 54.4364L69.2651 53.5379C69.5935 54.1505 69.8809 54.804 70.1682 55.4166L70.9072 57.132Z" fill="#F6C100"/>
<path d="M69.3071 53.5373L67.0493 54.4358C66.5157 53.3739 65.941 52.2712 65.3252 51.2093L67.5419 50.2291C68.1577 51.3318 68.7734 52.4345 69.3071 53.5373Z" fill="#FDCB00"/>
<path d="M67.5417 50.2286L65.325 51.2088C64.8324 50.3511 64.2987 49.4934 63.7651 48.6357L65.9407 47.533L67.5417 50.2286Z" fill="#FFD400"/>
<path d="M65.9403 47.5347L63.7646 48.6375C63.3541 47.9432 62.9025 47.2897 62.451 46.6362L64.5856 45.4926L65.9403 47.5347Z" fill="#FFDB00"/>
<path d="M64.5857 45.3693L62.4511 46.5128L61.3017 44.8383L63.3953 43.613L64.5857 45.3693Z" fill="#FFE800"/>
<path d="M63.3951 43.7355L61.3016 44.9607L60.2753 43.5312L62.3278 42.306C62.6973 42.7961 63.0667 43.2454 63.3951 43.7355Z" fill="#FFE900"/>
<path d="M62.3275 42.3075L60.275 43.5327L59.3719 42.3483L61.3834 41.0413C61.7209 41.446 62.0361 41.8687 62.3275 42.3075Z" fill="#FFEB00"/>
<path d="M61.3837 41.0392L59.3722 42.3461L58.5923 41.2842L60.6038 39.9364L61.4658 41.08" fill="#FFEE00"/>
<path d="M60.5224 39.8943L58.593 41.283C58.3467 40.9154 58.0594 40.5886 57.772 40.2211L59.7424 38.8733L60.6045 39.9352" fill="#FFEE00"/>
<path d="M59.6612 38.8345L57.6908 40.1823L56.9109 39.2429L58.8813 37.8543L59.6612 38.8345Z" fill="#FFEE00"/>
<path d="M58.8801 37.8546L56.9097 39.2432C56.6634 38.9573 56.4171 38.6306 56.1297 38.3447L58.0591 36.9152C58.3464 37.2011 58.5927 37.5278 58.8801 37.8546Z" fill="#FFEE00"/>
<path d="M58.0598 36.9156L56.1305 38.3451L55.3505 37.4057L57.2388 35.9354L58.0598 36.9156Z" fill="#FFF302"/>
<path d="M57.2381 35.9333L55.3498 37.4037L54.5699 36.5051L56.4582 35.0348L57.2381 35.9333Z" fill="#FFF312"/>
<path d="M56.4584 35.0359L54.5701 36.5062C54.3238 36.2203 54.0364 35.9344 53.7901 35.6077L55.5963 34.0965L56.4584 35.0359Z" fill="#FFF325"/>
<path d="M55.5957 34.0959L53.7895 35.6071L52.8864 34.6677L54.4874 33.1157L55.3905 34.0959" fill="#FFF333"/>
<path d="M54.4876 33.1157L52.6814 34.6677L51.6962 33.6058L53.5024 32.0129L54.4876 33.1157Z" fill="#FFF344"/>
<path d="M53.7078 32.0144L51.9016 33.6072L50.8754 32.5453L52.6405 30.9525L53.7078 32.0144Z" fill="#FFF34F"/>
<path d="M52.6402 30.9512L50.8751 32.544L49.192 30.8287L50.8751 29.1541L52.6402 30.9512Z" fill="#FFF95C"/>
<path d="M50.8753 29.0323L49.1923 30.7068C47.7555 29.3182 46.2777 27.9296 44.7999 26.6226L46.2777 24.9481C47.8376 26.2959 49.3565 27.7254 50.8343 29.0323" fill="#FFF964"/>
<path d="M46.2774 24.9493L44.7585 26.7464L42.9113 25.1535L44.3891 23.2748L46.2774 24.9493Z" fill="#FFF95C"/>
<path d="M44.4314 23.2729L42.9535 25.1516L41.722 24.1714L43.1588 22.2518L44.4314 23.2729Z" fill="#FFF34F"/>
<path d="M43.1579 22.2528L41.7211 24.1724L40.5717 23.1921L41.9674 21.2726L43.1579 22.2528Z" fill="#FFF344"/>
<path d="M41.9673 21.2718L40.5716 23.1914L39.5864 22.4562L40.9821 20.4958L41.9673 21.2718Z" fill="#FFF333"/>
<path d="M40.9821 20.4968L39.5864 22.4572L38.6423 21.6812L39.9559 19.7208L40.9821 20.4968Z" fill="#FFF325"/>
<path d="M39.956 19.7201L38.6424 21.6805L37.6572 20.9453L38.9708 18.9441L39.956 19.7201Z" fill="#FFF312"/>
<path d="M38.9708 18.9446L37.6572 20.8642L36.672 20.1699L37.9445 18.1278L38.9708 18.8629" fill="#FFF302"/>
<path d="M38.0672 18.2104L36.7946 20.2525L35.8504 19.5582L37.0819 17.516L38.0672 18.2104Z" fill="#FFEE00"/>
<path d="M36.9586 17.5148L35.7271 19.5569L34.6598 18.8217L35.8502 16.7388L36.9586 17.5148Z" fill="#FFEE00"/>
<path d="M35.8509 16.7787L34.6604 18.8616L33.511 18.0856L34.6604 16.0027L35.8509 16.7787Z" fill="#FFEE00"/>
<path d="M34.6612 15.9624L33.5118 18.0453L32.3213 17.2694L33.4707 15.1456L34.6612 15.9624Z" fill="#FFEE00"/>
<path d="M33.4692 15.1458L32.3198 17.2696L30.8831 16.3711L31.9504 14.2065L33.4692 15.1458Z" fill="#FFEB00"/>
<path d="M31.9512 14.2075L30.8839 16.3722L29.2829 15.4328L30.3092 13.2273L31.9512 14.2075Z" fill="#FFE900"/>
<path d="M30.3092 13.2252L29.283 15.4307L27.2715 14.2871L28.2157 12.0817L30.3092 13.2252Z" fill="#FFE800"/>
<path d="M28.2164 12.0836L27.2722 14.2891L24.645 12.9413L25.5071 10.695C26.4102 11.1034 27.3133 11.5935 28.2164 12.0836Z" fill="#FFDB00"/>
<path d="M25.5063 10.6953L24.6443 12.9416L21.6476 11.5938L21.3602 11.5938L22.0992 9.30662L22.3865 9.30662C23.452 9.71048 24.4936 10.1741 25.5063 10.6953Z" fill="#FFD400"/>
<path d="M22.099 9.1831L21.3601 11.4703C20.0875 10.9802 18.8971 10.5309 17.7477 10.2042L18.3634 7.83531C19.5538 8.20289 20.8264 8.65215 22.099 9.1831Z" fill="#FDCB00"/>
<path d="M18.3637 7.8347L17.748 10.2036C16.6428 9.8559 15.519 9.56957 14.3819 9.34587L14.9155 6.93617C16.0814 7.16899 17.2328 7.469 18.3637 7.8347Z" fill="#F6C100"/>
<path d="M14.9158 6.93594L14.3822 9.34564C13.3807 9.13753 12.3655 9.00103 11.3445 8.93722L11.7549 6.52752C12.8168 6.59086 13.873 6.72733 14.9158 6.93594Z" fill="#F1B700"/>
<path d="M11.7549 6.52814L11.3444 8.93784C10.4432 8.85553 9.53632 8.85553 8.63511 8.93784L8.96352 6.52814C9.89216 6.4458 10.8263 6.4458 11.7549 6.52814Z" fill="#ECAF00"/>
<path d="M8.96292 6.57029L8.63451 8.97999C7.81126 9.05233 6.9988 9.21673 6.21255 9.47009L6.49989 7.10124C7.29745 6.82991 8.12402 6.65174 8.96292 6.57029Z" fill="#E6A300"/>
<path d="M6.50021 7.10005L6.21286 9.4689C5.46975 9.70843 4.76481 10.0522 4.11933 10.49L4.11933 8.16195C4.77888 7.68795 5.51456 7.32888 6.29498 7.10005" fill="#DD9200"/>
<path d="M4.32395 8.16228L4.32395 10.4903C3.64025 10.9397 3.04251 11.5067 2.55879 12.1648L2.55879 9.87765C3.04507 9.19621 3.65823 8.6139 4.36501 8.16228" fill="#D78700"/>
<path d="M2.51931 9.87787L2.51931 12.165C1.96472 12.9319 1.54806 13.7887 1.28783 14.6973L1.28783 12.4509C1.55737 11.518 2.00319 10.6447 2.60143 9.87787" fill="#CE7700"/>
<path d="M1.12299 12.4517L1.12299 14.698C0.823072 15.6649 0.657325 16.668 0.630365 17.6795L0.630365 15.5557C0.659976 14.5043 0.825552 13.461 1.12299 12.4517Z" fill="#C36E00"/>
<path d="M76.6136 68.2816L70.9077 74.2445C72.1741 72.6152 73.0073 70.6945 73.3301 68.66C73.653 66.6255 73.4552 64.5428 72.7549 62.6045L78.5019 56.6824C79.1949 58.615 79.3888 60.6899 79.0661 62.7165C78.7433 64.7432 77.9142 66.6567 76.6547 68.2816" fill="#B15200"/>
<path d="M78.4615 56.6814L72.7144 62.6036C72.1649 60.3478 71.4092 58.1468 70.4567 56.028L76.2448 50.065C77.1928 52.1956 77.935 54.411 78.4615 56.6814Z" fill="#BC6300"/>
<path d="M76.2452 50.0676L70.4571 56.0305L70.2108 55.4179C69.2762 53.3774 68.2349 51.387 67.091 49.4549L72.8791 43.492C74.026 45.4156 75.0542 47.4069 75.9578 49.4549C76.0704 49.6509 76.1666 49.8558 76.2452 50.0676Z" fill="#C36E00"/>
<path d="M72.8788 43.4898L67.0908 49.4528C65.654 47.0431 64.053 44.5925 62.2468 42.142L68.0349 36.2199C69.8001 38.6296 71.4421 41.0801 72.8788 43.4898Z" fill="#CE7700"/>
<path d="M68.0345 36.2194L62.2464 42.1415C59.3555 38.2805 56.2154 34.6106 52.8459 31.155L58.593 25.192C61.9975 28.6418 65.1525 32.3268 68.0345 36.2194Z" fill="#D78700"/>
<path d="M58.5932 25.1926L52.8461 31.1556C49.1108 27.2976 45.1052 23.7081 40.8595 20.414L46.6476 14.4511C50.8801 17.7456 54.872 21.3352 58.5932 25.1926Z" fill="#DD9200"/>
<path d="M46.6477 14.4508L40.8596 20.4138C37.2125 17.5594 33.3568 14.9792 29.3245 12.6946L35.1126 6.77246C39.1396 9.06545 42.9947 11.6453 46.6477 14.4917" fill="#D78700"/>
<path d="M35.1112 6.73176L29.3231 12.6947C27.0815 11.4386 24.7646 10.3202 22.3856 9.34567L22.0162 9.34567L27.8043 3.17848L28.1737 3.17848C30.5532 4.16735 32.87 5.29941 35.1112 6.56839" fill="#CE7700"/>
<path d="M27.8046 3.17912L22.0165 9.14209C20.0179 8.32081 17.9594 7.6518 15.8589 7.14082L21.647 1.17785C23.7627 1.68226 25.8353 2.35141 27.8456 3.17912" fill="#C36E00"/>
<path d="M21.6476 1.17722L15.9006 7.1402C13.9919 6.68497 12.0341 6.46549 10.0715 6.48672L15.8185 0.44206C17.7863 0.419645 19.7477 0.667025 21.6476 1.17722Z" fill="#BC6300"/>
<path d="M15.819 0.443804L10.0309 6.36594C7.45951 6.32005 4.97122 7.27224 3.09346 9.02069L8.88152 3.05771C9.8086 2.18993 10.8985 1.51243 12.0889 1.06392C13.2792 0.615414 14.5468 0.404693 15.819 0.443804Z" fill="#B15200"/>
<path d="M36.5069 52.5973L37.6563 51.5354C39.2767 51.8598 40.933 51.9696 42.5823 51.8622C43.7632 51.8543 44.9222 51.545 45.9484 50.9636L46.1947 50.7594L45.0453 51.8213L44.799 52.0255C43.79 52.6123 42.6427 52.9223 41.474 52.9241C39.8111 53.0328 38.141 52.9229 36.5069 52.5973Z" fill="#B05500"/>
<path d="M51.8191 57.3348L52.9274 56.2729L58.4692 62.4809L57.3609 63.5428L51.8191 57.3348Z" fill="#A64900"/>
<path d="M18.076 19.5565L19.2254 18.4946L25.0135 24.9885L23.9051 26.0912L18.076 19.5565Z" fill="#A64900"/>
<path d="M14.9147 21.844L16.0641 20.7821L19.225 18.4949L18.0755 19.5568L14.9147 21.844Z" fill="#9F3E00"/>
<path d="M27.5174 33.89L28.6258 32.8281C28.4223 33.0229 28.2623 33.2581 28.1562 33.5184C28.0501 33.7788 28.0003 34.0585 28.01 34.3392C27.9901 34.461 27.9901 34.5851 28.01 34.7068L26.8606 35.8096C26.8407 35.6878 26.8407 35.5637 26.8606 35.442C26.8555 35.1521 26.9112 34.8643 27.0243 34.597C27.1374 34.3298 27.3054 34.0889 27.5174 33.89Z" fill="#CC7D00"/>
<path d="M26.9021 35.8106L28.0516 34.7078C28.0961 34.9768 28.179 35.2382 28.2979 35.4838L27.1895 36.5457C27.0414 36.3242 26.9433 36.0734 26.9021 35.8106Z" fill="#BF6900"/>
<path d="M27.1898 36.5445L28.2982 35.4826C28.9511 36.6318 29.9386 37.5574 31.1306 38.1373C31.7882 38.3774 32.4827 38.5018 33.1831 38.5049C33.8399 38.5049 34.702 38.5049 35.8103 38.219C37.263 37.9934 38.7329 37.8978 40.2027 37.9331C41.7382 38.0423 43.2276 38.5036 44.554 39.2809C46.4844 40.3259 48.2089 41.7095 49.6442 43.3651C50.8803 44.688 51.9298 46.1719 52.7641 47.7761L51.6557 48.838C50.8073 47.2424 49.759 45.7603 48.5359 44.427C47.0785 42.7777 45.3418 41.3954 43.4046 40.3428C42.1367 39.6337 40.7427 39.176 39.2996 38.995C37.8298 38.9597 36.3598 39.0554 34.9072 39.2809C33.7989 39.2809 32.8958 39.5259 32.239 39.5668C31.5371 39.5808 30.8394 39.4559 30.1865 39.1992C29.4238 38.8872 28.7479 38.3968 28.216 37.7697C27.8819 37.4048 27.6051 36.9917 27.3951 36.5445" fill="#B05500"/>
<path d="M51.6565 49.0026L52.7649 47.9407C53.2065 48.77 53.5508 49.647 53.7912 50.5546L53.7912 51.0447L52.6417 52.1066L52.6417 51.6573C52.4175 50.7375 52.0869 49.8466 51.6565 49.0026Z" fill="#BF6900"/>
<path d="M52.7634 52.1058L53.9128 51.0439C54.1396 51.9342 54.1689 52.863 53.9988 53.7658C53.8287 54.6685 53.4632 55.5236 52.9276 56.2717L51.7782 57.3336C52.3137 56.5855 52.6793 55.7304 52.8494 54.8277C53.0195 53.9249 52.9902 52.9961 52.7634 52.1058Z" fill="#CC7D00"/>
<path d="M34.1261 26.5399L35.2755 25.4372L39.1753 32.9113L38.0259 33.9732L34.1261 26.5399Z" fill="#B55C00"/>
<path d="M23.8634 26.0927L25.0128 24.99C26.5455 24.482 28.1625 24.274 29.7746 24.3773C31.6411 24.4598 33.4832 24.8319 35.2343 25.4801L34.1259 26.542C32.3552 25.913 30.5026 25.5416 28.6252 25.4392C27.0105 25.3521 25.3941 25.5739 23.8634 26.0927Z" fill="#B05500"/>
<path d="M54.1584 65.7899L48.6987 59.6635C47.4887 60.1767 46.1952 60.4673 44.881 60.5212C43.5024 60.5799 42.122 60.4563 40.776 60.1536L36.671 52.557C38.3051 52.8825 39.9751 52.9924 41.6381 52.8837C42.8068 52.882 43.9541 52.5719 44.9631 51.9852C45.2106 51.8289 45.4127 51.611 45.5495 51.3531C45.6863 51.0952 45.753 50.8063 45.7431 50.5148C45.6667 49.784 45.3321 49.1038 44.7989 48.5953C44.2947 47.9841 43.6458 47.5069 42.9106 47.2066C42.2776 46.9312 41.5892 46.8054 40.8992 46.839C40.2834 46.839 39.3803 46.839 38.1898 46.839C36.7107 47.0729 35.2114 47.155 33.7154 47.0841C32.1381 46.9325 30.612 46.445 29.2409 45.6546C27.2059 44.5211 25.3859 43.0421 23.8633 41.2845C21.8929 39.2023 20.4811 36.66 19.7583 33.892C19.4946 32.9045 19.4573 31.8706 19.6492 30.8667C19.841 29.8629 20.2571 28.9148 20.8667 28.0924L15.0786 21.6393L18.2395 19.3522L24.0275 25.8869C25.5582 25.3681 27.1747 25.1463 28.7894 25.2335C30.5654 25.4317 32.3058 25.8715 33.9617 26.5404L38.0667 34.0145C36.1528 33.2723 34.1264 32.858 32.0734 32.7893C30.6502 32.6699 29.223 32.9681 27.9684 33.647C27.6729 33.8444 27.4317 34.1123 27.2668 34.4261C27.1019 34.74 27.0185 35.0899 27.0242 35.444C27.1243 36.3292 27.5306 37.1522 28.1736 37.772C28.7054 38.3991 29.3813 38.8895 30.144 39.2015C30.7969 39.4582 31.4946 39.5831 32.1965 39.5691C32.8533 39.5691 33.7564 39.5691 34.8648 39.2832C36.3174 39.0577 37.7874 38.962 39.2572 38.9973C40.7002 39.1783 42.0943 39.636 43.3622 40.3451C45.2994 41.3977 47.0361 42.78 48.4934 44.4293C50.403 46.4293 51.8096 48.8505 52.5985 51.4951C52.9081 52.4429 52.9914 53.4495 52.8418 54.435C52.6921 55.4204 52.3137 56.3576 51.7364 57.1721L57.2782 63.3802L54.1584 65.7899Z" fill="#F6C400"/>
<g style="mix-blend-mode:screen">
<path style="mix-blend-mode:screen" d="M54.1584 65.7883L48.6988 59.662C47.4888 60.1752 46.1953 60.4658 44.8811 60.5197C43.5024 60.5783 42.122 60.4547 40.7761 60.1521L36.6711 52.5554C38.3051 52.881 39.9752 52.9909 41.6381 52.8822C42.8068 52.8804 43.9542 52.5704 44.9632 51.9836C45.2106 51.8273 45.4127 51.6095 45.5495 51.3516C45.6863 51.0937 45.7531 50.8047 45.7431 50.5133C45.6667 49.7824 45.3322 49.1022 44.799 48.5937C44.2947 47.9825 43.6459 47.5054 42.9107 47.2051C42.2777 46.9297 41.5892 46.8039 40.8992 46.8375C40.2835 46.8375 39.3804 46.8375 38.1899 46.8375C36.7108 47.0713 35.2114 47.1535 33.7154 47.0826C32.1381 46.931 30.6121 46.4435 29.241 45.6531C27.206 44.5196 25.386 43.0406 23.8634 41.283C21.8929 39.2008 20.4812 36.6585 19.7584 33.8905C19.4947 32.9029 19.4574 31.869 19.6492 30.8652C19.8411 29.8614 20.2571 28.9133 20.8667 28.0909L15.0787 21.6378L18.2395 19.3506L24.0276 25.8854C25.5583 25.3666 27.1748 25.1448 28.7894 25.2319C30.5655 25.4302 32.3058 25.8699 33.9617 26.5389L38.0668 34.013C36.1529 33.2707 34.1264 32.8565 32.0734 32.7878C30.6503 32.6683 29.2231 32.9665 27.9684 33.6454C27.6729 33.8429 27.4317 34.1108 27.2668 34.4246C27.1019 34.7385 27.0186 35.0884 27.0243 35.4425C27.1244 36.3277 27.5307 37.1507 28.1737 37.7705C28.7055 38.3976 29.3814 38.888 30.1441 39.2C30.797 39.4567 31.4947 39.5816 32.1966 39.5676C32.8534 39.5676 33.7565 39.5676 34.8649 39.2817C36.3175 39.0561 37.7875 38.9605 39.2572 38.9958C40.7003 39.1768 42.0944 39.6345 43.3622 40.3436C45.2994 41.3961 47.0361 42.7785 48.4935 44.4278C50.403 46.4278 51.8097 48.849 52.5985 51.4935C52.9082 52.4414 52.9915 53.448 52.8418 54.4334C52.6922 55.4189 52.3137 56.3561 51.7365 57.1706L57.2782 63.3786L54.1584 65.7883Z" fill="url(#paint2_linear_47_1586)"/>
</g>
<defs>
<linearGradient id="paint0_linear_47_1586" x1="-2933.63" y1="-963.529" x2="-3703.36" y2="-963.53" gradientUnits="userSpaceOnUse">
<stop stop-color="#C9C7C7"/>
<stop offset="0.06" stop-color="#E4E3E3"/>
<stop offset="0.11" stop-color="white"/>
<stop offset="0.12" stop-color="#F6F5F5"/>
<stop offset="0.15" stop-color="#DDDCDB"/>
<stop offset="0.19" stop-color="#B4B2B0"/>
<stop offset="0.23" stop-color="#7C7876"/>
<stop offset="0.25" stop-color="#6B6764"/>
<stop offset="0.27" stop-color="#6D6967"/>
<stop offset="0.28" stop-color="#75726F"/>
<stop offset="0.29" stop-color="#837F7D"/>
<stop offset="0.3" stop-color="#969391"/>
<stop offset="0.31" stop-color="#C9C7C7"/>
<stop offset="0.35" stop-color="#BFBDBD"/>
<stop offset="0.41" stop-color="#A5A3A3"/>
<stop offset="0.48" stop-color="#7A7878"/>
<stop offset="0.57" stop-color="#403E3E"/>
<stop offset="0.65" stop-color="#020000"/>
<stop offset="0.67" stop-color="#0C0908"/>
<stop offset="0.71" stop-color="#26221F"/>
<stop offset="0.74" stop-color="#3B3732"/>
<stop offset="0.75" stop-color="#211F1C"/>
<stop offset="0.76" stop-color="#0F0E0D"/>
<stop offset="0.77" stop-color="#040303"/>
<stop offset="0.78" stop-color="#0F0F0F"/>
<stop offset="0.8" stop-color="#464646"/>
<stop offset="0.81" stop-color="#787878"/>
<stop offset="0.82" stop-color="#A1A1A1"/>
<stop offset="0.83" stop-color="#C3C3C3"/>
<stop offset="0.84" stop-color="#DEDEDE"/>
<stop offset="0.86" stop-color="#F0F0F0"/>
<stop offset="0.87" stop-color="#FBFBFB"/>
<stop offset="0.88" stop-color="white"/>
<stop offset="0.89" stop-color="#EFEFEF"/>
<stop offset="0.91" stop-color="#CFCFCE"/>
<stop offset="0.93" stop-color="#B5B5B3"/>
<stop offset="0.95" stop-color="#A3A3A1"/>
<stop offset="0.98" stop-color="#989896"/>
<stop offset="1" stop-color="#949492"/>
</linearGradient>
<linearGradient id="paint1_linear_47_1586" x1="-3582.84" y1="-1189.31" x2="-4784.81" y2="-1189.31" gradientUnits="userSpaceOnUse">
<stop stop-color="#C9C7C7"/>
<stop offset="0.06" stop-color="#E4E3E3"/>
<stop offset="0.11" stop-color="white"/>
<stop offset="0.12" stop-color="#F6F5F5"/>
<stop offset="0.15" stop-color="#DDDCDB"/>
<stop offset="0.19" stop-color="#B4B2B0"/>
<stop offset="0.23" stop-color="#7C7876"/>
<stop offset="0.25" stop-color="#6B6764"/>
<stop offset="0.27" stop-color="#6D6967"/>
<stop offset="0.28" stop-color="#75726F"/>
<stop offset="0.29" stop-color="#837F7D"/>
<stop offset="0.3" stop-color="#969391"/>
<stop offset="0.31" stop-color="#C9C7C7"/>
<stop offset="0.35" stop-color="#BFBDBD"/>
<stop offset="0.41" stop-color="#A5A3A3"/>
<stop offset="0.48" stop-color="#7A7878"/>
<stop offset="0.57" stop-color="#403E3E"/>
<stop offset="0.65" stop-color="#020000"/>
<stop offset="0.67" stop-color="#0C0908"/>
<stop offset="0.71" stop-color="#26221F"/>
<stop offset="0.74" stop-color="#3B3732"/>
<stop offset="0.75" stop-color="#211F1C"/>
<stop offset="0.76" stop-color="#0F0E0D"/>
<stop offset="0.77" stop-color="#040303"/>
<stop offset="0.78" stop-color="#0F0F0F"/>
<stop offset="0.8" stop-color="#464646"/>
<stop offset="0.81" stop-color="#787878"/>
<stop offset="0.82" stop-color="#A1A1A1"/>
<stop offset="0.83" stop-color="#C3C3C3"/>
<stop offset="0.84" stop-color="#DEDEDE"/>
<stop offset="0.86" stop-color="#F0F0F0"/>
<stop offset="0.87" stop-color="#FBFBFB"/>
<stop offset="0.88" stop-color="white"/>
<stop offset="0.89" stop-color="#EFEFEF"/>
<stop offset="0.91" stop-color="#CFCFCE"/>
<stop offset="0.93" stop-color="#B5B5B3"/>
<stop offset="0.95" stop-color="#A3A3A1"/>
<stop offset="0.98" stop-color="#989896"/>
<stop offset="1" stop-color="#949492"/>
</linearGradient>
<linearGradient id="paint2_linear_47_1586" x1="-2833.81" y1="-800.275" x2="-2237.96" y2="-800.275" gradientUnits="userSpaceOnUse">
<stop stop-color="#C9C7C7"/>
<stop offset="0.06" stop-color="#E4E3E3"/>
<stop offset="0.11" stop-color="white"/>
<stop offset="0.12" stop-color="#F6F5F5"/>
<stop offset="0.15" stop-color="#DDDCDB"/>
<stop offset="0.19" stop-color="#B4B2B0"/>
<stop offset="0.23" stop-color="#7C7876"/>
<stop offset="0.25" stop-color="#6B6764"/>
<stop offset="0.27" stop-color="#6D6967"/>
<stop offset="0.28" stop-color="#75726F"/>
<stop offset="0.29" stop-color="#837F7D"/>
<stop offset="0.3" stop-color="#969391"/>
<stop offset="0.31" stop-color="#C9C7C7"/>
<stop offset="0.35" stop-color="#BFBDBD"/>
<stop offset="0.41" stop-color="#A5A3A3"/>
<stop offset="0.48" stop-color="#7A7878"/>
<stop offset="0.57" stop-color="#403E3E"/>
<stop offset="0.65" stop-color="#020000"/>
<stop offset="0.67" stop-color="#0C0908"/>
<stop offset="0.71" stop-color="#26221F"/>
<stop offset="0.74" stop-color="#3B3732"/>
<stop offset="0.75" stop-color="#211F1C"/>
<stop offset="0.76" stop-color="#0F0E0D"/>
<stop offset="0.77" stop-color="#040303"/>
<stop offset="0.78" stop-color="#0F0F0F"/>
<stop offset="0.8" stop-color="#464646"/>
<stop offset="0.81" stop-color="#787878"/>
<stop offset="0.82" stop-color="#A1A1A1"/>
<stop offset="0.83" stop-color="#C3C3C3"/>
<stop offset="0.84" stop-color="#DEDEDE"/>
<stop offset="0.86" stop-color="#F0F0F0"/>
<stop offset="0.87" stop-color="#FBFBFB"/>
<stop offset="0.88" stop-color="white"/>
<stop offset="0.89" stop-color="#EFEFEF"/>
<stop offset="0.91" stop-color="#CFCFCE"/>
<stop offset="0.93" stop-color="#B5B5B3"/>
<stop offset="0.95" stop-color="#A3A3A1"/>
<stop offset="0.98" stop-color="#989896"/>
<stop offset="1" stop-color="#949492"/>
</linearGradient>
</defs>
</svg>
